<svg xmlns="http://www.w3.org/2000/svg" xmlns:xlink="http://www.w3.org/1999/xlink" viewBox="0 0 401 589.83"><defs><style>.cls-1{isolation:isolate;}.cls-2{fill:#c0b3bc;}.cls-3{fill:#e8c8ba;}.cls-4{fill:#ddac9e;}.cls-5{mix-blend-mode:multiply;}.cls-6{fill:url(#linear-gradient);}.cls-7{fill:#4d87db;}.cls-8{fill:#3357bc;}.cls-9{fill:#e8e7e6;}.cls-10{fill:#9b8f8e;}.cls-11{fill:#bfb8b8;}.cls-12{fill:#8c0000;}.cls-13{fill:#ce0000;}.cls-14{fill:#fff;}</style><linearGradient id="linear-gradient" x1="112.11" y1="430.94" x2="151.8" y2="354.3" gradientUnits="userSpaceOnUse"><stop offset="0" stop-color="#fff"/><stop offset="0.64" stop-color="#c6c0b9"/></linearGradient></defs><title>Ресурс 49</title><g class="cls-1"><g id="Слой_2" data-name="Слой 2"><g id="Слой_2-2" data-name="Слой 2"><ellipse class="cls-2" cx="149" cy="543.92" rx="149" ry="45.92"/><ellipse class="cls-2" cx="297.5" cy="541.92" rx="103.5" ry="45.92"/><path class="cls-3" d="M150.51,106.09c8,1.36,52.77,20,57.22,20.28S242,98.06,242,98.06l9.43,6.35s-31.2,37.86-36.66,39.76-51.18-4.49-55.62-4.76S150.51,106.09,150.51,106.09Z"/><path class="cls-4" d="M257.45,82.8c8.19,0,15.31-.48,16.8.72a6.31,6.31,0,0,1,2.55,5.19c.2,3.67,1.62,8.76.4,9.16-1.55.51-2.29-3.23-2.42-4.81s-3.63-6.45-4.3-6.49S257.45,82.8,257.45,82.8Z"/><path class="cls-3" d="M239.74,100.11c1.15-.6,16.36-16.94,17.71-17.31s13.62,1.35,14.51,1.4a3.73,3.73,0,0,1,2.75,2.4c.66,4.35,2.45,12,1.48,13.51s-1.84.29-2.65-.88l-3.06-8.87A22.31,22.31,0,0,0,266.33,89c-1.12-.06-4.13,2-4.13,2l1.53,4.11s.74,6.38-2.82,6.84c-4.68.62-9.26,1.81-11.16,3.71S239.74,100.11,239.74,100.11Z"/><path class="cls-3" d="M253.26,102.73c2.42.59,7.64-.89,10.1-1.19s7.44-1.35,8.53-.84,3.21,2.19,3.12,0-.67-3.83-4.67-4.07a15.59,15.59,0,0,1-8.21-3c-1.93-1.23-2.12-3.18-2.81-3.22S253.26,102.73,253.26,102.73Z"/><path class="cls-4" d="M168.45,73.23a27.49,27.49,0,0,0-9.36,24.54c1.24,7.07-1.2,8.4-11.82,3-9.35-4.73-10.9-6.59-17.07-8.13,4.23-4.77,10.29-27.81,7.11-42.65S168.45,73.23,168.45,73.23Z"/><path class="cls-3" d="M137.3,29c4.83-23.17,21.92-30.55,40.33-26.72s25.53,20.49,20.72,43.66a79.54,79.54,0,0,1-3.63,12.52,60.24,60.24,0,0,0,.83,7.95c-.32,1.9-3,2.18-5.74,2-6.54,10.4-15.89,16.18-27.47,13.78C143.92,78.34,132.49,52.18,137.3,29Z"/><path class="cls-4" d="M161.87,82.17a25.41,25.41,0,0,0,5.92.51c-17-10.41-.94-62.15,4.74-69.74-2.66-1.59,8.11-9.94,4.64-10.66C158.75-1.55,141.66,5.83,136.84,29S143.46,78.34,161.87,82.17Z"/><path d="M178.57,29.62l21.17-4C202.52,21.28,196.84,3,168.51.27c-26-2.47-34.48,12.65-38.19,27.5s7.46,38.94,7.46,38.94,22-9.3,19-14.83c-1.86-3.4-3.71-15.15,1.54-14.83,2.54.15,4.32,3.4,4.32,3.4Z"/><path d="M202.38,20.59c1.87,0,9.58,6.63,3.55,16.61-8.8-1.39-32.74-9.89-32.74-9.89l10.42-7.42Z"/><path d="M115.31,22.76c0,8.3,6.15,15,13.76,15s13.77-6.72,13.77-15-6.17-15-13.77-15S115.31,14.46,115.31,22.76Z"/><path class="cls-4" d="M173.78,348c2,13.86-11.22,47.54-15.19,53.49s-13.87,95.76-13.87,101.71c0,10.56,23.12,29.72,38.72,37.07-8.85,5.53-35.71-5.28-46.31-9-8.38-3-15.76.62-17.51-4.62-4-11.89,2.64-15.85,2.64-33.69s-12.54-72.32,0-100.06c7.68-17,4-41,6-46.89S173.78,348,173.78,348Z"/><path d="M119.05,511c-1.49,6.2-3,13.13.57,20.89,1.66,3.63,2.64,14.53,2.64,14.53h9.66l1.66-9.91s5.91,1.81,14,9.91c.36.37,39.74.06,39.74.06s1.31-9-12.32-10.47c-17.72-1.93-35.27-10.51-40.13-14.61A80.7,80.7,0,0,0,119.05,511Z"/><path class="cls-3" d="M160.9,349.92c2,13.87-11.22,47.56-15.18,53.49s-13.89,95.78-13.89,101.72c0,10.57,23.13,29.73,38.74,37.07-8.86,5.53-35.72-5.27-46.33-9-8.37-2.94-15.74.63-17.49-4.62-4-11.88,2.65-15.85,2.65-33.69s-12.56-72.32,0-100.05c7.66-17,3.95-41,5.94-46.89S160.9,349.92,160.9,349.92Z"/><path d="M106.17,513c-1.48,6.19-2.94,13.13.58,20.9,1.65,3.62,2.65,14.52,2.65,14.52h9.65l1.65-9.91s5.92,1.81,14,9.91c.37.37,39.76.06,39.76.06s1.29-9-12.32-10.47c-17.74-1.92-35.28-10.51-40.13-14.61A81.82,81.82,0,0,0,106.17,513Z"/><g class="cls-5"><path class="cls-6" d="M104.36,435.22l62.73-50.54c2.44-3.92-5.62.93-2-11.64-12.67-8.56-35.7-17.21-41.38-13.94a53,53,0,0,0-8.81,6.43c-.24,9.12-1.13,19.87-5.12,28.73C104.89,405.08,103.86,420,104.36,435.22Z"/></g><path class="cls-7" d="M150.33,100.92c5.12,3.28,17.51,12.56,17.51,12.56,4.95,11,17.06,34,18.82,39.62,2.48,7.93-2.3,19.82-4.95,23.77s-6.27,16.52-6.27,21.8-1.32,27.08-1.32,27.08-46.45.15-52.84-2c-4-1.32-5.28-41.61-6.61-62.74s-3.55-46.13,15.2-69.35C139.44,95,142.72,96.05,150.33,100.92Z"/><path class="cls-8" d="M114.67,160.7c1.33,21.14,2.64,61.43,6.61,62.74l.07,0,31-5.64s.64-10.57-.34-13.55-10.9-75.28-10.9-85.19c0-7.31,4.14-14.25,8-19.25-6.75-4.21-10.23-5.37-19.25-8.49C111.12,114.57,113.35,139.56,114.67,160.7Z"/><path class="cls-7" d="M119.3,215.52C98.16,240.29,97,273.79,90.89,306.33c-5.48,29.45-13.2,79.91-13.2,79.91l117.89.67-20.31-170.4Z"/><path class="cls-8" d="M90.89,306.7c-5.48,29.46-13.2,79.91-13.2,79.91l51.71.3c.7-18.94,3.22-106.94,5.75-125.45,2.3-16.81,8.16-33,17.07-45l-32.92-.58C98.16,240.66,97,274.16,90.89,306.7Z"/><path class="cls-9" d="M127.28,94l-1.47-14.4L170.74,101l-2.9,12.45,12.66,1.23.25,26.37s-17.33-30.77-36.38-41.51A53.46,53.46,0,0,0,127.28,94Z"/><rect class="cls-9" x="117.02" y="209.45" width="58.84" height="7.33"/><rect class="cls-10" x="306.15" y="281.7" width="4.84" height="66.83"/><path class="cls-11" d="M295.44,76.58c6.24.6,28.18,0,28.18,0s1.27,3.34,2.68,12.75c1.14,7.58,7.51,10.74,14.5,13.41s23.08,2.15,24.69,9.13-1.61,23.48-5.65,38S344.55,192.52,347,203.38s10.87,29.8,12.88,43.08,6.45,44.69,3.63,47.1-4.29,7.25-31.27,8.86-46.83.54-51.25-.26S289.4,125.69,289,119.65s-8.45-17.77-5.44-18.92c4.23-1.61,10.05-7.65,9.86-12.48C293.22,83,295.44,76.58,295.44,76.58Z"/><path class="cls-10" d="M310,76.58c-6.24.6-18.51,0-18.51,0s-1.28,3.34-2.7,12.75c-1.13,7.58-7.51,10.74-14.48,13.41s-23.08,2.15-24.69,9.13,1.61,23.48,5.64,38,15.29,42.67,12.88,53.53-10.87,29.8-12.88,43.08-6.45,44.69-3.62,47.1,8.64,7.79,32.53,9.12c21.71,1.22,24.69.41,29.78.41C315.06,303.09,310,76.58,310,76.58Z"/><path class="cls-10" d="M302.28,492.13c-4.06.29-14.48,3.77-21.14,13.62-4.65,6.88-3.77,14.48-13.91,20.56s-15.35,8.4-15.35,17.38c8.69-.29,8.69,0,8.69,0s9-4.63,13.32-10.43,11.36-16.67,15.35-19.12c9-5.5,14.2-3.76,14.2-3.76Z"/><path class="cls-10" d="M311.26,492.13c4.05.29,14.48,3.77,21.14,13.62,4.65,6.88,3.76,14.48,13.9,20.56s15.36,8.4,15.36,17.38c-8.69-.29-8.69,0-8.69,0s-9-4.63-13.32-10.43-11.36-16.67-15.35-19.12c-9-5.5-14.2-3.76-14.2-3.76Z"/><path class="cls-10" d="M304.24,352.37c-2.82,2.82-2.17,3.05-3,5.22s1.3,6.51,1.73,12.16-5.65,81.54-.87,126c-.43,14.78-.43,19.13-.43,19.13a18.63,18.63,0,0,0,6.53,1.3V352.37Z"/><path class="cls-11" d="M310.82,352.37c2.81,2.82,2.16,3.05,3,5.22s-1.3,6.51-1.73,12.16,5.64,81.54.86,126c.44,14.78.44,19.13.44,19.13a18.61,18.61,0,0,1-6.52,1.3V352.37Z"/><polygon class="cls-10" points="306.5 566 311.11 566 313.94 528.26 309.59 495.48 305.04 495.48 301.78 528.7 306.5 566"/><polygon class="cls-11" points="313.94 528.26 309.59 495.48 306.89 495.48 308.08 528.7 308.47 566 311.11 566 313.94 528.26"/><path class="cls-12" d="M272.6,101.39c2.08,3,44.72,105.28,44.72,105.28l-46.41,12.46s-42.45-92.26-36.78-101.32S272.6,101.39,272.6,101.39Z"/><path class="cls-13" d="M341.1,100.27,303.75,227.61l33.38-.56s41.31-95.08,39.05-106.4S341.1,100.27,341.1,100.27Z"/><path class="cls-13" d="M346.75,201c7,12.55,25.47,84.88,32.27,170.92-37.36,17-73.59,11.88-94.53,10.75,3.41-163,6.8-182.24,6.8-182.24Z"/><path class="cls-12" d="M268.08,201c-26.6,74.89-32.25,170.16-30.75,176.2s62.45,8.3,85.65,7.17c3.2-.16-4-179.41-8.48-183.94C310.8,196.76,268.08,201,268.08,201Z"/><path class="cls-3" d="M139.29,124.29c10.89-4.27,19.2-.75,22.76,10.48s14.6,45.78,18.93,47.58,47.26-2,52.5-5.73,10.11-15.89,15.21-16.9,16.05.81,19.09,6.16,3.3,9.94-2.07,13-4.71-.4-10.2,2-4.71,2.92-12.37,7.74-59.92,22.16-73,16.15-31.92-37.25-37.15-54C125.75,127.7,139.29,124.29,139.29,124.29Z"/><path class="cls-4" d="M132,150.86c5.23,16.75,24.68,51.68,37.54,58.18,14,7.09,65.62-15.64,73.29-20.46s6.89-5.35,12.37-7.75,4.84,1,10.2-2c4.95-2.82,5.6-6.22,3.21-11.05-9.24-4-12.06-.27-23.94,10.11-9.76,8.56-52.32,20-64.66,18.62-3.54-.38-9.67-5.74-21.38-25.46-10-16.86-16.21-42.79-14.26-51.87-2.74.09-4,2.29-6.67,3.35C137.65,122.53,124.74,127.79,132,150.86Z"/><path class="cls-14" d="M158.26,120.71c2.39,6.09,13.74,42.55,13.74,42.55L141,182.1s-22.17-46.41-15.47-59.57c5.89-11.53,15.88-16.18,23.17-11.74S158.26,120.71,158.26,120.71Z"/><path class="cls-9" d="M125.6,122.43C118.91,135.58,141.08,182,141.08,182l17.36-10.57c-4.14-7.08-12.37-21.88-15.82-33.32-4.15-13.71-4.3-24.34-1.43-28.88C135.53,110,129.62,114.57,125.6,122.43Z"/></g></g></g></svg>