<svg xmlns="http://www.w3.org/2000/svg" xmlns:xlink="http://www.w3.org/1999/xlink" viewBox="0 0 344.07 640.83"><defs><style>.cls-1{isolation:isolate;}.cls-2{fill:#c0b3bc;}.cls-3{fill:#fff;}.cls-4{fill:#232121;}.cls-5{fill:#e8e7e6;}.cls-6{fill:#eabcb2;}.cls-12,.cls-16,.cls-7{mix-blend-mode:multiply;}.cls-8{fill:url(#linear-gradient);}.cls-9{fill:#f7d8d0;}.cls-10{fill:#5e1c17;}.cls-11{fill:#300901;}.cls-12{fill:#e0e0e0;}.cls-13{fill:#bfb8b8;}.cls-14{fill:#4d87db;}.cls-15{fill:#3357bc;}.cls-16{fill:url(#linear-gradient-2);}.cls-17{fill:#fde875;}.cls-18{fill:#ff6c81;}.cls-19{fill:#ff364a;}</style><linearGradient id="linear-gradient" x1="607.73" y1="224.94" x2="654.65" y2="224.94" gradientTransform="translate(-546.91 -78.12) rotate(-1.81)" gradientUnits="userSpaceOnUse"><stop offset="0" stop-color="#fff"/><stop offset="0.64" stop-color="#c6c0b9"/></linearGradient><linearGradient id="linear-gradient-2" x1="-5872.21" y1="275.71" x2="-5703.98" y2="291.54" gradientTransform="matrix(-1, 0, 0, 1, -5737.41, 0)" gradientUnits="userSpaceOnUse"><stop offset="0" stop-color="#fff"/><stop offset="0.09" stop-color="#fafafa"/><stop offset="0.2" stop-color="#edeaea"/><stop offset="0.32" stop-color="#d6d1d1"/><stop offset="0.46" stop-color="#b7adad"/><stop offset="0.59" stop-color="#918282"/></linearGradient></defs><title>Ресурс 48</title><g class="cls-1"><g id="Слой_2" data-name="Слой 2"><g id="Слой_2-2" data-name="Слой 2"><ellipse class="cls-2" cx="149" cy="594.92" rx="149" ry="45.92"/><path class="cls-3" d="M140.39,143.9c-1.11,14.14-2.34,28.13-3.66,42.33,11.46,13.81,15.3,29.45,33.69,38.45s48.9,11,70.24,15.65c2.37-8.18,4.74-16.15,6.39-24.31-12.81-6-38.8-13.05-49-18.8-25.29-14.18-22.93-41.08-45.77-55.28C148.56,142.63,144.29,143.25,140.39,143.9Z"/><path d="M164.89,616l15.91-.87s15-4.54,4-19.84c-6.6-9.17-6.45-18.11-10.11-23s-25.95-3.88-25.95-3.88,4.14,16.11,2.46,22C143.85,616.1,164.89,616,164.89,616Z"/><path class="cls-4" d="M73.56,561.24C71.11,571,82,582.09,58.62,588.87c-7.44,2.17-17.45,11-9,16.58C51.83,607,64.65,607,64.65,607s26-9,33.4-9,7.34-20.4,4.89-30.2S73.56,561.24,73.56,561.24Z"/><path class="cls-5" d="M114.91,132.36s10,3.22,31.69,8.22c14.7,3.39,4.76,12.62,5.69,20.92s-10,67.65-11.9,76.89,10.29,52.18-1.41,68.19c-5.46,7.45-33.24-5.13-50.64-5,0-34.14-.67-130.67,1.18-149.14C90,147.86,114.91,132.36,114.91,132.36Z"/><path d="M134.55,286.31c7.48,14.94,19,59.25,19,79.19s12.48,69.13,14.67,85.34c1.5,11,20.4,130.05,20.4,130.05l-44.84,5s-22.73-120.21-25.21-130.17-19.92-80.94-19.92-80.94-8.14,83.84-3.15,93.8,8.66,104.21,8.66,104.21l-37.49,4.6S61.42,478,59,453.1,43.87,297.55,43.87,297.55Z"/><path class="cls-4" d="M53.67,454.61C56.15,479.51,66.91,581,66.91,581l41.46-4.19s-4.4-96-5-107.13c-1.13-23-4.53-91.22-4.53-91.22s15,74.89,17.47,84.84S140,586.6,140,586.6l23.58-3.34c-1.9-18.88-17.72-96.21-23.25-129.41-2.73-16.38-18.54-122.43-20.83-153.94l-75.65-2.78S51.17,429.71,53.67,454.61Z"/><path class="cls-6" d="M73.27,107.8,70,145s7.33,45.37,18.7,49.5,22.55-25.47,22.31-33.35-2.73-51.12-2.73-51.12Z"/><path class="cls-6" d="M111.09,164.57c-.26-7.87-2.75-51.12-2.75-51.12l-15.24-1-6.27,86.37C98.15,202.56,111.33,172.36,111.09,164.57Z"/><path class="cls-3" d="M67.67,136.64s-9.75,4.21-29.41,12.83c-10.38,4.54-13,8.16-13.95,16.47s20.39,61,22.24,70.18-7.17,67.1,1.14,78c5.59,7.34,36.46-16.89,67.86-16.43,0-34.15,9.49-116.57,18.36-139.36C135.59,154,67.67,136.64,67.67,136.64Z"/><g class="cls-7"><path class="cls-8" d="M66.83,102.75c-1-7.16,32.49,8.73,41.37,14.92l6.93,28.4c-5.53-1.88-25.77,9.42-27.7,7.11C90.27,148.66,70,125.61,66.83,102.75Z"/></g><path class="cls-6" d="M111.26,81.27c-2.42-16-7.46-29.12-30.42-25.91C52.11,59.35,57,76.61,59.32,96.24s17.24,39.19,31.91,37.47c11.16-1.34,18.94-14.62,21-29.55,2.82-2,4.58-6.42,4.21-11.34C115.93,86.4,115.52,81.2,111.26,81.27Z"/><path class="cls-9" d="M58.14,88.16a7.65,7.65,0,0,0-1.29.06c-4.47.88-3.44,6.13-2.17,12.6,1.09,5.61,4.74,9.76,8.6,10.19,5.93,13.46,16.93,23.86,27.78,22.58.48-.07,1-.2,1.42-.3l-12.07-78C55.94,58.79,56.14,72,58.14,88.16Z"/><path class="cls-10" d="M70.68,53.22c-4.05-1.53-11.1,1.38-15.29,6.54-3.7,4.55-3.15,8.14-2.34,16.67a97.56,97.56,0,0,0,1.73,12.35l3.54.38,2.89,1.4-.09-7.08s-3.07-6.07,3.09-13.07,17-5.28,17-5.28Z"/><path class="cls-11" d="M72.48,64.59c3.17,2.85,5.6,3.4,13.12,1.92s15.35,2.21,17.7,5.23,3.85,10.82,3.85,10.82l4.81-1.3L115,82.39s-1.3-14.1-7.69-23.21c-4.83-6.86-5.2-9.53-14.71-10.85-4.31-.59-19.34-1.85-21.93,4.89C69.45,56.4,72.48,64.59,72.48,64.59Z"/><path class="cls-5" d="M54.47,61.32C52,53.42,47,50.13,44.33,48.87s-10-7.75-7.77-15.88,3.64-12.8,8.9-18.1S50.77,8,57.5,5.52A105.56,105.56,0,0,0,68.2,1.18c4-1.82,22.45-1.35,30.36.16,11.29,2.14,14.7,7.54,20.36,12.06,2.5,2,8.86,8.09,9.41,22.24.18,4.36-12,17.7-17.9,17.88s-19.08-7.79-19.08-7.79Z"/><path class="cls-5" d="M114.39,75.86l-6.07-37.77S68.6,23.7,47.4,49.58c8.12,38.19,5.94,36.18,5.94,36.18s6.39-12.34,19.62-16a54,54,0,0,1,25.6-1C106,70.16,114.39,75.86,114.39,75.86Z"/><path class="cls-3" d="M42.59,15.6c-5.26,5.3-4.21,9.24-6.43,17.38s2.62,15.33,5.3,16.6c2,.92,4.54,1,7.08,5.08,5.91,27.44,4.8,30.81,4.8,30.81s6-12.06,19.21-15.72c.64-.19,8.47-1.93,9-2.09L72.28.11C66.06.68,62.55,3.47,57.1,5.5,50.37,8,47.85,10.31,42.59,15.6Z"/><path class="cls-12" d="M63.69,38.13c-1.55-1.66-5.5-12.56-7-16.37-3.42,5.8,1,18.32,1,18.32s-1.24,4.8-6.53,2.47-6.6-12-8.25-11,5.93,13.3,7,16.37Z"/><path class="cls-12" d="M82.17,34.13c-2.43,3,6.76-17.52,6.76-17.52a8.83,8.83,0,0,1,0,7.79c-3.76,8.49,2.15,8.41,2.15,8.41l4.72-4.41c1.66-1.56.84,7,.84,7S83,33.09,82.17,34.13Z"/><path class="cls-13" d="M120.59,299.53c-1-2.86-1.52-10.07-1.52-18.78h0c0-20.85,2.45-51,3.24-58.07h0c1-9.59,10.8-57.4,10.82-65.41h0a4,4,0,0,0-.14-1.21h0c-1.35-2.85-7.23-4.79-14.14-7.32h0A142.28,142.28,0,0,0,101,143.81h0l-.36,2.22c4.89.81,19.28,5,26.41,8.33h0a10.46,10.46,0,0,1,3.79,2.42h0s0,.14,0,.48h0c0,7.32-9.73,55.4-10.83,65.16h0c-.8,7.23-3.23,37.3-3.23,58.32h0c0,8.84.39,16,1.64,19.55h0l2.13-.77Z"/><path class="cls-14" d="M120,135c-10.92,11.83-27.13,16.35-27.13,16.35l-1-3.48s14.95-17.86,18-21.6C113.72,121.47,120,135,120,135Z"/><path class="cls-15" d="M89.77,147.63c-4.77-2-10-3.21-11.13.88-2.12,7.68-14.59,17.55-14.59,17.55s8,1.75,24.67-15.59A5.89,5.89,0,0,0,89.77,147.63Z"/><path class="cls-14" d="M92.69,147.41s5.87-2.1,9.25,6.94c2.59,6.84,3.6,19.79,2.27,21.11s-12.84-25.2-13.64-25.64,2.12-2.41,2.12-2.41Z"/><path class="cls-15" d="M95.08,146.1c-1.86-.89-5.83-3.3-6.9-.45s-2.91,4.82-.52,5.49,6.36-.88,6.36-.88Z"/><path class="cls-15" d="M68.8,126.46c0,1.89,19.21,16.19,21.1,17.71s-.13,3.46-.13,3.46L79.35,150.2,62.39,137Z"/><path class="cls-5" d="M141.52,258.74c17,40.7,13.57,184.28,13.57,189.94C118.92,446.42,42,447.54,42,447.54S26.2,304,45.42,261C97.82,269.3,141.52,258.74,141.52,258.74Z"/><path class="cls-3" d="M45.05,261.37c-19.22,43-3.39,186.55-3.39,186.55s-8.48-.07,11.8-.07c1.47-38.71,2.77-124.83,15.2-183.72C59.79,263.5,68,262.87,45.05,261.37Z"/><polygon class="cls-16" points="45.22 257.16 160.59 392.9 147.22 271.74 50.29 164.04 45.22 257.16"/><path class="cls-5" d="M110.48,178.19a3.37,3.37,0,1,0,3.37-3.37A3.38,3.38,0,0,0,110.48,178.19Z"/><path class="cls-5" d="M73.31,180.72a3.38,3.38,0,1,0,3.38-3.38A3.38,3.38,0,0,0,73.31,180.72Z"/><path class="cls-5" d="M107.53,206.76a3.37,3.37,0,1,0,3.51-3.23A3.4,3.4,0,0,0,107.53,206.76Z"/><path class="cls-5" d="M72.43,206.82a3.38,3.38,0,1,0,3.51-3.24A3.39,3.39,0,0,0,72.43,206.82Z"/><path class="cls-5" d="M103.79,235a3.38,3.38,0,1,0,3.52-3.21A3.38,3.38,0,0,0,103.79,235Z"/><path class="cls-3" d="M43.58,158.09c17.15,19.65,7.71,45.39,24.38,69.08,4.16,5.92,44.84,11.11,55.94,10,2.27,9.12,15.75,27.34-1.09,28.91S62,260.11,51.09,255.56C22,243.47,22.53,184,22.73,174.72,23.32,147.77,33,146,43.58,158.09Z"/><path class="cls-3" d="M136.84,237.62c-4.56,11-4.63,22.58-1.18,33.93-6.19.75-11.53-1-17.39-2.95-1.69-12.68-7.55-25.31,5.53-33.94C126.22,233.06,133.92,236.67,136.84,237.62Z"/><path class="cls-3" d="M340.46,248.09H158.8a3.61,3.61,0,0,1-3.6-3.6h0a3.61,3.61,0,0,1,3.6-3.6H340.46a3.61,3.61,0,0,1,3.61,3.6h0A3.61,3.61,0,0,1,340.46,248.09Z"/><path class="cls-17" d="M282,150.2s-5.69,6-4.7,9.44,7.24,3.43,8.1,1.05C286.54,157.55,284,155.81,282,150.2Z"/><path class="cls-17" d="M264,150.2s-5.69,6-4.7,9.44,7.24,3.43,8.1,1.05C268.59,157.55,266.07,155.81,264,150.2Z"/><path class="cls-17" d="M210.77,150.2s-5.69,6-4.7,9.44,7.24,3.43,8.1,1.05C215.32,157.55,212.8,155.81,210.77,150.2Z"/><path class="cls-17" d="M246.75,150.2s-5.7,6-4.7,9.44,7.23,3.43,8.1,1.05C251.3,157.55,248.78,155.81,246.75,150.2Z"/><path class="cls-17" d="M228.85,150.2s-5.69,6-4.69,9.44,7.23,3.43,8.1,1.05C233.4,157.55,230.88,155.81,228.85,150.2Z"/><path class="cls-18" d="M315.68,225.85c-4.07-2-2.23,4.54-3.72,8.74-2,5.59-5.95,1.32-5.76-3.13.1-2.27,1-6.68-2.95-5.24s-1,8.15-3.8,9.69c-4.05,2.26-1.38-5.71-4.25-7.89s-5.41,3.58-7.87,4.41-6.34-.05-8.79-4.41-4.29,7.62-7.39,7.89-3.11-6.21-4.63-5.61c-3,1.17-3.66,4.61-7.45,2.55s-3.8-5.55-5.77-4.83.24,7.71-2.52,8.71-1-9.07-3.13-11.24-3.77,4.71-5.84,7.36c-1.25,1.58-4.15,1.34-5.43-2.55s-4.58-4.45-7.06-4.08-2.7,4.34-7.54,4.08-4.48-6.26-6.55-5.53-1.8,3.64-3.8,9.42c-2.07,6-5.16-.13-5-4.89.18-5.25-3.28-6.71-4.31-4.53s-2.07,4.71-6.22,3.25-4.83-5.07-6.21-3.25.27,9.13-2.93,9.6-1.21-11.05-2.59-11.78-3.11.73-5.9,3.26c-1.42,1.3-3.51.9-5.22.2v15.71h149.5V226.32A9.08,9.08,0,0,1,315.68,225.85Z"/><path class="cls-18" d="M287.76,177.81c-2.45.83-6.34-.06-8.79-4.42s-4.29,7.62-7.39,7.9-3.1-6.22-4.63-5.62c-3,1.18-3.66,4.62-7.45,2.55s-3.8-5.54-5.77-4.83.24,7.72-2.52,8.71-1-9.06-3.13-11.23-3.77,4.71-5.84,7.35c-1.24,1.59-4.15,1.34-5.43-2.55s-4.58-4.44-7.06-4.08-2.7,4.35-7.54,4.08-4.48-6.25-6.55-5.53-1.8,3.64-3.8,9.42c-2.07,6-5.16-.12-5-4.89.18-5.25-3.28-6.7-4.31-4.53a7.59,7.59,0,0,1-2.16,3.12V188.4H295.2V173.2C292.5,171.86,290.09,177,287.76,177.81Z"/><path class="cls-19" d="M200.38,160.92v12.34a7.59,7.59,0,0,0,2.16-3.12c1-2.17,4.49-.72,4.31,4.53-.15,4.77,2.94,10.88,5,4.89,2-5.78,1.73-8.69,3.8-9.42s1.71,5.27,6.55,5.53,5.06-3.72,7.54-4.08,5.77.19,7.06,4.08,4.19,4.14,5.43,2.55c2.07-2.64,3.75-9.53,5.84-7.35s.37,12.23,3.13,11.23.56-8,2.52-8.71,2,2.77,5.77,4.83,4.48-1.37,7.45-2.55c1.53-.6,1.52,5.89,4.63,5.62s4.95-12.24,7.39-7.9,6.34,5.25,8.79,4.42,4.74-5.95,7.44-4.61V160.92Z"/><path class="cls-17" d="M247.17,177.39s-5.69,6-4.7,9.43,7.24,3.43,8.11,1.05C251.72,184.74,249.2,183,247.17,177.39Z"/><path class="cls-17" d="M266.05,177.39s-5.7,6-4.7,9.43,7.23,3.43,8.1,1.05C270.6,184.74,268.08,183,266.05,177.39Z"/><path class="cls-17" d="M302,177.39s-5.7,6-4.7,9.43,7.23,3.43,8.1,1.05C306.57,184.74,304.05,183,302,177.39Z"/><path class="cls-17" d="M284.13,177.39s-5.69,6-4.7,9.43,7.24,3.43,8.11,1.05C288.68,184.74,286.16,183,284.13,177.39Z"/><path class="cls-17" d="M193.9,177.39s-5.69,6-4.7,9.43,7.24,3.43,8.11,1.05C198.45,184.74,195.93,183,193.9,177.39Z"/><path class="cls-17" d="M229.88,177.39s-5.69,6-4.7,9.43,7.24,3.43,8.1,1.05C234.43,184.74,231.91,183,229.88,177.39Z"/><path class="cls-17" d="M212,177.39s-5.7,6-4.7,9.43,7.23,3.43,8.1,1.05C216.53,184.74,214,183,212,177.39Z"/><path class="cls-18" d="M301.17,194.68c-1-2.17-4.48-.71-4.31,4.53.16,4.77-2.94,10.89-5,4.9-2-5.79-1.72-8.7-3.79-9.43s-1.71,5.27-6.55,5.54-5.07-3.73-7.55-4.09-5.77.2-7,4.09-4.19,4.13-5.43,2.54c-2.08-2.64-3.76-9.53-5.85-7.35s-.37,12.23-3.13,11.23-.55-8-2.52-8.71-2,2.77-5.76,4.83-4.49-1.37-7.46-2.54c-1.52-.61-1.52,5.88-4.63,5.61s-4.95-12.24-7.39-7.9-6.34,5.25-8.79,4.42-5-6.6-7.87-4.42-.2,10.16-4.25,7.9c-2.76-1.54.11-8.26-3.8-9.7s-3.05,3-2.95,5.25c.19,4.45-3.78,8.72-5.76,3.13-1.49-4.2.35-10.72-3.72-8.74a8.76,8.76,0,0,1-2.59.78v18.17H310.58V196a9.26,9.26,0,0,1-3.19,2C303.24,199.39,302.21,196.86,301.17,194.68Z"/><path class="cls-19" d="M185,187.23v9.32a8.76,8.76,0,0,0,2.59-.78c4.07-2,2.23,4.54,3.72,8.74,2,5.59,6,1.32,5.76-3.13-.1-2.28-1-6.69,2.95-5.25s1,8.16,3.8,9.7c4,2.26,1.38-5.71,4.25-7.9s5.42,3.58,7.87,4.42,6.35-.06,8.79-4.42,4.29,7.62,7.39,7.9,3.11-6.22,4.63-5.61c3,1.17,3.66,4.61,7.46,2.54s3.79-5.54,5.76-4.83-.24,7.72,2.52,8.71,1-9.06,3.13-11.23,3.77,4.71,5.85,7.35c1.24,1.59,4.14,1.35,5.43-2.54s4.58-4.45,7-4.09,2.7,4.35,7.55,4.09,4.47-6.26,6.55-5.54,1.79,3.64,3.79,9.43c2.07,6,5.17-.13,5-4.9-.17-5.24,3.28-6.7,4.31-4.53s2.07,4.71,6.22,3.25a9.26,9.26,0,0,0,3.19-2v-8.75Z"/><path class="cls-17" d="M237.4,204.21s-5.69,6-4.69,9.44,7.23,3.43,8.1,1C242,211.56,239.43,209.82,237.4,204.21Z"/><path class="cls-17" d="M256.28,204.21s-5.69,6-4.7,9.44,7.24,3.43,8.1,1C260.83,211.56,258.31,209.82,256.28,204.21Z"/><path class="cls-17" d="M310.21,204.21s-5.69,6-4.7,9.44,7.24,3.43,8.1,1C314.76,211.56,312.24,209.82,310.21,204.21Z"/><path class="cls-17" d="M292.26,204.21s-5.69,6-4.7,9.44,7.24,3.43,8.1,1C296.81,211.56,294.29,209.82,292.26,204.21Z"/><path class="cls-17" d="M274.37,204.21s-5.7,6-4.7,9.44,7.23,3.43,8.1,1C278.91,211.56,276.39,209.82,274.37,204.21Z"/><path class="cls-17" d="M184.13,204.21s-5.69,6-4.69,9.44,7.23,3.43,8.1,1C188.68,211.56,186.16,209.82,184.13,204.21Z"/><path class="cls-17" d="M220.11,204.21s-5.69,6-4.7,9.44,7.24,3.43,8.11,1C224.66,211.56,222.14,209.82,220.11,204.21Z"/><path class="cls-17" d="M202.22,204.21s-5.69,6-4.7,9.44,7.24,3.43,8.1,1C206.77,211.56,204.25,209.82,202.22,204.21Z"/><path class="cls-19" d="M173,214.27v11.78c1.71.7,3.8,1.1,5.22-.2,2.79-2.53,4.52-4,5.9-3.26s-.62,12.25,2.59,11.78,1.55-7.79,2.93-9.6,2.07,1.78,6.21,3.25,5.18-1.08,6.22-3.25,4.49-.72,4.31,4.53c-.15,4.76,2.94,10.88,5,4.89,2-5.78,1.72-8.7,3.8-9.42s1.7,5.26,6.55,5.53,5.06-3.72,7.54-4.08,5.77.19,7.06,4.08,4.18,4.13,5.43,2.55c2.07-2.65,3.75-9.53,5.84-7.36s.37,12.23,3.13,11.24.56-8,2.52-8.71,2,2.76,5.77,4.83,4.48-1.38,7.45-2.55c1.52-.6,1.52,5.88,4.63,5.61s5-12.24,7.39-7.89,6.34,5.25,8.79,4.41,5-6.6,7.87-4.41.2,10.15,4.25,7.89c2.76-1.54-.11-8.26,3.8-9.69s3.05,3,2.95,5.24c-.19,4.45,3.78,8.72,5.76,3.13,1.49-4.2-.35-10.71,3.72-8.74a9.08,9.08,0,0,0,6.86.47v-12Z"/><path class="cls-9" d="M133.52,261.17c11.6,3.84,4.4.69,9.95,1.83a194,194,0,0,0,20.16,2.67c2.53.07,11.72-8.91,11.72-8.91s7.13-11.43,6-13.91c-.49-1-4.56,0-6.69,4s-5.94,8.53-11.15,8.52c-2,0-2.34-1.41-.27-2.38s8.14-2.28,9.73-4.27,1.82-3.63-1.22-3.72a38.29,38.29,0,0,0-9.17,1c-3.06.7-9.86-1.2-15.71-.07s-11.77-3.31-11.77-3.31-1.73,7-1.93,9.42S133.52,261.17,133.52,261.17Z"/></g></g></g></svg>