<svg xmlns="http://www.w3.org/2000/svg" viewBox="0 0 30 30.01"><defs><style>.cls-1{fill:#736357;}</style></defs><title>Ресурс 2</title><g id="Слой_2" data-name="Слой 2"><g id="Слой_2-2" data-name="Слой 2"><path class="cls-1" d="M30,15A15,15,0,1,1,15,0,15,15,0,0,1,30,15ZM1.84,16a12.48,12.48,0,0,0,1.38,5,.52.52,0,0,0,.37.2c1.42,0,2.83,0,4.2,0L7,16Zm26.31,0H23l-.83,5.19c1.38,0,2.76,0,4.14,0a.59.59,0,0,0,.46-.25A11.78,11.78,0,0,0,28.15,16ZM1.84,14H7L7.8,8.85c-1.39,0-2.81,0-4.24,0a.48.48,0,0,0-.35.22A12.57,12.57,0,0,0,1.84,14Zm26.32,0a12.65,12.65,0,0,0-1.35-4.93.56.56,0,0,0-.39-.27c-1.42,0-2.84,0-4.22,0L23,14.06ZM21.24,16h-5.3v5.16h4.42ZM8.74,14.05h5.31V8.87H9.66Zm12.54,0c-.32-1.68-.63-3.28-1-4.89A.45.45,0,0,0,20,8.86c-1.33,0-2.66,0-4,0V14Zm-7.23,7.12V16H8.72c.33,1.68.63,3.28,1,4.89a.45.45,0,0,0,.35.29C11.37,21.17,12.7,21.16,14.05,21.16Zm5-18.72c.77,1.43,1.55,2.89,2.34,4.34.07.12.21.28.32.28,1.23,0,2.47,0,3.85,0A13,13,0,0,0,19.05,2.44ZM10.94,27.57Q9.8,25.43,8.62,23.26c-.07-.14-.24-.31-.37-.31-1.21,0-2.43,0-3.8,0A13,13,0,0,0,10.94,27.57ZM4.46,7.08a22.86,22.86,0,0,1,2.64,0,1.65,1.65,0,0,0,2-1.24,27.75,27.75,0,0,1,2-3.45A13,13,0,0,0,4.46,7.08Zm14.59,20.5a12.89,12.89,0,0,0,6.48-4.65c-1.34,0-2.49,0-3.65,0a.71.71,0,0,0-.5.31C20.59,24.69,19.82,26.14,19.05,27.58ZM10.45,23a11.65,11.65,0,0,0,3.61,4.83V23ZM16,23v4.86A11.82,11.82,0,0,0,19.53,23ZM14,7.06V2.18a11.73,11.73,0,0,0-3.57,4.88ZM16,2.19V7h3.59A11.9,11.9,0,0,0,16,2.19Z"/></g></g></svg>