<svg xmlns="http://www.w3.org/2000/svg" viewBox="0 0 45.79 44.91"><defs><style>.cls-1{fill:#7c0000;}</style></defs><title>Ресурс 12</title><g id="Слой_2" data-name="Слой 2"><g id="Слой_2-2" data-name="Слой 2"><path class="cls-1" d="M22.9,5.25a13.69,13.69,0,0,1,5.31-4.2c4.68-1.83,9.09-1.3,13,1.88a11.93,11.93,0,0,1,4.31,12.25,19.44,19.44,0,0,1-1.38,3.7,1.07,1.07,0,0,1-.74.54c-1,.06-2,0-3,0V12.57H28.25v6.85H21.33V31.48h6.89c0,2.33,0,4.53,0,6.74a1,1,0,0,1-.23.54c-1.66,2-3.33,4-5.08,6.15L18,39Q10.4,29.78,2.82,20.59A12.61,12.61,0,0,1,22.41,4.7Z"/><path class="cls-1" d="M37.36,35.42H31.28V28.54H24.37v-6h6.85V15.58H37.3v6.87h6.84v6H37.36Z"/></g></g></svg>