<svg xmlns="http://www.w3.org/2000/svg" viewBox="0 0 18.28 33.83"><defs><style>.cls-1{fill:#7c0000;}</style></defs><title>Ресурс 33</title><g id="Слой_2" data-name="Слой 2"><g id="Слой_2-2" data-name="Слой 2"><path class="cls-1" d="M5.05,19.11c-1.4,0-2.71,0-4,0-.86,0-1-.17-1-1,0-1.64,0-3.27,0-4.91,0-.82.19-1,1-1h4c0-.39,0-.73,0-1.07a37,37,0,0,1,.29-4.95A7.17,7.17,0,0,1,12.57,0c1.59-.07,3.17,0,4.76,0,.65,0,1,.29,1,1,0,1.54,0,3.07,0,4.61,0,.7-.31,1-1,1-1.1,0-2.21,0-3.31.06A1.52,1.52,0,0,0,12.29,8.2c-.07,1.28,0,2.56,0,4H17.1c.63,0,1,.27,1,1,0,1.68,0,3.37,0,5.05,0,.67-.31.95-1,.94H12.24V32.49c0,1.21-.13,1.34-1.34,1.34H6.15c-.89,0-1.06-.17-1.06-1V19.94C5.09,19.69,5.06,19.45,5.05,19.11Z"/></g></g></svg>