<svg xmlns="http://www.w3.org/2000/svg" viewBox="0 0 35.09 30.15"><defs><style>.cls-1{fill:#7c0000;}</style></defs><title>Ресурс 34</title><g id="Слой_2" data-name="Слой 2"><g id="Слой_2-2" data-name="Слой 2"><path class="cls-1" d="M.22,27.32c.65.34,1.35.79,2.1,1.1a21.32,21.32,0,0,0,29.42-15.6c.64-3.12.42-6.44,3.35-8.76l-2.59.52,2.34-3.43C31.11,2,31.11,2,27.35.55a7,7,0,0,0-8.54,2.34c-1.16,1.75-1.61,4-2.53,6.36C10.71,8.84,5.82,6.11,1.48,1.52-.13,5.3.58,8.3,3.21,11.22H.65L0,11.89l4.75,6.42L2.54,19l7,5.53Z"/><path class="cls-1" d="M.22,27.32l9.35-2.79L2.54,19l2.21-.69L0,11.89l.65-.67H3.21C.58,8.3-.13,5.3,1.48,1.52c4.34,4.59,9.23,7.32,14.8,7.73.92-2.39,1.37-4.61,2.53-6.36A7,7,0,0,1,27.35.55C31.11,2,31.11,2,34.84,1.15L32.5,4.58l2.59-.52c-2.93,2.32-2.71,5.64-3.35,8.76A21.32,21.32,0,0,1,2.32,28.42C1.57,28.11.87,27.66.22,27.32Z"/></g></g></svg>