<svg xmlns="http://www.w3.org/2000/svg" viewBox="0 0 100.8 100.89"><defs><style>.cls-1{fill:#02aeee;}.cls-2{fill:#837ea8;}.cls-3{fill:#837ea9;}.cls-4{fill:#fef586;}.cls-5{fill:#847faa;}.cls-6{fill:#45459c;}.cls-7{fill:#f1f9fd;}.cls-8{fill:#f8f8fb;}.cls-9{fill:#f3fafd;}.cls-10{fill:#fdf7b3;}.cls-11{fill:#fef9be;}.cls-12{fill:#fdfbeb;}.cls-13{fill:#393c81;}.cls-14{fill:#fcfcfd;}</style></defs><title>Ресурс 45</title><g id="Слой_2" data-name="Слой 2"><g id="Слой_2-2" data-name="Слой 2"><path class="cls-1" d="M100.8,50.34c-.63,18.21-8,32.79-23.28,43.16a47,47,0,0,1-6.93,3.79c-.42.19-.55.08-.73-.31Q67.19,91,64.46,85.11c-.19-.4-.12-.54.26-.74a45.77,45.77,0,0,0,12-8.75,35.47,35.47,0,0,0,9.68-18.71,37.19,37.19,0,0,0-7.73-30,35.11,35.11,0,0,0-8.28-7.43c-.43-.28-.41-.46-.17-.85Q73.64,13,77.07,7.39c.24-.39.4-.4.75-.16A50.93,50.93,0,0,1,98.69,35.77,52,52,0,0,1,100.8,50.34Zm-18.56,35,.11-.11a3.92,3.92,0,0,1,.37-.34c.32-.26.35-.44,0-.73A13.45,13.45,0,0,1,81.5,83c-.16-.15-.31-.31-.23-.56l-1,1a.62.62,0,0,1,.62.17l1.31,1.31c.08.08.18.15.08.28a.57.57,0,0,1-.11.11l-.1.09c-.18.17-.42,0-.62.09v-.08l-.07,0,.08,0c.22.4.45.49.7,0ZM90.33,28.1l-.11.12-.16.17c-.45,0-.83-.32-1.3-.22a2.18,2.18,0,0,1-.67,0l0-.07v.06h.07c0,.56.25.9.9.83a1.21,1.21,0,0,1,1,.15c-.44.16-.74.5-1.2.39l-.06-.07v.07h.08c0,.47.34.79.49,1.21.16-.54.64-.58,1.16-.85-.36.78-1.4,1.31-.46,2.16a1.75,1.75,0,0,1,.35-.64c.17-.24.47-.45.46-.75s.23-.41.49-.43.41,0,.61,0c0,.14-.08.18-.16.24a.33.33,0,0,0-.13.39.27.27,0,0,0,.28.15.4.4,0,0,0,.4-.25.52.52,0,0,0-.45-.74,2.57,2.57,0,0,0-.55.06c-.27,0-.53.06-.68-.27a2.15,2.15,0,0,1,1.16-.43c-.1-.21-.17-.38-.26-.54s-.18-.36-.29-.59c-.11.38-.4.46-.64.6-.4.24-.5.1-.41-.31l.17-.18.11-.12.1-.1.11-.12c.24-.25.32-.52.06-.79a.39.39,0,0,0-.55-.1c-.15.09-.29.21-.21.41s.26.21.47.15.15.13.15.24l-.12.12ZM83.22,17.28l.11.12c-.25.54-.77.84-1.16,1.25-.2.22-.37.53-.74.54l-.11-.08c-.09.1,0,.1.06.14a5.14,5.14,0,0,0,.83.85s0,0,0,0h0l-.07,0a4.79,4.79,0,0,1,1.94-2l-.74-.78-.1-.1-.11-.11c-.06-.05-.11-.21-.2-.12s0,.14.11.19Zm-.87,0,.12-.11c.5-.37.5-.37.11-.65a.83.83,0,0,1-.23.56l-.11.12c0,.05-.06.12,0,.13S82.32,17.36,82.35,17.3Zm7.32,29.59c0-.08,0-.11-.1-.13-.21-.43-.26-.82.2-1.13s1.53-.45,1.81-.16.15.3,0,.4a2,2,0,0,1-.37.13.39.39,0,0,0-.29.37.38.38,0,0,0,.21.37.43.43,0,0,0,.47-.09.93.93,0,0,0,.36-.73,1.32,1.32,0,0,0-1.11-1.35,1.62,1.62,0,0,0-1.8.72,1.19,1.19,0,0,0,.5,1.55l.18,0,0,0Zm0,2.82-.1-.12c-.24-.67,0-1.13.67-1.23.22,0,.36,0,.35.28s0,.67,0,1c0,.13,0,.28.2.24a1.24,1.24,0,0,0,1.1-.66,1.05,1.05,0,0,0-.2-1.2,1.64,1.64,0,0,0-1.53-.49,1.16,1.16,0,0,0-1.11.8,1.11,1.11,0,0,0,.46,1.33c.06,0,.11.09.18,0s0,.09,0,.1l.08,0ZM83.24,84.3c.26-.24.76-.45.12-.82,0,0,0-.1-.09-.06s0,.08,0,.13a.64.64,0,0,1-.15.68s-.1.11,0,.15S83.21,84.33,83.24,84.3Zm1.91-65s0-.11-.07,0l.08,0c0,.49-.56.59-.77,1.08.47-.17.67-.61,1.14-.61C85.41,19.57,85.34,19.39,85.15,19.31Zm1.63,6.85.27.4c.22.46.57.9.25,1.45,0,0-.09,0,0,.09s.07,0,.11,0,.38-.15.41-.26c.18-.69.83-.81,1.29-1.14a1.34,1.34,0,0,1,1.13-.43l-1-1.4a1,1,0,0,0-.31-.51,2.48,2.48,0,0,1-2.29,1.09c-.43-.12-.65.07-.94.32A1,1,0,0,1,86.78,26.16ZM86.5,80.21c.38-.21.52-.62.76-.94l.18-.27.77-1A7,7,0,0,1,86,76.24l-.67,1a8.15,8.15,0,0,1,2.11,1.37c.14.1,0,.24,0,.35l-.17.27s-.13.08-.15.06a9.53,9.53,0,0,1-2.08-1.58l-.77,1.08a.59.59,0,0,1,.69,0c.46.33.92.65,1.37,1,.14.11.3.22.28.45l0,0s0,0,0,0Zm-8.57,9.17a5.29,5.29,0,0,0,.88-.66,6.8,6.8,0,0,1-1.69-2.31c-.26.32-.7.43-.88.83l0,0,0,0c.74.2.78,1.06,1.35,1.44a.71.71,0,0,1,.34.66.43.43,0,0,0,0,0l-.06,0h0ZM89.11,70.85A6.53,6.53,0,0,1,91.48,72c-.28.36-.34,1-1,.82.45.42.72.36.88-.15a5.45,5.45,0,0,1,.25-.55c.17-.38.49-.7.47-1.15h0l0,0c-.17.17-.33.1-.5,0-.37-.19-.74-.36-1.09-.55s-.71-.24-.85-.71a6.51,6.51,0,0,0-.52,1.12l0,.11C89.11,71,89.1,70.88,89.11,70.85ZM90.8,58a4.59,4.59,0,0,1-2.69-.65c0,.11-.08.23-.12.37s-.09.44-.13.66c.33,0,.66.35.86.31a3.18,3.18,0,0,1,1.84.49c0-.4.31-.76.23-1.19l0,0ZM86.51,21.11l.07.07a.43.43,0,0,1,0-.05c0-.05,0-.05-.08,0a2.51,2.51,0,0,0-1-1.21l.32.51c-.76.43-1.26,1.23-2.19,1.46l.81,1A4.43,4.43,0,0,1,86.51,21.11ZM94.05,61.8c0-.16.07-.39.3-.33s.75.07,1,.48a2.49,2.49,0,0,0,.29-1.24A3.7,3.7,0,0,1,93,59.9l-.37,1.3a1.4,1.4,0,0,1,1,0c.38.06.46.24.33.57,0,.13,0,.37-.24.31-.39-.12-.86-.08-1.14-.54l-.36,1.3a3.78,3.78,0,0,1,2.71.72,5.73,5.73,0,0,0,.36-1.26c-.44.28-.79,0-1.14-.1S94.09,62,94.05,61.8Zm-4.77-2.69s-.12,0-.13,0,0,.12,0,.15.07.26-.12.21a2.45,2.45,0,0,1-1.41-.58l-.36,1.33c.56-.4,1,0,1.45.08s1,.1,1.32.63c.1-.47.19-.85.28-1.23h0C89.83,59.82,89.6,59.37,89.28,59.11Zm4.22.22s.08.09.1.08,0-.1,0-.15a1.3,1.3,0,0,1-.07-.33.84.84,0,0,1,1-.73c.5.12.15.47.13.72a4.86,4.86,0,0,1-.11.55c0,.16,0,.31.19.32a1.2,1.2,0,0,0,1.12-.37A1,1,0,0,0,96,58.37a1.62,1.62,0,0,0-1.73-1,1,1,0,0,0-1.07.67A1,1,0,0,0,93.5,59.33Zm.79-12.21c.06.09.12.13.22.06L94.37,47a1.48,1.48,0,0,1-.23-.38c-.11-.35.27-.81.73-.91s.31.33.37.54a3.61,3.61,0,0,1,.08.67c0,.13,0,.25.19.26a1.18,1.18,0,0,0,1.12-1.28,1.58,1.58,0,0,0-2.32-.88,1.07,1.07,0,0,0-.68,1A1,1,0,0,0,94.29,47.12ZM80.56,86.92a.54.54,0,0,1-.75-.11c-.24-.22-.18-.41-.08-.65A2.54,2.54,0,0,0,80,85a.61.61,0,0,0-.43-.59.57.57,0,0,0-.69.36,1.62,1.62,0,0,0-.15.42c0,.19-.11.23-.3.23-.54,0-.68.35-.72.88.23-.23.38-.17.54,0s.52.55.78.82c.62.64,1.1.61,1.64-.12a1,1,0,0,0,.32-1,.4.4,0,0,0-.4-.39.42.42,0,0,0-.41.33.32.32,0,0,0,.25.42C80.82,86.5,80.62,86.72,80.56,86.92Zm-9.24,3.77c-.83.33-.85.36-.71,1.23a.9.9,0,0,0,0,.16c0,.17.1.37-.12.43s-.18-.19-.28-.29-.09-.74-.36-.77-.6.27-.89.43c0,0,0,.05,0,0a6.05,6.05,0,0,1,1.26,2.47l-.08.05.07,0v-.08a5.11,5.11,0,0,0,2-1,.64.64,0,0,0-.29-1.13c-.51-.08-.56-.33-.54-.73,0-.24,0-.48,0-.73,0,0,.1,0,.07-.08ZM94.07,66.08a2.18,2.18,0,0,1-.91-.22c-.22-.06-.26-.21-.15-.39s0-.49.31-.42.76.13,1,.6c.09-.24.16-.43.24-.62.18-.35.17-.53-.32-.62a14.88,14.88,0,0,1-1.63-.55.73.73,0,0,1-.48-.47,4.91,4.91,0,0,0-.38,1.24l-.06.05h0s0,0,0,0a2,2,0,0,1,1.07.22c.22.06.21.21.14.34s0,.51-.32.44-.85-.12-1.09-.57a4.45,4.45,0,0,0-.36,1.16s-.12,0,0,.07l0-.08a5.31,5.31,0,0,1,2.61.93,3.76,3.76,0,0,0,.34-1l.07-.11,0,0Zm-.91-24.62c-.14-.48,0-.72.55-.73s1.3-.4,2-.14l-.2-1.23a4.49,4.49,0,0,1-2.81.44L93,41.47c.1.55.22,1.11.28,1.66s.21,1.15-.53,1.47c.31,0,.63,0,.79-.17.79-.71,1.75-.43,2.69-.65.07-.28-.15-.65-.14-1a8.22,8.22,0,0,1-2.3.52c-.27.06-.38-.11-.38-.36s-.07-.41.25-.45a13,13,0,0,0,1.39-.24,1.09,1.09,0,0,1,1,.13c-.16-.49-.1-.91-.27-1.27a6.74,6.74,0,0,1-2.33.52A.24.24,0,0,1,93.16,41.46ZM74.43,88.71a2.81,2.81,0,0,0-1.11.63,1.69,1.69,0,0,1,.43,1.81,5.37,5.37,0,0,1-.84-1.54,5.34,5.34,0,0,0-.53.33c-.17.14-.41.18-.5.42a3.52,3.52,0,0,1,1.56,2.29,7.49,7.49,0,0,0,1-.68c-.64-.53-.29-1.24-.43-1.82a4.25,4.25,0,0,1,.93,1.53c.33-.28.72-.38.94-.73l0,0,0,0a.49.49,0,0,1-.38-.21c-.36-.54-.72-1.07-1.06-1.62a.47.47,0,0,1,0-.43s0,0,0,0,0,0,0,0Zm9.78-7.9c.39.34.92.55,1.07,1.12h0l.78-.89a5.55,5.55,0,0,1-2.18-1.86l-.75,1c.85.23.67,1,1,1.56-.41-.41-1-.56-1.25-1.23l-.71.88a6.83,6.83,0,0,1,2.14,1.9c.19-.36.59-.56.66-1l.07,0s0,0,0,0l0,0a.43.43,0,0,1-.49-.34c-.1-.33-.23-.66-.34-1ZM91.37,42l0,0,0,0a4.54,4.54,0,0,0-.18-1.17c-.73.39-1.24-.15-1.81-.34.58-.08,1.12-.47,1.74-.14l-.22-1.19a6,6,0,0,1-2.8.49,9.46,9.46,0,0,0,.25,1.15c.71-.5,1.18.18,1.75.28a2.9,2.9,0,0,1-1.68.2,4.63,4.63,0,0,0,.26,1.25A4.06,4.06,0,0,1,91.37,42ZM77.7,15.8s0,.11.09,0,0-.08-.07-.08c-.14-.86.4-1.68.13-2.55a.16.16,0,0,1,.09-.11,9.62,9.62,0,0,0,1.11-.67c.11,0,.24-.13.37,0s0,.23,0,.34a.38.38,0,0,0,.33.54c.29,0,.42-.2.44-.48a.58.58,0,0,0-.22-.49.82.82,0,0,0-1-.1c-.3.19-.59.41-.89.59a.57.57,0,0,1-.72-.15c-.09-.07-.17-.17-.06-.28.38-.4.57-1,1.26-1.16l-1.18-1c-.06.82-.68,1.24-1.1,1.78s-.73,1.19-1.44,1.5a10,10,0,0,0,1.18.88c0-.69.53-1,.81-1.45,0-.07.15-.17.21-.16s.16.15.14.27c0,.35-.08.71-.15,1C76.76,15.21,76.75,15.21,77.7,15.8ZM87.76,50.22a4.16,4.16,0,0,0-.1,1.39c.46-.48,1-.11,1.54-.22-.14.28-.32.45-.33.72a1.4,1.4,0,0,0,1.73,1.28c1-.13,1.35-.62,1.07-1.6,0-.07-.07-.12,0-.19.31-.33.09-.75.24-1.17A7.78,7.78,0,0,1,87.76,50.22Zm6.33-13.94c.88,0,1.15.17,1.35.94a.87.87,0,0,0,1,.76c-.25-.45-.24-1-.57-1.4a2,2,0,0,0-2.19-.42c-.72.16-1.45.36-1.69,1.2a1.29,1.29,0,0,0,.71,1.49,1.73,1.73,0,0,0,2-.58C95.22,37.54,95,36.94,94.09,36.28ZM88.7,53.92c0,.27-.12.6-.14.93a3.38,3.38,0,0,0,0,1.45.65.65,0,0,0,1.12.24c.11-.11.1-.3.29-.35.11.28.24.54.62.53a.65.65,0,0,0,.62-.56,7.23,7.23,0,0,0,.28-1.86A5.78,5.78,0,0,1,88.7,53.92Zm5.16-.1A8.52,8.52,0,0,0,93.73,56a.69.69,0,0,0,.55.69.62.62,0,0,0,.75-.44.76.76,0,0,1,.12-.19c.26.49.38.58.73.53s.52-.36.57-.68c.1-.61.16-1.23.24-1.9A3.74,3.74,0,0,1,93.86,53.82ZM88.51,65a2.87,2.87,0,0,0-.17-.49c-.1-.17-.24-.34-.5-.24a.4.4,0,0,0-.3.47c0,.24.21.32.46.27s.29.15.24.35a.35.35,0,0,1-.45.31c-.27-.06-.57-.09-.59-.47a4.28,4.28,0,0,0-.1-1.06c-.12-.38-.33-.68-.74-.61s-.57.48-.49.87,0,.44-.28.56a.6.6,0,0,0-.29.77c.12.41.26-.09.41,0a1.92,1.92,0,0,0,.36.14c.34.14.69.28,1,.45A.8.8,0,0,0,88.21,66,2.26,2.26,0,0,0,88.51,65ZM78.37,16a1.28,1.28,0,0,0,1.26,1.3,1.68,1.68,0,0,0,1.57-1.6A1.28,1.28,0,0,0,80,14.33,1.71,1.71,0,0,0,78.37,16ZM92.62,33.2a1.6,1.6,0,0,0-1.68,1.39,1.33,1.33,0,0,0,1.31,1.33A1.64,1.64,0,0,0,94,34.48,1.27,1.27,0,0,0,92.62,33.2ZM88.84,72.53a1.28,1.28,0,0,0-1.31,1.31,1.72,1.72,0,0,0,1.67,1.51,1.28,1.28,0,0,0,1.28-1.29A1.65,1.65,0,0,0,88.84,72.53Zm2.68-5.32a1.29,1.29,0,0,0-1.39,1.29,1.62,1.62,0,0,0,1.65,1.44,1.32,1.32,0,0,0,1.37-1.27A1.64,1.64,0,0,0,91.52,67.21ZM86.74,24.79c-.86-.36-1-.82-.5-1.43.17-.21.31-.29.49,0s.39.51.57.77.17.2.31.07a1.12,1.12,0,0,0,0-1.89,1.64,1.64,0,0,0-2,.47,1.22,1.22,0,0,0-.22,1.44A1.12,1.12,0,0,0,86.74,24.79Zm.34,38.27c-.19-.83,0-1.17.78-1.2a1.94,1.94,0,0,1,1,.2c.23.12.53.24.45.56s-.36.14-.57.13a.38.38,0,0,0-.45.39c0,.31.19.38.45.36.5,0,.7-.39.79-.81A1.48,1.48,0,0,0,88.19,61a1.23,1.23,0,0,0-1.36.55C86.52,62.07,86.57,62.46,87.08,63.06Zm7.21-13c0-1,.16-1.16.8-1.33a2.49,2.49,0,0,1,1.12,0c.19,0,.37.1.37.35s-.21.22-.36.26-.47.14-.46.47a.32.32,0,0,0,.24.33c.29.08.46-.1.62-.29a.83.83,0,0,0,.16-.29A1.3,1.3,0,0,0,96,48a1.7,1.7,0,0,0-2,.37A1.29,1.29,0,0,0,94.29,50.05Zm1.83,3.34c.59.18.7-.09.67-.59s0-1.16,0-1.74,0-.55-.64-.44c0,.05.08.09.13.1.32.11.34.39.29.65s-.33.16-.51.16c-.45,0-.9,0-1.35,0-.26,0-.53.06-.73-.3v1.3a8,8,0,0,1,2.19-.1c.14,0,.37-.1.4.17a.62.62,0,0,1-.14.58C96.34,53.25,96.16,53.21,96.12,53.39ZM74.76,88.31a3.75,3.75,0,0,1,1.85,2.17l1-.82c-.42,0-.52-.35-.74-.53-.42-.35.11-.49.16-.76-.61.27-1.06-.06-1.24-.89Zm8.36-67.46a2.59,2.59,0,0,1,.19-.23c.18-.23.14-.43-.11-.55s-.43.05-.54.26a.46.46,0,0,0,.09.52.62.62,0,0,0,.65.25,2.08,2.08,0,0,0,1.07-.81C83.93,20.42,83.69,21,83.12,20.85Zm-2.35-2.61s0-.12,0-.15.27-.37,0-.57a.35.35,0,0,0-.5.06.44.44,0,0,0,0,.65.61.61,0,0,0,.65.25.86.86,0,0,0,.64-.54C81.25,18,81.12,18.37,80.77,18.24ZM94.7,64.39s0,0,0,0,0,0,0,0,0,0,0,0S94.69,64.38,94.7,64.39Z"/><path class="cls-1" d="M0,50.23c.62-18.06,7.93-32.56,22.93-43,.46-.32.64-.25.92.22q3.39,5.61,6.85,11.19c.23.37.2.52-.17.77a36.56,36.56,0,0,0-15,20.12A36.07,36.07,0,0,0,14,52.7,35.27,35.27,0,0,0,22.73,74,44.9,44.9,0,0,0,36,84.31c.46.24.55.42.32.92Q33.65,91.07,31,97c-.21.45-.36.55-.84.33C15.18,90.21,5.7,78.57,1.53,62.57A51.62,51.62,0,0,1,0,50.23ZM14.2,30.36l-.11-.11c0-.13-.31-.38.14-.32.16,0,.35.07.4-.17a.34.34,0,0,0-.12-.35.42.42,0,0,0-.52,0c-.35.19-.35.53,0,1l.1.09.1.12.12.11a.49.49,0,0,1,0,.59c-.36-.2-.82-.24-1-.8l-.6,1.22c.19,0,.31-.06.39,0,.27.13.77.18.74.46s-.5.16-.78.18-.49-.07-.7.11a.46.46,0,0,0-.08.7c.13.17.32.3.53.12s0-.41-.12-.59,0-.09,0-.18c.47.1,1-.18,1.15.67,0,.42.57.72.74,1.18.42-.49.54-.92,0-1.4a1.36,1.36,0,0,1-.47-.77c.47.25,1,.3,1.16.86l.59-1.18a1.78,1.78,0,0,1-1.3-.48c.71-.24,1.75.4,1.92-.9-.61.19-1.31-.2-1.87.33a1.5,1.5,0,0,1-.26-.17l-.1-.13Zm-2.73,43,0,0s0,0,0,0l0,.07-.18,0c-.16.08-.36.12-.46.28a4,4,0,0,1-2.32,1.48v-.08h0l.07.06A17.62,17.62,0,0,0,9.6,77.07,2.3,2.3,0,0,1,11.91,76c.46.13.65-.12.93-.34-.54.3-.77-.26-1.15-.36h0c.09-.31-.16-.5-.28-.72a1.11,1.11,0,0,1-.06-1.1Zm3.61,10.74.1.13a9.9,9.9,0,0,0,1,1.11c.25-.68.59-.9,1.06-.7-.11-.5.34-1,1.06-1.19l-.86-1a1.84,1.84,0,0,1-.76,1c-.32.23-.35-.37-.72-.15.52.32.3.56,0,.86s-.44,0-.63-.12l-.09-.1c-.18-.2-.11-.46-.1-.73C14.38,83.62,14.8,83.84,15.08,84.07ZM9.31,26a.79.79,0,0,0,.28.39s0,.09,0,.1A2,2,0,0,1,8,26.09H8a3.17,3.17,0,0,0-.74,1.14,1.68,1.68,0,0,1,1.27,0,6.17,6.17,0,0,1,2.16.44l.18.28c.05.15.21.27.14.45s-.21,0-.32,0a.29.29,0,0,0-.41.25.35.35,0,0,0,.29.41.54.54,0,0,0,.69-.58.86.86,0,0,0-.31-.57l-.18-.28a11,11,0,0,0-1.06-1.31.84.84,0,0,0-.29-.38c-.21-.39-.63-.65-.68-1.22l-.47.79C8.88,25.23,9,25.81,9.31,26Zm2.61-5.21a.41.41,0,0,0,.16.29,1,1,0,0,1,.2.52c0,.16-.08.28-.24.14s-.67-.34-.72-.83L10.55,22c.49-.13.68.22,1,.37.07,0,.17.11.12.22a.21.21,0,0,1-.23.13c-.2,0-.4-.08-.6-.12s-.35-.15-.55-.09a.47.47,0,0,0-.37.44.46.46,0,0,0,.32.48.26.26,0,0,0,.34-.08c.2-.24-.06-.36-.15-.52s0-.07,0-.18c.39.24,1,0,1,.83,0,.44.49.81.56,1.29.66-.45.51-.93.15-1.45a.84.84,0,0,1-.23-.64c.4.27.8.46,1,.94.17-.4.56-.6.6-1h.08v-.05l-.06.07c-.51,0-.76-.37-1.15-.64a1.49,1.49,0,0,1,1,.1c.58.19.83-.07,1-.55.06,0,.08-.06,0-.12l-.07.07c-.47-.07-1-.31-1.37-.17s-.56-.08-.77-.29L12,20.71c-.14-.43.1-.22.26-.16s.3.05.38-.12,0-.28-.13-.38a.4.4,0,0,0-.6,0A.43.43,0,0,0,11.92,20.78ZM5.15,32a5.07,5.07,0,0,1,2.53,1.11l.4-1a7,7,0,0,1-2.59-1.19c-.12.34-.25.69-.38,1L5.05,32l0,0ZM16.28,17.19c-.53-.07-.7-.49-.89-.83l-.78.71a6.27,6.27,0,0,1,2,2,6,6,0,0,0,.76-.81,1.53,1.53,0,0,1-1-1c.05,0,.1-.05.07-.11S16.32,17.18,16.28,17.19ZM6.39,63.82v0A3.62,3.62,0,0,0,6,62.55c0,.39-.27.43-.48.49l-1.55.47c-.12,0-.28.21-.38,0s-.18-.34-.06-.54.11-.1.14-.17.19-.05.1-.18c-.5,0-.62.25-.43.73a10.27,10.27,0,0,1,.47,1.55c.12.56.39.48.87.2-.49,0-.72-.13-.75-.49s.33-.29.53-.36c.38-.15.77-.26,1.17-.38S6.12,63.64,6.39,63.82ZM2.54,56.5a.06.06,0,0,1,0-.09l1-.16c.36-.07.72-.22,1.13.12L4.49,55c-.18.15-.27.29-.45.31-.59.08-1.19.15-1.77.28-.18,0-.44-.26-.51.07a1.39,1.39,0,0,0,.1.66c.11.34.44.2.67.27s.72.11,1.07.36c-.43.26-.8.5-1.2.71-.66.34-.06.8-.17,1.14A6.76,6.76,0,0,1,5,58.41a.66.66,0,0,0-.11-.52c-.58.52-1.31.32-2,.42L5,57.07Zm1.35,4.18a5.53,5.53,0,0,0,.41.52c.44.44,1,.53,1.24.22s.15-.65-.39-1.12l0,0c-.05-.12,0-.15.11-.21a.55.55,0,0,0-.06-.81c-.26-.3-.3,0-.43.15s-.18,0-.27.07c-.38.09-.75.21-1.14.28a.83.83,0,0,0-.76.89,1.4,1.4,0,0,0,.87,1.27.42.42,0,0,0,.48-.19.36.36,0,0,0-.05-.47.29.29,0,0,0-.48,0c-.18.16-.34.21-.46,0a.37.37,0,0,1,.19-.56C3.38,60.52,3.64,60.44,3.89,60.68Zm15-46,.54-.4c.1-.08.15-.17,0-.28a1.26,1.26,0,0,0-1.21-.43,1,1,0,0,0-.72,1,1.64,1.64,0,0,0,.55,1.3,1.2,1.2,0,0,0,1.5.4c.51-.28.64-.65.5-1.43-.11.08-.05.21-.07.31a.55.55,0,0,1-.54.48.89.89,0,0,1-.88-.4c-.15-.25.26-.31.3-.53Zm-4.42,4.84-.11.12c-.18.19-.36.37-.54.57s-.2.21,0,.32a1.28,1.28,0,0,0,1.2.27,1,1,0,0,0,.62-1,1.73,1.73,0,0,0-1.11-1.56,1,1,0,0,0-1.33.22,1.09,1.09,0,0,0-.05,1.42,3.26,3.26,0,0,1,0-.55A.57.57,0,0,1,14,19C14.25,19.05,14.74,19,14.51,19.52ZM10.62,55.43s-.11,0-.12,0,0,.07.06.08a.88.88,0,0,1,.24.83,1.83,1.83,0,0,1-2,.74c-.2-.14-.23-.3,0-.45s.24-.11.35-.17a.37.37,0,0,0,.16-.6.39.39,0,0,0-.6,0,.92.92,0,0,0-.31.92,1.55,1.55,0,0,0,2.33.94,1.19,1.19,0,0,0,.73-1.12A1.1,1.1,0,0,0,10.62,55.43Zm3,27.13a1,1,0,0,0,1,.27.38.38,0,0,0,.29-.43.4.4,0,0,0-.31-.36.31.31,0,0,0-.4.23c-.07.31-.26.26-.47.19a.49.49,0,0,1,.06-.7.56.56,0,0,1,.75-.12,2.42,2.42,0,0,0,.74.26c.38.06.79.06.92-.41s-.22-.67-.58-.8c-.14-.06-.36,0-.32-.24a.59.59,0,0,0-.44-.78c-.5-.18-.14.32-.32.43a10.7,10.7,0,0,0-.83.68C12.93,81.43,12.91,81.87,13.66,82.56Zm-.95-45.28-.05-.08,0,.07h.08c.17.83-.07,1.18-.81,1.18-.35,0-.53-.08-.35-.48a5.78,5.78,0,0,0,.24-.81c0-.14.06-.31-.17-.33a1.29,1.29,0,0,0-1.24.36,1.06,1.06,0,0,0-.1,1.21,1.74,1.74,0,0,0,1.73.91,1.06,1.06,0,0,0,1.08-.81A1,1,0,0,0,12.71,37.28ZM4,34.56a6.06,6.06,0,0,1,2.59,1.09c.19-.45.4-.92.58-1.41.24-.67.14-1.08-.28-1.27s-.74,0-1.1.62a.33.33,0,0,0-.06.1c-.11.45-.35.49-.72.27-.21-.13-.46-.2-.54-.5A4.22,4.22,0,0,0,4,34.57l0,.06H4ZM7.51,73.33l0-.08,0,.07h.08a2.2,2.2,0,0,0,.42,1,7.1,7.1,0,0,1,2.54-1.25,13.56,13.56,0,0,0-.9-1.68.73.73,0,0,0-.88-.31c-.37.13-.41.44-.4.79a2,2,0,0,0,.24.8c.09.19.07.3-.13.38S7.86,73.4,7.51,73.33ZM9.22,41.92a2.77,2.77,0,0,1,2.42.57c-.24.08-.64-.05-.61.39a.39.39,0,0,0,.49.36c.39-.08.46-.39.4-.74s-.34-.49-.63-.57c-.5-.14-1-.25-1.53-.35-.22,0-.39-.1-.28-.35s0-.59.44-.47,1.2.27,1.81.39a.8.8,0,0,1,.46.34l.3-1.38a3.37,3.37,0,0,1-2.81-.57,12.65,12.65,0,0,0-.46,2.38l-.07,0h0Zm.11,9.47c-.16-.24-.45-.23-.67-.36s-.24-.07-.23-.21.14-.16.24-.18S9,50.5,9,50.3a.37.37,0,0,0-.31-.36.44.44,0,0,0-.48.21.66.66,0,0,0,.24,1,7.59,7.59,0,0,0,.82.37c.29.56.27.58-.33.6a1.1,1.1,0,0,1-.75-.22v1.2A5,5,0,0,1,11,53V51.71a.69.69,0,0,1-.69.33c-.21,0-.54.14-.62-.08s.26-.33.44-.42c.67-.34,1.15-.75.82-1.61C10.49,50.5,9.68,50.68,9.33,51.39ZM11,35.58a2.62,2.62,0,0,1,2.18,1.31c.15.45.44.52.85.62-.49-.58-.52-.69-.24-1.3s.35-1.42,1.36-1.38a6.44,6.44,0,0,1-3.36-1.31A10.82,10.82,0,0,0,11,35.59H11v.07Zm3.39,43.51,0,0s0,0,0,0l-.07,0c0-.24-.17-.35-.25-.53-.31.62-.9.84-1.4,1.16l-.1-.1,1.13-1.81-2.35.53a2.77,2.77,0,0,1,1.73-1.06h0c-.07-.47-.45-.73-.7-1.13a4,4,0,0,1-2.23,1.68l0-.06v0l0,0c.46.87.46.87,1.35.65a2.42,2.42,0,0,1,1-.16l-.45.7c-.54.82-.55.82,0,1.59,0,0,.06,0,.11.08-.05-.46.32-.57.59-.74C13.35,79.67,13.72,79.1,14.41,79.09ZM10,31c-.57.09-1-.29-1.44-.51.76-.52.89-1.13.33-1.72A2.19,2.19,0,0,0,7.47,28c-.41,0-.87.08-1,.51A12.81,12.81,0,0,1,5.83,30,20.15,20.15,0,0,1,9.5,32a5,5,0,0,0,.5-1l.07-.12,0,0ZM22.56,87.33s0-.09-.1-.06,0,.07.05.11c0,.59-.56.86-.81,1.31-.05.08-.12.26-.3.16a.31.31,0,0,1-.08-.36c.09-.46.22-.91.29-1.37,0-.2.19-.43,0-.59A1.45,1.45,0,0,1,21.39,85c-.31.35-.87.58-.55,1.22a.74.74,0,0,1,0,.33,4.58,4.58,0,0,0-.21,1.87c0,.09,0,.13-.1.17-.37.23-.73.46-1.11.68-.1,0-.22.18-.35,0s0-.21,0-.32.06-.45-.22-.51-.46.11-.5.39a.52.52,0,0,0,.13.47.83.83,0,0,0,1.12.11c.3-.17.56-.38.84-.56a.49.49,0,0,1,.62.09c.08.06.2.1.18.25a3,3,0,0,1-1.37,1.21l1.16,1a7.32,7.32,0,0,1,2.62-3.19A6.43,6.43,0,0,0,22.56,87.33Zm-7.3-21.46c-.13.56-.6.53-.93.72s-.37.1-.38-.25a1,1,0,0,0-1.11-1,2.06,2.06,0,0,0-1.47.61,1,1,0,0,0,.12,1.62c.06,0,.23,0,.14.15-.25.47.17.75.28,1.19.23-.54,3.19-1.82,3.87-1.72Zm-4.4-5.71c-.57.12-1.11.49-1.77.24l.27,1.17a7.33,7.33,0,0,1,2.79-.64,4.14,4.14,0,0,0-.25-1.1c-.73.51-1.26-.14-1.86-.23a3,3,0,0,1,1.78-.23l-.26-1.15a7.94,7.94,0,0,1-2.8.6A6.65,6.65,0,0,0,9,59.93C9.72,59.42,10.25,60.07,10.86,60.16Zm.22,2.78c-.27-.34-.58-.48-.92-.29s-.33.59-.26.91c.13.6.34,1.17.49,1.67a6,6,0,0,1,2.77-.86,10.38,10.38,0,0,0-.81-2.13.66.66,0,0,0-.72-.32.59.59,0,0,0-.51.59C11.12,62.62,11.1,62.73,11.08,62.94ZM4.24,50.23a1.55,1.55,0,0,1-1.48.06c.41-.23.72-.39,1-.57s.43-.14.47-.43a1,1,0,0,1,.71-.8c-.27,0-.65-.11-.76,0-.41.48-1.15.52-1.44,1.12a.15.15,0,0,1-.23.08c-.27-.19-.67-.2-.88-.55a1.38,1.38,0,0,1,.24-.1c.2,0,.38-.08.37-.32a.35.35,0,0,0-.3-.35.42.42,0,0,0-.51.26.6.6,0,0,0,.23.83c.23.13.48.23.7.36a.42.42,0,0,1,.24.47c-.06.17-.26.08-.4.08a1,1,0,0,1-.84-.25l-.06,1.21a7.44,7.44,0,0,1,2.86,0Zm-2-8.68A4,4,0,0,1,5,42l.26-1.23c-.46.35-.86.07-1.25,0-.22-.06-.11-.3-.06-.44s0-.38.22-.31c.4.11.86,0,1.16.44l.23-1.1a6.58,6.58,0,0,1-2.77-.61l-.26,1.31c.31-.46.58-.22.85-.21s.46.17.4.5-.27.36-.54.3a1.17,1.17,0,0,1-.77-.39ZM5.84,70.09A4,4,0,0,1,8.42,69a4.55,4.55,0,0,0-.49-1.13,1.26,1.26,0,0,1-1.31.54A2.82,2.82,0,0,0,7.71,66c-.18,0-.41.05-.45.18-.15.54-.72.87-.81,1.38-.12.76-.61.39-1,.42s-.39-.13-.08-.32a.33.33,0,0,0,.13-.48A.28.28,0,0,0,5.22,67a.47.47,0,0,0-.4.35.63.63,0,0,0,.59.77,2.63,2.63,0,0,1,.84.07.43.43,0,0,1,.29.32c0,.17-.18.16-.29.22a1.06,1.06,0,0,1-.91.12ZM9.68,49.6a1.31,1.31,0,0,0,1.47-1.33,1.41,1.41,0,0,0-1.52-1.38,1.37,1.37,0,1,0,0,2.71Zm-6.82-7c-.6,0-.84.11-1,.52a1.47,1.47,0,0,0,.27,1.47c.17.13.35.23.56.09a.39.39,0,0,0,.17-.49.32.32,0,0,0-.5-.18c-.2.1-.34,0-.38-.16s0-.42.23-.45.75-.11.88.4a2.36,2.36,0,0,0,.47,1,.71.71,0,0,0,.77.2.45.45,0,0,0,.31-.54c-.13-.44-.32-.83.13-1.22.11-.1,0-.39-.1-.57s-.2.14-.36.11C3.83,42.66,3.35,42.63,2.86,42.59ZM2.7,53.27a2.14,2.14,0,0,0,.5.91c.26.35.61.55,1,.29s.22-.65,0-1c-.11-.17-.31-.31,0-.52s.15-.45,0-.67S4.15,52,4,52.12c-.57.38-1.22.22-1.83.29a.78.78,0,0,0-.57.33A1.4,1.4,0,0,0,2,54.5a.44.44,0,0,0,.57,0A.4.4,0,0,0,2.62,54a.27.27,0,0,0-.43-.1c-.19.13-.37.23-.46-.1s0-.53.34-.52a11.92,11.92,0,0,0,1.46-.09c.26,0,.39.14.36.39s-.24.26-.43.23S3,53.46,2.7,53.27ZM20,85.44a1.16,1.16,0,0,0-1.17-1.18,1.81,1.81,0,0,0-1.65,1.63,1.26,1.26,0,0,0,1.16,1.23A1.77,1.77,0,0,0,20,85.44ZM8.81,43.26l-.34,2.35A2.84,2.84,0,0,1,11,46s-.07,0-.1,0c-.23,0-.48,0-.49.31a.37.37,0,0,0,.29.37.46.46,0,0,0,.58-.32.64.64,0,0,0-.5-.9,11.43,11.43,0,0,0-1.65-.31c-.37,0-.4-.21-.37-.51s.28-.35.53-.31a7.09,7.09,0,0,1,.94.15c.42.12.94-.06,1.22.51l.23-1.41A4.43,4.43,0,0,1,8.81,43.26ZM6.41,39.1c-.69-.43-.48-1-.34-1.49s.27-1.09,1-1.18a6.33,6.33,0,0,1-3.41-.81c-.08.29-.18.63-.27,1l-.31,1.08a2.59,2.59,0,0,1,2.39.95C5.7,39,6,39.07,6.41,39.1Zm7.5,29.31c.94.39,1.07,1,.45,1.52-.22.18-.38.21-.51-.09s-.29-.52-.41-.8-.27-.26-.46-.09a1.17,1.17,0,0,0-.52,1.17,1.14,1.14,0,0,0,.91.89,1.65,1.65,0,0,0,1.28-.26,1.31,1.31,0,0,0,.75-1.44C15.25,68.71,14.81,68.43,13.91,68.41ZM15.51,71c.82.58.83,1.1,0,1.76a2.06,2.06,0,0,1-.67.4c-.21.07-.41.14-.55-.07s.05-.34.19-.47.32-.34.17-.59a.34.34,0,0,0-.36-.2c-.26,0-.36.25-.44.47a.69.69,0,0,0,0,.49,1.2,1.2,0,0,0,1.05.9,1.76,1.76,0,0,0,1.66-.74,1.13,1.13,0,0,0,.12-1.32A1.22,1.22,0,0,0,15.51,71ZM4.4,46.21a.72.72,0,0,1-.71.21l-1.56-.2c-.13,0-.32.07-.37-.15a.6.6,0,0,1,.16-.52,1.36,1.36,0,0,1,.42-.2c-.53-.24-.74-.08-.74.49a12.68,12.68,0,0,1-.17,1.51c-.07.62,0,.64.63.61-.13-.11-.3-.18-.35-.29s-.18-.67.1-.63a6.05,6.05,0,0,1,2.5.43ZM14.55,28.56a5.41,5.41,0,0,1,2.37,1.6l.68-1.1a3.91,3.91,0,0,1-1.76-.84C15,27.74,15,27.72,14.55,28.56ZM6.71,71.85a6.29,6.29,0,0,1,2.5-1.32l-.45-1a5.78,5.78,0,0,1-2.55,1.23Zm9-55.95a10,10,0,0,1,1.9,1.89l.8-.63a8.18,8.18,0,0,1-2-2ZM14.5,27.61a.51.51,0,0,0-.47-.47.45.45,0,0,0-.48.49.44.44,0,0,0,.47.45A.51.51,0,0,0,14.5,27.61ZM7.91,66l0,0s0,0,0,0,0,0,0,0Z"/><path class="cls-2" d="M53.16,60.65c0-3,.1-6.3.38-9.62a115.67,115.67,0,0,1,5.29-27.32,52.83,52.83,0,0,1,3.44-8.09,2.08,2.08,0,0,1,3.32-.45,1.23,1.23,0,0,1,.26,1.6c-3.45,6.47-5.29,13.47-6.7,20.61a125.76,125.76,0,0,0-1.78,12.67,119.8,119.8,0,0,0-.44,15.85,68.5,68.5,0,0,0,2,14.88c.07.28.16.55.23.82a1.45,1.45,0,0,1-1.64,2,2.07,2.07,0,0,1-2-1.63,58.26,58.26,0,0,1-1.81-9.62A97.61,97.61,0,0,1,53.16,60.65Z"/><path class="cls-3" d="M44.9,60.72a88.5,88.5,0,0,1-1.68,18.17c-.23,1.08-.51,2.16-.81,3.22a2.15,2.15,0,0,1-3.12,1.07,1.15,1.15,0,0,1-.49-1.38,54.27,54.27,0,0,0,1.53-7.27q.42-2.88.62-5.77a98.67,98.67,0,0,0,.22-9.88q-.16-6-.85-12a112.55,112.55,0,0,0-3.54-18.29A56,56,0,0,0,32.26,17a1.41,1.41,0,0,1,.66-2.12,2,2,0,0,1,2.82.83,62.41,62.41,0,0,1,5,13.15,114.87,114.87,0,0,1,3,15.36c.38,2.89.65,5.79.84,8.7C44.78,55.65,44.83,58.36,44.9,60.72Z"/><path class="cls-4" d="M36.44,12.57A12.59,12.59,0,1,1,49,25.2,12.54,12.54,0,0,1,36.44,12.57Zm10.14,3.27c.19.36.35.74.56,1.08s.54.4.75.11c.46-.63.84-1.31,1.25-2,.49-.25.75-.77,1.2-1.06l2.63.13a4.09,4.09,0,0,1-2.35,2.48,6.1,6.1,0,0,0-.82.38l-1.2.59.06.12,3-1.29c0,.4-.42.6-.29,1-.38.06-.24.48-.42.64-.57.54-.57,1.4-1.14,1.93a.67.67,0,0,0-.23.6c.32.11.48-.1.61-.32.59-1,1.18-2.06,1.74-3.1.18-.33.33-.39.59-.12.06.07.11.21.27.17,0-.23-.24-.33-.38-.46-.11-.47.23-.68.53-.92.66-.14,1.23-.58,1.91-.68.1.07.1.07.12-.1l.23-.12c.06.31.31.22.5.22.71,0,1.43,0,2.14,0a.89.89,0,0,0,.88-.48,7.15,7.15,0,0,0,1-3.36,5.07,5.07,0,0,0-.2-2.38,7.21,7.21,0,0,0-1.06-2.76A8.41,8.41,0,0,0,55.2,2.92a7.54,7.54,0,0,0-1.41-.8,11.78,11.78,0,0,0-6.26-.9,11.06,11.06,0,0,0-5.67,2.37A6.94,6.94,0,0,0,40.38,5a9,9,0,0,0-2.09,5,6.62,6.62,0,0,0,.53,3.51c.08.36-.21.82.3,1.05.1.31.36.41.63.52a18,18,0,0,1,1.88.75,2,2,0,0,0,2.57-.31c.1-.08.22-.14.32-.23a.74.74,0,0,1,.88-.09c.39.16.66.51,1.07.6Zm12.28.88a3.06,3.06,0,0,1-1.89-.1A1.93,1.93,0,0,0,58.86,16.72Zm1-.91a2.08,2.08,0,0,0-.13-1.62A5.55,5.55,0,0,1,59.86,15.81Z"/><path class="cls-5" d="M47.74,61.75a92.44,92.44,0,0,1-.91,13.87c-.24,1.57-.54,3.14-.91,4.7-.14.6-.5.88-1,.81a.9.9,0,0,1-.71-1.07c.12-.89.32-1.77.49-2.65a66.53,66.53,0,0,0,1-7.83c.2-2.61.3-5.22.28-7.83,0-4.52-.28-9-.72-13.52a182,182,0,0,0-3.15-20.38,1.15,1.15,0,0,1,0-.61c.13-.41.35-.74.81-.75a.84.84,0,0,1,.82.73c.2.84.38,1.68.55,2.53q1.48,7.5,2.35,15.09c.39,3.32.68,6.66.85,10C47.66,57.23,47.76,59.61,47.74,61.75Z"/><path class="cls-5" d="M55.5,27.57c-.18.95-.38,1.9-.56,2.86-.77,4-1.39,8-1.9,12-.65,5.13-1.09,10.28-1.27,15.45a108.12,108.12,0,0,0,.35,13.59,64.75,64.75,0,0,0,1.25,8.07,1.84,1.84,0,0,1,.07.78c-.11.43-.27.8-.77.84s-.75-.31-.85-.75c-.2-.87-.4-1.75-.56-2.64a84.51,84.51,0,0,1-1.17-11.66,133.85,133.85,0,0,1,.35-14.72,193.17,193.17,0,0,1,3.2-23.22c.06-.27.12-.55.2-.82.14-.57.49-.89.9-.82A1,1,0,0,1,55.5,27.57Z"/><path class="cls-3" d="M48.41,54.18V28a2.07,2.07,0,0,1,.16-1.1c.22-.37.52-.37.73,0a1.49,1.49,0,0,1,.14.48,4.24,4.24,0,0,1,0,.62V80.28a2.39,2.39,0,0,1-.14,1.06c-.08.15-.18.31-.36.32s-.33-.16-.41-.33a2.23,2.23,0,0,1-.14-1Z"/><path class="cls-6" d="M40.45,89.62c-.05.61-.12,1.21-.17,1.82,0,.32.24.35.46.39s.28.06.25.28-.17.2-.33.18L38,92c-.14,0-.32,0-.29-.24s.15-.25.32-.22c.44.06.53-.21.57-.57.12-1.26.27-2.51.41-3.76,0-.37,0-.69-.47-.72-.17,0-.28-.08-.23-.29s.19-.18.34-.16l2.58.28c.14,0,.32,0,.32.21s-.16.27-.35.24c-.37,0-.49.17-.52.5s-.09.71-.1,1.07c0,.16-.19.38.07.49a.58.58,0,0,0,.72-.16,4.11,4.11,0,0,0,.37-.76,3.51,3.51,0,0,1,.53-1,1.06,1.06,0,0,1,1.15-.43,8,8,0,0,0,2.52.27c.88.1,1.77.1,2.65.14,1.13,0,1.14,0,1.05,1.15,0,.25.18.65-.18.72s-.28-.39-.4-.61a1,1,0,0,0-.62-.6c-.41-.12-.65-.08-.66.46,0,1.26-.12,2.52-.19,3.78,0,.37,0,.65.49.63.18,0,.29,0,.28.26s-.19.19-.34.19l-2.65-.13c-.16,0-.3,0-.3-.23s.14-.23.31-.22c.44,0,.52-.23.54-.61,0-1.22.14-2.44.2-3.66,0-.2.15-.49-.12-.6a.9.9,0,0,0-.81.1,1.21,1.21,0,0,0-.43.59c-.07.16,0,.45-.35.41s-.1-.36-.23-.5c-.82.25-1.06.12-1.28-.73-.42.3-.45.81-.69,1.19a.89.89,0,0,0,.06,1.2,10.65,10.65,0,0,1,.84,1.84c.08.19.14.45.34.49.53.11.46.47.42.84s-.07.68-.11,1c0,.16.05.36-.22.38s-.25-.17-.28-.33a1.8,1.8,0,0,0-.5-1.11c-.1-.09-.21-.21-.32-.22-.77,0-.88-.68-1.11-1.22l-.75-1.78Zm2.14-2.47.18-.14c.43-.12.54.13.55.48a.32.32,0,0,0,.28.36.37.37,0,0,0,.43-.18.55.55,0,0,0-.24-.77,1,1,0,0,0-1,0,.38.38,0,0,0-.26.2s-.09.08,0,.13Zm.93,6.3c.08-.57.23-1-.35-1.3-.14-.07-.21-.31-.28-.48-.2-.42-.4-.85-.56-1.29a1.58,1.58,0,0,0-1.74-1.23c-.31,0-.39-.09-.34-.39a9.1,9.1,0,0,1,.36-2.22,6.42,6.42,0,0,0-1.27-.09,47.12,47.12,0,0,1-.55,5.3,3.09,3.09,0,0,0,1,.13c.12,0,.22,0,.19-.17a11.67,11.67,0,0,1,.14-2.13c0-.44.24-.38.51-.27s.3.33.39.54c.27.64.53,1.28.79,1.93.07.17.13.35.35.4A1.81,1.81,0,0,1,43.52,93.45Zm3.89-1a3.54,3.54,0,0,1-.06-1.45c.06-1.18.1-2.36.19-3.53,0-.42-.19-.42-.46-.4s-.6-.16-.61.37c0,1.37-.15,2.73-.2,4.1,0,.29-.31.67,0,.85s.65.08,1,.1A.86.86,0,0,0,47.41,92.5Zm-2.79-4.81c.2-.16.32-.37.55-.48A2.8,2.8,0,0,1,46,87C44.52,87,44.55,86.79,44.62,87.69Zm4.75.31c.11-.84.11-.84-.66-.71A2.17,2.17,0,0,1,49.37,88Zm-7-.57,0,0s0,0,0,0,0,0,0,0S42.37,87.42,42.38,87.43Zm-.22.38s0,0,0,0,0,0,0,0,0,0,0,0A.08.08,0,0,0,42.16,87.81Zm-.2.61,0,0,0,0s0,0,0,0Zm-.11.22,0,0s0,0,0,0,0,0,0,0A.08.08,0,0,1,41.85,88.64Zm-.15.19s0,0,0,0,0,0,0,0l0,0S41.71,88.84,41.7,88.83Zm.6-1.21,0,0s0,0,0,0l0,0Z"/><path class="cls-6" d="M55.34,91a1.15,1.15,0,0,1-.64,1.46,3.18,3.18,0,1,1-1-5.71c.25.06.5.15.76.22.1,0,.26.1.32,0,.82-.69,1.86-.27,2.77-.54.21-.06.45,0,.67-.08s.29,0,.32.2-.05.25-.21.26c-.57,0-.53.41-.49.8s.06.56.1.84-.07.47.23.5.59,0,.67-.38c.13-.49.2-1,.34-1.48a1.33,1.33,0,0,1,1.54-1,.92.92,0,0,1,.76,1,.68.68,0,0,1-.84.55c-.39,0-.45-.41-.63-.77a11.24,11.24,0,0,0-.58,2.1s.05.09.09.12A6.91,6.91,0,0,1,61,90.91c.24.31.41.69.9.65.14,0,.19.1.21.22S62,92,61.84,92l-1.74.17c-.22,0-.28-.17-.37-.3l-1.28-1.86c-.06-.08-.11-.22-.25-.18s-.09.19-.09.29c0,.36.1.71.11,1.07s.1.75.64.65c.18,0,.23.09.25.23s-.11.21-.24.23l-2.75.3c-.16,0-.24,0-.26-.2s0-.24.21-.26c.45,0,.54-.31.49-.7l-.42-3.81a1.61,1.61,0,0,0-.08-.38c-.08-.21-.27-.18-.44-.18s-.19.18-.19.32c0,.32,0,.65,0,1s.12.41-.14.49-.32-.18-.39-.36a1.74,1.74,0,0,0-.75-1,1.59,1.59,0,0,0-2.31.74,3.78,3.78,0,0,0,.07,3.07,1.63,1.63,0,0,0,2.47.51A6.77,6.77,0,0,0,55.34,91ZM52.82,87.1a.57.57,0,0,0,.51-.15.48.48,0,0,0-.48,0,3,3,0,0,0-2.6,4,2.73,2.73,0,0,0,2.55,1.71A2,2,0,0,0,54,92.44h-1.2a1.64,1.64,0,0,1-1.29-1.2,4.39,4.39,0,0,1-.14-2.56A2,2,0,0,1,52.82,87.1Zm4.07,5.14c.31,0,.64,0,1-.09.09,0,.29,0,.2-.22a8.79,8.79,0,0,1-.3-2.16,14.79,14.79,0,0,1-.21-3,4.5,4.5,0,0,0-1.25.12C56.61,88.67,56.76,90.41,56.89,92.24Zm4.3-.49L60,90a1.41,1.41,0,0,0-1.86-.69,6,6,0,0,1,1.48,1.87C60.17,92,60.15,92,61.19,91.75Zm-1.46-5.12c.29,0,.59,0,.65.36s.14.44.43.41a.38.38,0,0,0,.37-.36.57.57,0,0,0-.41-.6A1.17,1.17,0,0,0,59.73,86.63Zm-5.27.73.61.68a1.59,1.59,0,0,0,0-.78Zm4.87.25a.39.39,0,0,0,0,.45A.39.39,0,0,0,59.33,87.61Zm-5.46-.54c-.06-.09-.14-.06-.22,0s0,.06,0,.06A.21.21,0,0,0,53.87,87.07Zm5.64.22,0-.1a.34.34,0,0,0-.07.11s0,.07,0,.1Zm-.23,1.13-.05-.1s-.06.07-.06.11,0,.06,0,.09Zm-5,3.94,0,0-.09,0s0,0,0,0A.18.18,0,0,0,54.24,92.36Zm.15-5.06s0-.06-.06-.06a.32.32,0,0,0-.09,0l0,0S54.36,87.31,54.39,87.3Z"/><path class="cls-6" d="M50.8,94.82h2.93c.17,0,.41-.11.45.19s-.19.26-.37.27c-.34,0-.43.23-.43.54,0,1.35,0,2.71,0,4.06,0,.39.17.55.54.54.18,0,.28.06.26.26s-.14.2-.28.2H51.19c-.17,0-.29,0-.29-.24s.15-.22.3-.22c.36,0,.49-.2.49-.53,0-1.36,0-2.71,0-4.07,0,0,0-.09,0-.11-.37-.48-.88-.11-1.32-.22-.21,0-.4,0-.4.3,0,1.39,0,2.79,0,4.18,0,.35.19.45.5.45.15,0,.31,0,.31.22s-.14.24-.3.24H47.78c-.17,0-.3,0-.3-.23s.14-.23.3-.23c.37,0,.5-.2.5-.53V95.78c0-.3-.14-.5-.48-.49-.18,0-.35,0-.32-.26s.23-.2.38-.2Zm1.13.36H49.67l-1,0c-.17,0-.19,0-.17.22a45.41,45.41,0,0,1,0,5.22,8.36,8.36,0,0,0,1.15,0v-5.3l2.26,0a45.13,45.13,0,0,1,0,5.33h1.25a12,12,0,0,1-.11-2.73,10.28,10.28,0,0,1,.14-2.7Z"/><path class="cls-6" d="M37,99.41a12.11,12.11,0,0,1,.33-2.61c.1,0,.21.07.34,0l-.34,0a8.59,8.59,0,0,1,.48-2.59c-.41,0-.9-.26-1.2-.1s-.11.71-.17,1.09c-.19,1.14-.32,2.3-.49,3.45a3.94,3.94,0,0,1-.25.73h0c-.18-.07-.41.09-.61-.18.42,0,.53-.28.57-.63.16-1.23.36-2.45.53-3.68,0-.37.14-.79-.45-.82-.18,0-.22-.11-.21-.27s.19-.19.33-.17l2,.27.67.09c.13,0,.26.06.24.24s-.1.26-.29.22c-.42-.09-.58.12-.62.51s-.12.71-.16,1.06c0,.17-.16.41.08.5a.63.63,0,0,0,.69-.1,2.19,2.19,0,0,0,.39-.68,4.45,4.45,0,0,1,.52-1,1.3,1.3,0,0,1,1.81-.3.87.87,0,0,1,.29,1.1.66.66,0,0,1-.87.33c-.43-.12-.44-.5-.47-.91-.49.38-.56.94-.84,1.36a.78.78,0,0,0,0,1,10.3,10.3,0,0,1,.79,1.86c.13.33.24.68.66.76.2,0,.16.18.15.3s-.15.16-.26.14L39,100.09c-.21,0-.24-.21-.3-.37-.24-.66-.49-1.33-.74-2-.07-.18-.09-.41-.37-.55-.08.64-.17,1.24-.24,1.85,0,.33.21.4.47.43a.23.23,0,0,1,.22.31c0,.19-.19.16-.31.13a4.23,4.23,0,0,1-1-.32L37,99.5l.09,0Zm3.1.47c-.29-.76-.56-1.48-.85-2.19a1.23,1.23,0,0,0-1.46-.84A9.09,9.09,0,0,1,38.7,99C39.06,99.9,39.05,99.9,40.12,99.88Zm0-5.34a.56.56,0,0,1,.36.56c0,.23.06.41.31.46a.38.38,0,0,0,.42-.19.51.51,0,0,0,0-.58C40.94,94.41,40.57,94.42,40.14,94.54Zm-.11.07h-.09s-.06,0,0,.06,0,0,0,0S40,94.63,40,94.61Z"/><path class="cls-6" d="M44.36,100.81a3.06,3.06,0,0,1-3.28-3.12,3,3,0,0,1,3-3.13c2,0,3.4,1.22,3.4,3A3.08,3.08,0,0,1,44.36,100.81Zm-1.29-.54c.09.06.17.12.27,0l-.13-.15a4.36,4.36,0,0,1,.53-5.22A2.56,2.56,0,0,0,41.44,97,2.77,2.77,0,0,0,43.07,100.27Zm2.36-5.21a.21.21,0,0,0-.25,0l.17.09a4.47,4.47,0,0,1-.51,5.28,2.61,2.61,0,0,0,2.31-2.32A2.7,2.7,0,0,0,45.43,95.06Zm.23,2.42a4.3,4.3,0,0,0-.09-1.29,1.21,1.21,0,0,0-1.1-1,1.18,1.18,0,0,0-1.21.85,5.23,5.23,0,0,0-.21,3.27,1.15,1.15,0,0,0,1.06.94,1.17,1.17,0,0,0,1.18-.79A5.13,5.13,0,0,0,45.66,97.48Zm-1,3h-.77A1,1,0,0,0,44.69,100.48Zm-1.21-.1a.15.15,0,0,0,.05.06.19.19,0,0,0,.08,0s0-.06,0-.06Z"/><path class="cls-6" d="M64.71,97.88A1.22,1.22,0,0,1,64,99.57a3.86,3.86,0,0,1-2.72.48,3,3,0,0,1-2.34-3,3.35,3.35,0,0,1,2.59-3.16,4,4,0,0,1,1.68,0c.27.06.53.17.58-.26,0-.15.16-.13.27-.14s.17.11.18.23l.27,1.78c0,.13,0,.22-.15.25a.26.26,0,0,1-.33-.15,2,2,0,0,0-.46-.7,1.62,1.62,0,0,0-2.73.73,3.91,3.91,0,0,0,.42,2.94,1.66,1.66,0,0,0,2.55.32A7.18,7.18,0,0,0,64.71,97.88Zm-2.63-3.66a1.57,1.57,0,0,0,.83-.09h-.82c-.09,0-.21-.06-.28.07Zm1.28,0c-.06,0-.18,0-.19,0s0,.1.12.11a3.45,3.45,0,0,1,.82.68,2.1,2.1,0,0,0-.13-.91A.62.62,0,0,1,63.36,94.25ZM63,99.69A2,2,0,0,1,60.69,98c-.39-1.41-.52-2.79,1-3.76a2.89,2.89,0,0,0-2.42,3.26C59.55,99.22,61,100.08,63,99.69Z"/><path class="cls-6" d="M56.45,96.38l2-.15c.13,0,.28-.06.32.13s0,.28-.13.32-.25.28-.24.48c0,.75.08,1.5.15,2.25,0,.26,0,.59.39.62.14,0,.13.17.12.28s-.2.14-.31.15c-.9.08-1.8.14-2.7.21l-1.29.09c-.14,0-.32.08-.39-.13s0-.27.19-.33.22-.32.21-.53c-.05-.69-.1-1.39-.17-2.08,0-.3.06-.67-.41-.75-.12,0-.09-.19-.07-.3s.16-.13.27-.13l2-.13c.24.39-.31.46-.29.74,0,.47.06.94.11,1.54l.56-1.15c.13-.29.35-.58-.19-.73C56.35,96.74,56.44,96.53,56.45,96.38ZM55,100c-.2.49.07.48.47.46s.6-.2.41-.62a.86.86,0,0,1,0-.28c0-.85-.09-1.69-.14-2.54,0-.52-.42-.17-.64-.22s-.42-.08-.34.31A24.83,24.83,0,0,1,55,100Zm3.32.23c-.24-.93-.15-1.86-.3-2.77,0-.28.17-.66-.11-.8s-.59,0-.91,0a18.1,18.1,0,0,1,.29,2.79C57.41,100.28,57.39,100.28,58.36,100.19ZM57,98.54l-.17,0c-.18.37-.36.73-.55,1.1-.09.17-.16.35,0,.5a.38.38,0,0,0,.41.08.36.36,0,0,0,.28-.42C57,99.36,57,99,57,98.54Z"/><path class="cls-7" d="M56.45,96.38c0,.15-.1.36.07.4.54.15.32.44.19.73l-.56,1.15c0-.6-.09-1.07-.11-1.54,0-.28.53-.35.29-.74Z"/><path class="cls-8" d="M35.72,99.3c.19,0,.4,0,.61.14-.29.18-.44,0-.62-.13Z"/><path class="cls-8" d="M37.35,96.72l.34,0c-.13.11-.24,0-.34,0Z"/><path class="cls-8" d="M37,99.41l.08.07-.09,0A.28.28,0,0,1,37,99.41Z"/><path class="cls-9" d="M77.7,15.8c-1-.59-.94-.59-.72-1.68.07-.34.11-.7.15-1,0-.12,0-.25-.14-.27s-.17.09-.21.16c-.28.47-.86.76-.81,1.45a10,10,0,0,1-1.18-.88c.71-.31,1-1,1.44-1.5s1-1,1.1-1.78l1.18,1c-.69.16-.88.76-1.26,1.16-.11.11,0,.21.06.28a.57.57,0,0,0,.72.15c.3-.18.59-.4.89-.59a.82.82,0,0,1,1,.1.58.58,0,0,1,.22.49c0,.28-.15.5-.44.48a.38.38,0,0,1-.33-.54c0-.11.16-.23,0-.34s-.26,0-.37,0a9.62,9.62,0,0,1-1.11.67.16.16,0,0,0-.09.11c.27.87-.27,1.69-.13,2.55Z"/><path class="cls-9" d="M87.76,50.22a7.78,7.78,0,0,0,4.15.21c-.15.42.07.84-.24,1.17-.07.07,0,.12,0,.19.28,1,0,1.47-1.07,1.6a1.4,1.4,0,0,1-1.73-1.28c0-.27.19-.44.33-.72-.54.11-1.08-.26-1.54.22A4.16,4.16,0,0,1,87.76,50.22Zm2.76,2.31a2,2,0,0,0,.34,0c.26-.08.66,0,.62-.48s-.32-.5-.69-.51-.67,0-1-.07a.53.53,0,0,0-.59.48c-.06.31.2.42.43.48A8.67,8.67,0,0,0,90.52,52.53Z"/><path class="cls-9" d="M88.09,28.13a2.18,2.18,0,0,0,.67,0c.47-.1.85.23,1.3.22l.09.09c-.09.41,0,.55.41.31.24-.14.53-.22.64-.6.11.23.21.41.29.59s.16.33.26.54a2.15,2.15,0,0,0-1.16.43c.15.33.41.31.68.27a2.57,2.57,0,0,1,.55-.06.52.52,0,0,1,.45.74.4.4,0,0,1-.4.25.27.27,0,0,1-.28-.15.33.33,0,0,1,.13-.39c.08-.06.17-.1.16-.24-.2,0-.41,0-.61,0s-.5,0-.49.43-.29.51-.46.75A1.75,1.75,0,0,0,90,32c-.94-.85.1-1.38.46-2.16-.52.27-1,.31-1.16.85-.15-.42-.5-.74-.49-1.21h0c.46.11.76-.23,1.2-.39a1.21,1.21,0,0,0-1-.15c-.65.07-.86-.27-.9-.83Z"/><path class="cls-9" d="M94.09,36.28c.94.66,1.13,1.26.66,2a1.73,1.73,0,0,1-2,.58A1.29,1.29,0,0,1,92,37.36c.24-.84,1-1,1.69-1.2a2,2,0,0,1,2.19.42c.33.4.32,1,.57,1.4a.87.87,0,0,1-1-.76C95.24,36.45,95,36.25,94.09,36.28Zm-1.34,1.94a5.7,5.7,0,0,0,1.7-.49c.19-.09.37-.24.29-.48a.41.41,0,0,0-.5-.27,6.59,6.59,0,0,0-1.68.48c-.2.09-.35.22-.31.47S92.51,38.22,92.75,38.22Z"/><path class="cls-9" d="M91.37,42a4.06,4.06,0,0,0-2.69.53,4.63,4.63,0,0,1-.26-1.25,2.9,2.9,0,0,0,1.68-.2c-.57-.1-1-.78-1.75-.28a9.46,9.46,0,0,1-.25-1.15,6,6,0,0,0,2.8-.49l.22,1.19c-.62-.33-1.16.06-1.74.14.57.19,1.08.73,1.81.34A4.54,4.54,0,0,1,91.37,42Z"/><path class="cls-7" d="M85.28,81.93c-.15-.57-.68-.78-1.07-1.12l-.16-.1a.17.17,0,0,0,0,.23c.11.32.24.65.34,1a.43.43,0,0,0,.49.34h0c-.07.43-.47.63-.66,1a6.83,6.83,0,0,0-2.14-1.9l.71-.88c.2.67.84.82,1.25,1.23-.28-.52-.1-1.33-1-1.56l.75-1A5.55,5.55,0,0,0,86.06,81l-.78.89Z"/><path class="cls-7" d="M75.88,91c-.22.35-.61.45-.94.73A4.25,4.25,0,0,0,74,90.15c.14.58-.21,1.29.43,1.82a7.49,7.49,0,0,1-1,.68,3.52,3.52,0,0,0-1.56-2.29c.09-.24.33-.28.5-.42a5.34,5.34,0,0,1,.53-.33,5.37,5.37,0,0,0,.84,1.54,1.69,1.69,0,0,0-.43-1.81,2.81,2.81,0,0,1,1.11-.63h0a.47.47,0,0,0,0,.43c.34.55.7,1.08,1.06,1.62a.49.49,0,0,0,.38.21Z"/><path class="cls-9" d="M93.16,41.46a.24.24,0,0,0,.28.13,6.74,6.74,0,0,0,2.33-.52c.17.36.11.78.27,1.27a1.09,1.09,0,0,0-1-.13,13,13,0,0,1-1.39.24c-.32,0-.26.25-.25.45s.11.42.38.36a8.22,8.22,0,0,0,2.3-.52c0,.39.21.76.14,1-.94.22-1.9-.06-2.69.65-.16.16-.48.14-.79.17.74-.32.58-.92.53-1.47S93.1,42,93,41.47Z"/><path class="cls-7" d="M91.72,64.63a4.5,4.5,0,0,1,.37-1.24.73.73,0,0,0,.48.47,14.88,14.88,0,0,0,1.63.55c.49.09.5.27.32.62-.08.19-.15.38-.24.62-.2-.47-.61-.51-1-.6s-.22.27-.31.42-.07.33.15.39a2.18,2.18,0,0,0,.91.22l0,0a3.76,3.76,0,0,1-.34,1,5.31,5.31,0,0,0-2.61-.93h0a4.45,4.45,0,0,1,.36-1.16c.24.45.7.48,1.09.57s.22-.28.32-.44.08-.28-.14-.34a2,2,0,0,0-1.07-.22Z"/><path class="cls-7" d="M88.7,53.92a5.78,5.78,0,0,0,2.78.38,7.23,7.23,0,0,1-.28,1.86.65.65,0,0,1-.62.56c-.38,0-.51-.25-.62-.53-.19.05-.18.24-.29.35a.65.65,0,0,1-1.12-.24,3.38,3.38,0,0,1,0-1.45C88.58,54.52,88.66,54.19,88.7,53.92Zm.53,1.1c-.27,0-.55-.05-.54.29a.59.59,0,0,0,.61.61.52.52,0,0,0,.58-.56C89.88,54.9,89.4,55.19,89.23,55Zm1.34.21c-.18,0-.46-.22-.45.19a.47.47,0,0,0,.46.53.46.46,0,0,0,.55-.43C91.15,55.06,90.73,55.34,90.57,55.23Z"/><path class="cls-9" d="M70.24,94.35A6.05,6.05,0,0,0,69,91.88c0,.05,0,0,0,0,.29-.16.6-.45.89-.43s.16.54.36.77.09.34.28.29.17-.26.12-.43a.9.9,0,0,1,0-.16c-.14-.87-.12-.9.71-1.23l.05,0c0,.25,0,.49,0,.73,0,.4,0,.65.54.73a.64.64,0,0,1,.29,1.13,5.11,5.11,0,0,1-2,1ZM71.59,93a.59.59,0,0,0-.6-.43c-.15,0-.48,0-.39.27s.17.79.57.87C71.4,93.75,71.64,93.49,71.59,93Z"/><path class="cls-9" d="M93.86,53.82a3.74,3.74,0,0,0,2.83.2c-.08.67-.14,1.29-.24,1.9,0,.32-.18.62-.57.68s-.47,0-.73-.53a.76.76,0,0,0-.12.19.62.62,0,0,1-.75.44.69.69,0,0,1-.55-.69A8.52,8.52,0,0,1,93.86,53.82ZM94.54,55c-.25,0-.58-.17-.67.23s.33.66.65.65.53-.27.56-.58C95.13,54.81,94.7,55.13,94.54,55Zm1.27.12c-.17.08-.5-.18-.49.24a.51.51,0,0,0,1,0C96.32,55,96,55.2,95.81,55.12Z"/><path class="cls-7" d="M88.51,65a2.26,2.26,0,0,1-.3,1,.8.8,0,0,1-1.11.33c-.34-.17-.69-.31-1-.45a1.92,1.92,0,0,1-.36-.14c-.15-.1-.29.4-.41,0a.6.6,0,0,1,.29-.77c.32-.12.34-.25.28-.56s0-.8.49-.87.62.23.74.61a4.28,4.28,0,0,1,.1,1.06c0,.38.32.41.59.47a.35.35,0,0,0,.45-.31c.05-.2.06-.4-.24-.35s-.42,0-.46-.27a.4.4,0,0,1,.3-.47c.26-.1.4.07.5.24A2.87,2.87,0,0,1,88.51,65ZM87,65.35c-.09-.49-.13-.88-.61-.94-.18,0-.27.13-.26.3C86.18,65.22,86.64,65.14,87,65.35Z"/><path class="cls-9" d="M78.37,16A1.71,1.71,0,0,1,80,14.33a1.28,1.28,0,0,1,1.22,1.34,1.68,1.68,0,0,1-1.57,1.6A1.28,1.28,0,0,1,78.37,16Zm2.39-.8c0-.41-.31-.53-.65-.29a4.92,4.92,0,0,0-1.17,1.28c-.15.19-.21.42,0,.6s.43.08.61-.07a7,7,0,0,0,1.11-1.26A1,1,0,0,0,80.76,15.17Z"/><path class="cls-9" d="M92.62,33.2A1.27,1.27,0,0,1,94,34.48a1.64,1.64,0,0,1-1.71,1.44,1.33,1.33,0,0,1-1.31-1.33A1.6,1.6,0,0,1,92.62,33.2Zm-1,2a6.17,6.17,0,0,0,1.83-.66c.15-.13.26-.28.17-.49a.34.34,0,0,0-.41-.21,4.47,4.47,0,0,0-1.83.68.38.38,0,0,0-.15.44C91.3,35.2,91.45,35.25,91.64,35.24Z"/><path class="cls-9" d="M88.84,72.53a1.65,1.65,0,0,1,1.64,1.53,1.28,1.28,0,0,1-1.28,1.29,1.72,1.72,0,0,1-1.67-1.51A1.28,1.28,0,0,1,88.84,72.53Zm1.32,1.88a.56.56,0,0,0-.06-.2,4.37,4.37,0,0,0-1.89-1.11c-.34,0-.5.34-.25.59a4.16,4.16,0,0,0,1.74,1.08C90,74.86,90.13,74.71,90.16,74.41Z"/><path class="cls-9" d="M91.52,67.21a1.64,1.64,0,0,1,1.63,1.46,1.32,1.32,0,0,1-1.37,1.27,1.62,1.62,0,0,1-1.65-1.44A1.29,1.29,0,0,1,91.52,67.21Zm.79,2.07c.25,0,.43,0,.51-.19a.37.37,0,0,0-.15-.49,5.54,5.54,0,0,0-1.79-.75.35.35,0,0,0-.42.19.38.38,0,0,0,.14.5A5.91,5.91,0,0,0,92.31,69.28Z"/><path class="cls-9" d="M80.65,87c-.54.73-1,.76-1.64.12-.26-.27-.54-.53-.78-.82s-.31-.24-.54,0c0-.53.18-.9.72-.88.19,0,.28,0,.3-.23a1.62,1.62,0,0,1,.15-.42.57.57,0,0,1,.69-.36A.61.61,0,0,1,80,85a2.54,2.54,0,0,1-.25,1.15c-.1.24-.16.43.08.65a.54.54,0,0,0,.75.11Zm-1.19-.62a1.63,1.63,0,0,0,0-.9c-.07-.19-.23-.35-.47-.2a.31.31,0,0,0-.1.51Z"/><path class="cls-7" d="M86.74,24.79a1.12,1.12,0,0,1-1.36-.56,1.22,1.22,0,0,1,.22-1.44,1.64,1.64,0,0,1,2-.47,1.12,1.12,0,0,1,0,1.89c-.14.13-.22.05-.31-.07s-.4-.5-.57-.77-.32-.22-.49,0C85.72,24,85.88,24.43,86.74,24.79Zm.63-2.2c-.22.09-.59.11-.61.42s.24.58.44.54a.7.7,0,0,0,.57-.66C87.78,22.66,87.62,22.57,87.37,22.59Z"/><path class="cls-7" d="M94.29,47.12a1,1,0,0,1-.66-1,1.07,1.07,0,0,1,.68-1,1.58,1.58,0,0,1,2.32.88,1.18,1.18,0,0,1-1.12,1.28c-.2,0-.18-.13-.19-.26a3.61,3.61,0,0,0-.08-.67c-.06-.21.17-.65-.37-.54s-.84.56-.73.91a1.48,1.48,0,0,0,.23.38Zm1.48-1.48c-.37-.06-.34.17-.33.41s0,.47.34.4.64,0,.65-.39S96,45.7,95.77,45.64Z"/><path class="cls-9" d="M89.5,49.67A1.11,1.11,0,0,1,89,48.34a1.16,1.16,0,0,1,1.11-.8,1.64,1.64,0,0,1,1.53.49,1.05,1.05,0,0,1,.2,1.2,1.24,1.24,0,0,1-1.1.66c-.2,0-.2-.11-.2-.24,0-.34,0-.68,0-1s-.13-.31-.35-.28c-.66.1-.91.56-.67,1.23A.27.27,0,0,0,89.5,49.67Zm1.3-1c0,.25,0,.49.35.45s.64,0,.64-.37-.37-.4-.67-.44S90.78,48.46,90.8,48.7Z"/><path class="cls-9" d="M93.5,59.33a1,1,0,0,1-.26-1.27,1,1,0,0,1,1.07-.67,1.62,1.62,0,0,1,1.73,1,1,1,0,0,1-.18,1.05,1.2,1.2,0,0,1-1.12.37c-.22,0-.22-.16-.19-.32a4.86,4.86,0,0,0,.11-.55c0-.25.37-.6-.13-.72a.84.84,0,0,0-1,.73,1.3,1.3,0,0,0,.07.33Zm1.92-.11c.18-.09.48,0,.47-.37s-.39-.49-.68-.53-.29.34-.32.53C94.83,59.24,95.21,59.1,95.42,59.22Z"/><path class="cls-7" d="M87.08,63.06c-.51-.6-.56-1-.25-1.53A1.23,1.23,0,0,1,88.19,61a1.48,1.48,0,0,1,1.37,1.71c-.09.42-.29.78-.79.81-.26,0-.46,0-.45-.36a.38.38,0,0,1,.45-.39c.21,0,.48.19.57-.13s-.22-.44-.45-.56a1.94,1.94,0,0,0-1-.2C87.13,61.89,86.89,62.23,87.08,63.06Z"/><path class="cls-9" d="M94.29,50.05A1.29,1.29,0,0,1,94,48.36,1.7,1.7,0,0,1,96,48a1.3,1.3,0,0,1,.75,1.53.83.83,0,0,1-.16.29c-.16.19-.33.37-.62.29a.32.32,0,0,1-.24-.33c0-.33.22-.4.46-.47s.37,0,.36-.26-.18-.31-.37-.35a2.49,2.49,0,0,0-1.12,0C94.45,48.89,94.33,49.09,94.29,50.05Z"/><path class="cls-9" d="M89.5,46.84a1.19,1.19,0,0,1-.5-1.55,1.62,1.62,0,0,1,1.8-.72,1.32,1.32,0,0,1,1.11,1.35.93.93,0,0,1-.36.73.43.43,0,0,1-.47.09.38.38,0,0,1-.21-.37.39.39,0,0,1,.29-.37,2,2,0,0,0,.37-.13c.2-.1.2-.25,0-.4s-1.27-.19-1.81.16-.41.7-.2,1.13A.27.27,0,0,0,89.5,46.84Z"/><path class="cls-7" d="M96.12,53.39c0-.18.22-.14.31-.22a.62.62,0,0,0,.14-.58c0-.27-.26-.17-.4-.17a8,8,0,0,0-2.19.1v-1.3c.2.36.47.3.73.3.45,0,.9,0,1.35,0,.18,0,.45.14.51-.16s0-.54-.29-.65c0,0-.08,0-.13-.1.64-.11.65-.11.64.44s0,1.16,0,1.74S96.71,53.57,96.12,53.39Z"/><path class="cls-7" d="M87.3,28c.32-.55,0-1-.25-1.45l.1-.09c.18.24.38.16.58,0,.41-.26.8-.55,1.23-.78s.49-.45.19-.8l.09-.09,1,1.4a1.34,1.34,0,0,0-1.13.43c-.46.33-1.11.45-1.29,1.14,0,.11-.27.17-.41.26Z"/><path class="cls-9" d="M89.28,59.11c.32.26.55.71,1.09.56h0l-.28,1.23c-.34-.53-.87-.52-1.32-.63s-.89-.48-1.45-.08l.36-1.33a2.45,2.45,0,0,0,1.41.58c.19,0,.15-.1.12-.21Z"/><path class="cls-7" d="M93.16,41.46H93c-.09-.55-.19-1.1-.29-1.67a4.49,4.49,0,0,0,2.81-.44l.2,1.23c-.71-.26-1.35.12-2,.14S93,41,93.16,41.46Z"/><path class="cls-9" d="M74.76,88.31l1-.83c.18.83.63,1.16,1.24.89,0,.27-.58.41-.16.76.22.18.32.49.74.53l-1,.82A3.75,3.75,0,0,0,74.76,88.31Z"/><path class="cls-7" d="M93.89,61.8c.13-.33,0-.51-.33-.57a1.4,1.4,0,0,0-1,0L93,59.9a3.7,3.7,0,0,0,2.61.81A2.49,2.49,0,0,1,95.3,62c-.2-.41-.61-.39-1-.48s-.25.17-.3.33Z"/><path class="cls-7" d="M86.51,21.11a4.43,4.43,0,0,0-2.08,1.8l-.81-1c.93-.23,1.43-1,2.19-1.46l-.32-.51a2.51,2.51,0,0,1,1,1.21Z"/><path class="cls-9" d="M93.89,61.8h.16c0,.15-.22.36,0,.43s.7.38,1.14.1a5.73,5.73,0,0,1-.36,1.26,3.78,3.78,0,0,0-2.71-.72l.36-1.3c.28.46.75.42,1.14.54C93.84,62.17,93.84,61.93,93.89,61.8Z"/><path class="cls-9" d="M90.79,57.94c.08.43-.21.79-.23,1.19a3.18,3.18,0,0,0-1.84-.49c-.2,0-.53-.28-.86-.31,0-.22.08-.44.13-.66s.14-.26.12-.37A4.59,4.59,0,0,0,90.8,58Z"/><path class="cls-9" d="M91.48,72a6.53,6.53,0,0,0-2.37-1.11l0,0a6.51,6.51,0,0,1,.52-1.12c.14.47.53.54.85.71s.72.36,1.09.55c.17.09.33.16.5,0h0c0,.45-.3.77-.47,1.15Z"/><path class="cls-9" d="M87.34,78.91c.07-.11.19-.25,0-.35a8.15,8.15,0,0,0-2.11-1.37l.67-1A7,7,0,0,0,88.21,78l-.77,1Z"/><path class="cls-9" d="M76.24,87.24c.18-.4.62-.51.88-.83a6.8,6.8,0,0,0,1.69,2.31,5.29,5.29,0,0,1-.88.66h0s0,0,0-.06a.71.71,0,0,0-.34-.66c-.57-.38-.61-1.24-1.35-1.44Z"/><path class="cls-9" d="M82.25,85.13c.1-.13,0-.2-.08-.28l-1.31-1.31a.62.62,0,0,0-.62-.17l1-1c-.08.25.07.41.23.56a13.45,13.45,0,0,0,1.21,1.18c.36.29.33.47,0,.73a3.92,3.92,0,0,0-.37.34Z"/><path class="cls-9" d="M86.51,80.22c0-.23-.14-.34-.28-.45-.45-.34-.91-.66-1.37-1a.59.59,0,0,0-.69,0l.77-1.08A9.53,9.53,0,0,0,87,79.24s.1,0,.15-.06l.09.09c-.24.32-.38.73-.76.94Z"/><path class="cls-7" d="M83.41,17.31l.74.78a4.79,4.79,0,0,0-1.94,2h0a5.14,5.14,0,0,1-.83-.85l.05-.06c.37,0,.54-.32.74-.54.39-.41.91-.71,1.16-1.25Z"/><path class="cls-7" d="M86.78,26.16a1,1,0,0,0-1.08-.43c.29-.25.51-.44.94-.32a2.48,2.48,0,0,0,2.29-1.09,1,1,0,0,1,.31.51l-.09.09c-.19-.19-.33,0-.49.06a3.44,3.44,0,0,1-1.58.65c-.45,0-.31.21-.21.44Z"/><path class="cls-7" d="M83.12,20.85c.57.13.81-.43,1.35-.56a2.08,2.08,0,0,1-1.07.81.62.62,0,0,1-.65-.25.46.46,0,0,1-.09-.52c.11-.21.27-.39.54-.26s.29.32.11.55A2.59,2.59,0,0,0,83.12,20.85Z"/><path class="cls-7" d="M80.77,18.24c.35.13.48-.26.83-.3a.86.86,0,0,1-.64.54.61.61,0,0,1-.65-.25.44.44,0,0,1,0-.65.35.35,0,0,1,.5-.06c.25.2.14.39,0,.57S80.78,18.19,80.77,18.24Z"/><path class="cls-9" d="M80.56,86.92c.06-.2.26-.42-.15-.5a.32.32,0,0,1-.25-.42.42.42,0,0,1,.41-.33.4.4,0,0,1,.4.39,1,1,0,0,1-.32,1Z"/><path class="cls-9" d="M90.56,27.87c0-.11.15-.33-.15-.24s-.39.07-.47-.15.06-.32.21-.41a.39.39,0,0,1,.55.1c.26.27.18.54-.06.79Z"/><path class="cls-7" d="M91.48,72l.08.12a5.45,5.45,0,0,0-.25.55c-.16.51-.43.57-.88.15C91.14,72.92,91.2,72.32,91.48,72Z"/><path class="cls-7" d="M85.15,19.31c.19.08.26.26.38.46-.47,0-.67.44-1.14.61.21-.49.78-.59.77-1.08Z"/><path class="cls-9" d="M83.36,83.48c.64.37.14.58-.12.82l-.09-.07a.64.64,0,0,0,.15-.68Z"/><path class="cls-7" d="M82.35,17.1a.83.83,0,0,0,.23-.56c.39.28.39.28-.11.65Z"/><path class="cls-9" d="M82.13,85.44c-.25.47-.48.38-.7,0h0c.2,0,.44.08.62-.09Z"/><path class="cls-7" d="M87.05,26.56l-.27-.4.09-.09.28.4Z"/><path class="cls-9" d="M87.44,79l-.18.27-.09-.09.17-.27Z"/><path class="cls-9" d="M89.67,49.71l.13.06-.08,0s-.09,0,0-.1Z"/><path class="cls-9" d="M90.06,28.39l.16-.17.1.08-.17.18Z"/><path class="cls-7" d="M94.37,47l.14.14c-.1.07-.16,0-.22-.06Z"/><path class="cls-7" d="M83.11,17.17c-.07-.05-.19-.11-.11-.19s.14.07.2.12Z"/><path class="cls-7" d="M94.07,66.08l.05-.12,0,0-.07.11Z"/><path class="cls-7" d="M81.38,19.25s-.15,0-.06-.14l.11.08Z"/><path class="cls-9" d="M93.59,59.26c0,.05.1.1,0,.15s-.07,0-.1-.08Z"/><path class="cls-9" d="M90.37,59.67h0Z"/><path class="cls-9" d="M88.1,28.11H88v-.06l0,.07Z"/><path class="cls-7" d="M87.36,28.06s-.1.05-.11,0,0-.08,0-.09Z"/><polygon class="cls-9" points="89.67 46.89 89.7 46.91 89.68 46.88 89.67 46.89"/><path class="cls-9" d="M89.57,46.76c.06,0,.11.05.1.13h0l-.18,0A.27.27,0,0,1,89.57,46.76Z"/><path class="cls-9" d="M90.64,28l-.11.12L90.44,28l.12-.12Z"/><path class="cls-9" d="M91.37,42l0,0,0,0Z"/><path class="cls-7" d="M94.7,64.39s0,0,0,0,0,0,0,0,0,0,0,0S94.71,64.38,94.7,64.39Z"/><path class="cls-7" d="M91.71,64.62s0,0,0,0h0l.06-.05Z"/><path class="cls-7" d="M91.14,66.2l0,.08c-.08-.07,0-.06,0-.07Z"/><path class="cls-9" d="M89.11,70.85s0,.1-.08.07a1.17,1.17,0,0,0,0-.11Z"/><path class="cls-9" d="M76.23,87.23l0,0,0,0Z"/><path class="cls-9" d="M92,70.94l0,0h0Z"/><path class="cls-7" d="M74.43,88.71v-.07s0,0,0,0,0,0,0,0Z"/><path class="cls-9" d="M77.93,89.38l0,0h0l.06,0Z"/><path class="cls-9" d="M71.32,90.69l.12,0c0,.07,0,.07-.07.08Z"/><path class="cls-7" d="M75.89,91l0,0,0,0Z"/><path class="cls-9" d="M88.78,29.47H88.7v-.07l.06.07Z"/><path class="cls-9" d="M86.5,80.21l0,.06s0,0,0,0l0,0Z"/><path class="cls-9" d="M77.72,15.77c.06,0,.1,0,.07.08s-.08,0-.09,0Z"/><path class="cls-9" d="M70.23,94.34v.08l-.07,0,.08-.05Z"/><polygon class="cls-7" points="85.28 81.92 85.25 81.93 85.28 81.93 85.28 81.92"/><path class="cls-7" d="M82.47,17.19l-.12.11-.11-.08.11-.12Z"/><path class="cls-7" d="M84.93,82.26l0,0s0,0,0,0l-.07,0Z"/><path class="cls-7" d="M86.51,21.12s.06,0,.08,0a.43.43,0,0,0,0,.05l-.07-.07Z"/><path class="cls-7" d="M83.22,17.28l-.11-.11.09-.07.11.11Z"/><path class="cls-7" d="M82.35,17.3c0,.06-.08.13-.15.05s0-.08,0-.13Z"/><path class="cls-7" d="M83.33,17.4l-.11-.12.09-.07.1.1Z"/><path class="cls-7" d="M82.21,20.11l.07,0h0s0,0,0,0Z"/><path class="cls-9" d="M83.3,83.55s0-.12,0-.13.08,0,.09.06Z"/><path class="cls-9" d="M90.8,58l0,0,0,0Z"/><path class="cls-9" d="M90.22,28.22l.11-.12.1.08-.11.12Z"/><path class="cls-7" d="M85.16,19.3l-.08,0c.06-.08,0,0,.07,0Z"/><path class="cls-9" d="M90.53,28.08l-.1.1-.1-.08.11-.11Z"/><path class="cls-9" d="M89.68,49.7c-.07.06-.12,0-.18,0a.27.27,0,0,1,.07-.08l.1.12Z"/><path class="cls-9" d="M89.2,59.22c-.06,0-.13-.08,0-.15s.08,0,.13,0Z"/><path class="cls-9" d="M82.35,85.22l-.11.11-.1-.09.11-.11Z"/><path class="cls-9" d="M81.43,85.42l-.08,0,.07,0v.08Z"/><path class="cls-9" d="M82,85.33l.1-.09.1.09-.11.11Z"/><path class="cls-9" d="M83.24,84.3s-.08.09-.09.08,0-.1,0-.15Z"/><path class="cls-9" d="M22.56,87.33a6.43,6.43,0,0,1,1.11.87,7.32,7.32,0,0,0-2.62,3.19l-1.16-1a3,3,0,0,0,1.37-1.21c0-.15-.1-.19-.18-.25a.49.49,0,0,0-.62-.09c-.28.18-.54.39-.84.56a.83.83,0,0,1-1.12-.11.52.52,0,0,1-.13-.47c0-.28.2-.46.5-.39s.35.26.22.51-.12.22,0,.32.25,0,.35,0c.38-.22.74-.45,1.11-.68.07,0,.12-.08.1-.17a4.58,4.58,0,0,1,.21-1.87.74.74,0,0,0,0-.33c-.32-.64.24-.87.55-1.22a1.45,1.45,0,0,0,.25,1.53c.16.16,0,.39,0,.59-.07.46-.2.91-.29,1.37a.31.31,0,0,0,.08.36c.18.1.25-.08.3-.16.25-.45.8-.72.81-1.31Z"/><path class="cls-9" d="M15.26,65.87l.52,1.28c-.68-.1-3.64,1.18-3.87,1.72-.11-.44-.53-.72-.28-1.19.09-.15-.08-.11-.14-.15a1,1,0,0,1-.12-1.62,2.06,2.06,0,0,1,1.47-.61,1,1,0,0,1,1.11,1c0,.35.1.41.38.25S15.13,66.43,15.26,65.87Zm-3.19,1.66c.49-.21,1-.4,1.47-.65a.5.5,0,0,0,.17-.61c-.09-.23-.31-.24-.53-.21a3.23,3.23,0,0,0-1.43.59c-.16.12-.34.27-.25.51S11.8,67.48,12.07,67.53Z"/><path class="cls-7" d="M14.42,30.6a1.5,1.5,0,0,0,.26.17c.56-.53,1.26-.14,1.87-.33-.17,1.3-1.21.66-1.92.9a1.78,1.78,0,0,0,1.3.48L15.34,33c-.21-.56-.69-.61-1.16-.86a1.36,1.36,0,0,0,.47.77c.52.48.4.91,0,1.4-.17-.46-.7-.76-.74-1.18-.1-.85-.68-.57-1.15-.67,0,.09,0,.15,0,.18s.44.33.12.59-.4.05-.53-.12a.46.46,0,0,1,.08-.7c.21-.18.46-.08.7-.11s.73.19.78-.18-.47-.33-.74-.46c-.08,0-.2,0-.39,0l.6-1.22c.17.56.63.6,1,.8a.49.49,0,0,0,0-.59Z"/><path class="cls-9" d="M10,31a5,5,0,0,1-.5,1A20.15,20.15,0,0,0,5.83,30a12.81,12.81,0,0,0,.68-1.48c.09-.43.55-.55,1-.51a2.19,2.19,0,0,1,1.43.69c.56.59.43,1.2-.33,1.72.47.22.87.6,1.44.51ZM7.06,28.77c-.19,0-.35,0-.4.23a.5.5,0,0,0,.24.58,12.21,12.21,0,0,0,1.24.65.48.48,0,0,0,.59-.2.32.32,0,0,0,0-.46A3,3,0,0,0,7.06,28.77Z"/><path class="cls-7" d="M13.5,22.58c0,.42-.43.62-.6,1-.2-.48-.6-.67-1-.94a.84.84,0,0,0,.23.64c.36.52.51,1-.15,1.45-.07-.48-.56-.85-.56-1.29,0-.84-.62-.59-1-.83,0,.11,0,.16,0,.18s.35.28.15.52a.26.26,0,0,1-.34.08.46.46,0,0,1-.32-.48.47.47,0,0,1,.37-.44c.2-.06.37.06.55.09s.4.09.6.12a.21.21,0,0,0,.23-.13c0-.11-.05-.17-.12-.22-.29-.15-.48-.5-1-.37l.77-1.08c0,.49.44.6.72.83s.22,0,.24-.14a1,1,0,0,0-.2-.52.3.3,0,0,0,.08-.08c.21.21.3.47.77.29s.9.1,1.37.17l0,.05c-.18.48-.43.74-1,.55a1.49,1.49,0,0,0-1-.1c.39.27.64.66,1.15.64Z"/><path class="cls-9" d="M10.86,60.16c-.61-.09-1.14-.74-1.85-.23a6.65,6.65,0,0,1-.25-1.11,7.94,7.94,0,0,0,2.8-.6l.26,1.15A3,3,0,0,0,10,59.6c.6.09,1.13.74,1.86.23a4.14,4.14,0,0,1,.25,1.1,7.33,7.33,0,0,0-2.79.64L9.09,60.4C9.75,60.65,10.29,60.28,10.86,60.16Z"/><path class="cls-7" d="M10.22,77.85a4,4,0,0,0,2.23-1.68c.25.4.63.66.7,1.13h0a2.77,2.77,0,0,0-1.73,1.06l2.35-.53-1.13,1.81.1.1c.5-.32,1.09-.54,1.4-1.16.08.18.3.29.25.53h0c-.69,0-1.06.58-1.58.88-.27.17-.64.28-.59.74-.05,0-.09,0-.11-.08-.59-.77-.58-.77,0-1.59l.45-.7a2.42,2.42,0,0,0-1,.16c-.89.22-.89.22-1.35-.65Zm2.46,1.93c0-.06,0-.07-.07,0l-.09.07.13,0Z"/><path class="cls-9" d="M11.08,62.94c0-.21,0-.32,0-.43a.59.59,0,0,1,.51-.59.66.66,0,0,1,.72.32,10.38,10.38,0,0,1,.81,2.13,6,6,0,0,0-2.77.86c-.15-.5-.36-1.07-.49-1.67-.07-.32-.11-.71.26-.91S10.81,62.6,11.08,62.94Zm.6.8c.28-.2.8-.05.89-.49s-.25-.5-.54-.52a.55.55,0,0,0-.64.54C11.38,63.45,11.37,63.69,11.68,63.74Zm-1.41.42c.24-.07.47-.16.7-.21.41-.09.3-.3.12-.51a.46.46,0,0,0-.6-.11C10.12,63.52,10.19,63.83,10.27,64.16Z"/><path class="cls-7" d="M4.24,50.23l-.06,1.13a7.44,7.44,0,0,0-2.86,0l.06-1.21a1,1,0,0,0,.84.25c.14,0,.34.09.4-.08a.42.42,0,0,0-.24-.47c-.22-.13-.47-.23-.7-.36a.6.6,0,0,1-.23-.83A.42.42,0,0,1,2,48.39a.35.35,0,0,1,.3.35c0,.24-.17.3-.37.32a1.38,1.38,0,0,0-.24.1c.21.35.61.36.88.55a.15.15,0,0,0,.23-.08c.29-.6,1-.64,1.44-1.12.11-.13.49,0,.76,0a1,1,0,0,0-.71.8c0,.29-.29.32-.47.43s-.61.34-1,.57A1.55,1.55,0,0,0,4.24,50.23Z"/><path class="cls-9" d="M2.2,41.55l.27-1.28a1.17,1.17,0,0,0,.77.39c.27.06.48,0,.54-.3s0-.48-.4-.5-.54-.25-.85.21l.26-1.31a6.58,6.58,0,0,0,2.77.61l-.23,1.1c-.3-.39-.76-.33-1.16-.44-.23-.07-.17.2-.22.31s-.16.38.06.44c.39.1.79.38,1.25,0L5,42A4,4,0,0,0,2.2,41.55Z"/><path class="cls-9" d="M5.84,70.09l-.5-1.23a1.06,1.06,0,0,0,.91-.12c.11-.06.3,0,.29-.22a.43.43,0,0,0-.29-.32,2.63,2.63,0,0,0-.84-.07.63.63,0,0,1-.59-.77.47.47,0,0,1,.4-.35.28.28,0,0,1,.33.16.33.33,0,0,1-.13.48c-.31.19-.11.34.08.32s.83.34,1-.42c.09-.51.66-.84.81-1.38,0-.13.27-.19.45-.18a2.82,2.82,0,0,1-1.09,2.37,1.26,1.26,0,0,0,1.31-.54A4.55,4.55,0,0,1,8.42,69,4,4,0,0,0,5.84,70.09Z"/><path class="cls-9" d="M9.68,49.6a1.37,1.37,0,1,1,0-2.71,1.41,1.41,0,0,1,1.52,1.38A1.31,1.31,0,0,1,9.68,49.6Zm-.07-.9h.93a.39.39,0,0,0,.11-.76,5.82,5.82,0,0,0-2-.13.38.38,0,0,0-.06.76A2.85,2.85,0,0,0,9.61,48.7Z"/><path class="cls-9" d="M2.86,42.58c.49.05,1,.08,1.46.14.16,0,.13-.39.36-.11s.21.47.1.57c-.45.39-.26.78-.13,1.22a.45.45,0,0,1-.31.54.71.71,0,0,1-.77-.2,2.36,2.36,0,0,1-.47-1c-.13-.51-.51-.47-.88-.4s-.26.25-.23.45.18.26.38.16a.32.32,0,0,1,.5.18.39.39,0,0,1-.17.49c-.21.14-.39,0-.56-.09a1.47,1.47,0,0,1-.27-1.47C2,42.7,2.26,42.57,2.86,42.58Zm.38.94a.85.85,0,0,0,.42.57.35.35,0,0,0,.42,0,.28.28,0,0,0,.14-.33c-.06-.14-.14-.29-.32-.28S3.46,43.42,3.24,43.52Z"/><path class="cls-7" d="M2.7,53.27c.31.19.46.46.76.5s.4,0,.43-.23-.1-.41-.36-.39a11.92,11.92,0,0,1-1.46.09c-.3,0-.42.22-.34.52s.27.23.46.1a.27.27,0,0,1,.43.1.4.4,0,0,1-.06.52.44.44,0,0,1-.57,0,1.4,1.4,0,0,1-.36-1.76.78.78,0,0,1,.57-.33c.61-.07,1.26.09,1.83-.29.12-.08.19.08.24.17s.18.52,0,.67-.12.35,0,.52c.2.34.41.71,0,1s-.76.06-1-.29A2.14,2.14,0,0,1,2.7,53.27Z"/><path class="cls-7" d="M11,35.59a10.82,10.82,0,0,1,.78-2.07,6.44,6.44,0,0,0,3.36,1.31c-1,0-1.08.78-1.36,1.38s-.25.72.24,1.3c-.41-.1-.7-.17-.85-.62A2.62,2.62,0,0,0,11,35.58Zm2.35,1.07c.11-.22.17-.39.26-.54.24-.39.19-.64-.28-.81a16.11,16.11,0,0,1-1.48-.64c-.26-.13-.36-.05-.44.2s-.19.39.14.52A4.28,4.28,0,0,1,13.38,36.66Z"/><path class="cls-9" d="M20,85.44a1.77,1.77,0,0,1-1.66,1.68,1.26,1.26,0,0,1-1.16-1.23,1.81,1.81,0,0,1,1.65-1.63A1.16,1.16,0,0,1,20,85.44ZM19.52,85c0-.38-.25-.51-.57-.29a5.14,5.14,0,0,0-1.3,1.37.36.36,0,0,0,0,.51.38.38,0,0,0,.51,0,5.94,5.94,0,0,0,1.27-1.33A.57.57,0,0,0,19.52,85Z"/><path class="cls-9" d="M9.33,51.39c.35-.71,1.16-.89,1.62-1.46.33.86-.15,1.27-.82,1.61-.18.09-.53.16-.44.42s.41.08.62.08a.69.69,0,0,0,.69-.33V53a5,5,0,0,0-2.83,0v-1.2a1.1,1.1,0,0,0,.75.22c.6,0,.62,0,.33-.6Z"/><path class="cls-7" d="M8.81,43.26a4.43,4.43,0,0,0,2.87.4l-.23,1.41c-.28-.57-.8-.39-1.22-.51a7.09,7.09,0,0,0-.94-.15c-.25,0-.49-.06-.53.31s0,.47.37.51a11.43,11.43,0,0,1,1.65.31.64.64,0,0,1,.5.9.46.46,0,0,1-.58.32.37.37,0,0,1-.29-.37c0-.33.26-.31.49-.31,0,0,.06,0,.1,0a2.84,2.84,0,0,0-2.53-.42Z"/><path class="cls-7" d="M9.22,41.92a12.65,12.65,0,0,1,.46-2.38,3.37,3.37,0,0,0,2.81.57l-.3,1.38a.8.8,0,0,0-.46-.34c-.61-.12-1.22-.23-1.81-.39s-.36.27-.44.47.06.31.28.35c.51.1,1,.21,1.53.35.29.08.58.21.63.57s0,.66-.4.74a.39.39,0,0,1-.49-.36c0-.44.37-.31.61-.39a2.77,2.77,0,0,0-2.42-.57Z"/><path class="cls-7" d="M6.41,39.1c-.44,0-.71-.07-.91-.48a2.59,2.59,0,0,0-2.39-.95l.31-1.08c.09-.34.19-.68.27-1a6.33,6.33,0,0,0,3.41.81c-.76.09-.88.64-1,1.18S5.72,38.67,6.41,39.1Zm-.76-.73c.06-.17.1-.31.16-.45.25-.52,0-.74-.48-.85a13.46,13.46,0,0,1-1.45-.41c-.3-.11-.31.05-.37.23s-.15.42.16.49A4.81,4.81,0,0,1,5.65,38.37Z"/><path class="cls-7" d="M8.52,75.14a4,4,0,0,0,2.32-1.48c.1-.16.3-.2.46-.28l.06.06a1.11,1.11,0,0,0,.06,1.1c.12.22.37.41.28.72-.33-.59-.72-.55-1.21-.17a5.34,5.34,0,0,1-1,.59c-.28.14-.33.28-.16.57s.3.22.52.08a3.4,3.4,0,0,1,1.55-.6c.41,0,.44-.17.3-.48.38.1.61.66,1.15.36-.28.22-.47.47-.93.34A2.3,2.3,0,0,0,9.6,77.07a17.62,17.62,0,0,1-1.06-1.94Z"/><path class="cls-9" d="M7.51,73.33c.35.07.61-.14.9-.26s.22-.19.13-.38a2,2,0,0,1-.24-.8c0-.35,0-.66.4-.79a.73.73,0,0,1,.88.31,13.56,13.56,0,0,1,.9,1.68,7.1,7.1,0,0,0-2.54,1.25,2.2,2.2,0,0,1-.42-1Zm1.79-1.5a.57.57,0,0,0-.62.52c0,.16,0,.4.24.43s.89-.43.87-.58S9.54,71.85,9.3,71.83Z"/><path class="cls-7" d="M4,34.57a4.22,4.22,0,0,1,.46-1.11c.08.3.33.37.54.5.37.22.61.18.72-.27a.33.33,0,0,1,.06-.1c.36-.6.7-.8,1.1-.62s.52.6.28,1.27c-.18.49-.39,1-.58,1.41A6.06,6.06,0,0,0,4,34.56Zm2.93-.3a.63.63,0,0,0-.64-.59c-.29,0-.59.24-.53.46s.56.36.88.47S6.91,34.45,6.94,34.27Z"/><path class="cls-7" d="M13.91,68.41c.9,0,1.34.3,1.49.9a1.31,1.31,0,0,1-.75,1.44,1.65,1.65,0,0,1-1.28.26,1.14,1.14,0,0,1-.91-.89A1.17,1.17,0,0,1,13,69c.19-.17.34-.19.46.09s.28.53.41.8.29.27.51.09C15,69.4,14.85,68.8,13.91,68.41Zm-.7,2.08c.14-.09.54,0,.56-.33,0-.18-.1-.59-.42-.55a.69.69,0,0,0-.63.56C12.68,70.45,12.88,70.51,13.21,70.49Z"/><path class="cls-7" d="M12.71,37.28a1,1,0,0,1,.39,1.22,1.06,1.06,0,0,1-1.08.81,1.74,1.74,0,0,1-1.73-.91,1.06,1.06,0,0,1,.1-1.21,1.29,1.29,0,0,1,1.24-.36c.23,0,.21.19.17.33a5.78,5.78,0,0,1-.24.81c-.18.4,0,.49.35.48.74,0,1-.35.81-1.18Zm-1.81.12c-.29,0-.56.07-.53.33a.71.71,0,0,0,.69.55c.39,0,.34-.38.36-.57C11.46,37.33,11,37.55,10.9,37.4Z"/><path class="cls-9" d="M13.66,82.56c-.75-.69-.73-1.13.07-1.78a10.7,10.7,0,0,1,.83-.68c.18-.11-.18-.61.32-.43a.59.59,0,0,1,.44.78c0,.21.18.18.32.24.36.13.72.31.58.8s-.54.47-.92.41a2.42,2.42,0,0,1-.74-.26.56.56,0,0,0-.75.12.49.49,0,0,0-.06.7Zm1.12-1.11c.36,0,.61,0,.66-.36a.27.27,0,0,0-.31-.31.79.79,0,0,0-.66.52C14.41,81.47,14.7,81.44,14.78,81.45Z"/><path class="cls-7" d="M15.51,71a1.22,1.22,0,0,1,1.24.63,1.13,1.13,0,0,1-.12,1.32,1.76,1.76,0,0,1-1.66.74,1.2,1.2,0,0,1-1.05-.9.69.69,0,0,1,0-.49c.08-.22.18-.42.44-.47a.34.34,0,0,1,.36.2c.15.25,0,.43-.17.59s-.33.25-.19.47.34.14.55.07a2.06,2.06,0,0,0,.67-.4C16.34,72.07,16.33,71.55,15.51,71Z"/><path class="cls-9" d="M10.62,55.43a1.1,1.1,0,0,1,.78,1.11,1.19,1.19,0,0,1-.73,1.12,1.55,1.55,0,0,1-2.33-.94.92.92,0,0,1,.31-.92.39.39,0,0,1,.6,0,.37.37,0,0,1-.16.6c-.11.06-.24.1-.35.17s-.18.31,0,.45a1.83,1.83,0,0,0,2-.74.88.88,0,0,0-.24-.83Z"/><path class="cls-7" d="M14.51,19.52c.23-.53-.26-.47-.5-.55a.57.57,0,0,0-.84.39,3.26,3.26,0,0,0,0,.55,1.09,1.09,0,0,1,.05-1.42,1,1,0,0,1,1.33-.22,1.73,1.73,0,0,1,1.11,1.56,1,1,0,0,1-.62,1,1.28,1.28,0,0,1-1.2-.27c-.18-.11-.06-.23,0-.32s.36-.38.54-.57l.1.08c-.21.23-.15.4.12.55s.45.31.65.11.05-.45-.13-.64-.28-.45-.55-.12Z"/><path class="cls-7" d="M18.93,14.67c0,.22-.45.28-.3.53a.89.89,0,0,0,.88.4.55.55,0,0,0,.54-.48c0-.1,0-.23.07-.31.14.78,0,1.15-.5,1.43a1.2,1.2,0,0,1-1.5-.4,1.64,1.64,0,0,1-.55-1.3,1,1,0,0,1,.72-1A1.26,1.26,0,0,1,19.5,14c.12.11.07.2,0,.28l-.54.4a.83.83,0,0,0-.61-.78A.27.27,0,0,0,18,14c-.16.29.06.5.18.72s.24.25.44.07S18.76,14.53,18.93,14.67Z"/><path class="cls-9" d="M3.89,60.68c-.25-.24-.51-.16-.78,0a.37.37,0,0,0-.19.56c.12.23.28.18.46,0a.29.29,0,0,1,.48,0,.36.36,0,0,1,.05.47.42.42,0,0,1-.48.19,1.4,1.4,0,0,1-.87-1.27.83.83,0,0,1,.76-.89c.39-.07.76-.19,1.14-.28.09,0,.21,0,.27-.07s.17-.45.43-.15a.55.55,0,0,1,.06.81c-.06.06-.16.09-.11.21l-.11.1a.73.73,0,0,0-1,.22Z"/><path class="cls-7" d="M2.54,56.5,5,57.07l-2,1.24c.67-.1,1.4.1,2-.42a.66.66,0,0,1,.11.52,6.76,6.76,0,0,0-2.78.43c.11-.34-.49-.8.17-1.14.4-.21.77-.45,1.2-.71-.35-.25-.75-.18-1.07-.36Z"/><path class="cls-7" d="M4.4,46.21l-.09,1.26A6.05,6.05,0,0,0,1.81,47c-.28,0-.19.41-.1.63s.22.18.35.29c-.67,0-.7,0-.63-.61a12.68,12.68,0,0,0,.17-1.51c0-.57.21-.73.74-.49a1.36,1.36,0,0,0-.42.2.6.6,0,0,0-.16.52c.05.22.24.13.37.15l1.56.2A.72.72,0,0,0,4.4,46.21Z"/><path class="cls-9" d="M6.39,63.82c-.27-.18-.53,0-.79,0s-.79.23-1.17.38c-.2.07-.56,0-.53.36s.26.52.75.49c-.48.28-.75.36-.87-.2a10.27,10.27,0,0,0-.47-1.55c-.19-.48-.07-.69.43-.73.09.13-.07.12-.1.18s-.11.11-.14.17,0,.37.06.54.26.06.38,0L5.49,63c.21-.06.45-.1.48-.49a3.62,3.62,0,0,1,.42,1.28Z"/><path class="cls-7" d="M15.26,84.1c.19.16.31.41.63.12s.55-.54,0-.86c.37-.22.4.38.72.15a1.84,1.84,0,0,0,.76-1l.86,1c-.72.16-1.17.69-1.06,1.19-.47-.2-.81,0-1.06.7a9.9,9.9,0,0,1-1-1.11Z"/><path class="cls-9" d="M14.55,28.56c.45-.84.43-.82,1.29-.34a3.91,3.91,0,0,0,1.76.84l-.68,1.1A5.41,5.41,0,0,0,14.55,28.56Z"/><path class="cls-9" d="M2.54,56.5v.13c-.23-.07-.56.07-.67-.27a1.39,1.39,0,0,1-.1-.66c.07-.33.33,0,.51-.07.58-.13,1.18-.2,1.77-.28.18,0,.27-.16.45-.31l.23,1.33c-.41-.34-.77-.19-1.13-.12l-1,.16a.06.06,0,0,0,0,.09Z"/><path class="cls-9" d="M16.34,17.28a1.53,1.53,0,0,0,1,1,6,6,0,0,1-.76.81,6.27,6.27,0,0,0-2-2l.78-.71c.19.34.36.76.89.83Z"/><path class="cls-9" d="M5.11,31.93l.38-1a7,7,0,0,0,2.59,1.19l-.4,1A5.07,5.07,0,0,0,5.15,32Z"/><path class="cls-9" d="M6.71,71.85l-.5-1a5.78,5.78,0,0,0,2.55-1.23l.45,1A6.29,6.29,0,0,0,6.71,71.85Z"/><path class="cls-9" d="M15.75,15.9l.7-.72a8.18,8.18,0,0,0,2,2l-.8.63A10,10,0,0,0,15.75,15.9Z"/><path class="cls-7" d="M9.69,26.29a11,11,0,0,1,1.06,1.31.3.3,0,0,0-.08.08,6.17,6.17,0,0,0-2.16-.44,1.68,1.68,0,0,0-1.27,0A3.17,3.17,0,0,1,8,26.1H8a2,2,0,0,0,1.65.38s0-.07,0-.1Z"/><path class="cls-9" d="M5.11,60.26l0,0c.54.47.66.81.39,1.12s-.8.22-1.24-.22a5.53,5.53,0,0,1-.41-.52l.09-.1a3.85,3.85,0,0,0,.38.23c.47.22.66.08.64-.45Z"/><path class="cls-9" d="M9.25,51.48a7.59,7.59,0,0,1-.82-.37.66.66,0,0,1-.24-1,.44.44,0,0,1,.48-.21A.37.37,0,0,1,9,50.3c0,.2-.12.29-.31.34s-.24,0-.24.18.14.16.23.21.51.12.67.36Z"/><path class="cls-7" d="M14.5,27.61a.51.51,0,0,1-.48.47.44.44,0,0,1-.47-.45.45.45,0,0,1,.48-.49A.51.51,0,0,1,14.5,27.61Z"/><path class="cls-9" d="M13.75,82.46c.21.07.4.12.47-.19a.31.31,0,0,1,.4-.23.4.4,0,0,1,.31.36.38.38,0,0,1-.29.43,1,1,0,0,1-1-.27Z"/><path class="cls-7" d="M10.93,27.88a.86.86,0,0,1,.31.57.54.54,0,0,1-.69.58.35.35,0,0,1-.29-.41.29.29,0,0,1,.41-.25c.11,0,.19.13.32,0s-.09-.3-.14-.45A.6.6,0,0,1,10.93,27.88Z"/><path class="cls-7" d="M14,30.35c-.37-.45-.37-.79,0-1a.42.42,0,0,1,.52,0,.34.34,0,0,1,.12.35c-.05.24-.24.19-.4.17-.45-.06-.15.19-.14.32Z"/><path class="cls-7" d="M11.92,20.78a.43.43,0,0,1,0-.72.4.4,0,0,1,.6,0c.1.1.23.21.13.38s-.22.18-.38.12-.4-.27-.26.16A.23.23,0,0,0,11.92,20.78Z"/><path class="cls-7" d="M9.31,26c-.33-.18-.43-.76-1.06-.51l.47-.79c0,.57.47.83.68,1.22Z"/><path class="cls-7" d="M15.08,84.07c-.28-.23-.7-.45,0-.8,0,.27-.08.53.1.73Z"/><path class="cls-7" d="M9.4,25.91a.84.84,0,0,1,.29.38l-.1.09A.79.79,0,0,1,9.31,26Z"/><path class="cls-7" d="M10.85,28l-.18-.28a.3.3,0,0,1,.08-.08l.18.28A.6.6,0,0,0,10.85,28Z"/><path class="cls-7" d="M12,20.71l.17.28a.3.3,0,0,1-.08.08.41.41,0,0,1-.16-.29A.23.23,0,0,1,12,20.71Z"/><path class="cls-9" d="M10,31l0-.15,0,0A.75.75,0,0,1,10,31Z"/><path class="cls-7" d="M9.22,41.92l0,0h0l.07,0Z"/><polygon class="cls-9" points="6.39 63.83 6.4 63.85 6.39 63.82 6.39 63.83"/><path class="cls-9" d="M7.91,66l0,0s0,0,0,0,0,0,0,0Z"/><path class="cls-7" d="M12.72,37.27h-.08l0-.07.05.08Z"/><path class="cls-9" d="M22.51,87.38s-.06-.1-.05-.11.08,0,.1.06Z"/><path class="cls-7" d="M11,35.58l-.06.07v-.07H11Z"/><path class="cls-7" d="M4,34.56v.07H4l0-.06Z"/><path class="cls-9" d="M7.52,73.32H7.44l0-.07,0,.08Z"/><path class="cls-7" d="M11.48,73.34l0-.07s0,0,0,0l0,0Z"/><path class="cls-7" d="M11.3,73.38l.18,0h0l-.11.11Z"/><path class="cls-7" d="M8.54,75.13l-.07-.06h0v.08Z"/><path class="cls-9" d="M5.15,32l-.06.09,0,0,.06-.09Z"/><path class="cls-7" d="M13.15,77.3h0Z"/><path class="cls-7" d="M14.32,30.47l.1.13-.09.07-.12-.11Z"/><path class="cls-7" d="M8,26.1H8Z"/><path class="cls-7" d="M10.23,77.85l0,0v0l0,.06Z"/><path class="cls-7" d="M14.21,30.56l-.1-.12.09-.08.12.11Z"/><path class="cls-7" d="M14.4,79.1l.07,0s0,0,0,0l0,0Z"/><path class="cls-7" d="M14.11,30.44l-.1-.09.08-.1.11.11Z"/><path class="cls-9" d="M16.28,17.19s.12,0,.13,0,0,.09-.07.11Z"/><path class="cls-7" d="M13.51,22.59l.06-.07v.05h-.07Z"/><path class="cls-7" d="M14.3,21.45l.07-.07c0,.06,0,.1,0,.12Z"/><path class="cls-7" d="M14.4,19.64l.11-.12.08.1-.09.1Z"/><path class="cls-9" d="M10.56,55.47s-.1,0-.06-.08.08,0,.12,0Z"/><path class="cls-7" d="M15.18,84.2l-.1-.13.09-.07.09.1Z"/><path class="cls-10" d="M59.51,8.91a5.07,5.07,0,0,1,.2,2.38,7.15,7.15,0,0,1-1,3.36.89.89,0,0,1-.88.48c-.71,0-1.43,0-2.14,0-.19,0-.44.09-.5-.22l.55-.19c.08-.05.21,0,.24-.15h0c.13,0,.28,0,.35-.12h0c.12,0,.35.08.28-.21a.23.23,0,0,0,.34,0,.55.55,0,0,0,0-.79c-.23-.23-.54-.1-.77.12-.16,0-.21.06-.21.21a10.77,10.77,0,0,1-2.76,1.52c-.14.06-.2.06-.14-.13s.49-.45.45-.84c-.23,0-.28.36-.55.2,0-.27.3-.45.27-.76-.21.06-.18.28-.32.37L50.34,14c.06-.16.26-.24.24-.44a.52.52,0,0,0,.57-.45.63.63,0,0,0,.41-.15,9.27,9.27,0,0,1,2.51-1.46.34.34,0,0,0,.23-.35c0-.23-.06-.4-.33-.43,0-.11,0-.21,0-.32.33-.52.78-.06,1.17-.14a.15.15,0,0,1,.09,0l-.11.21c-.07,0-.11.17-.06.18.34.06.35.28.3.56.16-.25.39-.44.42-.73h0c.15,0,.16-.15.22-.25l.42-.81.15-.07A7.22,7.22,0,0,1,59.51,8.91Z"/><path class="cls-11" d="M59.51,8.91a7.22,7.22,0,0,0-2.95.45c.06-.33.39-.37.58-.56s.41-.27.45-.54a5.12,5.12,0,0,1,.54-2,2.42,2.42,0,0,1-1.5,1,1,1,0,0,0-.76,1.06c0,.26,0,.52,0,.78h0c-.29,0-.29.25-.34.45h0c-.12,0-.15.11-.11.22h0c-.24.1-.27.33-.31.54-.39.08-.84-.38-1.17.14l-.33-.13c0-.39-.29-.64-.44-.95a1.89,1.89,0,0,1,0-2,8.1,8.1,0,0,1,1.14-1.59A1,1,0,0,0,54.13,4a1.65,1.65,0,0,1-.62-.46c.17-.39.55-.19.82-.29s.69.15.87-.28a8.41,8.41,0,0,1,3.25,3.23A7.21,7.21,0,0,1,59.51,8.91Z"/><path class="cls-12" d="M55.2,2.92c-.18.43-.59.17-.87.28s-.65-.1-.82.29a.23.23,0,0,0-.24.15l-.22-.14c-.06-.41-.36-.45-.69-.45h0c0-.27-.16-.26-.34-.23h0c0-.28-.16-.26-.34-.24h0c0-.27-.17-.25-.35-.25l-.1-.07c-.21-.43-.58-.53-1.11-.27-.87.42-1.74.87-2.61,1.3a1.75,1.75,0,0,1-1.59.21c-.2-.1-.63-.26-.77.22L44.71,4c-.13-.26-.31,0-.47,0-.32-.47-.77-.26-1.15-.18a1.64,1.64,0,0,1-1.23-.17,11.06,11.06,0,0,1,5.67-2.37,11.78,11.78,0,0,1,6.26.9A7.54,7.54,0,0,1,55.2,2.92Z"/><path class="cls-11" d="M41.86,3.59a1.64,1.64,0,0,0,1.23.17c.38-.08.83-.29,1.15.18a4.06,4.06,0,0,1-1,.61c-.5.28-1,.51-1.19,1.17,0,.22,0,.45-.08.66-.14.6.17,1.45-.88,1.57-.81.1-1.12.66-1.28,1.42-.29,1.36-.66,2.71-1,4.06a6.62,6.62,0,0,1-.53-3.51A9,9,0,0,1,40.38,5,6.94,6.94,0,0,1,41.86,3.59Z"/><path class="cls-8" d="M38.82,13.43c.33-1.35.7-2.7,1-4.06.16-.76.47-1.32,1.28-1.42,1-.12.74-1,.88-1.57.05-.21,0-.44.08-.66.15-.66.69-.89,1.19-1.17a4.06,4.06,0,0,0,1-.61c.16,0,.34-.22.47,0a8.6,8.6,0,0,1-1.22.68A2,2,0,0,0,42.13,6.8c0,1-.05,1.06-1.08,1.38-.48.15-.85.34-1,.89-.31,1.43-.66,2.85-1,4.27a1.34,1.34,0,0,0,.07,1.09l-.06.05C38.61,14.25,38.9,13.79,38.82,13.43Z"/><path class="cls-10" d="M52.42,16.72c.14.13.33.23.38.46-.16,0-.21-.1-.27-.17-.26-.27-.41-.21-.59.12-.56,1-1.15,2.07-1.74,3.1-.13.22-.29.43-.61.32a.67.67,0,0,1,.23-.6c.57-.53.57-1.39,1.14-1.93.18-.16,0-.58.42-.64a28.2,28.2,0,0,1,1.74-2.83c0,.5-.4.68-.28,1h0c-.41.16-.45.6-.67.9S52.24,16.73,52.42,16.72Z"/><path class="cls-2" d="M52.84,15.58c-.12-.35.29-.53.28-1a28.2,28.2,0,0,0-1.74,2.83c-.13-.38.3-.58.29-1l-3,1.29-.06-.12L49.8,17a6.1,6.1,0,0,1,.82-.38A4.09,4.09,0,0,0,53,14.12c.14-.09.11-.31.32-.37,0,.31-.24.49-.27.76.27.16.32-.21.55-.2,0,.39-.34.54-.45.84s0,.19.14.13C53.24,15.55,53,15.54,52.84,15.58Z"/><path class="cls-8" d="M46.47,15.72c-.41-.09-.68-.44-1.07-.6a.74.74,0,0,0-.88.09c-.1.09-.22.15-.32.23a2,2,0,0,1-2.57.31A18,18,0,0,0,39.75,15c-.27-.11-.53-.21-.63-.52l.06-.05a8.86,8.86,0,0,0,1.89.84c1.91.76,1.61,1.06,3.51-.38a.49.49,0,0,1,.55-.12,3.68,3.68,0,0,1,1.4.89Z"/><path class="cls-7" d="M52.84,15.58c.18,0,.4,0,.42-.3A10.77,10.77,0,0,0,56,13.76h.09l0,.12c0,.12-.11.26.09.33l.11.23h0a.34.34,0,0,0-.35.12h0c-.11,0-.23,0-.24.15l-.55.19L55,15l-.12.1c-.68.1-1.25.54-1.91.68l-.11-.22Z"/><path class="cls-8" d="M49.14,15.05c-.41.67-.79,1.35-1.25,2-.21.29-.56.19-.75-.11s-.37-.72-.56-1.08a.23.23,0,0,0,.07-.07,2,2,0,0,1,.57.82c.07.18.13.38.36.38s.25-.2.33-.34A7,7,0,0,1,49.08,15Z"/><path class="cls-8" d="M50.58,13.55c0,.2-.18.28-.24.44-.45.29-.71.81-1.2,1.06L49.08,15a6.83,6.83,0,0,1,1.47-1.47Z"/><path class="cls-2" d="M58.86,16.72a1.93,1.93,0,0,1-1.89-.1A3.06,3.06,0,0,0,58.86,16.72Z"/><path class="cls-2" d="M52.84,15.58l.11.22c-.3.24-.64.45-.53.92-.18,0-.37-.07-.25-.24S52.43,15.74,52.84,15.58Z"/><path class="cls-2" d="M59.86,15.81a5.55,5.55,0,0,0-.13-1.62A2.08,2.08,0,0,1,59.86,15.81Z"/><path class="cls-10" d="M54.86,15.12,55,15C55,15.19,55,15.19,54.86,15.12Z"/><path class="cls-8" d="M46.58,15.84l-.11-.12.06-.06.12.11A.23.23,0,0,1,46.58,15.84Z"/><path class="cls-8" d="M43.52,93.45a1.81,1.81,0,0,0-1.32-1.27c-.22-.05-.28-.23-.35-.4-.26-.65-.52-1.29-.79-1.93-.09-.21-.16-.44-.39-.54s-.49-.17-.51.27A11.67,11.67,0,0,0,40,91.71c0,.18-.07.19-.19.17a3.09,3.09,0,0,1-1-.13,47.12,47.12,0,0,0,.55-5.3,6.42,6.42,0,0,1,1.27.09,9.1,9.1,0,0,0-.36,2.22c0,.3,0,.42.34.39a1.58,1.58,0,0,1,1.74,1.23c.16.44.36.87.56,1.29.07.17.14.41.28.48C43.75,92.42,43.6,92.88,43.52,93.45Z"/><path class="cls-8" d="M47.41,92.5a.86.86,0,0,1-.18,0c-.34,0-.75.06-1-.1s0-.56,0-.85c0-1.37.16-2.73.2-4.1,0-.53.34-.36.61-.37s.49,0,.46.4c-.09,1.17-.13,2.35-.19,3.53A3.54,3.54,0,0,0,47.41,92.5Z"/><path class="cls-7" d="M42.78,86.89a1,1,0,0,1,1,0,.55.55,0,0,1,.24.77.37.37,0,0,1-.43.18.32.32,0,0,1-.28-.36c0-.35-.12-.6-.55-.48Z"/><path class="cls-7" d="M44.62,87.69c-.07-.9-.1-.67,1.35-.66a2.8,2.8,0,0,0-.8.18C44.94,87.32,44.82,87.53,44.62,87.69Z"/><path class="cls-7" d="M49.37,88a2.17,2.17,0,0,0-.66-.71C49.48,87.16,49.48,87.16,49.37,88Z"/><path class="cls-5" d="M42.78,86.89V87l-.18.14-.07-.06A.38.38,0,0,1,42.78,86.89Z"/><path class="cls-5" d="M42.59,87.15l-.09.07c-.07,0,0-.09,0-.13Z"/><path class="cls-5" d="M42.38,87.43s0,0,0,0,0,0,0,0,0,0,0,0Z"/><path class="cls-5" d="M42.16,87.81a.08.08,0,0,1,0,0s0,0,0,0,0,0,0,0S42.14,87.82,42.16,87.81Z"/><path class="cls-5" d="M42,88.42l0,0s0,0,0,0l0,0Z"/><path class="cls-5" d="M41.84,88.64l0,0s0,0,0,0,0,0,0,0Z"/><path class="cls-5" d="M41.7,88.83s0,0,0,0l0,0s0,0,0,0S41.69,88.84,41.7,88.83Z"/><path class="cls-5" d="M42.3,87.62l0,0,0,0s0,0,0,0Z"/><path class="cls-8" d="M56.89,92.24c-.13-1.83-.28-3.57-.58-5.33a4.5,4.5,0,0,1,1.25-.12,14.79,14.79,0,0,0,.21,3,8.79,8.79,0,0,0,.3,2.16c.09.25-.11.21-.2.22C57.53,92.2,57.2,92.21,56.89,92.24Z"/><path class="cls-8" d="M52.8,92.62a2.73,2.73,0,0,1-2.55-1.71,3,3,0,0,1,2.6-4l0,.16a2,2,0,0,0-1.43,1.58,4.39,4.39,0,0,0,.14,2.56,1.64,1.64,0,0,0,1.29,1.2Z"/><path class="cls-8" d="M61.19,91.75c-1,.26-1,.25-1.6-.54a6,6,0,0,0-1.48-1.87A1.41,1.41,0,0,1,60,90Z"/><path class="cls-7" d="M59.73,86.63a1.17,1.17,0,0,1,1-.19.57.57,0,0,1,.41.6.38.38,0,0,1-.37.36c-.29,0-.38-.16-.43-.41S60,86.67,59.73,86.63Z"/><path class="cls-7" d="M54.46,87.36l.62-.1a1.59,1.59,0,0,1,0,.78Z"/><path class="cls-5" d="M52.8,92.62l0-.18H54A2,2,0,0,1,52.8,92.62Z"/><path class="cls-5" d="M52.82,87.1l0-.16a.48.48,0,0,1,.48,0A.57.57,0,0,1,52.82,87.1Z"/><path class="cls-5" d="M59.33,87.61a.39.39,0,0,1,0,.45A.39.39,0,0,1,59.33,87.61Z"/><path class="cls-5" d="M53.87,87.07a.21.21,0,0,1-.24,0s0-.06,0-.06S53.81,87,53.87,87.07Z"/><path class="cls-5" d="M59.51,87.29l-.08.11s0-.07,0-.1a.34.34,0,0,1,.07-.11Z"/><path class="cls-5" d="M59.28,88.42l-.07.1s-.05-.06,0-.09,0-.08.06-.11Z"/><path class="cls-5" d="M54.24,92.36a.18.18,0,0,1-.09,0s0,0,0,0l.09,0Z"/><path class="cls-7" d="M54.39,87.3s-.07,0-.1,0l0,0a.32.32,0,0,1,.09,0S54.37,87.28,54.39,87.3Z"/><path class="cls-8" d="M49.67,95.25v5.3a8.36,8.36,0,0,1-1.15,0,45.41,45.41,0,0,0,0-5.22c0-.19,0-.23.17-.22l1,0Z"/><path class="cls-8" d="M51.93,95.18l1.28-.06a10.28,10.28,0,0,0-.14,2.7,12,12,0,0,0,.11,2.73H51.93a45.13,45.13,0,0,0,0-5.33Z"/><path class="cls-7" d="M51.93,95.18v0l-2.26,0v-.08Z"/><path class="cls-8" d="M40.12,99.88c-1.07,0-1.06,0-1.42-.92a9.09,9.09,0,0,0-.89-2.11,1.23,1.23,0,0,1,1.46.84C39.56,98.4,39.83,99.12,40.12,99.88Z"/><path class="cls-8" d="M40.14,94.54c.43-.12.8-.13,1.06.25a.51.51,0,0,1,0,.58.38.38,0,0,1-.42.19c-.25,0-.32-.23-.31-.46A.56.56,0,0,0,40.14,94.54Z"/><path class="cls-8" d="M40,94.61s0,0-.05,0,0,0,0,0,0,0,0-.06Z"/><path class="cls-8" d="M45.43,95.06a2.7,2.7,0,0,1,1.72,3.06,2.61,2.61,0,0,1-2.31,2.32,4.47,4.47,0,0,0,.51-5.28Z"/><path class="cls-8" d="M43.07,100.27A2.77,2.77,0,0,1,41.44,97a2.56,2.56,0,0,1,2.3-2.11,4.36,4.36,0,0,0-.53,5.22Z"/><path class="cls-5" d="M44.69,100.48a1,1,0,0,1-.77,0Z"/><path class="cls-8" d="M45.35,95.16l-.17-.09a.21.21,0,0,1,.25,0Z"/><path class="cls-8" d="M43.21,100.15l.13.15c-.1.09-.18,0-.27,0Z"/><path class="cls-5" d="M43.48,100.38l.08,0s0,0,0,.06a.19.19,0,0,1-.08,0A.15.15,0,0,1,43.48,100.38Z"/><path class="cls-8" d="M63,99.69c-2,.39-3.4-.47-3.66-2.19a2.89,2.89,0,0,1,2.42-3.26c-1.54,1-1.41,2.35-1,3.76A2,2,0,0,0,63,99.69Z"/><path class="cls-7" d="M63.36,94.25a.62.62,0,0,0,.62-.11,2.1,2.1,0,0,1,.13.91,3.45,3.45,0,0,0-.82-.68Z"/><path class="cls-5" d="M62.09,94.13h.82a1.57,1.57,0,0,1-.83.09A.14.14,0,0,0,62.09,94.13Z"/><path class="cls-8" d="M62.09,94.13a.14.14,0,0,1,0,.09l-.27,0C61.88,94.07,62,94.16,62.09,94.13Z"/><path class="cls-5" d="M63.36,94.25l-.07.12c-.07,0-.15,0-.12-.11S63.3,94.25,63.36,94.25Z"/><path class="cls-8" d="M55,100a24.83,24.83,0,0,0-.26-2.89c-.08-.39.2-.34.34-.31s.61-.3.64.22c.05.85.09,1.69.14,2.54a.86.86,0,0,0,0,.28c.19.42.09.6-.41.62S54.84,100.45,55,100Z"/><path class="cls-8" d="M58.36,100.19c-1,.09-1,.09-1-.81A18.1,18.1,0,0,0,57,96.59c.32,0,.67-.1.91,0s.07.52.11.8C58.21,98.33,58.12,99.26,58.36,100.19Z"/><path class="cls-7" d="M57,98.54c0,.41,0,.82,0,1.22a.36.36,0,0,1-.28.42.38.38,0,0,1-.41-.08c-.19-.15-.12-.33,0-.5.19-.37.37-.73.55-1.1Z"/><path class="cls-1" d="M90.52,52.53a8.67,8.67,0,0,1-.89-.13c-.23-.06-.49-.17-.43-.48a.53.53,0,0,1,.59-.48c.33,0,.67.07,1,.07s.65.13.69.51-.36.4-.62.48A2,2,0,0,1,90.52,52.53Z"/><path class="cls-1" d="M92.75,38.22c-.24,0-.45,0-.5-.29s.11-.38.31-.47A6.59,6.59,0,0,1,94.24,37a.41.41,0,0,1,.5.27c.08.24-.1.39-.29.48A5.7,5.7,0,0,1,92.75,38.22Z"/><path class="cls-1" d="M84.1,80.94a.17.17,0,0,1,0-.23l.16.1Z"/><path class="cls-1" d="M89.23,55c.17.17.65-.12.65.34a.52.52,0,0,1-.58.56.59.59,0,0,1-.61-.61C88.68,55,89,55,89.23,55Z"/><path class="cls-1" d="M90.57,55.23c.16.11.58-.17.56.29a.46.46,0,0,1-.55.43.47.47,0,0,1-.46-.53C90.11,55,90.39,55.26,90.57,55.23Z"/><path class="cls-1" d="M71.59,93c0,.5-.19.76-.42.71-.4-.08-.45-.55-.57-.87s.24-.27.39-.27A.59.59,0,0,1,71.59,93Z"/><path class="cls-1" d="M94.54,55c.16.13.59-.19.54.3,0,.31-.18.58-.56.58s-.71-.37-.65-.65S94.29,55.05,94.54,55Z"/><path class="cls-1" d="M95.81,55.12c.18.08.51-.14.52.24a.51.51,0,0,1-1,0C95.31,54.94,95.64,55.2,95.81,55.12Z"/><path class="cls-1" d="M87,65.35c-.39-.21-.85-.13-.87-.64,0-.17.08-.32.26-.3C86.9,64.47,86.94,64.86,87,65.35Z"/><path class="cls-1" d="M80.76,15.17a1,1,0,0,1-.1.26,7,7,0,0,1-1.11,1.26c-.18.15-.41.26-.61.07s-.15-.41,0-.6a4.92,4.92,0,0,1,1.17-1.28C80.45,14.64,80.75,14.76,80.76,15.17Z"/><path class="cls-1" d="M91.64,35.24c-.19,0-.34,0-.39-.24a.38.38,0,0,1,.15-.44,4.47,4.47,0,0,1,1.83-.68.34.34,0,0,1,.41.21c.09.21,0,.36-.17.49A6.17,6.17,0,0,1,91.64,35.24Z"/><path class="cls-1" d="M90.16,74.41c0,.3-.2.45-.46.36A4.16,4.16,0,0,1,88,73.69c-.25-.25-.09-.57.25-.59a4.37,4.37,0,0,1,1.89,1.11A.56.56,0,0,1,90.16,74.41Z"/><path class="cls-1" d="M92.31,69.28a5.91,5.91,0,0,1-1.71-.74.38.38,0,0,1-.14-.5.35.35,0,0,1,.42-.19,5.54,5.54,0,0,1,1.79.75.37.37,0,0,1,.15.49C92.74,69.28,92.56,69.28,92.31,69.28Z"/><path class="cls-1" d="M79.46,86.4l-.55-.59a.31.31,0,0,1,.1-.51c.24-.15.4,0,.47.2A1.63,1.63,0,0,1,79.46,86.4Z"/><path class="cls-1" d="M87.37,22.59c.25,0,.41.07.4.3a.7.7,0,0,1-.57.66c-.2,0-.45-.33-.44-.54S87.15,22.68,87.37,22.59Z"/><path class="cls-1" d="M95.77,45.64c.27.06.68,0,.66.42s-.37.34-.65.39-.34-.16-.34-.4S95.4,45.58,95.77,45.64Z"/><path class="cls-1" d="M90.8,48.7c0-.24,0-.4.32-.36s.67.09.67.44-.36.34-.64.37S90.79,49,90.8,48.7Z"/><path class="cls-1" d="M95.42,59.22c-.21-.12-.59,0-.53-.37,0-.19,0-.58.32-.53s.66.12.68.53S95.6,59.13,95.42,59.22Z"/><path class="cls-1" d="M87.15,26.47l-.28-.4c-.1-.23-.24-.43.21-.44A3.44,3.44,0,0,0,88.66,25c.16-.09.3-.25.49-.06.3.35.2.59-.19.8s-.82.52-1.23.78C87.53,26.63,87.33,26.71,87.15,26.47Z"/><path class="cls-1" d="M12.07,67.53c-.27,0-.48-.13-.57-.37s.09-.39.25-.51a3.23,3.23,0,0,1,1.43-.59c.22,0,.44,0,.53.21a.5.5,0,0,1-.17.61C13.07,67.13,12.56,67.32,12.07,67.53Z"/><path class="cls-1" d="M7.06,28.77a3,3,0,0,1,1.63.8.32.32,0,0,1,0,.46.48.48,0,0,1-.59.2,12.21,12.21,0,0,1-1.24-.65A.5.5,0,0,1,6.66,29C6.71,28.81,6.87,28.76,7.06,28.77Z"/><path class="cls-1" d="M12.68,79.78l0,.08-.13,0,.09-.07S12.68,79.72,12.68,79.78Z"/><path class="cls-1" d="M11.68,63.74c-.31-.05-.3-.29-.29-.47a.55.55,0,0,1,.64-.54c.29,0,.61.22.54.52S12,63.54,11.68,63.74Z"/><path class="cls-1" d="M10.27,64.16c-.08-.33-.15-.64.22-.83a.46.46,0,0,1,.6.11c.18.21.29.42-.12.51C10.74,64,10.51,64.09,10.27,64.16Z"/><path class="cls-1" d="M9.61,48.7a2.85,2.85,0,0,1-1-.13.38.38,0,0,1,.06-.76,5.82,5.82,0,0,1,2,.13.39.39,0,0,1-.11.76Z"/><path class="cls-1" d="M3.24,43.52c.22-.1.44,0,.66,0s.26.14.32.28a.28.28,0,0,1-.14.33.35.35,0,0,1-.42,0A.85.85,0,0,1,3.24,43.52Z"/><path class="cls-1" d="M13.38,36.66a4.28,4.28,0,0,0-1.8-1.27c-.33-.13-.22-.3-.14-.52s.18-.33.44-.2a16.11,16.11,0,0,0,1.48.64c.47.17.52.42.28.81C13.55,36.27,13.49,36.44,13.38,36.66Z"/><path class="cls-1" d="M19.52,85a.57.57,0,0,1-.06.24,5.94,5.94,0,0,1-1.27,1.33.38.38,0,0,1-.51,0,.36.36,0,0,1,0-.51A5.14,5.14,0,0,1,19,84.74C19.27,84.52,19.52,84.65,19.52,85Z"/><path class="cls-1" d="M5.65,38.37a4.81,4.81,0,0,0-2-1c-.31-.07-.23-.28-.16-.49s.07-.34.37-.23a13.46,13.46,0,0,0,1.45.41c.48.11.73.33.48.85C5.75,38.06,5.71,38.2,5.65,38.37Z"/><path class="cls-1" d="M11.69,75.25c.14.31.11.44-.3.48a3.4,3.4,0,0,0-1.55.6c-.22.14-.35.21-.52-.08s-.12-.43.16-.57a5.34,5.34,0,0,0,1-.59c.49-.38.88-.42,1.21.17Z"/><path class="cls-1" d="M9.3,71.83c.24,0,.45.09.49.37s-.65.61-.87.58-.25-.27-.24-.43A.57.57,0,0,1,9.3,71.83Z"/><path class="cls-1" d="M6.94,34.27c0,.18-.11.39-.29.34s-.78-.1-.88-.47.24-.47.53-.46A.63.63,0,0,1,6.94,34.27Z"/><path class="cls-1" d="M13.21,70.49c-.33,0-.53,0-.49-.32a.69.69,0,0,1,.63-.56c.32,0,.43.37.42.55C13.75,70.51,13.35,70.4,13.21,70.49Z"/><path class="cls-1" d="M10.9,37.4c.12.15.56-.07.52.31,0,.19,0,.61-.36.57a.71.71,0,0,1-.69-.55C10.34,37.47,10.61,37.38,10.9,37.4Z"/><path class="cls-1" d="M14.78,81.45c-.08,0-.37,0-.31-.15a.79.79,0,0,1,.66-.52.27.27,0,0,1,.31.31C15.39,81.42,15.14,81.48,14.78,81.45Z"/><path class="cls-1" d="M14.5,19.72l.09-.1c.27-.33.4-.05.55.12s.32.44.13.64-.44,0-.65-.11S14.29,20,14.5,19.72Z"/><path class="cls-1" d="M18.93,14.67c-.17-.14-.26,0-.34.11s-.34.13-.44-.07-.34-.43-.18-.72a.27.27,0,0,1,.35-.09.83.83,0,0,1,.61.78Z"/><path class="cls-1" d="M5,60.36c0,.53-.17.67-.64.45A3.85,3.85,0,0,1,4,60.58.73.73,0,0,1,5,60.36Z"/><path class="cls-2" d="M55.89,9c0-.26,0-.52,0-.78a1,1,0,0,1,.76-1.06,2.42,2.42,0,0,0,1.5-1,5.12,5.12,0,0,0-.54,2c0,.27-.27.38-.45.54s-.52.23-.58.56l-.15.07C56.44,9,56.29,8.87,55.89,9Z"/><path class="cls-7" d="M55.89,9c.4-.16.55,0,.52.4l-.42.81c-.19,0-.3,0-.22.25h0c-.22,0-.44.16-.66,0l.11-.21c.13-.16.3-.32.22-.56h0c.18,0,.19-.08.11-.22h0c.27,0,.3-.25.34-.45Z"/><path class="cls-8" d="M54,10.71c.27,0,.34.2.33.43a.34.34,0,0,1-.23.35A9.27,9.27,0,0,0,51.56,13a.63.63,0,0,1-.41.15l0,0a12.7,12.7,0,0,1,2.66-1.74c.31-.16.39-.3.17-.58Z"/><path class="cls-2" d="M56.23,13.55c.23-.22.54-.35.77-.12a.55.55,0,0,1,0,.79.23.23,0,0,1-.34,0,.88.88,0,0,0-.27-.56l.16-.1-.27,0Z"/><path class="cls-5" d="M56.34,13.68a.88.88,0,0,1,.27.56c.07.29-.16.18-.28.21l-.11-.23c0-.12,0-.25-.09-.33l0-.12h0a.12.12,0,0,0,.12-.12h0Z"/><path class="cls-2" d="M55.11,10.48c.22.17.44.06.66,0,0,.29-.26.48-.42.73,0-.28,0-.5-.3-.56C55,10.65,55,10.53,55.11,10.48Z"/><path class="cls-8" d="M51.15,13.1a.52.52,0,0,1-.57.45l0,0a1.67,1.67,0,0,1,.56-.46Z"/><path class="cls-2" d="M55.44,9.71c.08.24-.09.4-.22.56a.15.15,0,0,0-.09,0C55.17,10,55.2,9.81,55.44,9.71Z"/><path class="cls-8" d="M53.63,10.26l.33.13c0,.11,0,.21,0,.32l0,0a1,1,0,0,1-.35-.45Z"/><path class="cls-5" d="M56,14.56a.34.34,0,0,1,.35-.12C56.27,14.61,56.12,14.55,56,14.56Z"/><path class="cls-2" d="M55.77,10.49c-.08-.22,0-.27.22-.25C55.93,10.34,55.92,10.47,55.77,10.49Z"/><path class="cls-2" d="M56.11,13.77H56c0-.15,0-.23.21-.21h0a.41.41,0,0,1,0,.11h0l-.12.12Z"/><path class="cls-5" d="M55.76,14.71c0-.16.13-.16.24-.15S55.84,14.66,55.76,14.71Z"/><path class="cls-8" d="M53.27,3.64a.23.23,0,0,1,.24-.15,1.65,1.65,0,0,0,.62.46,1,1,0,0,1,.22,1.8,8.1,8.1,0,0,0-1.14,1.59,1.89,1.89,0,0,0,0,2c.15.31.44.56.44.95l0,0c-1.08-1.31-1.16-2.1-.34-3.46a10.2,10.2,0,0,1,1.06-1.39c.42-.49.38-.85-.15-1.22C53.87,4,53.57,3.83,53.27,3.64Z"/><path class="cls-2" d="M55.89,9c0,.2-.07.41-.34.45C55.6,9.28,55.6,9.05,55.89,9Z"/><path class="cls-2" d="M55.55,9.48c.08.14.07.22-.11.22S55.43,9.51,55.55,9.48Z"/><path class="cls-13" d="M53.27,3.64c.3.19.6.38.89.58.53.37.57.73.15,1.22a10.2,10.2,0,0,0-1.06,1.39c-.82,1.36-.74,2.15.34,3.46a1,1,0,0,0,.35.45c.22.28.14.42-.17.58a12.7,12.7,0,0,0-2.66,1.74,1.67,1.67,0,0,0-.56.46A6.83,6.83,0,0,0,49.08,15a7,7,0,0,0-1.17,1.64c-.08.14-.12.35-.33.34s-.29-.2-.36-.38a2,2,0,0,0-.57-.82l-.12-.11a3.68,3.68,0,0,0-1.4-.89.49.49,0,0,0-.55.12c-1.9,1.44-1.6,1.14-3.51.38a8.86,8.86,0,0,1-1.89-.84,1.34,1.34,0,0,1-.07-1.09c.32-1.42.67-2.84,1-4.27.11-.55.48-.74,1-.89,1-.32,1.07-.34,1.08-1.38a2,2,0,0,1,1.36-2.14A8.6,8.6,0,0,0,44.71,4l.45-.23a1.21,1.21,0,0,1,1.08,0,.66.66,0,0,0,.68,0c1-.5,2-1,3-1.47a1.27,1.27,0,0,1,1.28,0l.1.07a.73.73,0,0,0,.35.25h0a.65.65,0,0,0,.34.24h0a.54.54,0,0,0,.34.23h0a2.06,2.06,0,0,0,.69.45Zm-6,.55c.78.32,1.45.59,2.13.85.15.07.35.15.27.35s-.28.08-.43,0c-.86-.33-1.73-.63-2.56-1a1.6,1.6,0,0,0-1.78.1,7.38,7.38,0,0,1-1.38.75,1.37,1.37,0,0,0-.87,1.43,3.47,3.47,0,0,1,0,.56c-.07.46.15.51.51.41a2.46,2.46,0,0,1,1-.06c.15,0,.3.1.28.29s-.19.12-.31.14L43,8.14a.42.42,0,0,0-.42.48c0,.58,0,1.17-.06,1.75,0,.18.1.47-.24.45s-.3-.24-.29-.46c0-.53.06-1.06.07-1.58,0-.11.09-.27-.1-.33a1.94,1.94,0,0,0-1.35.71c-.35,1.52-.69,3.05-1.06,4.56a.49.49,0,0,0,.37.67c.65.25,1.3.52,1.94.78a1.52,1.52,0,0,0,2.1-.6.51.51,0,0,0-.38-.05c-.22,0-.48,0-.48-.25s.32-.27.49-.23c.5.12.67-.1.72-.55a3.69,3.69,0,0,1,.18-.65A7,7,0,0,1,47,9.53c.17-.15.33-.17.48,0s0,.3-.13.41-.25.23-.38.34a6.22,6.22,0,0,0-2.1,3.4c-.08.34-.1.54.34.67a4.31,4.31,0,0,1,2,1.36c.1.13.17.44.38.31s.22-.4.12-.66a3.25,3.25,0,0,0-1.19-1.54c-.14-.1-.34-.2-.2-.39s.3,0,.44.07a4.08,4.08,0,0,1,1.39,1.7,15.84,15.84,0,0,1,5-4.16c.23-.13.3-.21.11-.45a5.4,5.4,0,0,1-1-1.87c-.07-.26-.19-.25-.41-.18a7.67,7.67,0,0,0-3,1.68c-.17.16-.34.44-.6.19s.06-.43.21-.57a8.06,8.06,0,0,1,3.34-1.8c.2-.06.41-.08.48-.33a6.83,6.83,0,0,1,1.58-2.57c.28-.31.31-.5-.1-.73a21,21,0,0,1-2.6-1.69.51.51,0,0,0-.52-.13Z"/><path class="cls-8" d="M51.24,2.29a1.27,1.27,0,0,0-1.28,0c-1,.52-2,1-3,1.47a.66.66,0,0,1-.68,0,1.21,1.21,0,0,0-1.08,0c.14-.48.57-.32.77-.22a1.75,1.75,0,0,0,1.59-.21c.87-.43,1.74-.88,2.61-1.3C50.66,1.76,51,1.86,51.24,2.29Z"/><path class="cls-8" d="M53.05,3.5a2.06,2.06,0,0,1-.69-.45C52.69,3.05,53,3.09,53.05,3.5Z"/><path class="cls-8" d="M51.69,2.61a.73.73,0,0,1-.35-.25C51.52,2.36,51.7,2.34,51.69,2.61Z"/><path class="cls-8" d="M52.36,3.06A.54.54,0,0,1,52,2.83C52.2,2.8,52.38,2.79,52.36,3.06Z"/><path class="cls-8" d="M52,2.84a.65.65,0,0,1-.34-.24C51.86,2.58,52,2.56,52,2.84Z"/><path class="cls-2" d="M56.13,13.89c.11.08.09.21.09.33C56,14.15,56.11,14,56.13,13.89Z"/><path class="cls-7" d="M56.22,13.66a.41.41,0,0,0,0-.11l.27,0-.16.1Z"/><path class="cls-7" d="M56.11,13.77l.12-.12A.12.12,0,0,1,56.11,13.77Z"/><path class="cls-14" d="M47.28,4.19,50.61,2.6a.51.51,0,0,1,.52.13,21,21,0,0,0,2.6,1.69c.41.23.38.42.1.73a6.83,6.83,0,0,0-1.58,2.57c-.07.25-.28.27-.48.33a8.06,8.06,0,0,0-3.34,1.8c-.15.14-.51.29-.21.57s.43,0,.6-.19a7.67,7.67,0,0,1,3-1.68c.22-.07.34-.08.41.18a5.4,5.4,0,0,0,1,1.87c.19.24.12.32-.11.45a15.84,15.84,0,0,0-5,4.16,4.08,4.08,0,0,0-1.39-1.7c-.14-.09-.31-.26-.44-.07s.06.29.2.39a3.25,3.25,0,0,1,1.19,1.54c.1.26.11.53-.12.66s-.28-.18-.38-.31a4.31,4.31,0,0,0-2-1.36c-.44-.13-.42-.33-.34-.67a6.22,6.22,0,0,1,2.1-3.4c.13-.11.26-.22.38-.34s.3-.21.13-.41-.31-.16-.48,0a7,7,0,0,0-2.44,3.31,3.69,3.69,0,0,0-.18.65c0,.45-.22.67-.72.55-.17,0-.49-.06-.49.23s.26.28.48.25a.51.51,0,0,1,.38.05,1.52,1.52,0,0,1-2.1.6c-.64-.26-1.29-.53-1.94-.78a.49.49,0,0,1-.37-.67c.37-1.51.71-3,1.06-4.56A1.94,1.94,0,0,1,42,8.45c.19.06.11.22.1.33,0,.52,0,1.05-.07,1.58,0,.22,0,.45.29.46s.23-.27.24-.45c0-.58.07-1.17.06-1.75A.42.42,0,0,1,43,8.14L44.14,8c.12,0,.29.05.31-.14s-.13-.27-.28-.29a2.46,2.46,0,0,0-1,.06c-.36.1-.58.05-.51-.41a3.47,3.47,0,0,0,0-.56,1.37,1.37,0,0,1,.87-1.43,7.38,7.38,0,0,0,1.38-.75,1.6,1.6,0,0,1,1.78-.1c.83.39,1.7.69,2.56,1,.15.06.34.22.43,0s-.12-.28-.27-.35C48.73,4.78,48.06,4.51,47.28,4.19Zm3.28-.48A3.09,3.09,0,0,0,49,4c-.16.08-.44.1-.34.36s.33.21.56.1a2.88,2.88,0,0,1,2.8,0c.14.08.3.18.4,0s-.06-.27-.19-.35A3,3,0,0,0,50.56,3.71Z"/><path class="cls-13" d="M50.56,3.71a3,3,0,0,1,1.71.47c.13.08.29.19.19.35s-.26.07-.4,0a2.88,2.88,0,0,0-2.8,0c-.23.11-.46.18-.56-.1s.18-.28.34-.36A3.09,3.09,0,0,1,50.56,3.71Z"/></g></g></svg>