<svg xmlns="http://www.w3.org/2000/svg" viewBox="0 0 32.82 39.39"><defs><style>.cls-1{fill:#7c0000;}</style></defs><title>Ресурс 32</title><g id="Слой_2" data-name="Слой 2"><g id="Слой_2-2" data-name="Слой 2"><path class="cls-1" d="M16.4,39.36c-3.57,0-7.14-.06-10.71,0A5.4,5.4,0,0,1,0,33.76c.15-3.51.15-7,0-10.53a5.29,5.29,0,0,1,5.43-5.6q11-.07,22,0a5.28,5.28,0,0,1,5.42,5.6c-.15,3.57-.13,7.15,0,10.71a5.34,5.34,0,0,1-5.43,5.43C23.72,39.35,20.06,39.36,16.4,39.36Zm.06-17.79v13.8c1.51.23,1.63.19,2.11-.63a1.67,1.67,0,0,1,.23.12c1.9,1.34,3.19.86,3.44-1.43a43,43,0,0,0,.1-4.82,11.52,11.52,0,0,0-.16-2.35A1.71,1.71,0,0,0,19.63,25c-.29.13-.56.28-1,.49V21.57Zm-3.68,3.64c0,2.57,0,5,0,7.47,0,.61-.14,1.14-.77,1.15s-.62-.58-.62-1.06V26.19c0-.31,0-.62-.05-1H9.22c0,3.09,0,6.12,0,9.15a1.36,1.36,0,0,0,1.92,1.2,13.75,13.75,0,0,0,2-.95l.07.83H15V25.21Zm15.06,6.85c0,.42,0,.81-.1,1.18a.92.92,0,0,1-1.16.78,1.49,1.49,0,0,1-1-.89,14.51,14.51,0,0,1-.05-2.57h3.79c0-1.46.07-2.86,0-4.24a1.9,1.9,0,0,0-1.68-1.68,2.93,2.93,0,0,0-3.82,2.76,38.59,38.59,0,0,0,0,4.81,5.29,5.29,0,0,0,.71,2.28,2.44,2.44,0,0,0,2.74,1.12,2.63,2.63,0,0,0,2.16-2C29.83,32,29.53,31.68,27.84,32.06ZM2.38,23.31H4.56V35.48H6.85V23.33H9.53V21.59H2.38Z"/><path class="cls-1" d="M10.35,15.4H8c0-1.14-.09-2.25,0-3.34A16.11,16.11,0,0,0,6.06,2.63C5.64,1.84,5.35,1,5,0c.7,0,1.3,0,1.89,0a.74.74,0,0,1,.91.66c.34,1.3.73,2.58,1.1,3.87.05.16.14.31.26.59.46-1.59.9-3,1.28-4.49.13-.5.35-.66.84-.63s1.22,0,2,0c-.51,1.27-.92,2.48-1.47,3.63a13.87,13.87,0,0,0-1.4,7.2C10.45,12.35,10.35,13.87,10.35,15.4Z"/><path class="cls-1" d="M24.16,4.3h2V15.1c-.92-.17-1.87.37-2.68-.42-1.41,1.1-2.87.64-2.95-1.15-.13-3,0-6.12,0-9.22h2v7.74c0,.65-.08,1.43.85,1.43s.78-.76.78-1.38V4.3Z"/><path class="cls-1" d="M12.91,9.73c.1-1.22.12-2.45.32-3.66a2.47,2.47,0,0,1,2.36-2.19,2.8,2.8,0,0,1,3.12,1.86A3.53,3.53,0,0,1,19,6.93c0,1.92.07,3.86-.09,5.77a2.94,2.94,0,0,1-4.37,2.45,2.54,2.54,0,0,1-1.42-2.36c-.07-1,0-2,0-3.06ZM15,9.59c0,.94,0,1.87,0,2.81,0,.67.29,1.17,1,1.19s1-.49,1-1.1c0-1.9,0-3.8,0-5.7,0-.62-.33-1.13-1-1.11s-1,.52-1,1.19C15,7.78,15,8.68,15,9.59Z"/><path class="cls-1" d="M18.66,30c0,.93,0,1.86,0,2.8,0,.69.31,1,1,1a.92.92,0,0,0,1-1c0-1.86,0-3.73,0-5.59,0-.69-.34-1.06-1-1.06a.9.9,0,0,0-1,1C18.67,28.1,18.66,29,18.66,30Z"/><path class="cls-1" d="M18.66,30c0-.93,0-1.87,0-2.8a.9.9,0,0,1,1-1c.66,0,1,.37,1,1.06,0,1.86,0,3.73,0,5.59a.92.92,0,0,1-1,1c-.67,0-1-.36-1-1C18.67,31.83,18.66,30.9,18.66,30Z"/><path class="cls-1" d="M27.68,28.76h-2c-.12-.74-.31-1.52.39-2a1.39,1.39,0,0,1,1.27,0C28.05,27.25,27.8,28,27.68,28.76Z"/></g></g></svg>