<svg xmlns="http://www.w3.org/2000/svg" viewBox="0 0 208.71 208.89"><defs><style>.cls-1{fill:#02aeee;}.cls-2{fill:#837ea8;}.cls-3{fill:#837ea9;}.cls-4{fill:#fef586;}.cls-5{fill:#847faa;}.cls-6{fill:#45459c;}.cls-7{fill:#f1f9fd;}.cls-8{fill:#f8f8fb;}.cls-9{fill:#f3fafd;}.cls-10{fill:#fdf7b3;}.cls-11{fill:#fef9be;}.cls-12{fill:#fdfbeb;}.cls-13{fill:#393c81;}.cls-14{fill:#fcfcfd;}</style></defs><title>Ресурс 29</title><g id="Слой_2" data-name="Слой 2"><g id="Слой_2-2" data-name="Слой 2"><path class="cls-1" d="M208.71,104.22c-1.31,37.72-16.66,67.9-48.2,89.36a95.93,95.93,0,0,1-14.35,7.85c-.87.4-1.15.18-1.51-.63q-5.55-12.3-11.19-24.58c-.38-.83-.25-1.11.54-1.53a95,95,0,0,0,24.76-18.12,73.54,73.54,0,0,0,20.05-38.73,77.08,77.08,0,0,0-16-62.14,72.92,72.92,0,0,0-17.14-15.4c-.89-.57-.86-.95-.36-1.75Q152.47,27,159.57,15.3c.49-.82.82-.84,1.56-.33q32.22,21.78,43.2,59.08A108,108,0,0,1,208.71,104.22Zm-38.43,72.45.23-.23a10,10,0,0,1,.76-.7c.66-.53.73-.91,0-1.51a28.76,28.76,0,0,1-2.5-2.44c-.33-.32-.64-.64-.48-1.17-.68.65-1.32,1.24-2.14,2a1.28,1.28,0,0,1,1.29.34c.9.92,1.81,1.82,2.72,2.72.16.16.37.32.16.58l-.23.24-.2.18c-.39.35-.87.07-1.29.19v-.17l-.15.05.16.11c.46.84.93,1,1.45,0ZM187,58.18l-.22.25-.35.35c-.92,0-1.71-.67-2.69-.45a4.67,4.67,0,0,1-1.38-.1l-.11-.14,0,.13h.15c.08,1.15.51,1.85,1.86,1.72a2.5,2.5,0,0,1,2,.3c-.92.32-1.53,1-2.49.81l-.11-.14,0,.14.15,0c0,1,.7,1.64,1,2.51.33-1.13,1.31-1.21,2.39-1.75-.73,1.61-2.89,2.7-.94,4.46A3.52,3.52,0,0,1,187,64.9c.37-.48,1-.93,1-1.55,0-.83.48-.83,1-.88s.84,0,1.26,0c0,.28-.16.37-.32.48a.65.65,0,0,0-.27.81.54.54,0,0,0,.57.32.83.83,0,0,0,.83-.51,1.08,1.08,0,0,0-.92-1.53,5,5,0,0,0-1.15.12c-.56.08-1.1.11-1.4-.56a4.28,4.28,0,0,1,2.39-.89l-.52-1.13c-.18-.37-.38-.73-.62-1.2-.23.77-.82.93-1.32,1.23-.82.49-1,.2-.85-.64l.35-.38.23-.24.2-.21.24-.25a1.08,1.08,0,0,0,.13-1.64.83.83,0,0,0-1.15-.21c-.31.2-.6.45-.44.85s.55.43,1,.31c.63-.19.32.27.31.51l-.24.24Zm-14.72-22.4.23.24c-.53,1.12-1.59,1.74-2.4,2.59-.43.46-.78,1.1-1.54,1.12-.08,0-.21-.17-.22-.15-.2.19.06.19.12.27a9.61,9.61,0,0,0,1.72,1.77l.08.08s0,0,.06,0l-.15,0a10,10,0,0,1,4-4.18l-1.54-1.63-.19-.19-.24-.24c-.13-.11-.22-.43-.41-.25s.08.3.23.4Zm-1.8,0,.24-.24c1-.76,1-.76.23-1.33a1.73,1.73,0,0,1-.47,1.15l-.24.25c0,.1-.11.25-.08.28S170.43,35.94,170.51,35.82Zm15.15,61.26c0-.16-.07-.23-.21-.26-.43-.88-.54-1.71.43-2.34s3.16-.93,3.74-.34c.31.31.31.63-.11.84a6.18,6.18,0,0,1-.76.26.83.83,0,0,0-.61.77.75.75,0,0,0,.44.76.9.9,0,0,0,1-.18,2,2,0,0,0,.76-1.52A2.76,2.76,0,0,0,188,92.28a3.34,3.34,0,0,0-3.71,1.5c-.57,1.14-.22,2.22,1,3.2l.36.08,0,.07Zm0,5.84-.22-.25c-.49-1.39,0-2.34,1.4-2.55.44-.06.75,0,.71.58s0,1.4,0,2.1c0,.28,0,.57.42.5a2.62,2.62,0,0,0,2.28-1.38,2.17,2.17,0,0,0-.42-2.47,3.38,3.38,0,0,0-3.17-1,2.37,2.37,0,0,0-2.29,1.66,2.25,2.25,0,0,0,.95,2.74c.11.09.22.2.37.07-.1.12,0,.19.09.21s.1,0,.15-.06Zm-13.32,71.62c.54-.5,1.57-.92.25-1.69,0-.09-.07-.21-.19-.13s0,.17.06.26a1.35,1.35,0,0,1-.31,1.42c-.07.11-.2.22,0,.31C172.19,174.72,172.28,174.6,172.35,174.54Zm4-134.56c-.05,0,0-.23-.15-.06l.17,0c0,1-1.16,1.23-1.6,2.23,1-.35,1.39-1.27,2.36-1.27C176.84,40.52,176.7,40.15,176.31,40Zm3.36,14.19.57.83c.45,1,1.18,1.85.51,3-.09,0-.19.07-.1.19s.15-.06.23-.09c.29-.17.79-.3.85-.54.36-1.41,1.71-1.66,2.66-2.36a2.77,2.77,0,0,1,2.34-.87l-2-2.91a2.25,2.25,0,0,0-.65-1.06c-.61,1.3-3.25,2.67-4.74,2.26a1.85,1.85,0,0,0-1.93.67A2.08,2.08,0,0,1,179.67,54.17Zm-.57,111.91c.79-.44,1.07-1.29,1.57-2l.36-.57,1.61-2.11a14.28,14.28,0,0,1-4.69-3.6l-1.39,2c1.77.57,3,1.85,4.38,2.84.28.2,0,.49-.1.72l-.36.57c-.1.05-.26.16-.31.12a19.38,19.38,0,0,1-4.3-3.28l-1.6,2.24a1.27,1.27,0,0,1,1.44.07c.93.69,1.89,1.36,2.82,2.06.31.22.64.47.59.93l-.07.06s0,0,0,.06Zm-17.76,19a9.76,9.76,0,0,0,1.83-1.36,13.84,13.84,0,0,1-3.49-4.78c-.54.66-1.46.88-1.83,1.71l-.07,0,.06,0c1.53.41,1.6,2.19,2.78,3a1.45,1.45,0,0,1,.71,1.38s0,.07,0,.11l-.13.07h.05A.24.24,0,0,0,161.34,185.05Zm23.17-38.37a14,14,0,0,1,4.9,2.32c-.57.73-.7,2-2.19,1.69.94.88,1.49.75,1.84-.31a11.89,11.89,0,0,1,.52-1.15c.34-.78,1-1.43,1-2.37h.15s0,0,0,0l-.09,0c-.34.36-.68.22-1,0-.74-.39-1.51-.75-2.25-1.15s-1.47-.5-1.75-1.47a12.55,12.55,0,0,0-1.08,2.32l-.1.24C184.5,146.89,184.48,146.77,184.51,146.68ZM188,120c-2.07.39-3.78-.6-5.57-1.36.05.23-.16.48-.23.78-.1.46-.19.91-.28,1.36.68.06,1.36.72,1.79.65,1.47-.26,2.56.49,3.81,1,0-.84.64-1.57.47-2.46l.09,0Zm-8.87-76.27.15.13s0-.08,0-.11-.11-.1-.17,0a5.06,5.06,0,0,0-2.1-2.51l.65,1.05c-1.56.9-2.61,2.54-4.53,3l1.67,2.12C175.13,46.32,177.88,44,179.12,43.72ZM194.74,128c.09-.33.12-.82.6-.69.71.2,1.56.14,2,1a5.25,5.25,0,0,0,.6-2.56c-1.27.34-4.74-.71-5.41-1.69-.25.89-.49,1.74-.77,2.71a2.88,2.88,0,0,1,2,0c.8.12,1,.5.68,1.19-.1.27-.09.77-.49.64-.8-.25-1.77-.16-2.35-1.12-.26.93-.5,1.78-.76,2.69,1-.53,5,.57,5.61,1.49a11.65,11.65,0,0,0,.75-2.6c-.91.56-1.63,0-2.36-.21C194.27,128.71,194.82,128.26,194.74,128Zm-9.89-5.57c-.1,0-.24-.12-.27-.09s0,.24.1.32.16.52-.24.43a5.07,5.07,0,0,1-2.92-1.2l-.74,2.74c1.15-.82,2.08-.06,3,.17s2,.21,2.73,1.3l.58-2.54,0,0C186,123.85,185.52,122.93,184.85,122.39Zm8.74.46c.07.05.17.17.2.15.18-.1,0-.21,0-.31a2.67,2.67,0,0,1-.14-.67,1.74,1.74,0,0,1,2.08-1.52c1,.25.33,1,.28,1.5a10.74,10.74,0,0,1-.22,1.13c-.07.34-.06.64.39.67a2.52,2.52,0,0,0,2.32-.78,2,2,0,0,0,.36-2.17c-.54-1.39-1.72-2-3.57-2a2.2,2.2,0,0,0-2.21,1.4A2.08,2.08,0,0,0,193.59,122.85Zm1.64-25.28c.11.18.25.27.44.12l-.29-.29a3.74,3.74,0,0,1-.47-.79c-.22-.73.57-1.68,1.52-1.88,1.11-.23.64.68.76,1.11a7,7,0,0,1,.17,1.38c0,.27,0,.52.4.55a2.46,2.46,0,0,0,2.31-2.65c-.41-1.93-2.78-2.83-4.8-1.83a2.23,2.23,0,0,0-1.41,2.09A2.09,2.09,0,0,0,195.23,97.57ZM166.79,180c-.58.4-1,.22-1.55-.23s-.36-.86-.16-1.35a5.12,5.12,0,0,0,.51-2.37,1.23,1.23,0,0,0-.89-1.23,1.21,1.21,0,0,0-1.43.74,2.76,2.76,0,0,0-.29.88c-.06.4-.23.48-.63.47-1.13,0-1.4.72-1.48,1.82.46-.47.77-.34,1.09,0,.52.59,1.08,1.12,1.63,1.69,1.28,1.33,2.27,1.26,3.4-.25a2.08,2.08,0,0,0,.66-2,.82.82,0,0,0-.83-.8.88.88,0,0,0-.85.68.64.64,0,0,0,.53.87C167.34,179.1,166.92,179.56,166.79,180Zm-19.12,7.8c-1.72.68-1.76.75-1.48,2.54a3.4,3.4,0,0,0,.07.34c.1.35.2.77-.24.89s-.39-.39-.58-.61c-.42-.48-.2-1.53-.76-1.58s-1.23.55-1.84.88c-.05,0-.07.1,0,0a12.57,12.57,0,0,1,2.61,5.11l-.16.1.14,0v-.16a10.59,10.59,0,0,0,4.06-2.11,1.33,1.33,0,0,0-.61-2.35c-1-.15-1.16-.68-1.11-1.5,0-.5,0-1,0-1.51.08,0,.21,0,.14-.16S147.75,187.74,147.67,187.77Zm47.09-51a4.53,4.53,0,0,1-1.88-.46c-.45-.12-.52-.43-.3-.8s0-1,.63-.87,1.59.26,2,1.23c.2-.49.33-.89.51-1.27.36-.74.35-1.1-.66-1.28a28,28,0,0,1-3.38-1.15,1.45,1.45,0,0,1-1-1,9.34,9.34,0,0,0-.79,2.58l-.13.09h.07s0-.07,0-.1a4.26,4.26,0,0,1,2.22.44c.46.14.43.44.28.7s-.07,1.07-.65.93c-.81-.19-1.77-.25-2.27-1.19a9.87,9.87,0,0,0-.74,2.41c-.07,0-.25,0-.07.15l0-.17a11.16,11.16,0,0,1,5.42,1.93,7.56,7.56,0,0,0,.68-2.15c0-.07.11-.14.15-.21s0,0-.07-.07Zm-1.88-51c-.27-1,0-1.5,1.14-1.52,1.37,0,2.69-.81,4.16-.28-.14-.86-.27-1.69-.4-2.54-1.07.8-4.74,1.38-5.83.92l.61,3.44c.2,1.15.44,2.29.57,3.45s.45,2.38-1.08,3c.62,0,1.28,0,1.63-.34,1.63-1.48,3.62-.91,5.57-1.36.14-.58-.31-1.33-.3-2.15-1.53.82-3.2.73-4.77,1.08-.55.12-.77-.24-.78-.75s-.14-.85.53-.93a25.12,25.12,0,0,0,2.86-.49,2.23,2.23,0,0,1,2.05.26,25.74,25.74,0,0,0-.56-2.63c-1.51.88-3.2.8-4.81,1.08A.52.52,0,0,1,192.88,85.84Zm-38.76,97.83a5.68,5.68,0,0,0-2.31,1.31c.92.55,1.32,2.31.88,3.74-.58-1.08-1.49-1.92-1.73-3.19a9.86,9.86,0,0,0-1.1.7c-.34.27-.85.37-1,.85,1,.18,3.25,3.38,3.22,4.74a14,14,0,0,0,2.07-1.41c-1.32-1.08-.6-2.55-.9-3.76a8.41,8.41,0,0,1,1.93,3.17c.68-.57,1.5-.78,2-1.5l.07-.07-.06.08a1.08,1.08,0,0,1-.78-.43c-.75-1.11-1.48-2.23-2.2-3.36a1,1,0,0,1,0-.89.24.24,0,0,0,.06-.08s0,0,0,0Zm20.23-16.35c.82.7,1.91,1.14,2.23,2.31h-.08l.06,0,1.63-1.85a11.39,11.39,0,0,1-4.51-3.84l-1.56,2c1.76.49,1.38,2.15,2,3.25-.85-.85-2.17-1.18-2.58-2.55L170,168.41a14.1,14.1,0,0,1,4.45,3.94c.38-.76,1.21-1.17,1.36-2.06l.15,0s0,0-.06,0l-.08.08a.91.91,0,0,1-1-.7c-.2-.68-.46-1.35-.7-2ZM189.19,87l.05.06-.07,0a9.27,9.27,0,0,0-.36-2.43c-1.52.8-2.56-.31-3.75-.7,1.2-.16,2.32-1,3.6-.3l-.46-2.47a12.08,12.08,0,0,1-5.79,1,17,17,0,0,0,.52,2.39c1.46-1,2.44.38,3.63.57a6,6,0,0,1-3.48.43,9.1,9.1,0,0,0,.52,2.57C184.35,87.26,188,86.57,189.19,87ZM160.87,32.72c0,.09.09.22.18.11s0-.18-.14-.17c-.27-1.78.83-3.49.29-5.3,0-.05.1-.2.18-.22a19.06,19.06,0,0,0,2.29-1.38c.23-.11.5-.28.76-.09s.06.47,0,.72a.77.77,0,0,0,.68,1.1c.6.05.88-.4.92-1a1.22,1.22,0,0,0-.47-1,1.66,1.66,0,0,0-2.14-.2c-.64.38-1.23.83-1.86,1.21a1.19,1.19,0,0,1-1.48-.3c-.18-.16-.36-.35-.13-.59.8-.83,1.19-2.08,2.62-2.39l-2.45-2c-.13,1.7-1.42,2.57-2.28,3.69s-1.51,2.47-3,3.1a18.63,18.63,0,0,0,2.44,1.82c-.11-1.41,1.09-2,1.66-3,.09-.15.31-.34.44-.32s.33.3.3.55c-.09.73-.16,1.46-.31,2.18C158.93,31.5,158.91,31.5,160.87,32.72ZM181.7,104a8.93,8.93,0,0,0-.2,2.88c.95-1,2.07-.22,3.18-.45-.28.59-.65.93-.68,1.48-.08,1.66,1.58,2.91,3.59,2.66s2.79-1.28,2.22-3.3c0-.15-.15-.25,0-.4.65-.69.19-1.56.51-2.44C189.28,105.17,182.52,104.78,181.7,104Zm13.11-28.85c1.81-.06,2.38.36,2.79,1.94a1.8,1.8,0,0,0,2.17,1.57c-.52-.93-.51-2.07-1.2-2.9-1.25-1.49-2.93-1.22-4.53-.87s-3,.75-3.49,2.5A2.67,2.67,0,0,0,192,80.45a3.61,3.61,0,0,0,4.16-1.21C197.15,77.73,196.76,76.49,194.81,75.12Zm-11.17,36.52c-.08.56-.24,1.24-.28,1.92a7.1,7.1,0,0,0,0,3,1.35,1.35,0,0,0,2.33.49c.21-.22.19-.62.58-.71.24.58.51,1.11,1.28,1.09a1.37,1.37,0,0,0,1.3-1.15,16.31,16.31,0,0,0,.59-3.87A12,12,0,0,1,183.64,111.64Zm10.7-.21a18.81,18.81,0,0,0-.28,4.54,1.46,1.46,0,0,0,1.14,1.44,1.29,1.29,0,0,0,1.55-.93,2.13,2.13,0,0,1,.25-.39c.54,1,.8,1.21,1.52,1.1s1.07-.76,1.18-1.4c.21-1.28.33-2.57.5-4C199,112.56,195.29,112.26,194.34,111.43Zm-11.08,23.13a5.3,5.3,0,0,0-.35-1c-.21-.35-.5-.7-1-.5a.84.84,0,0,0-.63,1c.09.5.44.66,1,.56s.61.31.51.72a.75.75,0,0,1-.94.65c-.55-.13-1.18-.2-1.23-1a8.67,8.67,0,0,0-.2-2.2c-.26-.79-.68-1.41-1.53-1.27a1.36,1.36,0,0,0-1,1.81c.13.64.08.9-.57,1.16a1.22,1.22,0,0,0-.6,1.59c.24.85.54-.18.84,0a4.15,4.15,0,0,0,.75.27c.71.31,1.43.6,2.12.94a1.68,1.68,0,0,0,2.31-.68A4.57,4.57,0,0,0,183.26,134.56Zm-21-101.5a2.67,2.67,0,0,0,2.59,2.71,3.52,3.52,0,0,0,3.27-3.32,2.65,2.65,0,0,0-2.52-2.77A3.51,3.51,0,0,0,162.27,33.06Zm29.5,35.69c-1.84,0-3.49,1.35-3.49,2.87A2.78,2.78,0,0,0,191,74.38a3.4,3.4,0,0,0,3.54-3A2.61,2.61,0,0,0,191.77,68.75Zm-7.83,81.43a2.66,2.66,0,0,0-2.72,2.71,3.6,3.6,0,0,0,3.47,3.13,2.67,2.67,0,0,0,2.64-2.68A3.42,3.42,0,0,0,183.94,150.18Zm5.55-11a2.67,2.67,0,0,0-2.88,2.66c0,1.53,1.62,3,3.41,3a2.74,2.74,0,0,0,2.84-2.62C192.91,140.68,191.25,139.19,189.49,139.16Zm-9.9-87.84c-1.78-.74-2.11-1.69-1-3,.37-.44.65-.61,1,0s.79,1,1.17,1.58c.19.26.35.42.65.17,1.41-1.23,1.34-3.15-.09-3.92a3.4,3.4,0,0,0-4.07,1,2.54,2.54,0,0,0-.46,3C177.35,51.22,178.18,51.56,179.59,51.32Zm.7,79.25c-.39-1.72.12-2.44,1.61-2.49a4.21,4.21,0,0,1,2.15.41c.47.25,1.1.5.92,1.17s-.74.28-1.18.27a.79.79,0,0,0-.93.8c0,.64.4.79.93.75,1-.07,1.46-.8,1.64-1.68.35-1.73-.82-3.16-2.84-3.54a2.53,2.53,0,0,0-2.8,1.13C179.14,128.52,179.25,129.32,180.29,130.57Zm14.93-26.95c.08-2,.33-2.39,1.67-2.74a5,5,0,0,1,2.31-.07c.39.09.77.21.77.72s-.43.46-.74.55c-.5.15-1,.29-1,1a.66.66,0,0,0,.5.69c.6.17.95-.21,1.28-.6a1.56,1.56,0,0,0,.32-.61,2.67,2.67,0,0,0-1.54-3.16,3.5,3.5,0,0,0-4.14.78C194,101.11,194.12,102.36,195.22,103.62Zm3.79,6.92c1.22.38,1.46-.18,1.4-1.22-.07-1.2,0-2.41,0-3.61s0-1.14-1.33-.9c.11.09.17.18.26.21.68.23.72.79.61,1.33s-.69.33-1.06.35c-.93,0-1.86,0-2.8,0-.52,0-1.1.12-1.51-.63v2.7c1.5-.5,3-.13,4.54-.21.29,0,.77-.22.82.34a1.28,1.28,0,0,1-.28,1.2C199.47,110.25,199.1,110.16,199,110.54Zm-44.22,72.3c1.21.19,3.67,3.16,3.84,4.51l2.09-1.72c-.86-.06-1.07-.71-1.52-1.08-.88-.74.23-1,.33-1.57-1.27.54-2.2-.14-2.56-1.86ZM172.1,43.17l.38-.49c.39-.47.31-.87-.22-1.12s-.89.09-1.11.53a1,1,0,0,0,.18,1.09,1.28,1.28,0,0,0,1.34.5A4.2,4.2,0,0,0,174.89,42C173.78,42.29,173.27,43.45,172.1,43.17Zm-4.87-5.39c0-.12,0-.26.05-.32.35-.39.58-.77.07-1.18a.73.73,0,0,0-1,.12.9.9,0,0,0,0,1.35,1.26,1.26,0,0,0,1.33.52A1.8,1.8,0,0,0,169,37.15C168.22,37.23,168,38,167.23,37.78Zm28.84,95.54s.07,0,.08-.08,0-.05-.06-.08a.29.29,0,0,0-.08.07S196.05,133.29,196.07,133.32Z"/><path class="cls-1" d="M0,104c1.28-37.4,16.41-67.43,47.48-89,1-.66,1.32-.51,1.89.45q7,11.63,14.2,23.17c.48.77.42,1.09-.36,1.61A75.58,75.58,0,0,0,32.06,81.9,74.62,74.62,0,0,0,29,109.11a73,73,0,0,0,18.1,44.15A92.84,92.84,0,0,0,74.6,174.57c1,.5,1.14.86.66,1.89q-5.6,12.1-11,24.27c-.42.94-.75,1.14-1.72.68-31.08-14.63-50.71-38.72-59.33-71.86A106.28,106.28,0,0,1,0,104ZM29.41,62.86l-.24-.23c0-.26-.65-.79.28-.66.34.05.73.15.84-.35A.68.68,0,0,0,30,60.9.9.9,0,0,0,29,60.8c-.73.41-.72,1.11.05,2l.19.2.23.24.23.23a1,1,0,0,1,.08,1.23c-.73-.42-1.68-.5-2-1.66l-1.23,2.52c.38,0,.63-.13.8,0,.57.27,1.59.39,1.52,1-.1.76-1,.32-1.6.37s-1-.16-1.46.23a1,1,0,0,0-.16,1.44c.27.35.66.62,1.1.25.65-.53.07-.84-.24-1.21-.06-.06,0-.2-.06-.38,1,.21,2.19-.38,2.39,1.39.09.87,1.17,1.48,1.53,2.43.87-1,1.12-1.9,0-2.9a2.85,2.85,0,0,1-1-1.58c1,.51,2,.63,2.4,1.78L33,65.89a3.73,3.73,0,0,1-2.69-1c1.48-.5,3.62.82,4-1.87-1.27.39-2.71-.41-3.87.67,0,0-.36-.22-.55-.35l-.21-.25Zm-5.66,89,.1,0a.17.17,0,0,0,0-.07l-.09.14-.37.09c-.34.17-.75.24-1,.59-1.1,1.81-3,2.38-4.79,3.06l0-.17-.1,0,.14.13a44.35,44.35,0,0,0,2.2,4c.39-1.38,3.23-2.81,4.8-2.34.94.29,1.33-.24,1.92-.68-1.12.6-1.59-.55-2.38-.76l0,0c.19-.64-.33-1-.59-1.48a2.27,2.27,0,0,1-.11-2.28Zm7.47,22.25.2.26a19.52,19.52,0,0,0,2,2.3c.52-1.41,1.24-1.86,2.2-1.44-.23-1.05.7-2.15,2.19-2.47l-1.77-2a3.85,3.85,0,0,1-1.58,2.16c-.67.46-.73-.77-1.49-.31,1.07.67.61,1.15-.06,1.77s-.92.09-1.3-.24l-.19-.2c-.36-.42-.24-1-.2-1.52C29.78,173.13,30.65,173.59,31.22,174.07ZM19.28,53.81a1.67,1.67,0,0,0,.57.81.79.79,0,0,1,.07.2A4.06,4.06,0,0,1,16.51,54h0A6.39,6.39,0,0,0,15,56.39a3.61,3.61,0,0,1,2.63,0c1.49.29,3.09.1,4.47.92l.37.57c.1.32.44.56.28.95-.26.19-.44,0-.65-.09a.62.62,0,0,0-.87.51.76.76,0,0,0,.61.86,1.12,1.12,0,0,0,1.42-1.21,1.67,1.67,0,0,0-.64-1.18l-.37-.57a20.36,20.36,0,0,0-2.2-2.71,1.68,1.68,0,0,0-.59-.8c-.44-.8-1.29-1.34-1.41-2.52l-1,1.64C18.39,52.24,18.59,53.45,19.28,53.81ZM24.67,43a.89.89,0,0,0,.34.59,2,2,0,0,1,.41,1.08c0,.33-.16.58-.5.29-.57-.47-1.39-.71-1.49-1.73l-1.59,2.25c1-.26,1.41.45,2,.77.16.09.36.23.27.45a.43.43,0,0,1-.48.26c-.42-.06-.83-.15-1.25-.23s-.73-.32-1.13-.19a1,1,0,0,0-.12,1.9.54.54,0,0,0,.72-.17c.42-.5-.13-.74-.33-1.07,0,0,0-.14,0-.37.81.49,2.1,0,2.1,1.71,0,.91,1,1.69,1.14,2.67,1.38-.92,1.08-1.93.32-3a1.81,1.81,0,0,1-.48-1.32c.83.56,1.65.95,2.07,1.95.36-.82,1.18-1.25,1.25-2.13l.17,0,0-.1-.13.15c-1,0-1.56-.77-2.38-1.32a3.07,3.07,0,0,1,2,.2c1.2.4,1.73-.13,2.09-1.13.13-.05.17-.13.07-.25l-.14.15c-1-.15-2.05-.65-2.84-.36-1,.37-1.15-.16-1.58-.6l-.36-.58c-.28-.89.22-.45.54-.33a.57.57,0,0,0,.8-.24c.19-.37-.06-.6-.28-.8a.84.84,0,0,0-1.25,0A.92.92,0,0,0,24.67,43Zm-14,23.17a10.35,10.35,0,0,1,5.24,2.29l.83-2.06A14.58,14.58,0,0,1,11.37,64c-.25.71-.52,1.44-.78,2.16a1,1,0,0,0-.13.17s0,0,.07.08Zm23-30.61c-1.09-.14-1.45-1-1.84-1.71l-1.6,1.45a13,13,0,0,1,4.06,4.16A11.24,11.24,0,0,0,35.9,37.8a3.16,3.16,0,0,1-2.07-2c.11,0,.22-.11.14-.24S33.79,35.57,33.7,35.59ZM13.24,132.14v.06l0,0a7.53,7.53,0,0,0-.85-2.66c-.06.81-.57.89-1,1-1.06.33-2.13.66-3.21,1-.25.07-.57.44-.77-.05s-.37-.71-.14-1.1c.07-.13.23-.22.3-.36s.39-.11.2-.37c-1,.07-1.28.51-.88,1.5a20.81,20.81,0,0,1,1,3.21c.26,1.16.81,1,1.8.41-1,.08-1.49-.27-1.54-1s.68-.6,1.08-.76a25.4,25.4,0,0,1,2.43-.77C12.13,132.06,12.67,131.77,13.24,132.14ZM5.26,117s0-.07,0-.1a.13.13,0,0,1,0-.09c.72-.11,1.45-.2,2.16-.34s1.51-.45,2.35.26L9.29,114c-.36.32-.55.6-.92.65-1.22.17-2.46.31-3.67.57-.36.09-.91-.52-1.06.16a3,3,0,0,0,.2,1.37c.23.7.92.4,1.4.56.65.36,1.49.21,2.21.73-.88.54-1.65,1.05-2.47,1.48-1.37.71-.14,1.66-.36,2.36a13.77,13.77,0,0,1,5.75-.89,1.41,1.41,0,0,0-.23-1.08c-1.19,1.07-2.7.66-4.1.86l4.24-2.57Zm2.8,8.64a10.24,10.24,0,0,0,.85,1.09c.9.91,2,1.09,2.56.45s.31-1.34-.8-2.32l-.09-.08c-.11-.25.11-.31.23-.45a1.13,1.13,0,0,0-.13-1.66c-.54-.63-.62,0-.88.3s-.37.09-.56.14c-.79.2-1.57.44-2.36.59a1.74,1.74,0,0,0-1.58,1.84,3,3,0,0,0,1.8,2.64.87.87,0,0,0,1-.41.74.74,0,0,0-.1-1,.63.63,0,0,0-1,0c-.36.34-.7.43-.93,0a.77.77,0,0,1,.38-1.17A1.37,1.37,0,0,1,8.06,125.63ZM39.19,30.4l1.11-.84c.22-.16.32-.35.08-.57a2.63,2.63,0,0,0-2.52-.9,2,2,0,0,0-1.49,2,3.44,3.44,0,0,0,1.14,2.7c1.07,1.09,2.13,1.38,3.12.84s1.32-1.35,1-3c-.23.18-.1.44-.15.65a1.16,1.16,0,0,1-1.12,1,1.88,1.88,0,0,1-1.82-.84c-.31-.52.53-.65.63-1.09ZM30,40.42l-.22.24c-.38.39-.76.77-1.12,1.18-.16.19-.43.44-.05.66.77.46,1.54,1,2.49.56a2,2,0,0,0,1.29-2,3.58,3.58,0,0,0-2.31-3.21,2.13,2.13,0,0,0-2.75.44,2.28,2.28,0,0,0-.1,2.95,5.33,5.33,0,0,1,0-1.16c.25-.93,1-1.06,1.74-.8C29.5,39.44,30.53,39.31,30,40.42Zm-8,74.34c-.09,0-.23-.09-.24-.07s0,.14.12.17a1.78,1.78,0,0,1,.49,1.7c-.36,1.18-3.22,2.23-4.23,1.53-.4-.28-.47-.62,0-.92a7.05,7.05,0,0,1,.73-.35.77.77,0,0,0,.32-1.25.82.82,0,0,0-1.25,0,1.9,1.9,0,0,0-.63,1.89c.39,2.07,2.75,3,4.82,1.95a2.44,2.44,0,0,0,1.51-2.31A2.27,2.27,0,0,0,22,114.76Zm6.3,56.18a1.92,1.92,0,0,0,2,.55.82.82,0,0,0,.61-.88.84.84,0,0,0-.65-.75.63.63,0,0,0-.82.47c-.16.65-.54.54-1,.39a1,1,0,0,1,.12-1.44,1.16,1.16,0,0,1,1.54-.24,5.06,5.06,0,0,0,1.53.53c.79.12,1.64.13,1.92-.85s-.46-1.38-1.22-1.66c-.27-.11-.74-.05-.64-.48a1.24,1.24,0,0,0-.91-1.62c-1-.38-.3.65-.68.89a19,19,0,0,0-1.71,1.4C26.77,168.59,26.73,169.5,28.29,170.94Zm-2-93.76L26.21,77l-.05.14h.18c.35,1.73-.14,2.44-1.67,2.46-.75,0-1.11-.17-.73-1A10.24,10.24,0,0,0,24.43,77c.08-.31.12-.65-.35-.69a2.62,2.62,0,0,0-2.56.75,2.17,2.17,0,0,0-.21,2.5,3.62,3.62,0,0,0,3.58,1.89,2.18,2.18,0,0,0,2.23-1.69A2,2,0,0,0,26.32,77.18Zm-18-5.63a12.74,12.74,0,0,1,5.35,2.26c.39-.92.84-1.9,1.21-2.91.5-1.39.28-2.25-.59-2.63s-1.54,0-2.27,1.28a1.06,1.06,0,0,0-.12.2c-.23.93-.73,1-1.5.56-.44-.26-.95-.4-1.12-1a9.3,9.3,0,0,0-.94,2.3l-.11.14h.1Zm7.27,80.27-.11-.15,0,.14h.16a4.47,4.47,0,0,0,.88,2.11,14.36,14.36,0,0,1,5.24-2.58,27.07,27.07,0,0,0-1.85-3.49,1.54,1.54,0,0,0-1.84-.64c-.74.26-.83.92-.82,1.63a4.16,4.16,0,0,0,.5,1.66c.19.39.16.62-.26.79A3.15,3.15,0,0,1,15.56,151.82Zm3.52-65c1.24-.54,4.36.19,5,1.19-.49.16-1.32-.1-1.25.81a.8.8,0,0,0,1,.74c.82-.16,1-.8.84-1.54s-.71-1-1.31-1.17c-1.05-.28-2.11-.52-3.17-.73-.45-.09-.81-.2-.59-.73s-.06-1.21.91-1c1.24.32,2.5.54,3.75.81a1.53,1.53,0,0,1,1,.7l.62-2.86c-1.13.68-5-.14-5.82-1.19a25.3,25.3,0,0,0-.94,4.94l-.15,0s.05,0,.06,0S19.06,86.81,19.08,86.79Zm.25,19.61c-.34-.5-.95-.48-1.4-.74-.19-.11-.49-.15-.48-.45s.3-.32.51-.37c.39-.09.64-.29.63-.7a.74.74,0,0,0-.64-.73.9.9,0,0,0-1,.42,1.36,1.36,0,0,0,.51,2,16.16,16.16,0,0,0,1.69.77c.6,1.15.55,1.21-.69,1.24a2.22,2.22,0,0,1-1.54-.46v2.49a10.31,10.31,0,0,1,5.85,0v-2.77a1.42,1.42,0,0,1-1.43.69c-.44,0-1.11.28-1.27-.18s.53-.67.9-.86c1.39-.69,2.38-1.55,1.7-3.33C21.72,104.55,20,104.93,19.33,106.4Zm3.48-32.74c1.43-.13,4.07,1.34,4.53,2.73.3.92.9,1.08,1.74,1.28-1-1.21-1.07-1.42-.48-2.7s.72-3,2.81-2.87c-2.53-.4-5-.95-6.95-2.69C24,70.8,23,72.08,22.83,73.69h-.17l0,.14Zm7,90.09s0,.07.07.09H30l-.15-.07c.1-.5-.35-.71-.53-1.1-.64,1.3-1.85,1.74-2.9,2.41l-.21-.21,2.35-3.75-4.87,1.09c1.18-1.34,2.65-2.2,3.58-2.18h0c-.16-1-.94-1.51-1.45-2.33-.26,1.09-3.31,3.33-4.62,3.49l-.06-.14s0,.05,0,.06l.08.06c.95,1.81.95,1.81,2.8,1.35a4.79,4.79,0,0,1,2-.33L25,163.64c-1.13,1.71-1.13,1.71.08,3.31,0,.06.12.08.24.15-.12-.94.66-1.18,1.22-1.51C27.64,165,28.42,163.77,29.83,163.75ZM20.73,64.1c-1.19.19-2-.61-3-1,1.59-1.08,1.84-2.34.69-3.56a4.52,4.52,0,0,0-3-1.44c-.84-.08-1.81.17-2,1.06-.24,1.2-1.11,2.07-1.4,3.07a41,41,0,0,1,7.6,4,10.71,10.71,0,0,0,1-2.14l.15-.25-.1,0Zm26,116.71c0-.11-.09-.19-.21-.11s.07.14.1.22c0,1.23-1.14,1.78-1.67,2.7-.1.18-.25.56-.61.34s-.24-.49-.18-.75c.19-1,.45-1.88.61-2.84.06-.4.38-.88,0-1.22-.95-1-.78-2-.51-3.16-.65.73-1.8,1.2-1.14,2.52a1.4,1.4,0,0,1,0,.7c-.16,1.29-.81,2.52-.44,3.87.05.17-.06.26-.21.35-.77.46-1.51.95-2.29,1.39-.2.12-.46.38-.72.09s0-.44.06-.65c.26-.53.12-.93-.46-1.06s-1,.22-1,.81a1.1,1.1,0,0,0,.27,1,1.71,1.71,0,0,0,2.33.22c.61-.34,1.16-.77,1.74-1.16s.9-.1,1.27.19c.17.13.43.22.37.52a6.16,6.16,0,0,1-2.83,2.5l2.41,2c.19-1.51,4.11-6.29,5.41-6.6A13,13,0,0,0,46.71,180.81ZM31.59,136.38c-.26,1.15-1.25,1.1-1.91,1.48s-.78.21-.8-.49a2,2,0,0,0-2.3-2.17,4.19,4.19,0,0,0-3,1.27,2,2,0,0,0,.25,3.35c.11.08.46,0,.29.32-.53,1,.34,1.54.56,2.46.49-1.12,6.61-3.78,8-3.57Zm-9.1-11.83c-1.18.26-2.31,1-3.66.5l.56,2.43a14.77,14.77,0,0,1,5.76-1.32,8.62,8.62,0,0,0-.51-2.29c-1.51,1.06-2.6-.29-3.85-.47,1.18-.32,2.31-.9,3.69-.49l-.54-2.37a16.13,16.13,0,0,1-5.8,1.24,12.34,12.34,0,0,0,.52,2.31C20.12,123,21.22,124.37,22.49,124.55Zm.46,5.77c-.57-.71-1.21-1-1.91-.61s-.68,1.24-.53,1.89c.27,1.23.69,2.43,1,3.46a12.78,12.78,0,0,1,5.74-1.79c-.59-1.43-.76-3.05-1.68-4.4a1.36,1.36,0,0,0-1.5-.66A1.23,1.23,0,0,0,23,129.43C23,129.66,23,129.88,23,130.32ZM8.77,104a3.22,3.22,0,0,1-3.06.11c.85-.47,1.5-.79,2.11-1.17.38-.23.89-.3,1-.89a2.08,2.08,0,0,1,1.45-1.66c-.56-.05-1.33-.23-1.56,0-.86,1-2.39,1.07-3,2.33-.1.21-.28.29-.47.16-.57-.4-1.38-.42-1.83-1.15a2.45,2.45,0,0,1,.5-.2c.42,0,.79-.16.78-.66a.76.76,0,0,0-.64-.74.86.86,0,0,0-1,.55,1.23,1.23,0,0,0,.48,1.72c.47.27,1,.47,1.44.75a.84.84,0,0,1,.49,1c-.12.36-.54.17-.83.17a2,2,0,0,1-1.73-.52l-.13,2.51c2-.63,3.9-.09,5.91,0ZM4.56,86c1-.59,4.76.12,5.8,1l.52-2.56c-1,.74-1.77.14-2.58-.07-.45-.11-.23-.61-.11-.9s0-.78.45-.64c.81.24,1.77.1,2.4.92l.47-2.29a13.46,13.46,0,0,1-5.74-1.26L5.24,83c.63-.94,1.21-.45,1.76-.43.73,0,1,.36.82,1s-.56.75-1.11.61a2.43,2.43,0,0,1-1.59-.79Zm7.54,59.08c.64-1.07,4-2.52,5.34-2.36a10.74,10.74,0,0,0-1-2.33,2.65,2.65,0,0,1-2.73,1.12A5.79,5.79,0,0,0,16,136.63c-.37,0-.84.1-.92.36-.32,1.13-1.51,1.82-1.68,2.88-.25,1.56-1.27.79-2,.86-.4,0-.8-.26-.17-.66a.7.7,0,0,0,.28-1,.62.62,0,0,0-.69-.33,1,1,0,0,0-.83.73,1.3,1.3,0,0,0,1.24,1.59,4.8,4.8,0,0,1,1.73.15.84.84,0,0,1,.59.66c0,.35-.36.33-.59.45a2.19,2.19,0,0,1-1.89.25ZM20,102.69c1.87,0,3-1,3-2.74a2.87,2.87,0,0,0-3.14-2.85A3,3,0,0,0,16.76,100C16.77,101.51,18.18,102.69,20,102.69ZM5.93,88.17c-1.26,0-1.74.24-2,1.09a3,3,0,0,0,.55,3,.94.94,0,0,0,1.17.2.83.83,0,0,0,.33-1c-.17-.51-.56-.6-1-.37s-.7.1-.78-.34,0-.85.47-.93c.77-.13,1.57-.22,1.83.84a4.65,4.65,0,0,0,1,2A1.43,1.43,0,0,0,9,93a1,1,0,0,0,.64-1.12C9.35,91,9,90.2,9.91,89.4c.22-.2.07-.81-.23-1.18-.47-.59-.41.29-.75.24C7.94,88.32,6.93,88.26,5.93,88.17Zm-.34,22.12a4.59,4.59,0,0,0,1,1.89c.55.71,1.28,1.15,2.11.6s.47-1.35,0-2c-.23-.36-.64-.64,0-1.09.43-.3.31-.92.06-1.39-.1-.19-.26-.52-.51-.35-1.18.78-2.52.46-3.79.61a1.63,1.63,0,0,0-1.18.67,2.93,2.93,0,0,0,.75,3.65.94.94,0,0,0,1.19,0,.84.84,0,0,0,.11-1.08.56.56,0,0,0-.88-.21c-.4.28-.78.48-1-.21s.09-1.09.7-1.08a27.82,27.82,0,0,0,3-.16c.55,0,.81.29.75.8s-.5.53-.9.47C6.55,111.25,6.24,110.68,5.59,110.29ZM41.3,176.91a2.39,2.39,0,0,0-2.41-2.45,3.7,3.7,0,0,0-3.42,3.37,2.57,2.57,0,0,0,2.4,2.54A3.65,3.65,0,0,0,41.3,176.91ZM18.23,89.56l-.69,4.87c1.25-.66,4.65-.05,5.23.88-.07,0-.14.09-.21.09-.48,0-1,0-1,.65a.73.73,0,0,0,.59.76,1,1,0,0,0,1.2-.66,1.33,1.33,0,0,0-1-1.86,22.13,22.13,0,0,0-3.42-.63c-.77-.09-.84-.45-.77-1.07s.58-.72,1.1-.65a15.69,15.69,0,0,1,1.94.32c.86.24,1.95-.13,2.53,1.06l.47-2.93C23.15,90.93,19.19,90.37,18.23,89.56Zm-5-8.6c-1.43-.89-1-2-.71-3.09s.56-2.26,2.13-2.43a13.39,13.39,0,0,1-7.07-1.69c-.16.6-.35,1.31-.55,2L6.43,78c1.33-.46,4.31.66,5,2C11.79,80.8,12.36,80.9,13.28,81Zm15.51,60.69c1.95.8,2.22,2,.94,3.13-.45.38-.78.44-1.06-.18s-.6-1.08-.84-1.65-.55-.54-1-.18a2.44,2.44,0,0,0-1.08,2.41A2.36,2.36,0,0,0,27.68,147a3.35,3.35,0,0,0,2.65-.54,2.69,2.69,0,0,0,1.56-3C31.57,142.27,30.66,141.68,28.79,141.65Zm3.32,5.29c1.71,1.2,1.73,2.27.09,3.65a4.22,4.22,0,0,1-1.39.82c-.43.16-.85.3-1.14-.15s.11-.7.39-1,.66-.7.36-1.22a.7.7,0,0,0-.76-.41c-.53.09-.74.5-.9,1a1.5,1.5,0,0,0,.06,1A2.52,2.52,0,0,0,31,152.51,3.6,3.6,0,0,0,34.43,151a2.3,2.3,0,0,0,.24-2.72A2.49,2.49,0,0,0,32.11,146.94ZM9.1,95.68a1.5,1.5,0,0,1-1.45.43c-1.08-.13-2.16-.26-3.23-.42-.27,0-.68.15-.77-.31A1.19,1.19,0,0,1,4,94.31a3.13,3.13,0,0,1,.86-.42c-1.1-.48-1.53-.17-1.53,1A27.57,27.57,0,0,1,3,98c-.14,1.28-.09,1.33,1.31,1.25-.28-.22-.64-.36-.73-.6-.19-.45-.37-1.37.2-1.3,1.71.22,3.52,0,5.17.9Zm21-36.55c1.8.9,3.69,1.53,4.91,3.32l1.4-2.28c-1.57-.09-2.52-1.11-3.65-1.74C31,57.44,31.05,57.39,30.13,59.13ZM13.89,148.77A13,13,0,0,1,19.08,146l-.95-2a11.69,11.69,0,0,1-5.27,2.55ZM32.6,32.91a20.36,20.36,0,0,1,3.94,3.93l1.66-1.32a17.12,17.12,0,0,1-4.15-4.08ZM30,57.17c-.09-.55-.4-1-1-1a1,1,0,1,0,0,1.94A1,1,0,0,0,30,57.17Zm-13.64,79.4.09-.07s-.06-.07-.09-.07-.06,0-.09.06Z"/><path class="cls-2" d="M110.06,125.58c-.09-6.16.22-13,.79-19.92,1.62-19.25,4.78-38.21,11-56.57a108.69,108.69,0,0,1,7.12-16.75,4.3,4.3,0,0,1,6.88-.92,2.49,2.49,0,0,1,.52,3.29c-7.14,13.41-10.94,27.91-13.86,42.69a260.4,260.4,0,0,0-3.69,26.22,248,248,0,0,0-.91,32.82A140.69,140.69,0,0,0,122,167.26c.14.57.32,1.13.47,1.69.69,2.57-.76,4.33-3.4,4.12A4.25,4.25,0,0,1,115,169.7a121.59,121.59,0,0,1-3.76-19.93A202.18,202.18,0,0,1,110.06,125.58Z"/><path class="cls-3" d="M93,125.72c-.14,13.11-.82,25.46-3.48,37.62-.49,2.24-1.07,4.47-1.69,6.67-.7,2.49-4.32,3.72-6.45,2.22a2.4,2.4,0,0,1-1-2.86,111.83,111.83,0,0,0,3.18-15.05q.85-6,1.28-12c.47-6.8.65-13.62.46-20.44Q84.91,109.41,83.48,97a234.43,234.43,0,0,0-7.32-37.88A117.15,117.15,0,0,0,66.8,35.23a2.89,2.89,0,0,1,1.37-4.37A4,4,0,0,1,74,32.56c4.64,8.63,7.76,17.83,10.34,27.24A235.51,235.51,0,0,1,90.6,91.6c.79,6,1.35,12,1.75,18C92.72,115.22,92.82,120.82,93,125.72Z"/><path class="cls-4" d="M75.45,26a26.06,26.06,0,1,1,26.07,26.14C87.21,52.24,75.19,40.3,75.45,26Zm21,6.76c.38.75.71,1.53,1.16,2.24s1.11.83,1.55.23c1-1.3,1.73-2.72,2.58-4.09,1-.52,1.55-1.59,2.5-2.2l5.44.26c-1.11,2.2-2.26,4.35-4.88,5.14a12.21,12.21,0,0,0-1.68.79l-2.49,1.22.11.24L107,34c0,.83-.88,1.25-.6,2-.8.13-.51,1-.88,1.34-1.18,1.11-1.19,2.88-2.37,4a1.4,1.4,0,0,0-.46,1.25c.66.21,1-.21,1.25-.67,1.22-2.13,2.45-4.27,3.62-6.43.36-.67.66-.79,1.21-.24.14.15.23.42.56.34-.09-.47-.49-.67-.79-1-.22-1,.49-1.4,1.09-1.89,1.39-.3,2.56-1.21,4-1.42.2.15.2.15.24-.2l.46-.24c.13.64.65.44,1,.45,1.48,0,3,0,4.44,0a1.85,1.85,0,0,0,1.81-1,14.57,14.57,0,0,0,2-7,10.47,10.47,0,0,0-.41-4.93,15,15,0,0,0-2.2-5.7,17.35,17.35,0,0,0-6.72-6.69,14.8,14.8,0,0,0-2.93-1.65,24.21,24.21,0,0,0-13-1.87A22.74,22.74,0,0,0,86.66,7.44a14.26,14.26,0,0,0-3,2.86,18.52,18.52,0,0,0-4.34,10.25,13.75,13.75,0,0,0,1.11,7.26c.16.74-.43,1.68.61,2.17.2.64.76.86,1.3,1.07a36.86,36.86,0,0,1,3.9,1.56A4.2,4.2,0,0,0,91.52,32c.2-.18.45-.31.65-.49A1.53,1.53,0,0,1,94,31.31c.8.32,1.36,1.05,2.22,1.25Zm25.42,1.82a6.48,6.48,0,0,1-3.92-.19A4,4,0,0,0,121.87,34.61Zm2.06-1.89a4.29,4.29,0,0,0-.25-3.33A11.33,11.33,0,0,1,123.93,32.72Z"/><path class="cls-5" d="M98.85,127.85A189.44,189.44,0,0,1,97,156.56c-.48,3.27-1.11,6.52-1.88,9.73-.29,1.25-1,1.84-2,1.69a1.88,1.88,0,0,1-1.46-2.21c.24-1.85.66-3.67,1-5.5a139.88,139.88,0,0,0,2.09-16.2q.63-8.1.58-16.23c-.06-9.35-.59-18.68-1.51-28a375.27,375.27,0,0,0-6.52-42.18,2.48,2.48,0,0,1,0-1.27c.26-.84.73-1.53,1.68-1.54a1.71,1.71,0,0,1,1.7,1.49q.61,2.61,1.14,5.25,3.06,15.51,4.87,31.24c.79,6.88,1.4,13.78,1.74,20.71C98.67,118.49,98.88,123.43,98.85,127.85Z"/><path class="cls-5" d="M114.92,57.09c-.39,1.95-.79,3.93-1.17,5.92-1.59,8.21-2.88,16.47-3.93,24.77-1.34,10.63-2.26,21.29-2.62,32a220.06,220.06,0,0,0,.72,28.13,131,131,0,0,0,2.58,16.71,3.48,3.48,0,0,1,.14,1.61c-.22.9-.56,1.67-1.59,1.75s-1.55-.65-1.76-1.54c-.42-1.82-.82-3.65-1.15-5.48a173,173,0,0,1-2.43-24.15,279,279,0,0,1,.73-30.47,396.81,396.81,0,0,1,6.63-48.07c.11-.57.25-1.14.4-1.7.3-1.19,1-1.84,1.87-1.71A2.21,2.21,0,0,1,114.92,57.09Z"/><path class="cls-3" d="M100.23,112.17V58a4.24,4.24,0,0,1,.33-2.28c.46-.77,1.08-.77,1.51,0a2.88,2.88,0,0,1,.29,1,9.08,9.08,0,0,1,0,1.28q0,54.1,0,108.19a5,5,0,0,1-.28,2.19c-.16.32-.37.64-.75.66s-.68-.32-.86-.68a4.75,4.75,0,0,1-.28-2.18Z"/><path class="cls-6" d="M83.76,185.55c-.12,1.26-.25,2.52-.35,3.78-.06.66.48.72.93.81s.59.11.53.57-.36.42-.67.38l-5.46-.61c-.3,0-.66,0-.6-.5s.3-.51.66-.46c.92.13,1.1-.41,1.17-1.18.26-2.59.56-5.19.85-7.78.09-.77,0-1.42-1-1.48-.36,0-.57-.18-.49-.61s.4-.37.71-.34l5.35.59c.29,0,.66-.06.65.44s-.32.55-.71.5c-.78-.1-1,.34-1.08,1s-.18,1.47-.22,2.21c0,.34-.39.8.16,1a1.2,1.2,0,0,0,1.49-.33,8.66,8.66,0,0,0,.76-1.56,7.25,7.25,0,0,1,1.1-2.05,2.15,2.15,0,0,1,2.38-.88c1.72.75,3.49.35,5.23.54s3.65.22,5.49.29c2.32.08,2.35.07,2.17,2.38,0,.52.36,1.36-.38,1.5s-.59-.81-.83-1.26a2.1,2.1,0,0,0-1.29-1.25c-.85-.24-1.34-.16-1.37,1,0,2.61-.23,5.22-.38,7.82,0,.77.07,1.34,1,1.3.36,0,.6.11.56.54s-.39.41-.69.39L94,192c-.33,0-.63,0-.62-.49s.3-.47.64-.45c.91.07,1.08-.47,1.12-1.25.11-2.53.29-5.06.4-7.59,0-.42.32-1-.24-1.24a1.87,1.87,0,0,0-1.68.22,2.45,2.45,0,0,0-.88,1.21c-.15.34,0,.94-.73.85s-.21-.74-.48-1c-1.7.51-2.18.25-2.64-1.52-.88.62-.93,1.68-1.44,2.47a1.88,1.88,0,0,0,.12,2.48,19.68,19.68,0,0,1,1.74,3.81c.18.39.3.94.71,1,1.11.23,1,1,.88,1.74s-.15,1.4-.24,2.09c0,.32.11.75-.45.79s-.51-.36-.57-.69a3.85,3.85,0,0,0-1-2.3c-.2-.18-.43-.44-.66-.46-1.61-.1-1.83-1.41-2.3-2.52s-1-2.46-1.55-3.69Zm4.41-5.11.39-.28c.88-.25,1.11.26,1.13,1a.67.67,0,0,0,.58.74.76.76,0,0,0,.89-.38,1.12,1.12,0,0,0-.49-1.59,2.1,2.1,0,0,0-2.1,0,.85.85,0,0,0-.53.41c-.08.09-.19.17,0,.27S88.11,180.49,88.17,180.44Zm1.94,13.05c.16-1.18.48-2.13-.72-2.7-.29-.14-.44-.63-.6-1-.4-.88-.82-1.77-1.15-2.68-.62-1.69-1.68-2.72-3.6-2.54-.65.06-.8-.2-.71-.82a18.35,18.35,0,0,1,.76-4.58,12.47,12.47,0,0,0-2.63-.19,98.78,98.78,0,0,1-1.15,11,6.63,6.63,0,0,0,2.16.27c.24,0,.45,0,.4-.36-.22-1.48.22-2.93.28-4.4,0-.93.5-.8,1.06-.56s.63.68.81,1.11c.55,1.32,1.1,2.66,1.63,4,.15.37.27.74.73.83A3.78,3.78,0,0,1,90.11,193.49Zm8-2a7.24,7.24,0,0,1-.12-3c.12-2.44.21-4.88.39-7.32.07-.87-.39-.86-1-.83s-1.23-.32-1.26.77c-.08,2.84-.31,5.66-.4,8.49,0,.62-.65,1.4-.08,1.77s1.35.16,2,.2A2.61,2.61,0,0,0,98.16,191.52Zm-5.76-10c.4-.34.65-.78,1.12-1a5.33,5.33,0,0,1,1.66-.37C92.18,180.18,92.24,179.71,92.4,181.57Zm9.82.63c.23-1.73.23-1.73-1.36-1.48A4.68,4.68,0,0,1,102.22,182.2ZM87.74,181s.07-.05.07-.08,0,0-.06-.08-.07,0-.07.08S87.72,181,87.74,181Zm-.46.78s-.06.05-.06.08,0,.05,0,.08.07-.05.07-.08S87.3,181.84,87.28,181.81Zm-.41,1.25-.05-.08s-.07.05-.07.07,0,.06,0,.09Zm-.23.47-.06-.07s-.06,0-.06.06,0,.06,0,.08A.46.46,0,0,0,86.64,183.53Zm-.29.39s-.06,0-.07.05,0,.05,0,.08.06,0,.06-.06S86.36,183.94,86.35,183.92Zm1.23-2.5-.06-.09s-.07,0-.07.08,0,.06,0,.08Z"/><path class="cls-6" d="M114.59,188.35c.49,1.56-.27,2.34-1.33,3-3.59,2.34-8.78.55-10-3.45a6.72,6.72,0,0,1,7.84-8.38c.53.12,1,.31,1.57.45.22.06.55.21.66.11,1.72-1.43,3.87-.57,5.74-1.11a10.75,10.75,0,0,1,1.39-.16c.36-.06.61,0,.67.4s-.12.52-.44.53c-1.18,0-1.1.85-1,1.67.07.58.11,1.16.21,1.74.06.38-.15,1,.46,1s1.22-.07,1.4-.78c.27-1,.41-2.06.71-3.06a2.72,2.72,0,0,1,3.19-2.08,1.88,1.88,0,0,1,1.56,2.12,1.39,1.39,0,0,1-1.74,1.14c-.81-.09-.92-.85-1.3-1.6-.83,1.46-.7,3-1.2,4.34,0,.06.1.2.19.26,1.4.9,2,2.45,3,3.69.5.63.85,1.43,1.87,1.35.29,0,.38.2.43.45s-.18.5-.47.53c-1.2.13-2.4.23-3.6.35-.46.05-.58-.34-.77-.61-.88-1.28-1.75-2.57-2.64-3.85-.12-.17-.24-.46-.52-.37s-.19.38-.18.59c.07.74.19,1.47.22,2.21,0,.9.21,1.56,1.34,1.35.36-.07.46.19.51.49s-.23.43-.51.46l-5.68.64c-.34,0-.5-.08-.54-.43s.09-.5.44-.53c.92-.06,1.11-.64,1-1.45-.3-2.63-.57-5.27-.87-7.9a3.59,3.59,0,0,0-.17-.79c-.17-.42-.55-.35-.9-.35-.5,0-.4.37-.41.66,0,.66,0,1.33,0,2,0,.34.26.84-.27,1s-.68-.37-.81-.75a3.74,3.74,0,0,0-1.56-2,3.3,3.3,0,0,0-4.79,1.53,7.81,7.81,0,0,0,.16,6.35c.85,1.89,3.16,2.31,5.1,1.07A14.66,14.66,0,0,0,114.59,188.35Zm-5.22-8a1.15,1.15,0,0,0,1-.33,1,1,0,0,0-1,0c-4.34.6-6.87,4.44-5.39,8.2.94,2.39,2.88,3.32,5.29,3.55a4,4,0,0,0,2.51-.38h-2.48a3.38,3.38,0,0,1-2.67-2.49,9.09,9.09,0,0,1-.3-5.29A4,4,0,0,1,109.37,180.35ZM117.79,191c.64-.05,1.33-.08,2-.17.19,0,.61.06.43-.45a17.88,17.88,0,0,1-.62-4.49c-.18-2-.69-4.05-.44-6.15a9,9,0,0,0-2.6.23A107.82,107.82,0,0,1,117.79,191Zm8.91-1-2.53-3.58c-1.16-1.62-1.93-1.91-3.86-1.43,1.47.95,2.11,2.54,3.08,3.87C124.58,190.48,124.54,190.51,126.7,190Zm-3-10.61c.61.08,1.22,0,1.35.75.09.5.29.9.89.84a.77.77,0,0,0,.76-.74,1.16,1.16,0,0,0-.84-1.25A2.43,2.43,0,0,0,123.67,179.37Zm-10.91,1.5,1.26,1.41a3.38,3.38,0,0,0,0-1.61Zm10.09.52a.81.81,0,0,0,0,.94A.84.84,0,0,0,122.85,181.39Zm-11.31-1.11c-.12-.19-.3-.13-.47-.11,0,0,0,.12,0,.13A.47.47,0,0,0,111.54,180.28Zm11.68.46-.11-.22a.87.87,0,0,0-.15.24c0,.06.06.13.09.19Zm-.48,2.33-.1-.21a.84.84,0,0,0-.14.24c0,.05,0,.12.08.19Zm-10.43,8.17s-.07-.08-.09-.07a.77.77,0,0,0-.19.08s.06.08.08.07Zm.3-10.49s-.07-.11-.11-.11a.41.41,0,0,0-.19.05s.07.11.11.11S112.54,180.77,112.61,180.75Z"/><path class="cls-6" d="M105.18,196.33c2,0,4,0,6.08,0,.33,0,.83-.23.92.4s-.4.54-.76.57c-.71,0-.9.46-.89,1.09,0,2.81,0,5.62,0,8.42,0,.81.36,1.14,1.12,1.12.38,0,.58.12.54.54s-.29.4-.58.4H106c-.34,0-.6,0-.61-.49s.31-.46.62-.46c.76,0,1-.42,1-1.11,0-2.8,0-5.61,0-8.42,0-.07,0-.18,0-.23-.76-1-1.83-.23-2.73-.44-.44-.11-.85-.05-.84.61,0,2.89,0,5.77,0,8.65,0,.73.4.94,1,.95.31,0,.64,0,.64.45s-.28.49-.62.49H98.93c-.35,0-.62,0-.63-.48s.3-.48.62-.46c.77,0,1-.43,1-1.1,0-2.85,0-5.69,0-8.54,0-.63-.27-1-1-1-.37,0-.72,0-.67-.55s.47-.41.8-.42Zm2.34.73-4.68,0-2.1-.06c-.34,0-.37.07-.34.46a95,95,0,0,1,.06,10.81,19.77,19.77,0,0,0,2.38-.06v-11l4.68-.07a92.25,92.25,0,0,1,0,11h2.6a25,25,0,0,1-.22-5.65,20.32,20.32,0,0,1,.28-5.59Z"/><path class="cls-6" d="M76.65,205.82a24.48,24.48,0,0,1,.68-5.39c.21,0,.44.13.7-.1l-.7-.07a18.19,18.19,0,0,1,1-5.37c-.85-.1-1.87-.53-2.49-.21s-.22,1.48-.35,2.27c-.39,2.36-.66,4.75-1,7.13A8.49,8.49,0,0,1,74,205.6l0,0c-.38-.15-.86.19-1.26-.37.86-.05,1.09-.57,1.18-1.3.33-2.55.74-5.08,1.09-7.63.1-.76.29-1.64-.94-1.69-.36,0-.45-.23-.42-.55,0-.5.4-.4.69-.37l4.16.56,1.39.19c.28,0,.54.12.51.49s-.21.55-.61.46c-.87-.19-1.2.26-1.29,1.06s-.24,1.46-.33,2.2c0,.35-.32.84.18,1a1.28,1.28,0,0,0,1.42-.21,4.27,4.27,0,0,0,.81-1.4A9.23,9.23,0,0,1,81.59,196a2.7,2.7,0,0,1,3.75-.61,1.78,1.78,0,0,1,.6,2.29,1.37,1.37,0,0,1-1.79.68c-.89-.25-.93-1-1-1.9-1,.79-1.15,2-1.73,2.83a1.57,1.57,0,0,0,0,2.08,20.9,20.9,0,0,1,1.63,3.85c.28.7.5,1.42,1.38,1.57.41.07.33.37.3.63s-.3.32-.53.29c-1.2-.15-2.39-.32-3.59-.49-.43-.06-.49-.44-.61-.76-.51-1.39-1-2.77-1.54-4.15-.15-.38-.19-.84-.76-1.15-.17,1.33-.35,2.58-.49,3.84-.08.69.42.83,1,.89a.47.47,0,0,1,.47.63c-.08.41-.39.34-.65.28a8.9,8.9,0,0,1-2.09-.66l.66-.15.17,0Zm6.42,1c-.61-1.57-1.17-3.06-1.77-4.53a2.54,2.54,0,0,0-3-1.75,19.83,19.83,0,0,1,1.84,4.38C80.87,206.84,80.84,206.85,83.07,206.8Zm0-11.07a1.2,1.2,0,0,1,.76,1.18c0,.47.12.84.63.94a.79.79,0,0,0,.88-.4,1,1,0,0,0-.07-1.19C84.76,195.48,84,195.5,83.1,195.73Zm-.21.16a.72.72,0,0,0-.19,0c-.12,0-.12.06,0,.11a.1.1,0,0,0,.09,0A.9.9,0,0,0,82.89,195.89Z"/><path class="cls-6" d="M91.84,208.72c-4,0-6.77-2.63-6.77-6.45a6.2,6.2,0,0,1,6.23-6.47c4.2,0,7,2.51,7,6.29A6.38,6.38,0,0,1,91.84,208.72Zm-2.67-1.11c.18.12.36.24.57.06l-.27-.31c-2.13-3-1.6-8.24,1.1-10.8a5.28,5.28,0,0,0-4.77,4.35A5.77,5.77,0,0,0,89.17,207.61Zm4.88-10.79a.42.42,0,0,0-.51,0l.36.18C96,200,95.52,205.2,92.84,208c2.32-.08,4.31-2.07,4.79-4.79A5.61,5.61,0,0,0,94.05,196.82Zm.48,5a8.85,8.85,0,0,0-.18-2.67A2.49,2.49,0,0,0,92.07,197a2.43,2.43,0,0,0-2.5,1.76,10.65,10.65,0,0,0-.43,6.76,2.35,2.35,0,0,0,2.2,2,2.38,2.38,0,0,0,2.43-1.64A10.52,10.52,0,0,0,94.53,201.83Zm-2,6.22H90.93A2.23,2.23,0,0,0,92.54,208.05ZM90,207.83s.06.11.1.12.12,0,.18-.06-.06-.11-.1-.12A.64.64,0,0,0,90,207.83Z"/><path class="cls-6" d="M134,202.66c.76,1.81-.19,2.83-1.43,3.5a7.85,7.85,0,0,1-5.63,1,6.22,6.22,0,0,1-4.83-6.21,6.91,6.91,0,0,1,5.37-6.53,8.12,8.12,0,0,1,3.47.1c.55.12,1.1.36,1.2-.53,0-.32.34-.27.55-.29s.35.23.39.46l.54,3.7c0,.26,0,.45-.31.52a.53.53,0,0,1-.67-.31,4.44,4.44,0,0,0-1-1.46,3.36,3.36,0,0,0-5.66,1.52,8,8,0,0,0,.87,6.09c1,1.84,3.47,2.09,5.27.64A13.15,13.15,0,0,0,134,202.66Zm-5.43-7.59a3.14,3.14,0,0,0,1.71-.17h-1.7c-.19,0-.43-.14-.57.13Zm2.65.08c-.14,0-.38,0-.39,0-.06.19.1.21.24.23a7.41,7.41,0,0,1,1.7,1.41,4.45,4.45,0,0,0-.26-1.87A1.33,1.33,0,0,1,131.19,195.15Zm-.86,11.26c-2.66.26-4-1.2-4.67-3.5-.82-2.93-1.08-5.77,2.11-7.79a6,6,0,0,0-5,6.75C123.29,205.43,126.22,207.22,130.33,206.41Z"/><path class="cls-6" d="M116.88,199.56l4.08-.31c.26,0,.57-.13.67.26s.09.59-.27.66c-.63.11-.54.58-.51,1,.09,1.55.18,3.11.3,4.66,0,.54-.06,1.22.82,1.29.28,0,.27.35.24.57,0,.41-.4.31-.64.33l-5.58.42c-.9.07-1.79.15-2.68.2-.29,0-.66.15-.79-.28s0-.55.39-.68.46-.67.42-1.1c-.1-1.43-.2-2.87-.34-4.31-.06-.62.11-1.37-.85-1.55-.26-.05-.19-.39-.15-.61s.33-.27.55-.29l4.09-.25c.49.79-.65.94-.61,1.53.06,1,.14,1.93.23,3.18l1.16-2.38c.29-.6.74-1.21-.38-1.5C116.67,200.3,116.85,199.86,116.88,199.56ZM114,207c-.41,1,.15,1,1,.95,1,0,1.23-.41.84-1.29a1.85,1.85,0,0,1,0-.58c-.1-1.75-.18-3.5-.29-5.25-.07-1.09-.87-.37-1.31-.46s-.89-.17-.72.64A50.89,50.89,0,0,1,114,207Zm6.88.47c-.5-1.93-.31-3.86-.61-5.73-.09-.58.34-1.37-.24-1.67s-1.21,0-1.88,0a36.08,36.08,0,0,1,.59,5.77C118.87,207.63,118.82,207.64,120.83,207.44ZM118.1,204l-.36-.08c-.37.75-.74,1.51-1.12,2.26-.19.37-.34.73,0,1a.85.85,0,0,0,.86.18.76.76,0,0,0,.57-.87C118.09,205.72,118.1,204.87,118.1,204Z"/><path class="cls-7" d="M116.88,199.56c0,.3-.21.74.15.83,1.12.29.67.9.38,1.5l-1.16,2.38c-.09-1.25-.17-2.21-.23-3.18,0-.59,1.1-.74.61-1.53Z"/><path class="cls-8" d="M74,205.6c.39.07.83-.08,1.27.28-.62.38-.93,0-1.28-.26Z"/><path class="cls-8" d="M77.33,200.26l.7.07c-.26.23-.49.1-.7.1Z"/><path class="cls-8" d="M76.65,205.82l.15.14-.17,0A1.23,1.23,0,0,1,76.65,205.82Z"/><path class="cls-9" d="M160.87,32.72c-2-1.22-1.94-1.22-1.48-3.48.15-.72.22-1.45.31-2.18,0-.25,0-.51-.3-.55s-.35.17-.44.32c-.57,1-1.77,1.59-1.66,3A18.63,18.63,0,0,1,154.86,28c1.46-.63,2.11-2,3-3.1s2.15-2,2.28-3.69l2.45,2c-1.43.31-1.82,1.56-2.62,2.39-.23.24-.05.43.13.59a1.19,1.19,0,0,0,1.48.3c.63-.38,1.22-.83,1.86-1.21a1.66,1.66,0,0,1,2.14.2,1.22,1.22,0,0,1,.47,1c0,.58-.32,1-.92,1a.77.77,0,0,1-.68-1.1c.07-.25.34-.49,0-.72s-.53,0-.76.09a19.06,19.06,0,0,1-2.29,1.38c-.08,0-.2.17-.18.22.54,1.81-.56,3.52-.29,5.3Z"/><path class="cls-9" d="M181.7,104c.82.81,7.58,1.2,8.61.43-.32.88.14,1.75-.51,2.44-.14.15,0,.25,0,.4.57,2-.11,3-2.22,3.3s-3.67-1-3.59-2.66c0-.55.4-.89.68-1.48-1.11.23-2.23-.55-3.18.45A8.93,8.93,0,0,1,181.7,104Zm5.72,4.79a3.11,3.11,0,0,0,.69-.06c.56-.17,1.39-.08,1.29-1s-.66-1-1.41-1-1.39-.11-2.08-.16a1.11,1.11,0,0,0-1.23,1c-.13.66.42.88.91,1A15.82,15.82,0,0,0,187.42,108.76Z"/><path class="cls-9" d="M182.39,58.23a4.67,4.67,0,0,0,1.38.1c1-.22,1.77.48,2.69.45l.19.19c-.19.84,0,1.13.85.64.5-.3,1.09-.46,1.32-1.23.24.47.44.83.62,1.2l.52,1.13a4.28,4.28,0,0,0-2.39.89c.3.67.84.64,1.4.56a5,5,0,0,1,1.15-.12,1.08,1.08,0,0,1,.92,1.53.83.83,0,0,1-.83.51.54.54,0,0,1-.57-.32.65.65,0,0,1,.27-.81c.16-.11.34-.2.32-.48-.42,0-.84,0-1.26,0s-1,.05-1,.88c0,.62-.59,1.07-1,1.55a3.52,3.52,0,0,0-.71,1.33c-1.95-1.76.21-2.85.94-4.46-1.08.54-2.06.62-2.39,1.75-.33-.87-1.05-1.52-1-2.51l0,0c1,.22,1.57-.49,2.49-.81a2.5,2.5,0,0,0-2-.3c-1.35.13-1.78-.57-1.86-1.72Z"/><path class="cls-9" d="M194.81,75.12c1.95,1.37,2.34,2.61,1.37,4.12A3.61,3.61,0,0,1,192,80.45a2.67,2.67,0,0,1-1.47-3.09c.49-1.75,2-2.17,3.49-2.5s3.28-.62,4.53.87c.69.83.68,2,1.2,2.9a1.8,1.8,0,0,1-2.17-1.57C197.19,75.48,196.62,75.06,194.81,75.12Zm-2.76,4a12.13,12.13,0,0,0,3.51-1c.4-.19.76-.5.6-1a.87.87,0,0,0-1-.55,13.55,13.55,0,0,0-3.46,1c-.42.18-.73.45-.64,1S191.55,79.12,192.05,79.14Z"/><path class="cls-9" d="M189.19,87c-1.15-.42-4.84.27-5.59,1.1a9.1,9.1,0,0,1-.52-2.57,6,6,0,0,0,3.48-.43c-1.19-.19-2.17-1.62-3.63-.57a17,17,0,0,1-.52-2.39,12.08,12.08,0,0,0,5.79-1l.46,2.47c-1.28-.67-2.4.14-3.6.3,1.19.39,2.23,1.5,3.75.7a9.27,9.27,0,0,1,.36,2.43Z"/><path class="cls-7" d="M176.58,169.63c-.32-1.17-1.41-1.61-2.23-2.31l-.32-.21c-.12.18,0,.33.09.47.24.68.5,1.35.7,2a.91.91,0,0,0,1,.7v0c-.15.89-1,1.3-1.36,2.06a14.1,14.1,0,0,0-4.45-3.94l1.49-1.81c.41,1.37,1.73,1.7,2.58,2.55-.59-1.1-.21-2.76-2-3.25l1.56-2a11.39,11.39,0,0,0,4.51,3.84l-1.63,1.85Z"/><path class="cls-7" d="M157.11,188.31c-.45.73-1.27.94-2,1.51a8.41,8.41,0,0,0-1.93-3.17c.3,1.21-.42,2.68.9,3.76a14,14,0,0,1-2.07,1.41c0-1.36-2.18-4.56-3.22-4.74.17-.48.68-.58,1-.85a9.86,9.86,0,0,1,1.1-.7c.24,1.27,1.15,2.11,1.73,3.19.44-1.43,0-3.19-.88-3.74a5.68,5.68,0,0,1,2.31-1.31h0a1,1,0,0,0,0,.88c.72,1.13,1.45,2.25,2.2,3.36a1.08,1.08,0,0,0,.78.43Z"/><path class="cls-9" d="M192.88,85.84a.52.52,0,0,0,.59.27c1.61-.28,3.3-.2,4.81-1.08a25.74,25.74,0,0,1,.56,2.63,2.23,2.23,0,0,0-2.05-.26,25.12,25.12,0,0,1-2.86.49c-.67.08-.55.51-.53.93s.23.87.78.75c1.57-.35,3.24-.26,4.77-1.08,0,.82.44,1.57.3,2.15-1.95.45-3.94-.12-5.57,1.36-.35.32-1,.29-1.63.34,1.53-.65,1.19-1.91,1.08-3s-.37-2.3-.57-3.45Z"/><path class="cls-7" d="M189.89,133.82a9.34,9.34,0,0,1,.79-2.58,1.45,1.45,0,0,0,1,1,28,28,0,0,0,3.38,1.15c1,.18,1,.54.66,1.28-.18.38-.31.78-.51,1.27-.4-1-1.26-1-2-1.23s-.44.55-.63.87-.15.68.3.8a4.53,4.53,0,0,0,1.88.46l0,0a7.56,7.56,0,0,1-.68,2.15,11.16,11.16,0,0,0-5.42-1.93l0,0a9.87,9.87,0,0,1,.74-2.41c.5.94,1.46,1,2.27,1.19.58.14.46-.59.65-.93s.18-.56-.28-.7a4.26,4.26,0,0,0-2.22-.44Z"/><path class="cls-7" d="M183.64,111.64a12,12,0,0,0,5.78.78,16.31,16.31,0,0,1-.59,3.87,1.37,1.37,0,0,1-1.3,1.15c-.77,0-1-.51-1.28-1.09-.39.09-.37.49-.58.71a1.35,1.35,0,0,1-2.33-.49,7.1,7.1,0,0,1,0-3C183.4,112.88,183.56,112.2,183.64,111.64Zm1.11,2.29c-.56,0-1.15-.13-1.11.58a1.23,1.23,0,0,0,1.25,1.28,1.09,1.09,0,0,0,1.2-1.16C186.09,113.66,185.09,114.26,184.75,113.93Zm2.77.42c-.38.06-1-.45-.93.4a1,1,0,0,0,.95,1.09.93.93,0,0,0,1.13-.89C188.72,114,187.86,114.59,187.52,114.35Z"/><path class="cls-9" d="M145.43,195.35a12.57,12.57,0,0,0-2.61-5.11c0,.09,0,0,0,0,.61-.33,1.25-.93,1.84-.88s.34,1.1.76,1.58c.19.22.18.71.58.61s.34-.54.24-.89a3.4,3.4,0,0,1-.07-.34c-.28-1.79-.24-1.86,1.48-2.54l.1.09c0,.51,0,1,0,1.51-.05.82.07,1.35,1.11,1.5a1.33,1.33,0,0,1,.61,2.35,10.59,10.59,0,0,1-4.06,2.11Zm2.79-2.81a1.22,1.22,0,0,0-1.24-.9c-.3,0-1,.05-.8.56.25.67.35,1.64,1.17,1.8C147.83,194.1,148.33,193.58,148.22,192.54Z"/><path class="cls-9" d="M194.34,111.43c.95.83,4.7,1.13,5.86.41-.17,1.38-.29,2.67-.5,4-.11.64-.37,1.28-1.18,1.4s-1-.08-1.52-1.1a2.13,2.13,0,0,0-.25.39,1.29,1.29,0,0,1-1.55.93,1.46,1.46,0,0,1-1.14-1.44A18.81,18.81,0,0,1,194.34,111.43Zm1.41,2.45c-.52.09-1.2-.36-1.38.48-.13.57.67,1.35,1.33,1.34a1.15,1.15,0,0,0,1.16-1.2C197,113.47,196.08,114.14,195.75,113.88Zm2.62.25c-.35.15-1-.39-1,.5a1,1,0,0,0,2.09,0C199.44,113.84,198.74,114.3,198.37,114.13Z"/><path class="cls-7" d="M183.26,134.56a4.57,4.57,0,0,1-.62,2.07,1.68,1.68,0,0,1-2.31.68c-.69-.34-1.41-.63-2.12-.94a4.15,4.15,0,0,1-.75-.27c-.3-.21-.6.82-.84,0a1.22,1.22,0,0,1,.6-1.59c.65-.26.7-.52.57-1.16a1.36,1.36,0,0,1,1-1.81c.85-.14,1.27.48,1.53,1.27a8.67,8.67,0,0,1,.2,2.2c.05.78.68.85,1.23,1a.75.75,0,0,0,.94-.65c.1-.41.11-.84-.51-.72s-.87-.06-1-.56a.84.84,0,0,1,.63-1c.54-.2.83.15,1,.5A5.3,5.3,0,0,1,183.26,134.56Zm-3.07.74c-.18-1-.27-1.82-1.26-1.94-.37,0-.56.28-.54.61C178.44,135,179.39,134.87,180.19,135.3Z"/><path class="cls-9" d="M162.27,33.06a3.51,3.51,0,0,1,3.34-3.38,2.65,2.65,0,0,1,2.52,2.77,3.52,3.52,0,0,1-3.27,3.32A2.67,2.67,0,0,1,162.27,33.06Zm4.94-1.66c0-.83-.64-1.08-1.35-.6a10.71,10.71,0,0,0-2.42,2.65c-.3.41-.43.89,0,1.26s.9.16,1.27-.15A15,15,0,0,0,167,32,2.15,2.15,0,0,0,167.21,31.4Z"/><path class="cls-9" d="M191.77,68.75a2.61,2.61,0,0,1,2.77,2.64,3.4,3.4,0,0,1-3.54,3,2.78,2.78,0,0,1-2.72-2.76C188.28,70.1,189.93,68.74,191.77,68.75Zm-2,4.21a12.39,12.39,0,0,0,3.79-1.37c.3-.27.54-.57.36-1a.71.71,0,0,0-.86-.43,9.31,9.31,0,0,0-3.78,1.4.78.78,0,0,0-.32.92C189,72.89,189.36,73,189.74,73Z"/><path class="cls-9" d="M183.94,150.18a3.42,3.42,0,0,1,3.39,3.16,2.67,2.67,0,0,1-2.64,2.68,3.6,3.6,0,0,1-3.47-3.13A2.66,2.66,0,0,1,183.94,150.18Zm2.74,3.87a2.88,2.88,0,0,0-.12-.4,9,9,0,0,0-3.93-2.3.7.7,0,0,0-.52,1.23,9.07,9.07,0,0,0,3.62,2.23C186.25,155,186.62,154.68,186.68,154.05Z"/><path class="cls-9" d="M189.49,139.16c1.76,0,3.42,1.52,3.37,3a2.74,2.74,0,0,1-2.84,2.62c-1.79,0-3.43-1.46-3.41-3A2.67,2.67,0,0,1,189.49,139.16Zm1.63,4.28c.53,0,.9,0,1-.39a.77.77,0,0,0-.29-1,11.74,11.74,0,0,0-3.71-1.55.72.72,0,0,0-.87.4.78.78,0,0,0,.28,1A12.1,12.1,0,0,0,191.12,143.44Z"/><path class="cls-9" d="M167,180.17c-1.13,1.51-2.12,1.58-3.4.25-.55-.57-1.11-1.1-1.63-1.69-.32-.37-.63-.5-1.09,0,.08-1.1.35-1.86,1.48-1.82.4,0,.57-.07.63-.47a2.76,2.76,0,0,1,.29-.88,1.21,1.21,0,0,1,1.43-.74,1.23,1.23,0,0,1,.89,1.23,5.12,5.12,0,0,1-.51,2.37c-.2.49-.34.9.16,1.35s1,.63,1.55.23Zm-2.47-1.28a3.45,3.45,0,0,0,0-1.85c-.15-.41-.49-.73-1-.44a.64.64,0,0,0-.2,1.06C163.7,178,164,178.37,164.52,178.89Z"/><path class="cls-7" d="M179.59,51.32c-1.41.24-2.24-.1-2.81-1.14a2.54,2.54,0,0,1,.46-3,3.4,3.4,0,0,1,4.07-1c1.43.77,1.5,2.69.09,3.92-.3.25-.46.09-.65-.17-.38-.53-.83-1-1.17-1.58s-.66-.46-1,0C177.48,49.63,177.81,50.58,179.59,51.32Zm1.3-4.54c-.45.18-1.21.22-1.25.86,0,.45.49,1.2.9,1.13a1.48,1.48,0,0,0,1.19-1.37C181.76,46.92,181.42,46.74,180.89,46.78Z"/><path class="cls-7" d="M195.23,97.57a2.09,2.09,0,0,1-1.37-2.19,2.23,2.23,0,0,1,1.41-2.09c2-1,4.39-.1,4.8,1.83a2.46,2.46,0,0,1-2.31,2.65c-.42,0-.38-.28-.4-.55a7,7,0,0,0-.17-1.38c-.12-.43.35-1.34-.76-1.11-1,.2-1.74,1.15-1.52,1.88a3.74,3.74,0,0,0,.47.79Zm3.07-3.07c-.77-.13-.71.36-.7.85s0,1,.72.82c.57-.1,1.31-.08,1.34-.81S198.85,94.62,198.3,94.5Z"/><path class="cls-9" d="M185.31,102.84a2.27,2.27,0,0,1-.95-2.75,2.37,2.37,0,0,1,2.29-1.66,3.38,3.38,0,0,1,3.17,1,2.17,2.17,0,0,1,.42,2.47A2.62,2.62,0,0,1,188,103.3c-.42.07-.42-.22-.42-.5,0-.7,0-1.4,0-2.1s-.27-.64-.71-.58c-1.37.21-1.89,1.16-1.4,2.55A.79.79,0,0,0,185.31,102.84Zm2.7-2c0,.52-.1,1,.71.93.58-.07,1.33-.06,1.33-.76s-.76-.83-1.39-.91S188,100.34,188,100.83Z"/><path class="cls-9" d="M193.59,122.85a2.08,2.08,0,0,1-.53-2.64,2.2,2.2,0,0,1,2.21-1.4c1.85,0,3,.65,3.57,2a2,2,0,0,1-.36,2.17,2.52,2.52,0,0,1-2.32.78c-.45,0-.46-.33-.39-.67A10.74,10.74,0,0,0,196,122c0-.53.76-1.25-.28-1.5a1.74,1.74,0,0,0-2.08,1.52,2.67,2.67,0,0,0,.14.67Zm4-.24c.38-.18,1-.09,1-.75,0-.85-.82-1-1.42-1.11s-.58.7-.64,1.1C196.35,122.65,197.13,122.37,197.56,122.61Z"/><path class="cls-7" d="M180.29,130.57c-1-1.25-1.15-2-.5-3.18a2.53,2.53,0,0,1,2.8-1.13c2,.38,3.19,1.81,2.84,3.54-.18.88-.6,1.61-1.64,1.68-.53,0-.95-.11-.93-.75a.79.79,0,0,1,.93-.8c.44,0,1,.4,1.18-.27s-.45-.92-.92-1.17a4.21,4.21,0,0,0-2.15-.41C180.41,128.13,179.9,128.85,180.29,130.57Z"/><path class="cls-9" d="M195.22,103.62c-1.1-1.26-1.25-2.51-.53-3.48a3.5,3.5,0,0,1,4.14-.78,2.67,2.67,0,0,1,1.54,3.16,1.56,1.56,0,0,1-.32.61c-.33.39-.68.77-1.28.6a.66.66,0,0,1-.5-.69c0-.67.46-.81,1-1,.31-.09.75,0,.74-.55s-.38-.63-.77-.72a5,5,0,0,0-2.31.07C195.55,101.23,195.3,101.64,195.22,103.62Z"/><path class="cls-9" d="M185.32,97c-1.26-1-1.61-2.06-1-3.2a3.34,3.34,0,0,1,3.71-1.5,2.76,2.76,0,0,1,2.32,2.79,2,2,0,0,1-.76,1.52.9.9,0,0,1-1,.18.75.75,0,0,1-.44-.76.83.83,0,0,1,.61-.77,6.18,6.18,0,0,0,.76-.26c.42-.21.42-.53.11-.84-.58-.59-2.63-.39-3.74.34s-.86,1.46-.43,2.34A.65.65,0,0,0,185.32,97Z"/><path class="cls-7" d="M199,110.54c.09-.38.46-.29.65-.46a1.28,1.28,0,0,0,.28-1.2c-.05-.56-.53-.35-.82-.34-1.51.08-3-.29-4.54.21v-2.7c.41.75,1,.62,1.51.63.94,0,1.87,0,2.8,0,.37,0,.94.29,1.06-.35s.07-1.1-.61-1.33c-.09,0-.15-.12-.26-.21,1.33-.24,1.33-.24,1.33.9s-.07,2.41,0,3.61C200.47,110.36,200.23,110.92,199,110.54Z"/><path class="cls-7" d="M180.75,58c.67-1.14-.06-2-.51-3l.2-.2c.38.5.79.34,1.21.07.84-.54,1.65-1.14,2.53-1.61s1-.93.39-1.66l.2-.19,2,2.91a2.77,2.77,0,0,0-2.34.87c-.95.7-2.3,1-2.66,2.36-.06.24-.56.37-.85.54Z"/><path class="cls-9" d="M184.85,122.39c.67.54,1.15,1.46,2.25,1.15l0,0-.58,2.54c-.69-1.09-1.79-1.07-2.73-1.3s-1.84-1-3-.17l.74-2.74a5.07,5.07,0,0,0,2.92,1.2c.4.09.3-.2.24-.43Z"/><path class="cls-7" d="M192.88,85.84l-.32,0c-.2-1.13-.4-2.27-.61-3.44,1.09.46,4.76-.12,5.83-.92.13.85.26,1.68.4,2.54-1.47-.53-2.79.25-4.16.28C192.91,84.34,192.61,84.84,192.88,85.84Z"/><path class="cls-9" d="M154.79,182.84l2.18-1.72c.36,1.72,1.29,2.4,2.56,1.86-.1.55-1.21.83-.33,1.57.45.37.66,1,1.52,1.08l-2.09,1.72C158.46,186,156,183,154.79,182.84Z"/><path class="cls-7" d="M194.39,128c.28-.69.12-1.07-.68-1.19a2.88,2.88,0,0,0-2,0c.28-1,.52-1.82.77-2.71.67,1,4.14,2,5.41,1.69a5.25,5.25,0,0,1-.6,2.56c-.42-.85-1.27-.79-2-1-.48-.13-.51.36-.6.69Z"/><path class="cls-7" d="M179.12,43.72c-1.24.3-4,2.6-4.32,3.71l-1.67-2.12c1.92-.49,3-2.13,4.53-3L177,41.23a5.06,5.06,0,0,1,2.1,2.51Z"/><path class="cls-9" d="M194.39,128h.35c.08.3-.47.75,0,.89.73.2,1.45.77,2.36.21a11.65,11.65,0,0,1-.75,2.6c-.6-.92-4.59-2-5.61-1.49.26-.91.5-1.76.76-2.69.58,1,1.55.87,2.35,1.12C194.3,128.73,194.29,128.23,194.39,128Z"/><path class="cls-9" d="M188,120c.17.89-.44,1.62-.47,2.46-1.25-.52-2.34-1.27-3.81-1-.43.07-1.11-.59-1.79-.65.09-.45.18-.9.28-1.36.07-.3.28-.55.23-.78,1.79.76,3.5,1.75,5.57,1.36Z"/><path class="cls-9" d="M189.41,149a14,14,0,0,0-4.9-2.32l-.07-.07a12.55,12.55,0,0,1,1.08-2.32c.28,1,1.09,1.12,1.75,1.47s1.51.76,2.25,1.15c.36.19.7.33,1,0v0c0,.94-.63,1.59-1,2.37Z"/><path class="cls-9" d="M180.84,163.38c.13-.23.38-.52.1-.72-1.4-1-2.61-2.27-4.38-2.84l1.39-2a14.28,14.28,0,0,0,4.69,3.6L181,163.56Z"/><path class="cls-9" d="M157.86,180.63c.36-.84,1.28-1.06,1.82-1.72a13.84,13.84,0,0,0,3.49,4.78,9.76,9.76,0,0,1-1.83,1.36l0,0s0-.08,0-.11a1.45,1.45,0,0,0-.71-1.38c-1.18-.78-1.25-2.56-2.78-3Z"/><path class="cls-9" d="M170.3,176.26c.21-.26,0-.42-.16-.58-.91-.9-1.82-1.8-2.72-2.72a1.28,1.28,0,0,0-1.29-.34c.82-.76,1.46-1.35,2.14-2-.16.53.15.85.48,1.17a28.76,28.76,0,0,0,2.5,2.44c.75.6.68,1,0,1.51a10,10,0,0,0-.76.7Z"/><path class="cls-9" d="M179.12,166.09c0-.46-.28-.71-.59-.93-.93-.7-1.89-1.37-2.82-2.06a1.27,1.27,0,0,0-1.44-.07l1.6-2.24a19.38,19.38,0,0,0,4.3,3.28c.05,0,.21-.07.31-.12l.19.18c-.5.66-.78,1.51-1.57,2Z"/><path class="cls-7" d="M172.69,35.83l1.54,1.63a10,10,0,0,0-4,4.18v0a9.61,9.61,0,0,1-1.72-1.77l.1-.12c.76,0,1.11-.66,1.54-1.12.81-.85,1.87-1.47,2.4-2.59Z"/><path class="cls-7" d="M179.67,54.17a2.08,2.08,0,0,0-2.22-.89,1.85,1.85,0,0,1,1.93-.67c1.49.41,4.13-1,4.74-2.26a2.25,2.25,0,0,1,.65,1.06l-.2.19c-.39-.4-.67-.07-1,.12a7,7,0,0,1-3.27,1.34c-.93,0-.64.44-.43.92Z"/><path class="cls-7" d="M172.1,43.17c1.17.28,1.68-.88,2.79-1.16a4.2,4.2,0,0,1-2.22,1.67,1.28,1.28,0,0,1-1.34-.5,1,1,0,0,1-.18-1.09c.22-.44.55-.8,1.11-.53s.61.65.22,1.12Z"/><path class="cls-7" d="M167.23,37.78c.72.25,1-.55,1.72-.63a1.8,1.8,0,0,1-1.33,1.12,1.26,1.26,0,0,1-1.33-.52.9.9,0,0,1,0-1.35.73.73,0,0,1,1-.12c.51.41.28.79-.07,1.18C167.23,37.52,167.25,37.66,167.23,37.78Z"/><path class="cls-9" d="M166.79,180c.13-.41.55-.87-.29-1a.64.64,0,0,1-.53-.87.88.88,0,0,1,.85-.68.82.82,0,0,1,.83.8,2.08,2.08,0,0,1-.66,2Z"/><path class="cls-9" d="M187.5,57.71c0-.24.32-.7-.31-.51-.43.12-.8.16-1-.31s.13-.65.44-.85a.83.83,0,0,1,1.15.21,1.08,1.08,0,0,1-.13,1.64Z"/><path class="cls-7" d="M189.41,149l.17.23a11.89,11.89,0,0,0-.52,1.15c-.35,1.06-.9,1.19-1.84.31C188.71,151,188.84,149.73,189.41,149Z"/><path class="cls-7" d="M176.31,40c.39.17.53.54.78.94-1,0-1.38.92-2.36,1.27.44-1,1.6-1.21,1.6-2.23Z"/><path class="cls-9" d="M172.6,172.85c1.32.77.29,1.19-.25,1.69l-.19-.14a1.35,1.35,0,0,0,.31-1.42Z"/><path class="cls-7" d="M170.51,35.4a1.73,1.73,0,0,0,.47-1.15c.81.57.81.57-.23,1.33Z"/><path class="cls-9" d="M170,176.91c-.52,1-1,.79-1.45,0h0c.42-.12.9.16,1.29-.19Z"/><path class="cls-7" d="M180.24,55l-.57-.83.2-.19.57.82Z"/><path class="cls-9" d="M181,163.56l-.36.57-.19-.18.36-.57Z"/><path class="cls-9" d="M185.67,102.92l.25.13s-.11.07-.15.06-.19-.09-.09-.21Z"/><path class="cls-9" d="M186.46,58.78l.35-.35.19.16-.35.38Z"/><path class="cls-7" d="M195.38,97.4l.29.29c-.19.15-.33.06-.44-.12Z"/><path class="cls-7" d="M172.08,35.55c-.15-.1-.41-.23-.23-.4s.28.14.41.25Z"/><path class="cls-7" d="M194.76,136.82l.12-.25s.08.06.07.07-.1.14-.15.21Z"/><path class="cls-7" d="M168.5,39.85c-.06-.08-.32-.08-.12-.27,0,0,.14.1.22.15Z"/><path class="cls-9" d="M193.77,122.69c.06.1.2.21,0,.31,0,0-.13-.1-.2-.15Z"/><path class="cls-9" d="M187.1,123.54l0,0Z"/><path class="cls-9" d="M182.41,58.21h-.15l0-.13.11.14Z"/><path class="cls-7" d="M180.88,58.09c-.08,0-.22.11-.23.09s0-.16.1-.19Z"/><polygon class="cls-9" points="185.66 97.08 185.72 97.13 185.68 97.06 185.66 97.08"/><path class="cls-9" d="M185.45,96.82c.14,0,.24.1.21.26l0,0-.36-.08A.65.65,0,0,1,185.45,96.82Z"/><path class="cls-9" d="M187.67,57.89l-.24.25-.17-.19.24-.24Z"/><path class="cls-9" d="M189.17,87l.07,0-.05-.06Z"/><path class="cls-7" d="M196.07,133.32s-.06-.06-.06-.09a.29.29,0,0,1,.08-.07s.06.06.06.08S196.1,133.29,196.07,133.32Z"/><path class="cls-7" d="M189.88,133.8s0,.07,0,.1h-.07l.13-.09Z"/><path class="cls-7" d="M188.7,137.07l0,.17c-.18-.15,0-.12.07-.15Z"/><path class="cls-9" d="M184.51,146.68c0,.09,0,.21-.17.17a2.44,2.44,0,0,0,.1-.24Z"/><path class="cls-9" d="M157.84,180.61l-.06,0,.07,0Z"/><path class="cls-9" d="M190.56,146.88l.09,0s0,0,0,0h-.15Z"/><path class="cls-7" d="M154.12,183.67l0-.15s0,0,0,0a.47.47,0,0,1-.06.09Z"/><path class="cls-9" d="M161.34,185.05a.24.24,0,0,1-.06.08h-.05l.13-.07Z"/><path class="cls-9" d="M147.67,187.77c.08,0,.23-.09.24-.07s-.06.13-.14.16Z"/><path class="cls-7" d="M157.12,188.33l.06-.08-.07.07Z"/><path class="cls-9" d="M183.81,61l-.15,0,0-.14.11.14Z"/><path class="cls-9" d="M179.1,166.08l0,.13s0-.05,0-.06l.07-.06Z"/><path class="cls-9" d="M160.91,32.66c.13,0,.22.07.14.17s-.15,0-.18-.11Z"/><path class="cls-9" d="M145.41,195.33v.16l-.14,0,.16-.1Z"/><polygon class="cls-7" points="176.56 169.62 176.5 169.64 176.58 169.63 176.56 169.62"/><path class="cls-7" d="M170.75,35.58l-.24.24-.24-.17.24-.25Z"/><path class="cls-7" d="M175.84,170.31l.08-.08s0,0,.06,0l-.15,0Z"/><path class="cls-7" d="M179.11,43.74c.06-.1.12-.1.17,0s0,.08,0,.11l-.15-.13Z"/><path class="cls-7" d="M172.31,35.78l-.23-.23.18-.15.24.24A1.33,1.33,0,0,1,172.31,35.78Z"/><path class="cls-7" d="M170.51,35.82c-.08.12-.16.27-.32.11s.05-.18.08-.28Z"/><path class="cls-7" d="M172.54,36l-.23-.24a1.33,1.33,0,0,0,.19-.14l.19.19Z"/><path class="cls-7" d="M170.21,41.64l.15,0s-.05,0-.06,0l-.08-.08Z"/><path class="cls-9" d="M172.47,173c0-.09-.09-.24-.06-.26s.15,0,.19.13Z"/><path class="cls-9" d="M188,120l.08-.07-.09,0Z"/><path class="cls-9" d="M186.81,58.43l.22-.25.2.17-.23.24Z"/><path class="cls-7" d="M176.33,40l-.17,0c.12-.17.1,0,.15.06Z"/><path class="cls-9" d="M187.43,58.14l-.2.21-.2-.17.23-.23Z"/><path class="cls-9" d="M185.68,102.9c-.15.13-.26,0-.37-.07a1.07,1.07,0,0,1,.14-.16l.22.25Z"/><path class="cls-9" d="M184.68,122.62c-.12-.08-.25-.17-.1-.32s.17.06.27.09C184.79,122.47,184.74,122.55,184.68,122.62Z"/><path class="cls-9" d="M170.51,176.44l-.23.23-.21-.17.23-.24Z"/><path class="cls-9" d="M168.59,176.86l-.16-.11.15-.05v.17Z"/><path class="cls-9" d="M169.87,176.68l.2-.18.21.17-.24.24Z"/><path class="cls-9" d="M172.35,174.54c-.07.06-.16.18-.2.17-.19-.09-.06-.2,0-.31Z"/><path class="cls-9" d="M46.71,180.81a13,13,0,0,1,2.29,1.8c-1.3.31-5.22,5.09-5.41,6.6l-2.41-2a6.16,6.16,0,0,0,2.83-2.5c.06-.3-.2-.39-.37-.52-.37-.29-.79-.52-1.27-.19s-1.13.82-1.74,1.16A1.71,1.71,0,0,1,38.3,185a1.1,1.1,0,0,1-.27-1c.09-.59.42-.95,1-.81s.72.53.46,1.06c-.1.21-.25.44-.06.65s.52,0,.72-.09c.78-.44,1.52-.93,2.29-1.39.15-.09.26-.18.21-.35-.37-1.35.28-2.58.44-3.87a1.4,1.4,0,0,0,0-.7c-.66-1.32.49-1.79,1.14-2.52-.27,1.14-.44,2.21.51,3.16.33.34,0,.82,0,1.22-.16,1-.42,1.89-.61,2.84-.06.26-.11.57.18.75s.51-.16.61-.34c.53-.92,1.65-1.47,1.67-2.7Z"/><path class="cls-9" d="M31.59,136.38,32.67,139c-1.41-.21-7.53,2.45-8,3.57-.22-.92-1.09-1.49-.56-2.46.17-.33-.18-.24-.29-.32a2,2,0,0,1-.25-3.35,4.19,4.19,0,0,1,3-1.27,2,2,0,0,1,2.3,2.17c0,.7.21.83.8.49S31.33,137.53,31.59,136.38ZM25,139.82c1-.44,2.07-.83,3.05-1.35a1,1,0,0,0,.34-1.26c-.18-.47-.64-.5-1.09-.44a6.59,6.59,0,0,0-3,1.24c-.34.24-.72.56-.52,1.05A1.36,1.36,0,0,0,25,139.82Z"/><path class="cls-7" d="M29.85,63.35c.19.13.51.39.55.35,1.16-1.08,2.6-.28,3.87-.67-.36,2.69-2.5,1.37-4,1.87a3.73,3.73,0,0,0,2.69,1l-1.23,2.44c-.42-1.15-1.42-1.27-2.4-1.78a2.85,2.85,0,0,0,1,1.58c1.09,1,.84,1.9,0,2.9-.36-1-1.44-1.56-1.53-2.43-.2-1.77-1.4-1.18-2.39-1.39,0,.18,0,.32.06.38.31.37.89.68.24,1.21-.44.37-.83.1-1.1-.25a1,1,0,0,1,.16-1.44c.44-.39,1-.18,1.46-.23s1.5.39,1.6-.37c.07-.58-.95-.7-1.52-1-.17-.08-.42,0-.8,0l1.23-2.52c.36,1.16,1.31,1.24,2,1.66a1,1,0,0,0-.08-1.23Z"/><path class="cls-9" d="M20.71,64.08a10.71,10.71,0,0,1-1,2.14,41,41,0,0,0-7.6-4c.29-1,1.16-1.87,1.4-3.07.18-.89,1.15-1.14,2-1.06a4.52,4.52,0,0,1,3,1.44c1.15,1.22.9,2.48-.69,3.56,1,.44,1.8,1.24,3,1Zm-6.08-4.52c-.4,0-.73.1-.84.49a1,1,0,0,0,.49,1.2,28.6,28.6,0,0,0,2.57,1.35,1,1,0,0,0,1.23-.43.66.66,0,0,0-.09-.94A6.21,6.21,0,0,0,14.63,59.56Z"/><path class="cls-7" d="M28,46.74c-.07.88-.89,1.31-1.25,2.13-.42-1-1.24-1.39-2.07-1.95a1.81,1.81,0,0,0,.48,1.32c.76,1.07,1.06,2.08-.32,3-.14-1-1.14-1.76-1.14-2.67,0-1.74-1.29-1.22-2.1-1.71,0,.23-.06.32,0,.37.2.33.75.57.33,1.07a.54.54,0,0,1-.72.17,1,1,0,0,1,.12-1.9c.4-.13.75.12,1.13.19s.83.17,1.25.23a.43.43,0,0,0,.48-.26c.09-.22-.11-.36-.27-.45-.59-.32-1-1-2-.77l1.59-2.25c.1,1,.92,1.26,1.49,1.73.34.29.47,0,.5-.29A2,2,0,0,0,25,43.62a.85.85,0,0,0,.17-.16c.43.44.62,1,1.58.6.79-.29,1.88.21,2.84.36l.07.1c-.36,1-.89,1.53-2.09,1.13a3.07,3.07,0,0,0-2-.2c.82.55,1.33,1.36,2.38,1.32Z"/><path class="cls-9" d="M22.49,124.55c-1.27-.18-2.37-1.52-3.83-.46a12.34,12.34,0,0,1-.52-2.31,16.13,16.13,0,0,0,5.8-1.24l.54,2.37c-1.38-.41-2.51.17-3.69.49,1.25.18,2.34,1.53,3.85.47a8.62,8.62,0,0,1,.51,2.29,14.77,14.77,0,0,0-5.76,1.32l-.56-2.43C20.18,125.57,21.31,124.81,22.49,124.55Z"/><path class="cls-7" d="M21.16,161.2c1.31-.16,4.36-2.4,4.62-3.49.51.82,1.29,1.37,1.45,2.33h0c-.93,0-2.4.84-3.58,2.18l4.87-1.09-2.35,3.75.21.21c1.05-.67,2.26-1.11,2.9-2.41.18.39.63.6.53,1.1v0c-1.41,0-2.19,1.2-3.26,1.84-.56.33-1.34.57-1.22,1.51-.12-.07-.2-.09-.24-.15-1.21-1.6-1.21-1.6-.08-3.31L26,162.2a4.79,4.79,0,0,0-2,.33c-1.85.46-1.85.46-2.8-1.35Zm5.1,4c0-.12-.07-.15-.16-.09l-.17.14.25.11A.76.76,0,0,0,26.26,165.19Z"/><path class="cls-9" d="M23,130.32c0-.44.07-.66.07-.89a1.23,1.23,0,0,1,1.05-1.22,1.36,1.36,0,0,1,1.5.66c.92,1.35,1.09,3,1.68,4.4a12.78,12.78,0,0,0-5.74,1.79c-.31-1-.73-2.23-1-3.46-.15-.65-.23-1.46.53-1.89S22.38,129.61,23,130.32ZM24.18,132c.58-.41,1.65-.09,1.85-1,.13-.63-.53-1-1.12-1.07A1.12,1.12,0,0,0,23.58,131C23.56,131.37,23.55,131.86,24.18,132Zm-2.91.87c.5-.15,1-.32,1.44-.43.84-.19.62-.62.25-1a1,1,0,0,0-1.25-.24C21,131.52,21.1,132.15,21.27,132.84Z"/><path class="cls-7" d="M8.77,104l-.13,2.32c-2-.1-3.89-.64-5.91,0l.13-2.51a2,2,0,0,0,1.73.52c.29,0,.71.19.83-.17a.84.84,0,0,0-.49-1c-.46-.28-1-.48-1.44-.75A1.23,1.23,0,0,1,3,100.73a.86.86,0,0,1,1-.55.76.76,0,0,1,.64.74c0,.5-.36.61-.78.66a2.45,2.45,0,0,0-.5.2c.45.73,1.26.75,1.83,1.15.19.13.37,0,.47-.16.6-1.26,2.13-1.34,3-2.33.23-.27,1-.09,1.56,0a2.08,2.08,0,0,0-1.45,1.66c-.1.59-.61.66-1,.89-.61.38-1.26.7-2.11,1.17A3.22,3.22,0,0,0,8.77,104Z"/><path class="cls-9" d="M4.56,86l.56-2.64a2.43,2.43,0,0,0,1.59.79c.55.14,1,.08,1.11-.61s-.09-1-.82-1c-.55,0-1.13-.51-1.76.43l.53-2.71a13.46,13.46,0,0,0,5.74,1.26L11,83.8c-.63-.82-1.59-.68-2.4-.92-.49-.14-.36.41-.45.64s-.34.79.11.9c.81.21,1.63.81,2.58.07l-.52,2.56C9.32,86.15,5.56,85.44,4.56,86Z"/><path class="cls-9" d="M12.1,145.11l-1-2.54a2.19,2.19,0,0,0,1.89-.25c.23-.12.62-.1.59-.45a.84.84,0,0,0-.59-.66,4.8,4.8,0,0,0-1.73-.15A1.3,1.3,0,0,1,10,139.47a1,1,0,0,1,.83-.73.62.62,0,0,1,.69.33.7.7,0,0,1-.28,1c-.63.4-.23.7.17.66.71-.07,1.73.7,2-.86.17-1.06,1.36-1.75,1.68-2.88.08-.26.55-.38.92-.36a5.79,5.79,0,0,1-2.26,4.91,2.65,2.65,0,0,0,2.73-1.12,10.74,10.74,0,0,1,1,2.33C16.12,142.59,12.74,144,12.1,145.11Z"/><path class="cls-9" d="M20,102.69c-1.86,0-3.27-1.18-3.28-2.74a3,3,0,0,1,3.18-2.85A2.87,2.87,0,0,1,23.08,100C23.07,101.64,21.91,102.69,20,102.69Zm-.15-1.86c.85,0,1.4,0,1.94,0a.74.74,0,0,0,.81-.68.75.75,0,0,0-.58-.89A12.32,12.32,0,0,0,18,99a.81.81,0,0,0-.78.74c0,.46.29.7.67.84A6.08,6.08,0,0,0,19.89,100.83Z"/><path class="cls-9" d="M5.93,88.17c1,.09,2,.15,3,.29.34.05.28-.83.75-.24.3.37.45,1,.23,1.18-.94.8-.56,1.61-.28,2.52A1,1,0,0,1,9,93a1.43,1.43,0,0,1-1.59-.41,4.65,4.65,0,0,1-1-2c-.26-1.06-1.06-1-1.83-.84-.46.08-.54.53-.47.93s.38.54.78.34.86-.14,1,.37a.83.83,0,0,1-.33,1,.94.94,0,0,1-1.17-.2,3,3,0,0,1-.55-3C4.19,88.41,4.67,88.15,5.93,88.17Zm.78,1.94a1.74,1.74,0,0,0,.87,1.18.69.69,0,0,0,.86,0,.56.56,0,0,0,.29-.69c-.11-.29-.29-.59-.65-.57S7.17,89.89,6.71,90.11Z"/><path class="cls-7" d="M5.59,110.29c.65.39,1,1,1.57,1,.4.06.84,0,.9-.47s-.2-.85-.75-.8a27.82,27.82,0,0,1-3,.16c-.61,0-.86.48-.7,1.08s.56.49,1,.21a.56.56,0,0,1,.88.21.84.84,0,0,1-.11,1.08.94.94,0,0,1-1.19,0,2.93,2.93,0,0,1-.75-3.65,1.63,1.63,0,0,1,1.18-.67c1.27-.15,2.61.17,3.79-.61.25-.17.41.16.51.35.25.47.37,1.09-.06,1.39-.65.45-.24.73,0,1.09.42.69.84,1.45,0,2s-1.56.11-2.11-.6A4.59,4.59,0,0,1,5.59,110.29Z"/><path class="cls-7" d="M22.83,73.69c.2-1.61,1.19-2.89,1.63-4.28,2,1.74,4.42,2.29,7,2.69C29.32,72,29.17,73.73,28.6,75s-.51,1.49.48,2.7c-.84-.2-1.44-.36-1.74-1.28-.46-1.39-3.1-2.86-4.53-2.73Zm4.88,2.22a12.28,12.28,0,0,1,.54-1.13c.49-.81.38-1.32-.58-1.67a29.87,29.87,0,0,1-3.08-1.34c-.53-.26-.73-.1-.91.42s-.39.81.3,1.08A8.93,8.93,0,0,1,27.71,75.91Z"/><path class="cls-9" d="M41.3,176.91a3.65,3.65,0,0,1-3.43,3.46,2.57,2.57,0,0,1-2.4-2.54,3.7,3.7,0,0,1,3.42-3.37A2.39,2.39,0,0,1,41.3,176.91Zm-.88-.86c0-.79-.52-1.06-1.19-.6a10.7,10.7,0,0,0-2.69,2.84.76.76,0,0,0,.06,1.06.8.8,0,0,0,1.07,0,12,12,0,0,0,2.62-2.75C40.4,176.42,40.39,176.19,40.42,176.05Z"/><path class="cls-9" d="M19.33,106.4c.71-1.47,2.39-1.85,3.34-3,.68,1.78-.31,2.64-1.7,3.33-.37.19-1.09.33-.9.86s.83.18,1.27.18a1.42,1.42,0,0,0,1.43-.69v2.77a10.31,10.31,0,0,0-5.85,0v-2.49a2.22,2.22,0,0,0,1.54.46c1.24,0,1.29-.09.69-1.24Z"/><path class="cls-7" d="M18.23,89.56c1,.81,4.92,1.37,5.95.83l-.47,2.93c-.58-1.19-1.67-.82-2.53-1.06a15.69,15.69,0,0,0-1.94-.32c-.52-.07-1-.11-1.1.65s0,1,.77,1.07a22.13,22.13,0,0,1,3.42.63,1.33,1.33,0,0,1,1,1.86,1,1,0,0,1-1.2.66.73.73,0,0,1-.59-.76c0-.68.52-.65,1-.65.07,0,.14-.06.21-.09-.58-.93-4-1.54-5.23-.88Z"/><path class="cls-7" d="M19.1,86.8A25.3,25.3,0,0,1,20,81.86c.81,1,4.69,1.87,5.82,1.19l-.62,2.86a1.53,1.53,0,0,0-1-.7c-1.25-.27-2.51-.49-3.75-.81-1-.25-.73.56-.91,1s.14.64.59.73c1.06.21,2.12.45,3.17.73.6.17,1.19.43,1.31,1.17s0,1.38-.84,1.54a.8.8,0,0,1-1-.74c-.07-.91.76-.65,1.25-.81-.65-1-3.77-1.73-5-1.19Z"/><path class="cls-7" d="M13.28,81c-.92-.06-1.49-.16-1.9-1-.64-1.31-3.62-2.43-5-2l.65-2.24c.2-.7.39-1.41.55-2a13.39,13.39,0,0,0,7.07,1.69c-1.57.17-1.83,1.32-2.13,2.43S11.85,80.07,13.28,81Zm-1.57-1.51c.12-.35.19-.65.32-.93.51-1.07,0-1.53-1-1.77a25.67,25.67,0,0,1-3-.85c-.61-.22-.64.12-.76.49s-.31.86.32,1A9.82,9.82,0,0,1,11.71,79.45Z"/><path class="cls-7" d="M17.65,155.58c1.81-.68,3.69-1.25,4.79-3.06.21-.35.62-.42,1-.59a.53.53,0,0,0,.13.13,2.27,2.27,0,0,0,.11,2.28c.26.45.78.84.59,1.48-.69-1.21-1.5-1.13-2.5-.34a13.69,13.69,0,0,1-2.1,1.22c-.57.29-.68.57-.34,1.17s.64.47,1.08.18a7,7,0,0,1,3.21-1.26c.86-.07.91-.35.63-1,.79.21,1.26,1.36,2.38.76-.59.44-1,1-1.92.68-1.57-.47-4.41,1-4.8,2.34a44.35,44.35,0,0,1-2.2-4Z"/><path class="cls-9" d="M15.56,151.82a3.15,3.15,0,0,0,1.86-.53c.42-.17.45-.4.26-.79a4.16,4.16,0,0,1-.5-1.66c0-.71.08-1.37.82-1.63a1.54,1.54,0,0,1,1.84.64,27.07,27.07,0,0,1,1.85,3.49,14.36,14.36,0,0,0-5.24,2.58,4.47,4.47,0,0,1-.88-2.11Zm3.71-3.1A1.17,1.17,0,0,0,18,149.8c0,.33,0,.83.49.9s1.85-.9,1.8-1.22C20.18,148.91,19.75,148.76,19.27,148.72Z"/><path class="cls-7" d="M8.31,71.57a9.3,9.3,0,0,1,.94-2.3c.17.64.68.78,1.12,1,.77.46,1.27.37,1.5-.56a1.06,1.06,0,0,1,.12-.2c.73-1.25,1.44-1.65,2.27-1.28s1.09,1.24.59,2.63c-.37,1-.82,2-1.21,2.91a12.74,12.74,0,0,0-5.35-2.26ZM14.37,71a1.31,1.31,0,0,0-1.32-1.23c-.61,0-1.24.49-1.11,1,.21.76,1.16.75,1.83,1C14.14,71.77,14.32,71.33,14.37,71Z"/><path class="cls-7" d="M28.79,141.65c1.87,0,2.78.62,3.1,1.86a2.69,2.69,0,0,1-1.56,3,3.35,3.35,0,0,1-2.65.54,2.36,2.36,0,0,1-1.89-1.84,2.44,2.44,0,0,1,1.08-2.41c.41-.36.71-.41,1,.18s.58,1.09.84,1.65.61.56,1.06.18C31,143.69,30.74,142.45,28.79,141.65ZM27.35,146c.29-.2,1.13,0,1.16-.69,0-.38-.2-1.22-.87-1.15a1.44,1.44,0,0,0-1.3,1.16C26.24,145.87,26.67,146,27.35,146Z"/><path class="cls-7" d="M26.32,77.18a2,2,0,0,1,.8,2.53,2.18,2.18,0,0,1-2.23,1.69,3.62,3.62,0,0,1-3.58-1.89,2.17,2.17,0,0,1,.21-2.5,2.62,2.62,0,0,1,2.56-.75c.47,0,.43.38.35.69a10.24,10.24,0,0,1-.49,1.66c-.38.84,0,1,.73,1,1.53,0,2-.73,1.67-2.46Zm-3.75.25c-.61,0-1.16.16-1.09.68a1.44,1.44,0,0,0,1.41,1.15c.81.08.7-.78.75-1.18C23.72,77.29,22.83,77.74,22.57,77.43Z"/><path class="cls-9" d="M28.29,170.94c-1.56-1.44-1.52-2.35.14-3.69a19,19,0,0,1,1.71-1.4c.38-.24-.36-1.27.68-.89a1.24,1.24,0,0,1,.91,1.62c-.1.43.37.37.64.48.76.28,1.5.66,1.22,1.66s-1.13,1-1.92.85a5.06,5.06,0,0,1-1.53-.53,1.16,1.16,0,0,0-1.54.24,1,1,0,0,0-.12,1.44Zm2.32-2.29c.74,0,1.26-.07,1.35-.76a.55.55,0,0,0-.64-.64A1.67,1.67,0,0,0,30,168.33C29.84,168.69,30.44,168.62,30.61,168.65Z"/><path class="cls-7" d="M32.11,146.94a2.49,2.49,0,0,1,2.56,1.31,2.3,2.3,0,0,1-.24,2.72A3.6,3.6,0,0,1,31,152.51a2.52,2.52,0,0,1-2.16-1.86,1.5,1.5,0,0,1-.06-1c.16-.46.37-.87.9-1a.7.7,0,0,1,.76.41c.3.52,0,.88-.36,1.22s-.68.52-.39,1,.71.31,1.14.15a4.22,4.22,0,0,0,1.39-.82C33.84,149.21,33.82,148.14,32.11,146.94Z"/><path class="cls-9" d="M22,114.76a2.27,2.27,0,0,1,1.61,2.31,2.44,2.44,0,0,1-1.51,2.31c-2.07,1.07-4.43.12-4.82-1.95a1.9,1.9,0,0,1,.63-1.89.82.82,0,0,1,1.25,0,.77.77,0,0,1-.32,1.25,7.05,7.05,0,0,0-.73.35c-.44.3-.37.64,0,.92,1,.7,3.87-.35,4.23-1.53a1.78,1.78,0,0,0-.49-1.7Z"/><path class="cls-7" d="M30,40.42c.49-1.11-.54-1-1-1.15-.76-.26-1.49-.13-1.74.8a5.33,5.33,0,0,0,0,1.16,2.28,2.28,0,0,1,.1-2.95,2.13,2.13,0,0,1,2.75-.44,3.58,3.58,0,0,1,2.31,3.21,2,2,0,0,1-1.29,2c-.95.41-1.72-.1-2.49-.56-.38-.22-.11-.47.05-.66.36-.41.74-.79,1.12-1.18l.2.16c-.43.49-.31.84.24,1.15s.93.65,1.35.22.1-.93-.26-1.32-.59-.93-1.14-.25Z"/><path class="cls-7" d="M39.2,30.38c-.1.44-.94.57-.63,1.09a1.88,1.88,0,0,0,1.82.84,1.16,1.16,0,0,0,1.12-1c.05-.21-.08-.47.15-.65.29,1.62,0,2.4-1,3s-2.05.25-3.12-.84a3.44,3.44,0,0,1-1.14-2.7,2,2,0,0,1,1.49-2,2.63,2.63,0,0,1,2.52.9c.24.22.14.41-.08.57l-1.11.84a1.76,1.76,0,0,0-1.26-1.63.56.56,0,0,0-.72.21c-.33.58.13,1,.36,1.48s.51.52.91.15C38.66,30.45,38.85,30.08,39.2,30.38Z"/><path class="cls-9" d="M8.06,125.63a1.37,1.37,0,0,0-1.62-.09.77.77,0,0,0-.38,1.17c.23.47.57.38.93,0a.63.63,0,0,1,1,0,.74.74,0,0,1,.1,1,.87.87,0,0,1-1,.41,3,3,0,0,1-1.8-2.64,1.74,1.74,0,0,1,1.58-1.84c.79-.15,1.57-.39,2.36-.59.19,0,.44,0,.56-.14s.34-.93.88-.3a1.13,1.13,0,0,1,.13,1.66c-.12.14-.34.2-.23.45l-.23.2a1.52,1.52,0,0,0-2.11.47Z"/><path class="cls-7" d="M5.26,117l5,1.16L6,120.72c1.4-.2,2.91.21,4.1-.86a1.41,1.41,0,0,1,.23,1.08,13.77,13.77,0,0,0-5.75.89c.22-.7-1-1.65.36-2.36.82-.43,1.59-.94,2.47-1.48-.72-.52-1.56-.37-2.21-.73Z"/><path class="cls-7" d="M9.1,95.68l-.19,2.61c-1.65-1-3.46-.68-5.17-.9-.57-.07-.39.85-.2,1.3.09.24.45.38.73.6-1.4.08-1.45,0-1.31-1.25a27.57,27.57,0,0,0,.35-3.12c0-1.2.43-1.51,1.53-1a3.13,3.13,0,0,0-.86.42,1.19,1.19,0,0,0-.33,1.07c.09.46.5.27.77.31,1.07.16,2.15.29,3.23.42A1.5,1.5,0,0,0,9.1,95.68Z"/><path class="cls-9" d="M13.24,132.14c-.57-.37-1.11-.08-1.65.07a25.4,25.4,0,0,0-2.43.77c-.4.16-1.14,0-1.08.76s.53,1.08,1.54,1c-1,.58-1.54.75-1.8-.41a20.81,20.81,0,0,0-1-3.21c-.4-1-.16-1.43.88-1.5.19.26-.14.25-.2.37s-.23.23-.3.36c-.23.39,0,.75.14,1.1s.52.12.77.05c1.08-.31,2.15-.64,3.21-1,.44-.14,1-.22,1-1a7.53,7.53,0,0,1,.85,2.66Z"/><path class="cls-7" d="M31.6,174.13c.38.33.65.84,1.3.24s1.13-1.1.06-1.77c.76-.46.82.77,1.49.31A3.85,3.85,0,0,0,36,170.75l1.77,2c-1.49.32-2.42,1.42-2.19,2.47-1-.42-1.68,0-2.2,1.44a19.52,19.52,0,0,1-2-2.3Z"/><path class="cls-9" d="M30.13,59.13c.92-1.74.89-1.69,2.66-.7,1.13.63,2.08,1.65,3.65,1.74L35,62.45C33.82,60.66,31.93,60,30.13,59.13Z"/><path class="cls-9" d="M5.26,117l0,.27c-.48-.16-1.17.14-1.4-.56a3,3,0,0,1-.2-1.37c.15-.68.7-.07,1.06-.16,1.21-.26,2.45-.4,3.67-.57.37,0,.56-.33.92-.65l.48,2.77c-.84-.71-1.59-.4-2.35-.26s-1.44.23-2.16.34a.13.13,0,0,0,0,.09S5.25,117,5.26,117Z"/><path class="cls-9" d="M33.83,35.78a3.16,3.16,0,0,0,2.07,2,11.24,11.24,0,0,1-1.58,1.69,13,13,0,0,0-4.06-4.16l1.6-1.45c.39.69.75,1.57,1.84,1.71Z"/><path class="cls-9" d="M10.59,66.12,11.37,64a14.58,14.58,0,0,0,5.36,2.47l-.83,2.06a10.35,10.35,0,0,0-5.24-2.29Z"/><path class="cls-9" d="M13.89,148.77l-1-2.17a11.69,11.69,0,0,0,5.27-2.55l.95,2A13,13,0,0,0,13.89,148.77Z"/><path class="cls-9" d="M32.6,32.91l1.45-1.47a17.12,17.12,0,0,0,4.15,4.08l-1.66,1.32A20.36,20.36,0,0,0,32.6,32.91Z"/><path class="cls-7" d="M20.05,54.44a20.36,20.36,0,0,1,2.2,2.71.75.75,0,0,0-.15.16c-1.38-.82-3-.63-4.47-.92a3.61,3.61,0,0,0-2.63,0A6.39,6.39,0,0,1,16.53,54h0a4.06,4.06,0,0,0,3.41.79,1.2,1.2,0,0,0-.06-.2Z"/><path class="cls-9" d="M10.58,124.77l.09.08c1.11,1,1.36,1.69.8,2.32s-1.66.46-2.56-.45a10.24,10.24,0,0,1-.85-1.09l.18-.19c.26.15.51.33.79.46,1,.46,1.37.18,1.32-.93Z"/><path class="cls-9" d="M19.15,106.59a16.16,16.16,0,0,1-1.69-.77,1.36,1.36,0,0,1-.51-2,.9.9,0,0,1,1-.42.74.74,0,0,1,.64.73c0,.41-.24.61-.63.7-.21,0-.5.07-.51.37s.29.34.48.45c.45.26,1.06.24,1.4.74Z"/><path class="cls-7" d="M30,57.18a1,1,0,0,1-1,1,1,1,0,1,1,0-1.94C29.61,56.21,29.92,56.62,30,57.18Z"/><path class="cls-9" d="M28.48,170.72c.43.15.81.26,1-.39a.63.63,0,0,1,.82-.47.84.84,0,0,1,.65.75.82.82,0,0,1-.61.88,1.92,1.92,0,0,1-2-.55C28.35,170.87,28.42,170.8,28.48,170.72Z"/><path class="cls-7" d="M22.62,57.72a1.67,1.67,0,0,1,.64,1.18,1.12,1.12,0,0,1-1.42,1.21.76.76,0,0,1-.61-.86.62.62,0,0,1,.87-.51c.21,0,.39.28.65.09.16-.39-.18-.63-.28-.95Z"/><path class="cls-7" d="M29,62.83c-.76-.92-.77-1.62,0-2a.9.9,0,0,1,1.08.1.68.68,0,0,1,.25.72c-.11.5-.5.4-.84.35-.93-.13-.29.4-.28.66Z"/><path class="cls-7" d="M24.67,43a.92.92,0,0,1,0-1.5.84.84,0,0,1,1.25,0c.22.2.47.43.28.8a.57.57,0,0,1-.8.24c-.32-.12-.82-.56-.54.33A1.06,1.06,0,0,0,24.67,43Z"/><path class="cls-7" d="M19.28,53.81c-.69-.36-.89-1.57-2.2-1.05l1-1.64c.12,1.18,1,1.72,1.41,2.52Z"/><path class="cls-7" d="M31.22,174.07c-.57-.48-1.44-.94,0-1.66,0,.56-.16,1.1.2,1.52Z"/><path class="cls-7" d="M19.46,53.64a1.68,1.68,0,0,1,.59.8l-.19.18a1.63,1.63,0,0,1-.58-.81Z"/><path class="cls-7" d="M22.47,57.88l-.37-.57a.75.75,0,0,1,.15-.16c.13.19.25.38.37.57Z"/><path class="cls-7" d="M24.82,42.88l.36.58a.85.85,0,0,1-.17.16.89.89,0,0,1-.34-.59A1.06,1.06,0,0,1,24.82,42.88Z"/><path class="cls-9" d="M20.73,64.1l0-.3.1,0-.15.25Z"/><path class="cls-7" d="M19.08,86.79s0,0-.07.06,0,0-.06,0l.15,0Z"/><polygon class="cls-9" points="13.22 132.16 13.25 132.2 13.24 132.14 13.22 132.16"/><path class="cls-9" d="M16.37,136.57l-.09-.08s.07-.07.09-.06.06,0,.09.07Z"/><path class="cls-7" d="M26.34,77.16h-.18l.05-.14.11.16Z"/><path class="cls-9" d="M46.6,180.92c0-.08-.11-.22-.1-.22s.17,0,.21.11Z"/><path class="cls-7" d="M22.81,73.66l-.11.16,0-.14h.17Z"/><path class="cls-7" d="M8.29,71.55v.16H8.2l.11-.14Z"/><path class="cls-9" d="M15.57,151.81h-.16l0-.14.11.15Z"/><path class="cls-7" d="M23.77,151.84l.09-.14a.17.17,0,0,1,0,.07l-.1,0Z"/><path class="cls-7" d="M23.4,151.93l.37-.09,0,0-.22.24A.53.53,0,0,1,23.4,151.93Z"/><path class="cls-7" d="M17.67,155.56l-.14-.13.1,0,0,.17Z"/><path class="cls-9" d="M10.66,66.2l-.13.17s-.08-.07-.07-.08a1,1,0,0,1,.13-.17Z"/><path class="cls-7" d="M27.23,160h0Z"/><path class="cls-7" d="M29.64,63.1l.21.25-.19.15-.23-.23Z"/><path class="cls-7" d="M16.53,54h0Z"/><path class="cls-7" d="M21.18,161.18l-.08-.06s0,0,0-.06l.06.14Z"/><path class="cls-7" d="M29.43,63.27,29.2,63l.21-.17.23.24Z"/><path class="cls-7" d="M29.82,163.77l.15.07H29.9s0-.06-.07-.09Z"/><path class="cls-7" d="M29.2,63l-.2-.2a1.63,1.63,0,0,0,.17-.2l.24.23Z"/><path class="cls-9" d="M33.7,35.59c.09,0,.26-.07.27-.05s0,.2-.14.24Z"/><path class="cls-7" d="M28,46.77l.13-.15,0,.1-.17,0Z"/><path class="cls-7" d="M29.6,44.42l.14-.15c.1.12.06.2-.07.25Z"/><path class="cls-7" d="M29.82,40.66l.22-.24.17.2-.19.2Z"/><path class="cls-9" d="M21.87,114.86c-.08,0-.2,0-.12-.17s.15,0,.24.07Z"/><path class="cls-7" d="M31.42,174.33l-.2-.26.19-.14.19.2Z"/><path class="cls-10" d="M123.22,18.44a10.47,10.47,0,0,1,.41,4.93,14.57,14.57,0,0,1-2,7,1.85,1.85,0,0,1-1.81,1c-1.48-.06-3,0-4.44,0-.39,0-.91.19-1-.45l1.15-.41c.17-.09.44,0,.5-.31h0c.26,0,.57.1.72-.24h0c.25-.07.72.16.58-.43a.49.49,0,0,0,.71,0,1.13,1.13,0,0,0,.09-1.64c-.46-.47-1.11-.21-1.58.25-.34,0-.45.12-.43.43a22.46,22.46,0,0,1-5.72,3.14c-.3.12-.42.13-.29-.26.21-.62,1-.94.92-1.73-.47,0-.58.73-1.13.4,0-.55.62-.94.56-1.57-.43.12-.39.57-.66.76L104.24,29c.11-.33.52-.5.49-.91a1.08,1.08,0,0,0,1.17-.93,1.27,1.27,0,0,0,.85-.31,19.35,19.35,0,0,1,5.2-3,.7.7,0,0,0,.48-.72c0-.48-.13-.84-.68-.9l0-.66c.69-1.07,1.62-.13,2.42-.28a.22.22,0,0,1,.18,0l-.21.44c-.14.09-.24.34-.12.36.69.12.71.58.61,1.17.34-.53.8-.91.86-1.52h0c.31,0,.34-.3.45-.5l.87-1.68.31-.15A15.37,15.37,0,0,1,123.22,18.44Z"/><path class="cls-11" d="M123.22,18.44a15.37,15.37,0,0,0-6.12.94c.13-.68.81-.77,1.22-1.15s.84-.57.92-1.13a10.59,10.59,0,0,1,1.11-4.22,5,5,0,0,1-3.1,2,2.13,2.13,0,0,0-1.56,2.2,14.25,14.25,0,0,0,0,1.6h0c-.6,0-.6.52-.69.93h0c-.25.06-.31.23-.23.46h0c-.49.22-.55.68-.64,1.13-.8.15-1.73-.79-2.42.28l-.68-.27c0-.8-.6-1.32-.92-2a4,4,0,0,1,0-4.07,17.08,17.08,0,0,1,2.37-3.29c1.31-1.35,1.12-2.79-.46-3.72a3.49,3.49,0,0,1-1.28-1c.35-.81,1.14-.38,1.7-.59s1.42.31,1.81-.58A17.35,17.35,0,0,1,121,12.74,15,15,0,0,1,123.22,18.44Z"/><path class="cls-12" d="M114.3,6.05c-.39.89-1.22.35-1.81.58s-1.35-.22-1.7.59a.5.5,0,0,0-.5.31l-.44-.28c-.13-.86-.76-.94-1.44-.93h0c0-.56-.34-.52-.72-.47h0c0-.56-.33-.53-.71-.49v0c0-.55-.34-.52-.7-.51l-.23-.15c-.42-.88-1.18-1.1-2.28-.57-1.82.88-3.61,1.8-5.41,2.7-1,.51-2,1-3.28.43-.43-.19-1.32-.53-1.61.46l-.92.49c-.27-.55-.66,0-1-.1-.65-1-1.6-.54-2.38-.37a3.53,3.53,0,0,1-2.56-.34A22.74,22.74,0,0,1,98.41,2.53a24.21,24.21,0,0,1,13,1.87A14.8,14.8,0,0,1,114.3,6.05Z"/><path class="cls-11" d="M86.66,7.44a3.53,3.53,0,0,0,2.56.34c.78-.17,1.73-.59,2.38.37a8.47,8.47,0,0,1-2.07,1.27c-1,.58-2.16,1.05-2.47,2.42-.1.46,0,.93-.15,1.37-.3,1.25.34,3-1.84,3.26-1.68.19-2.32,1.35-2.65,2.92-.6,2.82-1.35,5.61-2,8.42a13.75,13.75,0,0,1-1.11-7.26A18.52,18.52,0,0,1,83.61,10.3,14.26,14.26,0,0,1,86.66,7.44Z"/><path class="cls-8" d="M80.38,27.81c.69-2.81,1.44-5.6,2-8.42.33-1.57,1-2.73,2.65-2.92,2.18-.25,1.54-2,1.84-3.26.1-.44,0-.91.15-1.37.31-1.37,1.44-1.84,2.47-2.42A8.47,8.47,0,0,0,91.6,8.15c.32.09.71-.45,1,.1A19.66,19.66,0,0,1,90,9.65c-2.11.78-2.8,2.31-2.82,4.43s-.09,2.19-2.24,2.86c-1,.31-1.74.71-2,1.84-.64,3-1.35,5.89-2,8.84a2.76,2.76,0,0,0,.15,2.25L81,30C80,29.49,80.54,28.55,80.38,27.81Z"/><path class="cls-10" d="M108.53,34.61c.3.28.7.48.79,1-.33.08-.42-.19-.56-.34-.55-.55-.85-.43-1.21.24-1.17,2.16-2.4,4.3-3.62,6.43-.26.46-.59.88-1.25.67a1.4,1.4,0,0,1,.46-1.25c1.18-1.11,1.19-2.88,2.37-4,.37-.34.08-1.21.88-1.34,1.3-1.75,1.89-4,3.59-5.86,0,1-.82,1.42-.58,2.15h0c-.84.33-.93,1.24-1.38,1.87C107.77,34.48,108.17,34.63,108.53,34.61Z"/><path class="cls-2" d="M109.4,32.27c-.24-.73.6-1.11.58-2.15-1.7,1.89-2.29,4.11-3.59,5.86-.28-.78.61-1.2.6-2l-6.25,2.67-.11-.24,2.49-1.22a12.21,12.21,0,0,1,1.68-.79c2.62-.79,3.77-2.94,4.88-5.14.27-.19.23-.64.66-.76.06.63-.51,1-.56,1.57.55.33.66-.44,1.13-.4.09.79-.71,1.11-.92,1.73-.13.39,0,.38.29.26C110.24,32.19,109.77,32.17,109.4,32.27Z"/><path class="cls-8" d="M96.22,32.56c-.86-.2-1.42-.93-2.22-1.25a1.53,1.53,0,0,0-1.83.18c-.2.18-.45.31-.65.49a4.2,4.2,0,0,1-5.33.63,36.86,36.86,0,0,0-3.9-1.56c-.54-.21-1.1-.43-1.3-1.07a.69.69,0,0,0,.13-.11A18.26,18.26,0,0,0,85,31.62c4,1.58,3.34,2.18,7.27-.79a1,1,0,0,1,1.14-.24,7.65,7.65,0,0,1,2.91,1.83Z"/><path class="cls-7" d="M109.4,32.27c.37-.1.84-.08.88-.64A22.23,22.23,0,0,0,116,28.49h.1l.09,0,0,.25c0,.25-.23.55.19.67l.23.49h0c-.28,0-.55,0-.72.24h0c-.24,0-.48,0-.5.31l-1.15.41-.46.24-.24.2c-1.42.21-2.59,1.12-4,1.42l-.22-.46Z"/><path class="cls-8" d="M101.74,31.17c-.85,1.37-1.63,2.79-2.58,4.09-.44.6-1.16.39-1.55-.23s-.78-1.49-1.16-2.24l.13-.13a4,4,0,0,1,1.18,1.7c.15.35.29.77.76.78s.51-.42.68-.71a15,15,0,0,1,2.41-3.4Z"/><path class="cls-8" d="M104.73,28.06c0,.41-.38.58-.49.91-.95.61-1.48,1.68-2.5,2.2l-.13-.14a14.18,14.18,0,0,1,3-3Z"/><path class="cls-2" d="M121.87,34.61a4,4,0,0,1-3.92-.19A6.48,6.48,0,0,0,121.87,34.61Z"/><path class="cls-2" d="M109.4,32.26l.22.46c-.6.49-1.31.93-1.09,1.89-.36,0-.76-.13-.51-.48C108.47,33.5,108.56,32.59,109.4,32.26Z"/><path class="cls-2" d="M123.93,32.72a11.33,11.33,0,0,0-.25-3.33A4.29,4.29,0,0,1,123.93,32.72Z"/><path class="cls-10" d="M113.6,31.3l.24-.2C113.8,31.45,113.8,31.45,113.6,31.3Z"/><path class="cls-8" d="M96.45,32.79l-.23-.23.13-.14.23.24Z"/><path class="cls-8" d="M90.11,193.49a3.78,3.78,0,0,0-2.73-2.64c-.46-.09-.58-.46-.73-.83-.53-1.33-1.08-2.67-1.63-4-.18-.43-.33-.91-.81-1.11s-1-.37-1.06.56c-.06,1.47-.5,2.92-.28,4.4,0,.38-.16.39-.4.36a6.63,6.63,0,0,1-2.16-.27,98.78,98.78,0,0,0,1.15-11,12.47,12.47,0,0,1,2.63.19,18.35,18.35,0,0,0-.76,4.58c-.09.62.06.88.71.82,1.92-.18,3,.85,3.6,2.54.33.91.75,1.8,1.15,2.68.16.35.31.84.6,1C90.59,191.36,90.27,192.31,90.11,193.49Z"/><path class="cls-8" d="M98.16,191.52a2.61,2.61,0,0,1-.38.08c-.7,0-1.54.13-2-.2s.06-1.15.08-1.77c.09-2.83.32-5.65.4-8.49,0-1.09.71-.74,1.26-.77s1,0,1,.83c-.18,2.44-.27,4.88-.39,7.32A7.24,7.24,0,0,0,98.16,191.52Z"/><path class="cls-7" d="M88.57,179.9a2.1,2.1,0,0,1,2.1,0,1.12,1.12,0,0,1,.49,1.59.76.76,0,0,1-.89.38.67.67,0,0,1-.58-.74c0-.73-.25-1.24-1.13-1Z"/><path class="cls-7" d="M92.4,181.57c-.16-1.86-.22-1.39,2.78-1.37a5.33,5.33,0,0,0-1.66.37C93.05,180.79,92.8,181.23,92.4,181.57Z"/><path class="cls-7" d="M102.22,182.2a4.68,4.68,0,0,0-1.36-1.48C102.45,180.47,102.45,180.47,102.22,182.2Z"/><path class="cls-5" d="M88.57,179.9v.26l-.39.28a1.59,1.59,0,0,1-.13-.13A.85.85,0,0,1,88.57,179.9Z"/><path class="cls-5" d="M88.17,180.44c-.06.05-.15.15-.17.14s0-.18,0-.27A1.59,1.59,0,0,0,88.17,180.44Z"/><path class="cls-5" d="M87.74,181s-.06-.06-.06-.08,0-.06.07-.08.06.06.06.08S87.76,181,87.74,181Z"/><path class="cls-5" d="M87.28,181.81s.06.06.06.08,0,.05-.07.08-.06-.06,0-.08S87.26,181.83,87.28,181.81Z"/><path class="cls-5" d="M86.87,183.06l-.07.08s0-.06,0-.09,0,0,.07-.07Z"/><path class="cls-5" d="M86.64,183.53a.46.46,0,0,1-.07.07s0,0,0-.08,0,0,.06-.06Z"/><path class="cls-5" d="M86.35,183.92s.05.05,0,.07,0,0-.06.06,0-.05,0-.08S86.32,183.94,86.35,183.92Z"/><path class="cls-5" d="M87.58,181.42l-.08.07s-.06-.05,0-.08,0,0,.07-.08Z"/><path class="cls-8" d="M117.79,191a107.82,107.82,0,0,0-1.21-11,9,9,0,0,1,2.6-.23c-.25,2.1.26,4.12.44,6.15a17.88,17.88,0,0,0,.62,4.49c.18.51-.24.42-.43.45C119.12,190.89,118.43,190.92,117.79,191Z"/><path class="cls-8" d="M109.33,191.77c-2.41-.23-4.35-1.16-5.29-3.55-1.48-3.76,1-7.6,5.39-8.2l-.06.33a4,4,0,0,0-3,3.26,9.09,9.09,0,0,0,.3,5.29,3.38,3.38,0,0,0,2.67,2.49Z"/><path class="cls-8" d="M126.7,190c-2.16.53-2.12.5-3.31-1.14-1-1.33-1.61-2.92-3.08-3.87,1.93-.48,2.7-.19,3.86,1.43Z"/><path class="cls-7" d="M123.67,179.37a2.43,2.43,0,0,1,2.16-.4,1.16,1.16,0,0,1,.84,1.25.77.77,0,0,1-.76.74c-.6.06-.8-.34-.89-.84C124.89,179.41,124.28,179.45,123.67,179.37Z"/><path class="cls-7" d="M112.76,180.87l1.28-.2a3.38,3.38,0,0,1,0,1.61Z"/><path class="cls-5" d="M109.33,191.77l0-.38h2.48A4,4,0,0,1,109.33,191.77Z"/><path class="cls-5" d="M109.37,180.35l.06-.33a1,1,0,0,1,1,0A1.15,1.15,0,0,1,109.37,180.35Z"/><path class="cls-5" d="M122.85,181.39a.84.84,0,0,1,0,.94A.81.81,0,0,1,122.85,181.39Z"/><path class="cls-5" d="M111.54,180.28a.47.47,0,0,1-.51,0s0-.13,0-.13C111.24,180.15,111.42,180.09,111.54,180.28Z"/><path class="cls-5" d="M123.22,180.74l-.17.21c0-.06-.1-.13-.09-.19a.87.87,0,0,1,.15-.24Z"/><path class="cls-5" d="M122.74,183.07l-.16.22c0-.07-.09-.14-.08-.19a.84.84,0,0,1,.14-.24Z"/><path class="cls-5" d="M112.31,191.24l-.2.08s0,0-.08-.07a.77.77,0,0,1,.19-.08S112.28,191.21,112.31,191.24Z"/><path class="cls-7" d="M112.61,180.75c-.07,0-.13.06-.19.05s-.08-.07-.11-.11a.41.41,0,0,1,.19-.05S112.57,180.71,112.61,180.75Z"/><path class="cls-8" d="M102.84,197.22v11a19.77,19.77,0,0,1-2.38.06,95,95,0,0,0-.06-10.81c0-.39,0-.47.34-.46l2.1.06Z"/><path class="cls-8" d="M107.52,197.06l2.65-.12a20.32,20.32,0,0,0-.28,5.59,25,25,0,0,0,.22,5.65h-2.6a92.25,92.25,0,0,0,0-11Z"/><path class="cls-7" d="M107.52,197.06v.09l-4.68.07V197Z"/><path class="cls-8" d="M83.07,206.8c-2.23,0-2.2,0-2.94-1.9a19.83,19.83,0,0,0-1.84-4.38,2.54,2.54,0,0,1,3,1.75C81.9,203.74,82.46,205.23,83.07,206.8Z"/><path class="cls-8" d="M83.1,195.73c.9-.23,1.66-.25,2.2.53a1,1,0,0,1,.07,1.19.79.79,0,0,1-.88.4c-.51-.1-.66-.47-.63-.94A1.2,1.2,0,0,0,83.1,195.73Z"/><path class="cls-8" d="M82.89,195.89a.9.9,0,0,1-.12.1.1.1,0,0,1-.09,0c-.1,0-.1-.1,0-.11A.72.72,0,0,1,82.89,195.89Z"/><path class="cls-8" d="M94.05,196.82a5.61,5.61,0,0,1,3.58,6.34c-.48,2.72-2.47,4.71-4.79,4.79C95.52,205.2,96,200,93.9,197Z"/><path class="cls-8" d="M89.17,207.61a5.77,5.77,0,0,1-3.37-6.7,5.28,5.28,0,0,1,4.77-4.35c-2.7,2.56-3.23,7.8-1.1,10.8Z"/><path class="cls-5" d="M92.54,208.05a2.23,2.23,0,0,1-1.61,0Z"/><path class="cls-8" d="M93.9,197l-.36-.18a.42.42,0,0,1,.51,0Z"/><path class="cls-8" d="M89.47,207.36l.27.31c-.21.18-.39.06-.57-.06Z"/><path class="cls-5" d="M90,207.83a.64.64,0,0,1,.18-.06s.07.08.1.12-.12.07-.18.06S90.05,207.87,90,207.83Z"/><path class="cls-8" d="M130.33,206.41c-4.11.81-7-1-7.57-4.54a6,6,0,0,1,5-6.75c-3.19,2-2.93,4.86-2.11,7.79C126.3,205.21,127.67,206.67,130.33,206.41Z"/><path class="cls-7" d="M131.19,195.15a1.33,1.33,0,0,0,1.29-.23,4.45,4.45,0,0,1,.26,1.87,7.41,7.41,0,0,0-1.7-1.41Z"/><path class="cls-5" d="M128.55,194.9h1.7a3.14,3.14,0,0,1-1.71.17A.25.25,0,0,0,128.55,194.9Z"/><path class="cls-8" d="M128.55,194.9a.25.25,0,0,1,0,.17l-.56,0C128.12,194.76,128.36,195,128.55,194.9Z"/><path class="cls-5" d="M131.19,195.15l-.15.23c-.14,0-.3,0-.24-.23C130.81,195.11,131.05,195.15,131.19,195.15Z"/><path class="cls-8" d="M114,207a50.89,50.89,0,0,0-.53-6c-.17-.81.41-.7.72-.64s1.24-.63,1.31.46c.11,1.75.19,3.5.29,5.25a1.85,1.85,0,0,0,0,.58c.39.88.19,1.25-.84,1.29C114.1,208,113.54,208,114,207Z"/><path class="cls-8" d="M120.83,207.44c-2,.2-2,.19-2.14-1.68a36.08,36.08,0,0,0-.59-5.77c.67,0,1.39-.2,1.88,0s.15,1.09.24,1.67C120.52,203.58,120.33,205.51,120.83,207.44Z"/><path class="cls-7" d="M118.1,204c0,.84,0,1.69,0,2.53a.76.76,0,0,1-.57.87.85.85,0,0,1-.86-.18c-.39-.31-.24-.67,0-1,.38-.75.75-1.51,1.12-2.26Z"/><path class="cls-1" d="M187.42,108.76a15.82,15.82,0,0,1-1.83-.27c-.49-.12-1-.34-.91-1a1.11,1.11,0,0,1,1.23-1c.69,0,1.38.14,2.08.16s1.33.27,1.41,1-.73.82-1.29,1A3.11,3.11,0,0,1,187.42,108.76Z"/><path class="cls-1" d="M192.05,79.14c-.5,0-.94-.06-1-.61s.22-.79.64-1a13.55,13.55,0,0,1,3.46-1,.87.87,0,0,1,1,.55c.16.5-.2.81-.6,1A12.13,12.13,0,0,1,192.05,79.14Z"/><path class="cls-1" d="M174.12,167.58c-.13-.14-.21-.29-.09-.47l.32.21C174.28,167.41,174.2,167.49,174.12,167.58Z"/><path class="cls-1" d="M184.75,113.93c.34.33,1.34-.27,1.34.7a1.09,1.09,0,0,1-1.2,1.16,1.23,1.23,0,0,1-1.25-1.28C183.6,113.8,184.19,113.92,184.75,113.93Z"/><path class="cls-1" d="M187.52,114.35c.34.24,1.2-.35,1.15.6a.93.93,0,0,1-1.13.89,1,1,0,0,1-.95-1.09C186.57,113.9,187.14,114.41,187.52,114.35Z"/><path class="cls-1" d="M148.22,192.54c.11,1-.39,1.56-.87,1.46-.82-.16-.92-1.13-1.17-1.8-.19-.51.5-.56.8-.56A1.22,1.22,0,0,1,148.22,192.54Z"/><path class="cls-1" d="M195.75,113.88c.33.26,1.21-.41,1.11.62a1.15,1.15,0,0,1-1.16,1.2c-.66,0-1.46-.77-1.33-1.34C194.55,113.52,195.23,114,195.75,113.88Z"/><path class="cls-1" d="M198.37,114.13c.37.17,1.07-.29,1.08.5a1,1,0,0,1-2.09,0C197.34,113.74,198,114.28,198.37,114.13Z"/><path class="cls-1" d="M180.19,135.3c-.8-.43-1.75-.26-1.8-1.33,0-.33.17-.65.54-.61C179.92,133.48,180,134.28,180.19,135.3Z"/><path class="cls-1" d="M167.21,31.4A2.15,2.15,0,0,1,167,32a15,15,0,0,1-2.29,2.61c-.37.31-.84.53-1.27.15s-.3-.85,0-1.26a10.71,10.71,0,0,1,2.42-2.65C166.57,30.32,167.18,30.57,167.21,31.4Z"/><path class="cls-1" d="M189.74,73c-.38,0-.7-.07-.81-.49a.78.78,0,0,1,.32-.92,9.31,9.31,0,0,1,3.78-1.4.71.71,0,0,1,.86.43c.18.44-.06.74-.36,1A12.39,12.39,0,0,1,189.74,73Z"/><path class="cls-1" d="M186.68,154.05c-.06.63-.43.94-1,.76a9.07,9.07,0,0,1-3.62-2.23.7.7,0,0,1,.52-1.23,9,9,0,0,1,3.93,2.3A2.88,2.88,0,0,1,186.68,154.05Z"/><path class="cls-1" d="M191.12,143.44a12.1,12.1,0,0,1-3.54-1.53.78.78,0,0,1-.28-1,.72.72,0,0,1,.87-.4,11.74,11.74,0,0,1,3.71,1.55.77.77,0,0,1,.29,1C192,143.44,191.65,143.45,191.12,143.44Z"/><path class="cls-1" d="M164.52,178.89c-.48-.52-.82-.86-1.13-1.23a.64.64,0,0,1,.2-1.06c.49-.29.83,0,1,.44A3.45,3.45,0,0,1,164.52,178.89Z"/><path class="cls-1" d="M180.89,46.78c.53,0,.87.14.84.62a1.48,1.48,0,0,1-1.19,1.37c-.41.07-.93-.68-.9-1.13C179.68,47,180.44,47,180.89,46.78Z"/><path class="cls-1" d="M198.3,94.5c.55.12,1.39,0,1.36.86s-.77.71-1.34.81c-.75.14-.71-.33-.72-.82S197.53,94.37,198.3,94.5Z"/><path class="cls-1" d="M188,100.83c-.06-.49,0-.83.65-.74s1.39.18,1.39.91-.75.69-1.33.76C187.91,101.85,188,101.35,188,100.83Z"/><path class="cls-1" d="M197.56,122.61c-.43-.24-1.21,0-1.08-.76.06-.4-.1-1.2.64-1.1s1.38.26,1.42,1.11C198.57,122.52,197.94,122.43,197.56,122.61Z"/><path class="cls-1" d="M180.44,54.8l-.57-.82c-.21-.48-.5-.88.43-.92a7,7,0,0,0,3.27-1.34c.33-.19.61-.52,1-.12.63.73.43,1.22-.39,1.66s-1.69,1.07-2.53,1.61C181.23,55.14,180.82,55.3,180.44,54.8Z"/><path class="cls-1" d="M25,139.82a1.36,1.36,0,0,1-1.18-.76c-.2-.49.18-.81.52-1.05a6.59,6.59,0,0,1,3-1.24c.45-.06.91,0,1.09.44a1,1,0,0,1-.34,1.26C27.06,139,26,139.38,25,139.82Z"/><path class="cls-1" d="M14.63,59.56A6.21,6.21,0,0,1,18,61.23a.66.66,0,0,1,.09.94,1,1,0,0,1-1.23.43,28.6,28.6,0,0,1-2.57-1.35,1,1,0,0,1-.49-1.2C13.9,59.66,14.23,59.54,14.63,59.56Z"/><path class="cls-1" d="M26.26,165.19a.76.76,0,0,1-.08.16l-.25-.11.17-.14C26.19,165,26.25,165.07,26.26,165.19Z"/><path class="cls-1" d="M24.18,132c-.63-.11-.62-.6-.6-1a1.12,1.12,0,0,1,1.33-1.11c.59,0,1.25.44,1.12,1.07C25.83,131.88,24.76,131.56,24.18,132Z"/><path class="cls-1" d="M21.27,132.84c-.17-.69-.32-1.32.44-1.72a1,1,0,0,1,1.25.24c.37.43.59.86-.25,1C22.23,132.52,21.77,132.69,21.27,132.84Z"/><path class="cls-1" d="M19.89,100.83a6.08,6.08,0,0,1-2-.26c-.38-.14-.7-.38-.67-.84A.81.81,0,0,1,18,99a12.32,12.32,0,0,1,4.06.27.75.75,0,0,1,.58.89.74.74,0,0,1-.81.68C21.29,100.84,20.74,100.83,19.89,100.83Z"/><path class="cls-1" d="M6.71,90.11c.46-.22.92,0,1.37,0s.54.28.65.57a.56.56,0,0,1-.29.69.69.69,0,0,1-.86,0A1.74,1.74,0,0,1,6.71,90.11Z"/><path class="cls-1" d="M27.71,75.91A8.93,8.93,0,0,0,24,73.27c-.69-.27-.47-.61-.3-1.08s.38-.68.91-.42a29.87,29.87,0,0,0,3.08,1.34c1,.35,1.07.86.58,1.67A12.28,12.28,0,0,0,27.71,75.91Z"/><path class="cls-1" d="M40.42,176.05c0,.14,0,.37-.13.5a12,12,0,0,1-2.62,2.75.8.8,0,0,1-1.07,0,.76.76,0,0,1-.06-1.06,10.7,10.7,0,0,1,2.69-2.84C39.9,175,40.41,175.26,40.42,176.05Z"/><path class="cls-1" d="M11.71,79.45a9.82,9.82,0,0,0-4.12-2c-.63-.15-.46-.58-.32-1s.15-.71.76-.49a25.67,25.67,0,0,0,3,.85c1,.24,1.51.7,1,1.77C11.9,78.8,11.83,79.1,11.71,79.45Z"/><path class="cls-1" d="M24.21,155.8c.28.64.23.92-.63,1a7,7,0,0,0-3.21,1.26c-.44.29-.73.43-1.08-.18s-.23-.88.34-1.17a13.69,13.69,0,0,0,2.1-1.22c1-.79,1.81-.87,2.5.34Z"/><path class="cls-1" d="M19.27,148.72c.48,0,.91.19,1,.76.05.32-1.35,1.28-1.8,1.22s-.52-.57-.49-.9A1.17,1.17,0,0,1,19.27,148.72Z"/><path class="cls-1" d="M14.37,71c0,.37-.23.81-.6.69-.67-.21-1.62-.2-1.83-1-.13-.47.5-1,1.11-1A1.31,1.31,0,0,1,14.37,71Z"/><path class="cls-1" d="M27.35,146c-.68,0-1.11-.09-1-.68a1.44,1.44,0,0,1,1.3-1.16c.67-.07.89.77.87,1.15C28.48,146,27.64,145.76,27.35,146Z"/><path class="cls-1" d="M22.57,77.43c.26.31,1.15-.14,1.07.65-.05.4.06,1.26-.75,1.18a1.44,1.44,0,0,1-1.41-1.15C21.41,77.59,22,77.4,22.57,77.43Z"/><path class="cls-1" d="M30.61,168.65c-.17,0-.77,0-.66-.32a1.67,1.67,0,0,1,1.37-1.08.55.55,0,0,1,.64.64C31.87,168.58,31.35,168.7,30.61,168.65Z"/><path class="cls-1" d="M30,40.82l.19-.2c.55-.68.82-.09,1.14.25s.66.91.26,1.32-.91,0-1.35-.22S29.59,41.31,30,40.82Z"/><path class="cls-1" d="M39.2,30.38c-.35-.3-.54.07-.72.23-.4.37-.7.27-.91-.15s-.69-.9-.36-1.48a.56.56,0,0,1,.72-.21,1.76,1.76,0,0,1,1.26,1.63Z"/><path class="cls-1" d="M10.35,125c.05,1.11-.35,1.39-1.32.93-.28-.13-.53-.31-.79-.46A1.52,1.52,0,0,1,10.35,125Z"/><path class="cls-2" d="M115.73,18.69a14.25,14.25,0,0,1,0-1.6,2.13,2.13,0,0,1,1.56-2.2,5,5,0,0,0,3.1-2,10.59,10.59,0,0,0-1.11,4.22c-.08.56-.56.79-.92,1.13s-1.09.47-1.22,1.15l-.3.15C116.86,18.71,116.56,18.36,115.73,18.69Z"/><path class="cls-7" d="M115.73,18.69c.83-.33,1.13,0,1.07.84-.3.56-.59,1.12-.88,1.68-.38-.05-.61.05-.45.5h0c-.45.11-.91.34-1.35,0l.21-.44c.28-.35.62-.66.46-1.17h0c.37,0,.41-.18.23-.46h0c.55-.07.61-.5.69-.93Z"/><path class="cls-8" d="M111.75,22.17c.55.06.69.42.68.9a.7.7,0,0,1-.48.72,19.35,19.35,0,0,0-5.2,3,1.27,1.27,0,0,1-.85.31l-.08-.09a27,27,0,0,1,5.5-3.6c.64-.33.82-.63.37-1.21Z"/><path class="cls-2" d="M116.43,28.06c.47-.46,1.12-.72,1.58-.25a1.13,1.13,0,0,1-.09,1.64.49.49,0,0,1-.71,0,1.81,1.81,0,0,0-.57-1.16l.34-.22-.56-.05Z"/><path class="cls-5" d="M116.64,28.33a1.81,1.81,0,0,1,.57,1.16c.14.59-.33.36-.58.43-.07-.16-.15-.33-.23-.49s0-.5-.19-.67l0-.25h0a.25.25,0,0,0,.25-.25h0Z"/><path class="cls-2" d="M114.11,21.71c.44.35.9.12,1.35,0-.06.61-.52,1-.86,1.52.1-.59.08-1-.61-1.17C113.87,22.05,114,21.8,114.11,21.71Z"/><path class="cls-8" d="M105.9,27.13a1.08,1.08,0,0,1-1.17.93l-.07-.07a3.33,3.33,0,0,1,1.16-.95Z"/><path class="cls-2" d="M114.78,20.1c.16.51-.18.82-.46,1.17a.22.22,0,0,0-.18,0C114.23,20.78,114.29,20.32,114.78,20.1Z"/><path class="cls-8" d="M111,21.24l.68.27,0,.66-.06.06a2,2,0,0,1-.72-.92Z"/><path class="cls-5" d="M115.93,30.15c.17-.28.44-.27.72-.24C116.5,30.25,116.19,30.12,115.93,30.15Z"/><path class="cls-2" d="M115.47,21.71c-.16-.45.07-.55.45-.5C115.81,21.41,115.78,21.69,115.47,21.71Z"/><path class="cls-2" d="M116.18,28.51l-.09,0H116c0-.31.1-.48.44-.43h0a.55.55,0,0,1,0,.22h0l-.25.25Z"/><path class="cls-5" d="M115.45,30.45c0-.33.26-.31.5-.31C115.89,30.43,115.62,30.36,115.45,30.45Z"/><path class="cls-8" d="M110.29,7.53a.5.5,0,0,1,.5-.31,3.49,3.49,0,0,0,1.28,1c1.58.93,1.77,2.37.46,3.72a17.08,17.08,0,0,0-2.37,3.29,4,4,0,0,0,0,4.07c.32.65.92,1.17.92,2l-.07.07c-2.25-2.72-2.42-4.36-.71-7.16a21.88,21.88,0,0,1,2.18-2.89c.88-1,.79-1.76-.3-2.52C111.54,8.32,110.91,7.93,110.29,7.53Z"/><path class="cls-2" d="M115.71,18.69c-.08.43-.14.86-.69.93C115.11,19.21,115.11,18.73,115.71,18.69Z"/><path class="cls-2" d="M115,19.63c.18.28.14.45-.23.46C114.7,19.86,114.76,19.69,115,19.63Z"/><path class="cls-13" d="M110.29,7.53c.62.4,1.25.79,1.85,1.21,1.09.76,1.18,1.51.3,2.52a21.88,21.88,0,0,0-2.18,2.89c-1.71,2.8-1.54,4.44.71,7.16a2,2,0,0,0,.72.92c.45.58.27.88-.37,1.21a27,27,0,0,0-5.5,3.6,3.33,3.33,0,0,0-1.16.95,14.18,14.18,0,0,0-3,3,15,15,0,0,0-2.41,3.4c-.17.29-.25.72-.68.71s-.61-.43-.76-.78a4,4,0,0,0-1.18-1.7l-.23-.24a7.65,7.65,0,0,0-2.91-1.83,1,1,0,0,0-1.14.24c-3.93,3-3.3,2.37-7.27.79a18.26,18.26,0,0,1-3.91-1.75A2.76,2.76,0,0,1,81,27.62c.68-2.95,1.39-5.88,2-8.84.24-1.13,1-1.53,2-1.84,2.15-.67,2.22-.7,2.24-2.86s.71-3.65,2.82-4.43a19.66,19.66,0,0,0,2.54-1.4l.92-.49a2.56,2.56,0,0,1,2.24.1,1.39,1.39,0,0,0,1.42,0c2.08-1,4.22-2,6.28-3a2.63,2.63,0,0,1,2.64-.07l.23.15a1.34,1.34,0,0,0,.7.51v0a1.19,1.19,0,0,0,.71.49h0a1.18,1.18,0,0,0,.72.47h0a4.4,4.4,0,0,0,1.44.93ZM97.88,8.68l4.41,1.77c.33.13.75.29.58.71s-.6.16-.89.05c-1.78-.69-3.59-1.31-5.31-2.12a3.33,3.33,0,0,0-3.68.2,15,15,0,0,1-2.87,1.55,2.85,2.85,0,0,0-1.79,3,7.6,7.6,0,0,1,0,1.17c-.16.94.3,1.05,1,.84a5.26,5.26,0,0,1,2.09-.13c.32,0,.62.22.59.6s-.4.26-.65.29l-2.31.28a.86.86,0,0,0-.87,1c0,1.21-.06,2.42-.13,3.63,0,.37.21,1-.5.94-.56,0-.61-.51-.59-1,.05-1.09.11-2.18.15-3.27,0-.23.18-.55-.21-.68A4.05,4.05,0,0,0,84.12,19c-.73,3.15-1.42,6.3-2.19,9.44-.19.8.07,1.13.77,1.39,1.35.5,2.68,1.06,4,1.61,1.92.78,3,.48,4.35-1.24a1,1,0,0,0-.79-.11c-.46.06-1,0-1-.51s.65-.55,1-.47c1,.24,1.39-.23,1.5-1.15a8.43,8.43,0,0,1,.36-1.35c.86-2.89,2.82-5,5-6.85.37-.32.69-.35,1,0s0,.62-.28.85-.51.48-.78.71a12.84,12.84,0,0,0-4.34,7c-.18.71-.2,1.12.69,1.4a8.89,8.89,0,0,1,4.23,2.81c.22.26.35.9.8.64s.45-.83.23-1.37a6.79,6.79,0,0,0-2.45-3.19c-.29-.19-.71-.41-.42-.81s.63,0,.91.15a8.34,8.34,0,0,1,2.88,3.53,32.6,32.6,0,0,1,10.4-8.62c.48-.26.61-.44.23-.93a11.26,11.26,0,0,1-2.1-3.88c-.15-.52-.4-.52-.85-.37a16,16,0,0,0-6.27,3.48c-.35.33-.71.92-1.25.4s.14-.89.44-1.18a16.74,16.74,0,0,1,6.92-3.73c.41-.13.84-.16,1-.68a14.22,14.22,0,0,1,3.28-5.33c.56-.64.63-1-.21-1.51a45.9,45.9,0,0,1-5.39-3.49,1,1,0,0,0-1.08-.28Z"/><path class="cls-8" d="M106.08,4.74a2.63,2.63,0,0,0-2.64.07c-2.06,1.07-4.2,2-6.28,3a1.39,1.39,0,0,1-1.42,0,2.56,2.56,0,0,0-2.24-.1c.29-1,1.18-.65,1.61-.46,1.24.58,2.24.08,3.28-.43,1.8-.9,3.59-1.82,5.41-2.7C104.9,3.64,105.66,3.86,106.08,4.74Z"/><path class="cls-8" d="M109.85,7.25a4.4,4.4,0,0,1-1.44-.93C109.09,6.31,109.72,6.39,109.85,7.25Z"/><path class="cls-8" d="M107,5.4a1.34,1.34,0,0,1-.7-.51C106.67,4.88,107.05,4.85,107,5.4Z"/><path class="cls-8" d="M108.42,6.33a1.18,1.18,0,0,1-.72-.47C108.08,5.81,108.44,5.77,108.42,6.33Z"/><path class="cls-8" d="M107.71,5.87a1.19,1.19,0,0,1-.71-.49C107.38,5.34,107.75,5.31,107.71,5.87Z"/><path class="cls-2" d="M116.21,28.76c.24.17.19.43.19.67C116,29.31,116.18,29,116.21,28.76Z"/><path class="cls-7" d="M116.4,28.28a.55.55,0,0,0,0-.22l.56.05-.34.22Z"/><path class="cls-7" d="M116.17,28.52l.25-.25A.25.25,0,0,1,116.17,28.52Z"/><path class="cls-14" d="M97.88,8.68l6.9-3.3a1,1,0,0,1,1.08.28,45.9,45.9,0,0,0,5.39,3.49c.84.47.77.87.21,1.51A14.22,14.22,0,0,0,108.18,16c-.15.52-.58.55-1,.68a16.74,16.74,0,0,0-6.92,3.73c-.3.29-1.06.59-.44,1.18s.9-.07,1.25-.4a16,16,0,0,1,6.27-3.48c.45-.15.7-.15.85.37A11.26,11.26,0,0,0,110.3,22c.38.49.25.67-.23.93a32.6,32.6,0,0,0-10.4,8.62A8.34,8.34,0,0,0,96.79,28c-.28-.18-.63-.53-.91-.15s.13.62.42.81a6.79,6.79,0,0,1,2.45,3.19c.22.54.23,1.1-.23,1.37s-.58-.38-.8-.64a8.89,8.89,0,0,0-4.23-2.81c-.89-.28-.87-.69-.69-1.4a12.84,12.84,0,0,1,4.34-7c.27-.23.54-.46.78-.71s.64-.43.28-.85-.63-.34-1,0c-2.23,1.88-4.19,4-5,6.85a8.43,8.43,0,0,0-.36,1.35c-.11.92-.47,1.39-1.5,1.15-.35-.08-1-.13-1,.47s.52.57,1,.51a1,1,0,0,1,.79.11c-1.36,1.72-2.43,2-4.35,1.24-1.33-.55-2.66-1.11-4-1.61-.7-.26-1-.59-.77-1.39.77-3.14,1.46-6.29,2.19-9.44a4.05,4.05,0,0,1,2.81-1.48c.39.13.21.45.21.68,0,1.09-.1,2.18-.15,3.27,0,.46,0,.94.59,1,.71,0,.48-.57.5-.94.07-1.21.13-2.42.13-3.63a.86.86,0,0,1,.87-1l2.31-.28c.25,0,.61.1.65-.29s-.27-.56-.59-.6a5.26,5.26,0,0,0-2.09.13c-.75.21-1.21.1-1-.84a7.6,7.6,0,0,0,0-1.17,2.85,2.85,0,0,1,1.79-3A15,15,0,0,0,93,9.29a3.33,3.33,0,0,1,3.68-.2c1.72.81,3.53,1.43,5.31,2.12.29.11.69.45.89-.05s-.25-.58-.58-.71Zm6.81-1a6.64,6.64,0,0,0-3.16.67c-.32.15-.89.2-.7.73s.7.45,1.17.23a5.88,5.88,0,0,1,5.8.06c.28.16.61.35.82,0s-.12-.57-.39-.73A6.16,6.16,0,0,0,104.69,7.68Z"/><path class="cls-13" d="M104.69,7.68a6.16,6.16,0,0,1,3.54,1c.27.16.6.38.39.73s-.54.14-.82,0a5.88,5.88,0,0,0-5.8-.06c-.47.22-1,.36-1.17-.23s.38-.58.7-.73A6.64,6.64,0,0,1,104.69,7.68Z"/></g></g></svg>