<svg xmlns="http://www.w3.org/2000/svg" viewBox="0 0 54.85 52.87"><defs><style>.cls-1{fill:#7c0000;}</style></defs><title>Ресурс 16</title><g id="Слой_2" data-name="Слой 2"><g id="Слой_2-2" data-name="Слой 2"><path class="cls-1" d="M6.63,37.86V36.37q0-14.08,0-28.17c0-4,2-6.87,5.55-7.83A9.91,9.91,0,0,1,14.72,0q16,0,32.08,0c4.92,0,8.38,3.57,8,8.18-.3,3.93-3.52,6.73-7.89,6.84-1.55,0-3.1,0-4.86,0v1.48q0,14,0,28c0,3.3-1.16,6-4.32,7.46a9.68,9.68,0,0,1-3.79.8c-8.65.07-17.3,0-26,0a7.54,7.54,0,0,1-1.38-15Zm2.29,0H33.4c.89,0,2.12-.28,2.24,1.05s-1.12,1.13-2,1.27a5.3,5.3,0,0,0-4.25,6.17,5.24,5.24,0,0,0,6.08,4.18c2.72-.51,4.36-2.67,4.36-5.82,0-11.88,0-23.76,0-35.64A9.89,9.89,0,0,1,41.7,2.49s0-.14-.06-.27H15.21c-4.28,0-6.28,2-6.28,6.32q0,13.85,0,27.68ZM29.05,40H8.68a16,16,0,0,0-2,.1,5.2,5.2,0,0,0-4.46,4.67C2,48.12,4.4,50.62,8,50.64c6.77,0,13.55,0,20.32,0,.22,0,.45,0,.72-.06C26.31,46.56,26.59,43.71,29.05,40ZM42.16,8.79h4.69c1.33,0,1.62.31,1.64,1.67,0,.69,0,1.38,0,2.08a5.07,5.07,0,0,0,4.07-5.69,5.22,5.22,0,0,0-6-4.49A5.41,5.41,0,0,0,42.16,8.79Zm0,2.26v1.7h4v-1.7Z"/><path class="cls-1" d="M24.2,13.23c-2.57,0-5.13,0-7.7,0-.78,0-1.46-.2-1.48-1.06S15.74,11,16.55,11H31.82c.78,0,1.54.17,1.52,1.16s-.78,1.08-1.57,1.08Z"/><path class="cls-1" d="M24.24,21.16H16.65c-.79,0-1.6-.09-1.63-1.06s.81-1.17,1.64-1.17H31.72c.78,0,1.58.08,1.61,1.07s-.82,1.15-1.63,1.16Z"/><path class="cls-1" d="M24.14,29.11H16.67c-.84,0-1.66-.16-1.64-1.18s.81-1.06,1.61-1.06H31.71c.83,0,1.68,0,1.63,1.14s-.9,1.09-1.73,1.09c-2.49,0-5,0-7.47,0Z"/></g></g></svg>