<svg xmlns="http://www.w3.org/2000/svg" xmlns:xlink="http://www.w3.org/1999/xlink" viewBox="0 0 298 637.15"><defs><style>.cls-1{isolation:isolate;}.cls-2{fill:#c0b3bc;}.cls-3{fill:#e8e7e6;}.cls-4{fill:#232121;}.cls-5{fill:#eabcb2;}.cls-6{fill:#fff;}.cls-7{mix-blend-mode:multiply;}.cls-8{fill:url(#linear-gradient);}.cls-9{fill:#f7d8d0;}.cls-10{fill:#5e1c17;}.cls-11{fill:#300901;}.cls-12{fill:#4d87db;}.cls-13{fill:#bfb8b8;}.cls-14{fill:#79a804;}.cls-15{fill:#aace29;}.cls-16{fill:#ce0000;}.cls-17{fill:#3357bc;}</style><linearGradient id="linear-gradient" x1="230.82" y1="145.73" x2="257.25" y2="102.67" gradientTransform="matrix(-1, 0, 0, 1, 389.85, 0)" gradientUnits="userSpaceOnUse"><stop offset="0" stop-color="#fff"/><stop offset="0.64" stop-color="#c6c0b9"/></linearGradient></defs><title>Ресурс 6</title><g class="cls-1"><g id="Слой_2" data-name="Слой 2"><g id="Слой_2-2" data-name="Слой 2"><ellipse class="cls-2" cx="149" cy="591.23" rx="149" ry="45.92"/><path class="cls-3" d="M168,136s8.71-1.32,30.43,3.69c14.68,3.38,6.41,11.46,7.33,19.77S195.19,235,193.35,244.21s14.19,43,2.51,59c-5.46,7.45-35.79-.26-53.17-.1,0-34.15-.67-130.63,1.18-149.08C144.33,149.46,168,136,168,136Z"/><path d="M226,619h.86s23.23-7,12.22-22.25c-6.6-9.16-11.55-30-15.21-34.88s-20.82,8-20.82,8,4.14,16.08,2.44,22C198.18,617.51,226,619,226,619Z"/><path class="cls-4" d="M197.13,288.63c7.48,14.93,15.08,62,15.08,81.95s7.59,66.08,9.79,82.29c1.49,11,20.38,130,20.38,130l-44.82,5s-22.7-120.16-25.2-130.12-19.91-80.9-19.91-80.9-8.14,83.81-3.16,93.77S158,574.75,158,574.75l-37.47,4.59s-5.25-99.31-7.73-124.2-15.07-155.5-15.07-155.5Z"/><path class="cls-4" d="M131.8,562.68c-2.45,9.8-6.82,22.18-18.82,27.62-7,3.2-17.87,11.68-9,16.56,5.69,3.15,15.06,1.51,15.06,1.51s26.49-6.5,33.39-9c13.09-4.72,6.27-15.38,4.89-30.19C156.34,559.15,131.8,562.68,131.8,562.68Z"/><path d="M108,456.09c2.48,24.89,13.25,126.35,13.25,126.35l41.43-4.21s-4.4-95.94-5-107.07c-1.12-23-4.52-91.17-4.52-91.17s15,74.84,17.47,84.8S194.35,588,194.35,588l23.57-3.36c-1.9-18.88-17.7-96.17-23.25-129.35C191.94,439,176.14,333,173.86,301.44l-75.63-2.76S105.53,431.19,108,456.09Z"/><path class="cls-5" d="M127.63,109.41l-3.32,37.23s6.34-2.49,17.72,1.65,22.21-4.07,22-11.94-1.41-24.67-1.41-24.67Z"/><path class="cls-5" d="M163.78,136.14c-.25-7.88-1.1-21.08-1.1-21.08l-15.25-1-2,33.38C156.77,151.16,164,143.92,163.78,136.14Z"/><path class="cls-6" d="M122,138.23S111.73,140.34,92.08,149c-10.38,4.54-9.26,3.33-6.92,11.36,11,37.9,13.91,68.15,15.76,77.38s-7.17,67.05,1.12,78c5.59,7.35,35.48-10.95,66.85-10.49,0-34.14,17.06-144.74,9.38-145C131.79,158.93,122,138.23,122,138.23Z"/><g class="cls-7"><path class="cls-8" d="M119.87,113.33c-2.64-6.71,33.79-.24,42.67,6l3.8,26.88c-5.53-1.88-22,4.45-23.88,2.13C145.3,143.77,124.52,125.1,119.87,113.33Z"/></g><path class="cls-5" d="M165.59,82.9c-2.41-16-7.44-29.11-30.4-25.91-28.71,4-23.82,21.25-21.51,40.88s17.24,39.16,31.89,37.44c11.15-1.33,18.93-14.61,21-29.53,2.82-2,4.58-6.42,4.2-11.35C170.26,88,169.85,82.82,165.59,82.9Z"/><path class="cls-9" d="M112.5,89.77a7.73,7.73,0,0,0-1.3.07c-4.46.89-3.43,6.14-2.17,12.6,1.1,5.61,4.75,9.76,8.62,10.18,5.91,13.45,16.9,23.85,27.75,22.56a13.39,13.39,0,0,0,1.43-.28l-12.07-78C110.3,60.43,110.5,73.66,112.5,89.77Z"/><path class="cls-10" d="M125,54.85C121,53.33,114,56.23,109.74,61.4c-3.68,4.55-3.13,8.13-2.32,16.65a98,98,0,0,0,1.73,12.36l3.54.38,2.88,1.39-.08-7.08s-3.08-6,3.08-13.06,17-5.29,17-5.29Z"/><path class="cls-11" d="M126.84,66.23c3.16,2.86,5.59,3.39,13.11,1.91s15.34,2.2,17.67,5.23,3.87,10.82,3.87,10.82l4.81-1.31,1.65.71s.1-13.67-6.28-22.77C156.84,54,156.48,51.28,147,50c-4.3-.6-19.32-1.86-21.92,4.87C123.81,58,126.84,66.23,126.84,66.23Z"/><path class="cls-12" d="M123.14,128.06c0,1.89,19.22,16.2,21.1,17.71s-.11,3.46-.11,3.46L133.7,151.8l-17-13.19Z"/><path class="cls-3" d="M195.86,260.3c16.95,40.68,13.55,184.21,13.55,189.85-36.16-2.25-113-1.12-113-1.12S80.58,305.5,99.79,262.56C152.15,270.84,195.86,260.3,195.86,260.3Z"/><path class="cls-6" d="M99.41,262.93C80.2,305.87,96,449.4,96,449.4s52.59-.43,85.67-.12c1.46-38.69,6.73-142-6.83-187.87C157.44,263.76,132,268.09,99.41,262.93Z"/><path class="cls-3" d="M156.84,8.38c0-.22-.27-1.78-.27-1.78h-.07C154.12,1.05,140.79-1.5,125.42.9S97.8,9.58,97.3,15.62l0,.3L107.89,83h0c4.74-4.67,15.62-9.09,28.73-11.14,12.91-2,24.45-1.19,30.47,1.69Z"/><path class="cls-6" d="M97.3,15.62l0,.3L107.89,83h0c4.62-4.56,15.08-8.86,27.76-11L125.68.87l-.26,0C110,3.31,97.8,9.58,97.3,15.62Z"/><path class="cls-6" d="M84.05,152.78c-8,3.48-18,52.79-25,101.36-1.28,8.85,30.17,25,30.17,25l11-24.28s-10.31-8.84-10.31-16.21,3.34-33.64,4.79-37.16S84.05,152.78,84.05,152.78Z"/><path class="cls-3" d="M107.24,257.82c-2,2.58-13.06,12.15-7.54,26.49a85.15,85.15,0,0,1-18-4.59s5.52-25.21,17.85-26.5C104.21,252.74,107.24,257.82,107.24,257.82Z"/><path class="cls-13" d="M92.68,255.37c0,3.43,15.68,9.6,36.27,9.82s42.61-4.74,42.64-8.17-21-7.31-41.55-7.5S92.71,251.94,92.68,255.37Z"/><path class="cls-14" d="M113.39,245.15c-5.37-6.7-5.81-9.84-3.13-13.85C122.78,236.65,113.39,245.15,113.39,245.15Z"/><path class="cls-14" d="M114.22,244.74c6.38,5.16-16.55,4-16.55,4S102.59,235.35,114.22,244.74Z"/><path class="cls-14" d="M111.32,253.28c1.34-6.27,6.71-15.67,12.08-16.56C124.74,249.69,111.32,253.28,111.32,253.28Z"/><path class="cls-14" d="M153.9,249.43c-12.07-2.28-9-20.45-2-24.82C167.4,233.45,153.9,249.43,153.9,249.43Z"/><path class="cls-14" d="M151.88,250c1.09-1.82,13.33-16.1,25.08-3C171.59,262.06,151.88,250,151.88,250Z"/><path class="cls-15" d="M124.17,249.36c-5.16-1.47,8.84-18.8,10.3-18.21.92.36-1.06,16.28-2.52,17.75S124.17,249.36,124.17,249.36Z"/><path class="cls-16" d="M158.43,243c0,5.48-3.86,8.84-11.18,7.45-5.79-1.1-8.69-2-8.69-7.45a9.94,9.94,0,1,1,19.87,0Z"/><path class="cls-5" d="M196.9,230.37c-3-.28-28.21,1.09-29.87,1.11s-9.77,5.24-11.07,6.59-2.59,4.36-3.56,6.69c-.51,1.23-1.25,5-.35,5.5,1.13.61,2.69-4.43,3.68-5.55s2.05-3.61,6.35-5.79a18.85,18.85,0,0,0-8.47,12.51c-.3,1.91,1.14,2.57,2.94-1,2.26-4.45,3-5.1,5-6.43a13.27,13.27,0,0,1,4.32-2.07s-5.66,2.6-7.81,6.85c-.61,1.22-2.4,5.42-1.14,5.2A5.08,5.08,0,0,0,160,251.7c2-3.34,3.89-4.06,5.15-5.15a8.23,8.23,0,0,1,3.43-2s-8.9,7.25-8.21,8.58,3.75-.83,7-3.2a21.42,21.42,0,0,1,9.44-3.8c1.65-.15,9.11-3.58,13.08-3.63s15.49-.91,15.49-.91Z"/><path class="cls-6" d="M204.75,141.54c25,30.18,42.87,72.12,39.74,87.21-2.17,10.49-46.6,25.16-50.74,21.56l-9.4-21.49,22.34-15.73-7.53-15.35Z"/><polygon class="cls-6" points="181.71 225.25 190.89 254.52 206.34 252.86 192.46 216.76 181.71 225.25"/><path class="cls-14" d="M132,242.11c1.79-4.93,8-18.22,14.26-17.77C142.2,245.68,132,242.11,132,242.11Z"/><path class="cls-15" d="M130.65,246.58c-6.26-6.27-13.87-13-10.29-21C135.57,233.15,130.65,246.58,130.65,246.58Z"/><path class="cls-15" d="M126.54,233.71c0-4.93-2.23-21.48,13.86-20.59A54.73,54.73,0,0,1,126.54,233.71Z"/><path class="cls-14" d="M128,248.82c4.47-8.95,16.06-4.55,22.32-2.77C137.41,254.89,128,248.82,128,248.82Z"/><path class="cls-5" d="M111.78,260.55a54.93,54.93,0,0,1,7.39-9.27c2.76-2.85,4.3-.26,1.3,5.38s.8,5.14,2.41,5.44a59.73,59.73,0,0,0,13.61-.51c2.61-.54,7.5-2.71,6.33-.18s-7.82,5.18-12.07,5.87l15.68-4.3c1.54-.42,3,2-1.66,3.68-5.13,1.83-10.48,3.49-10.48,3.49s7.53-2.42,10.48-3.12,5.12-.35.92,1.84-11.77,5.33-15.63,5.7a87.75,87.75,0,0,1-14.7.65c-8-.5-13.28.45-16.77-.65-2.82-.89,4.6-11.59,4.6-11.59a4,4,0,0,0,3.63.43A16.85,16.85,0,0,0,111.78,260.55Z"/><path class="cls-3" d="M157.77,184.15a3.46,3.46,0,1,0,3.46-3.46A3.45,3.45,0,0,0,157.77,184.15Z"/><path class="cls-3" d="M124.54,182.82a3.46,3.46,0,1,0,3.45-3.46A3.46,3.46,0,0,0,124.54,182.82Z"/><path class="cls-3" d="M155.68,208.83a3,3,0,1,0,3-3A3,3,0,0,0,155.68,208.83Z"/><path class="cls-3" d="M124.73,206.41a3,3,0,1,0,3-3A3,3,0,0,0,124.73,206.41Z"/><path class="cls-17" d="M174.38,136.58c-10.93,11.83-27.13,16.35-27.13,16.35l-1-3.49s14.94-17.85,18-21.59C168.05,123.08,174.38,136.58,174.38,136.58Z"/><path class="cls-12" d="M144.13,149.23c-4.78-2-10-3.21-11.14.87-2.11,7.68-14.58,17.55-14.58,17.55s8,1.75,24.66-15.57A6.15,6.15,0,0,0,144.13,149.23Z"/><path class="cls-17" d="M147,149s5.87-2.11,9.26,6.94c2.56,6.83,3.59,19.78,2.26,21.09s-12.84-25.18-13.64-25.62S147,149,147,149Z"/><path class="cls-17" d="M151.55,144c-1.84-.88-8.67-2-9.72.84s-2.21,7.22.18,7.88,6.35-.88,6.35-.88Z"/></g></g></g></svg>