<svg xmlns="http://www.w3.org/2000/svg" viewBox="0 0 182.4 303.33"><defs><style>.cls-1{fill:#3b455a;}.cls-2{fill:#efbfa5;}.cls-3{fill:#7db5db;}.cls-4{fill:#587bc9;}.cls-5{fill:#999;}.cls-6{fill:#5f6568;}.cls-7{fill:#305399;}.cls-10,.cls-8{fill:#fff;}.cls-9{fill:#272525;opacity:0.1;}.cls-10{opacity:0.2;}</style></defs><title>Ресурс 50</title><g id="Слой_2" data-name="Слой 2"><g id="Слой_2-2" data-name="Слой 2"><path class="cls-1" d="M171.24,284.73a4.1,4.1,0,0,1,4,.48,4.16,4.16,0,0,1,1.56,3.52,7.61,7.61,0,0,1-.82,2.52c-1.92,4.17-7.32,13.59-13.51,11.87a4.65,4.65,0,0,1-3.05-5.73C160.18,293.86,166.28,286.28,171.24,284.73Z"/><path class="cls-1" d="M111.2,297.31l8.33-7.68a16.17,16.17,0,0,1,7-2.05,3.84,3.84,0,0,1,3.88,5.35,5.05,5.05,0,0,1-.72,1.17h0c-.25.31-.52.6-.79.89s-.36.39-.57.59c-1.72,1.87-4.6,4.91-5.75,5.6-1.68,1-5.38,3.69-9.74.67l0,0A4.23,4.23,0,0,1,111.2,297.31Z"/><path class="cls-2" d="M117.74,230.37l.67,9.65,3.29,47-3.29,5.46s-.67,4.37,4.37,4c1.5-.1,6.81-6.85,6.81-6.85l-.77-3.09,3.74-35.26,0-10.25,1.79-11.37Z"/><path class="cls-2" d="M137.89,224.74,139,238.63l27.26,49.09s-3.91,6.84-1.43,7.44,9.78-1.48,9.79-9.21c-2.87-9.36-14.13-41.16-14.13-41.16l-5.28-8.2.08-15.42Z"/><path class="cls-3" d="M168.7,178.24c.21-4.09-1.1-14.77-2.44-18.6-4.91-14-5.85-20.84-5.85-32.2s-2.19-46.86-2.19-46.86l-10.28-11-21,.59L115.29,74s-2.47,45.32-3.17,59.93c-.5,10.42-1.22,19.45-2.18,31.53a274.21,274.21,0,0,0,1.46,57.08s.92,9.8,1.33,10.66l.09.45h46.85V216.8q2.33-8.1,4.44-16.27C165.91,193.62,168.3,185.84,168.7,178.24Z"/><path class="cls-4" d="M158.82,72.72l4,4.76s-2.08,42.72-2.4,50,9,36.17,9,36.17l-38.64,5s-5.69-30.9-7.32-46.24,21.74-52.77,21.74-52.77Z"/><path class="cls-4" d="M120.08,72l-7.89,3.74s1.11,46.12-.91,57.84c-1.23,7.14-6,30.26-6,30.26l12.48,4.27s7.68-28.92,9.21-44.27-.14-53.52-.14-53.52Z"/><path class="cls-1" d="M121.61,55.1c-1,4,1.33,7.87,3.39,11.22.84,1.36,2.14,3.26,1,4.82-1.21,1.74-4.22,1.39-5.55.09a8.07,8.07,0,0,1-1.8-3.39c-1.79-5.46-4.29-13.1-3.8-18.84.39-4.6,6-12.77,11.84-9.84a5.93,5.93,0,0,1,2.31,2.5,4.73,4.73,0,0,1,.75,1.87c.28,2.66-2.29,3.35-4,4.78A13.54,13.54,0,0,0,121.61,55.1Z"/><path class="cls-2" d="M131.31,69.33a12.1,12.1,0,0,1-8.86-6.47,21.82,21.82,0,0,1-2.09-10.69c.23-12.2,16.4-12.87,22.69-4.11C148.53,55.7,142.59,70.76,131.31,69.33Z"/><path class="cls-1" d="M142.35,53.82c.13,1.48.88,3,1.09,4.56.38,2.79-.24,6.41.78,9a17.27,17.27,0,0,0,8.38-4.11c2.15-2,1.76-4.94,2.24-7.87a37.62,37.62,0,0,0,.86-8.17c-.85-15-15.82-23.2-29-16.43-5,2.56-7.17,9.06-3.5,13.34,3.94,4.59,12,2.6,16.69,6A8.13,8.13,0,0,1,142.35,53.82Z"/><path class="cls-2" d="M131,68.07c.2.91.4,1.82.59,2.73.09.41.06,1.6.42,1.89a1,1,0,0,0,.71.1c.7-.09,7-.89,6.91-1.29a22,22,0,0,0-.73-3.14c-.27-.82-.37-2.38-.87-3a11.23,11.23,0,0,1-3.42,1.53c-1.21.34-2.43.67-3.65,1Z"/><polygon class="cls-2" points="105.88 14.67 109.72 3.33 119.93 0 121.23 6.82 115.38 13.04 114.15 18.87 105.88 14.67"/><polygon class="cls-4" points="126.65 82.28 105 62.32 118.08 13.32 107.07 11.06 84.16 60.21 86.7 75.9 119.61 102.34 126.65 82.28"/><path class="cls-5" d="M128.87,68.76a9.42,9.42,0,0,1-9.42-9.42h-1.88a11.3,11.3,0,0,0,11.3,11.29Z"/><rect class="cls-6" x="128.54" y="68" width="7.04" height="3.78" rx="1.72" ry="1.72"/><path class="cls-5" d="M119.56,52.42V44.67a15.17,15.17,0,0,1,30.33,0v7.75h3.33V44.61a18.5,18.5,0,0,0-37,0v7.81Z"/><path class="cls-5" d="M157.64,51.05a3.29,3.29,0,0,1,.58,2.18v2.83a3.29,3.29,0,0,1-.58,2.18l-.93,1.1V50Z"/><rect class="cls-6" x="148.43" y="47.69" width="8.28" height="13.91" rx="3.78" ry="3.78" transform="translate(305.14 109.29) rotate(180)"/><path class="cls-5" d="M111.54,51.05a3.34,3.34,0,0,0-.57,2.18v2.83a3.34,3.34,0,0,0,.57,2.18l.94,1.1V50Z"/><rect class="cls-6" x="112.47" y="47.69" width="8.28" height="13.91" rx="3.78" ry="3.78"/><g id="_Группа_" data-name="&lt;Группа&gt;"><circle id="_Контур_" data-name="&lt;Контур&gt;" class="cls-7" cx="82.69" cy="161.71" r="82.69"/></g><path class="cls-8" d="M102.1,106.55q-3.72-3.28-10.29-3.29A21.18,21.18,0,0,0,82,105.55,18,18,0,0,0,75,111.62a14.89,14.89,0,0,0-2.5,8.35,10.74,10.74,0,0,0,3.72,8.43q3.7,3.28,10.42,3.28a21.32,21.32,0,0,0,9.78-2.21,17.38,17.38,0,0,0,6.86-6.07,15,15,0,0,0,2.5-8.28A10.91,10.91,0,0,0,102.1,106.55Z"/><path class="cls-8" d="M100,204.64s-13.16,5.25-12-1.52l9-51.09a10.41,10.41,0,0,0-10.24-12.21H61.77L61,143s9.44.51,8,8.66c-3.28,18.56-9.25,52.39-9.25,52.42A13.61,13.61,0,0,0,64,216.44c5.11,4.64,12.12,4.33,18.31,2.36,2.07-.66,20-8.7,20-8.77Z"/><path class="cls-9" d="M130.45,94.23A82.67,82.67,0,0,1,15.21,209.47,82.67,82.67,0,1,0,130.45,94.23Z"/><path class="cls-10" d="M101.21,91.1h1.11a67.69,67.69,0,0,0-78.1,24.43,1.09,1.09,0,0,0-.75,1.07v0a66.94,66.94,0,0,0-11.66,37.86c0,.31,0,.62,0,.93A94.19,94.19,0,0,1,101.21,91.1Z"/><polygon class="cls-2" points="154.49 146.73 149.62 157.67 139.15 160.04 138.48 153.13 144.87 147.48 146.64 141.78 154.49 146.73"/><polygon class="cls-4" points="149.69 79.82 164.26 111.49 146.64 141.78 153.86 148.48 178.66 117.36 182.4 106.67 162.81 77.48 149.69 79.82"/></g></g></svg>