<svg xmlns="http://www.w3.org/2000/svg" viewBox="0 0 38.38 38.38"><defs><style>.cls-1{fill:#4b4b4b;}</style></defs><title>Ресурс 35</title><g id="Слой_2" data-name="Слой 2"><g id="Слой_2-2" data-name="Слой 2"><path class="cls-1" d="M19.11,38.38H12.17A12,12,0,0,1,0,26.21q0-7,0-14A12,12,0,0,1,12.17,0h14A12,12,0,0,1,38.37,12.17q0,7,0,14A12,12,0,0,1,26.21,38.37Zm.17-34.77h-7a8.39,8.39,0,0,0-8.65,8.65q0,6.93,0,13.86a8.38,8.38,0,0,0,8.65,8.65q6.93,0,13.86,0a8.38,8.38,0,0,0,8.65-8.64q0-6.94,0-13.87a8.38,8.38,0,0,0-8.64-8.65Z"/><path class="cls-1" d="M28.78,19.18a9.59,9.59,0,1,1-9.6-9.58A9.61,9.61,0,0,1,28.78,19.18Zm-3.6,0a6,6,0,1,0-6,6A6.05,6.05,0,0,0,25.18,19.21Z"/><path class="cls-1" d="M30.79,8.89a1.28,1.28,0,0,1-1.34,1.25,1.23,1.23,0,0,1-1.21-1.27A1.28,1.28,0,0,1,29.47,7.6,1.32,1.32,0,0,1,30.79,8.89Z"/></g></g></svg>