<svg xmlns="http://www.w3.org/2000/svg" viewBox="0 0 156.6 404.5"><defs><style>.cls-1{fill:#305399;}.cls-2{opacity:0.1;}.cls-3{fill:#efbfa5;}.cls-4{fill:#7f4b00;}.cls-5{fill:#3b455a;}.cls-6{fill:#fff;}.cls-7{fill:#999;}.cls-8{fill:#5f6568;}</style></defs><title>Ресурс 51</title><g id="Слой_2" data-name="Слой 2"><g id="Слой_2-2" data-name="Слой 2"><path class="cls-1" d="M25.3,134.57a16.82,16.82,0,0,0-13.2-1.17A16.74,16.74,0,0,0,2,141.94,16.62,16.62,0,0,0,.85,155.09a16.77,16.77,0,0,0,8.6,10.07,18.18,18.18,0,0,0,5.15,1.76,16.85,16.85,0,0,0,8.06-.6,16.69,16.69,0,0,0,10.09-8.54,16.61,16.61,0,0,0,1.15-13.15A16.73,16.73,0,0,0,25.3,134.57Z"/><g class="cls-2"><path d="M33.9,144.63a16.73,16.73,0,0,0-8.6-10.06A18,18,0,0,0,21.12,133a17.09,17.09,0,0,1,4.29,21.16,16.69,16.69,0,0,1-10.09,8.54,16.85,16.85,0,0,1-8.06.6l-1-.2a19.07,19.07,0,0,0,3.16,2,18.18,18.18,0,0,0,5.15,1.76,16.85,16.85,0,0,0,8.06-.6,16.69,16.69,0,0,0,10.09-8.54A16.61,16.61,0,0,0,33.9,144.63Z"/></g><path class="cls-1" d="M139.37,40.38c-4.92-13.46-15.23-24.31-30.64-32.25S78.4-1.94,64.4,1.77C52.22,5,42.43,12.35,35.3,23.64a8,8,0,0,0-.95,6.41,8.13,8.13,0,0,0,4.09,5.05l9.18,4.72a8.1,8.1,0,0,0,10.45-2.69c4.06-6.06,9-9.8,15-11.42,7.33-2,15.53-.66,24.37,3.89s14.52,10.52,17,17.77,1.41,15.24-3.05,23.84c-6.14,11.85-13.69,18.07-22.44,18.5-9.21.45-21.39-3.28-36.22-11.1l-4-2A8.11,8.11,0,0,0,37.85,80L20,114.42a8,8,0,0,0,3.48,10.86l9.31,4.79a7.75,7.75,0,0,0,2.32.78,8.11,8.11,0,0,0,8.58-4.23l11.55-22.28a.58.58,0,0,1,.76-.26c17.59,8.47,32.91,11.5,45.52,9C115,110.43,126,100.94,134.31,84.88S144.31,53.91,139.37,40.38Z"/><g class="cls-2"><path d="M139.37,40.38c-4.92-13.46-15.23-24.31-30.64-32.25-9.54-4.91-18.9-7.6-28-8.06A79,79,0,0,1,94.63,5.68c15.41,7.94,25.72,18.79,30.64,32.25s3.23,28.5-5.06,44.5S100.86,108,87.44,110.64a48.16,48.16,0,0,1-12.38.73c9.8,2.68,18.66,3.26,26.48,1.72C115,110.43,126,100.94,134.31,84.88S144.31,53.91,139.37,40.38Z"/></g><polygon class="cls-3" points="35.83 129.97 25.75 122.33 26.52 109.45 33.55 109.92 36.71 118.8 41.02 120.38 43.15 128.25 35.83 129.97"/><polygon class="cls-4" points="133.52 242.34 134.3 309.16 127.17 395.19 117.49 395.19 105.91 315.82 92.66 236.32 133.52 242.34"/><polygon class="cls-5" points="117.55 399.27 128.02 404.5 133.25 399.27 128.02 394.03 117.55 394.03 117.55 399.27"/><polygon class="cls-4" points="67.14 242.34 66.95 281 73.48 395.19 83.16 395.19 99.36 319.41 108.01 236.32 67.14 242.34"/><polygon class="cls-5" points="83.11 399.27 72.64 404.5 67.4 399.27 72.64 394.03 83.11 394.03 83.11 399.27"/><path class="cls-5" d="M57.07,265.62c-.21,6.13-.08,14.34,2.51,14.64A2.47,2.47,0,0,0,61,279.9c4.49-2.18,7.69-5.27,12.12-7.37a54.7,54.7,0,0,1,15.07-4.17,157.83,157.83,0,0,1,23.23-2c6.65-.06,13.56,3,19.85,4.64,2.42.64,4.39,2.41,6.4,3.79,3,2,4.27,2.85,3.86-1.32-.66-6.81-1.35-13.62-2.18-20.41a251.49,251.49,0,0,0-7.8-40.16c-1.47-5-3.16-10-4.86-14.88q-3.09-9-6.19-18c-2.57-7.47-6.9-12.73-14.48-15.35-6.55-2.26-14.69-2.87-21.06.29-7.09,3.51-10.46,15.49-13.9,21.88-3,5.61-6.82,20.9-8,26.95-1.36,7.28-2.61,14.52-3.6,21.74a220.55,220.55,0,0,0-2.09,23.9C57.34,260.24,57.17,262.69,57.07,265.62Z"/><path class="cls-6" d="M92.07,165.94l13.08.13s14,49.07,14.56,57.52,4.05,42,4.05,42-14.49.34-31.18,2.37c-16.33,3.5-17.7,1.43-17.7,1.43S83.69,234,84,223.82c.3-10.4,1.63-44.74,1.63-44.74Z"/><path class="cls-3" d="M95.36,165.82a1.67,1.67,0,0,0,.54.3,2.86,2.86,0,0,0,1.27,0l5.19-.62c-.57-5.3,2.53-6.5,5.55-9.91s2.12-8.11,2-12.34a9,9,0,0,0-.61-3.46c-.87-1.88-2.91-2.91-4.88-3.53A18.43,18.43,0,0,0,89.12,138a8.07,8.07,0,0,0-2.92,3c-1,1.93-.74,4.23-.46,6.38A21.6,21.6,0,0,0,89,156.66c1.74,2.59,5.06,3.83,5.44,6.94A3.55,3.55,0,0,0,95.36,165.82Z"/><path class="cls-5" d="M85.88,143.49c.3,1.33.92,2.68.59,4-2.11-.72-3.5-2.88-4.24-5.08a7.88,7.88,0,0,1-.51-3.11,3.73,3.73,0,0,1,1.38-2.71c1.16-.83,3.25-.5,3.58,1S85.44,141.48,85.88,143.49Z"/><path class="cls-5" d="M74.65,131.79a4.76,4.76,0,0,1,2.08-4c1.23-.83,2.65-1.52,3.4-2.84.58-1,.66-2.29,1.24-3.32,1-1.86,3.29-2.41,5.26-3,4.91-1.57,7.56-3.4,12.76-1.38,3.7,1.44,8.48,1.63,11.92,3.73a12,12,0,0,1,3.65,3.84c3.47,5.43,4.3,13,2.05,18.71a23.33,23.33,0,0,1-1.84,3.55c-1.37,2.23-2.85,5-5.28,6.06-.15-1.05-.93-1.63-1.18-2.66a8.34,8.34,0,0,1-.08-2.29c.15-3,1.07-7.67-1.91-9.15-3.75-1.87-10.8-.18-14.42,1.4-3.2,1.39-8.6,3.21-12,1.71C77.12,140.73,74.54,135.2,74.65,131.79Z"/><path class="cls-5" d="M83.38,150.94c-7.84,7.39-16,14.42-23.76,21.93-4.18-16.3-11.37-31.59-16.33-47.64-4.44-.21-8.88-.43-13.32-.62,2.58,21.06,8.49,41.51,9.75,62.75L54.39,199.8q12.26-7.12,24.5-14.29Q81.1,168.21,83.38,150.94Z"/><path class="cls-7" d="M103.69,157.7a9.69,9.69,0,0,0,9.69-9.69h1.93a11.61,11.61,0,0,1-11.62,11.61Z"/><rect class="cls-8" x="96.79" y="156.92" width="7.24" height="3.89" rx="1.77" ry="1.77" transform="translate(200.82 317.73) rotate(-180)"/><path class="cls-7" d="M113.26,140.89v-8a15.59,15.59,0,0,0-31.18,0v8H78.66v-8a19,19,0,1,1,38,0v8Z"/><path class="cls-7" d="M74.11,139.49a3.4,3.4,0,0,0-.59,2.24v2.91a3.4,3.4,0,0,0,.59,2.24l1,1.13v-9.65Z"/><rect class="cls-8" x="75.07" y="136.03" width="8.51" height="14.31" rx="3.89" ry="3.89"/><path class="cls-7" d="M121.51,139.49a3.4,3.4,0,0,1,.59,2.24v2.91a3.4,3.4,0,0,1-.59,2.24l-1,1.13v-9.65Z"/><rect class="cls-8" x="112.04" y="136.03" width="8.51" height="14.31" rx="3.89" ry="3.89" transform="matrix(-1, 0, 0, -1, 232.59, 286.37)"/><polygon class="cls-3" points="139.27 107.06 136.53 96.01 127.13 92.03 125.34 98.39 130.39 104.75 131.09 110.38 139.27 107.06"/><polygon class="cls-5" points="108.01 165.66 137.43 153.83 128.21 107.45 138.82 106.19 156.6 154.59 152.94 169.25 119.65 191.68 108.01 165.66"/></g></g></svg>