<svg xmlns="http://www.w3.org/2000/svg" viewBox="0 0 29.17 30.27"><defs><style>.cls-1{fill:#736357;}</style></defs><title>Ресурс 1</title><g id="Слой_2" data-name="Слой 2"><g id="Слой_2-2" data-name="Слой 2"><path class="cls-1" d="M21.58,20.12l3.55,3.69c1.18,1.23,2.38,2.45,3.55,3.7a1.61,1.61,0,1,1-2.43,2.09c-1.92-2-3.83-4-5.75-6-.42-.43-.8-1.1-1.3-1.2s-1,.45-1.53.71a12.2,12.2,0,1,1,6.67-11.83,12.06,12.06,0,0,1-2.48,8.38A5.2,5.2,0,0,0,21.58,20.12ZM12.26,3.21a9,9,0,1,0,9,9.08A9,9,0,0,0,12.26,3.21Z"/></g></g></svg>